G04 Generated by Ultiboard 13.0 *
%FSLAX25Y25*%
%MOIN*%

%ADD10C,0.00001*%
%ADD11C,0.00612*%
%ADD12C,0.00787*%
%ADD13C,0.00005*%
%ADD14C,0.00367*%
%ADD15C,0.00800*%
%ADD16C,0.00500*%


G04 ColorRGB FF14FF for the following layer *
%LNSilkscreen Bottom*%
%LPD*%
G54D10*
G54D11*
X147331Y178608D02*
X143394Y178608D01*
X143394Y177040D01*
X144181Y176256D01*
X144575Y176256D01*
X145362Y177040D01*
X145362Y178608D01*
X145362Y178216D02*
X147331Y176256D01*
X144181Y174689D02*
X143394Y173905D01*
X147331Y173905D01*
X147331Y175080D02*
X147331Y172729D01*
X144181Y171553D02*
X143394Y170769D01*
X143394Y169985D01*
X144181Y169201D01*
X146543Y169201D01*
X147331Y169985D01*
X147331Y170769D01*
X146543Y171553D01*
X144181Y171553D01*
X144181Y169201D02*
X146543Y171553D01*
X158331Y177608D02*
X154394Y177608D01*
X154394Y176040D01*
X155181Y175256D01*
X155575Y175256D01*
X156362Y176040D01*
X156362Y177608D01*
X156362Y177216D02*
X158331Y175256D01*
X158331Y172513D02*
X158331Y173297D01*
X157543Y174080D01*
X156756Y174080D01*
X156362Y173689D01*
X155969Y174080D01*
X155181Y174080D01*
X154394Y173297D01*
X154394Y172513D01*
X155181Y171729D01*
X155969Y171729D01*
X156362Y172121D01*
X156756Y171729D01*
X157543Y171729D01*
X158331Y172513D01*
X156362Y173689D02*
X156362Y172121D01*
X261457Y157744D02*
X260669Y156960D01*
X260669Y156176D01*
X261457Y155392D01*
X263819Y155392D01*
X264606Y156176D01*
X264606Y156960D01*
X263819Y157744D01*
X260669Y160095D02*
X262638Y160095D01*
X263819Y161271D01*
X264606Y161271D01*
X264606Y158920D01*
X263819Y158920D01*
X131543Y181256D02*
X132331Y182040D01*
X132331Y182824D01*
X131543Y183608D01*
X129181Y183608D01*
X128394Y182824D01*
X128394Y182040D01*
X129181Y181256D01*
X130756Y177729D02*
X130756Y180080D01*
X128394Y178121D01*
X132331Y178121D01*
X132331Y178513D02*
X132331Y177729D01*
X278331Y178608D02*
X274394Y178608D01*
X274394Y177040D01*
X275181Y176256D01*
X275575Y176256D01*
X276362Y177040D01*
X276362Y178608D01*
X276362Y178216D02*
X278331Y176256D01*
X275181Y175080D02*
X274394Y174297D01*
X274394Y173513D01*
X275181Y172729D01*
X275575Y172729D01*
X278331Y175080D01*
X278331Y172729D01*
X277937Y172729D01*
X275181Y171161D02*
X274394Y170377D01*
X278331Y170377D01*
X278331Y171553D02*
X278331Y169201D01*
X289331Y178608D02*
X285394Y178608D01*
X285394Y177040D01*
X286181Y176256D01*
X286575Y176256D01*
X287362Y177040D01*
X287362Y178608D01*
X287362Y178216D02*
X289331Y176256D01*
X286181Y174689D02*
X285394Y173905D01*
X289331Y173905D01*
X289331Y175080D02*
X289331Y172729D01*
X288543Y171553D02*
X289331Y170769D01*
X289331Y169985D01*
X288543Y169201D01*
X286969Y169201D01*
X286181Y169201D01*
X285394Y169985D01*
X285394Y170769D01*
X286181Y171553D01*
X286969Y171553D01*
X287756Y170769D01*
X287756Y169985D01*
X286969Y169201D01*
G54D12*
X137835Y162000D02*
X142165Y162000D01*
X137835Y162000D02*
X142165Y162000D01*
X153665Y162000D02*
X149335Y162000D01*
X153665Y162000D02*
X149335Y162000D01*
X269835Y162000D02*
X274165Y162000D01*
X269835Y162000D02*
X274165Y162000D01*
X284165Y162000D02*
X279835Y162000D01*
X284165Y162000D02*
X279835Y162000D01*
G54D13*
X188000Y200000D02*
X323000Y200000D01*
X323000Y4000D01*
X188000Y4000D01*
X188000Y200000D01*
X51000Y200000D02*
X186000Y200000D01*
X186000Y4000D01*
X51000Y4000D01*
X51000Y200000D01*
G54D14*
X154784Y13669D02*
X155568Y12882D01*
X155568Y16819D01*
X154392Y16819D02*
X156744Y16819D01*
X286256Y14425D02*
X287040Y13638D01*
X287040Y17575D01*
X285864Y17575D02*
X288216Y17575D01*
X179394Y20608D02*
X183331Y20608D01*
X183331Y18256D01*
X183331Y14729D02*
X183331Y17080D01*
X181362Y17080D01*
X179394Y17080D01*
X179394Y14729D01*
X181362Y17080D02*
X181362Y15513D01*
X183331Y13553D02*
X179394Y13553D01*
X179394Y11201D01*
X181362Y13553D02*
X181362Y11985D01*
X183331Y8850D02*
X179394Y8850D01*
X179394Y10025D02*
X179394Y7674D01*
X317331Y22608D02*
X313394Y22608D01*
X313394Y21040D01*
X314181Y20256D01*
X314575Y20256D01*
X315362Y21040D01*
X315362Y22608D01*
X315362Y22216D02*
X317331Y20256D01*
X317331Y18297D02*
X317331Y17513D01*
X313394Y18297D02*
X313394Y17513D01*
X317331Y17905D02*
X313394Y17905D01*
X315362Y13985D02*
X315362Y13201D01*
X316543Y13201D01*
X317331Y13985D01*
X317331Y14769D01*
X316543Y15553D01*
X314181Y15553D01*
X313394Y14769D01*
X313394Y13201D01*
X317331Y12025D02*
X313394Y12025D01*
X317331Y9674D02*
X313394Y9674D01*
X315362Y12025D02*
X315362Y9674D01*
X317331Y7322D02*
X313394Y7322D01*
X313394Y8498D02*
X313394Y6146D01*
G54D15*
X90679Y26444D02*
X91274Y25333D01*
X91274Y24222D01*
X90679Y23111D01*
X88298Y23111D01*
X90083Y18111D02*
X90083Y21444D01*
X88298Y18667D01*
X91274Y18667D01*
X91274Y19222D02*
X91274Y18111D01*
X93000Y17000D02*
X153000Y17000D01*
X105500Y27000D02*
X143000Y27000D01*
X153000Y27000D02*
X153000Y17000D01*
X143833Y27000D02*
X143833Y23667D01*
X145500Y27000D02*
X153000Y27000D01*
X144667Y26167D02*
X143833Y27000D01*
X103833Y25333D02*
X103761Y25330D01*
X103689Y25321D01*
X103618Y25305D01*
X103548Y25283D01*
X103481Y25255D01*
X103417Y25222D01*
X103355Y25183D01*
X103298Y25138D01*
X103244Y25089D01*
X103195Y25036D01*
X103151Y24978D01*
X103112Y24917D01*
X103078Y24852D01*
X103050Y24785D01*
X103029Y24716D01*
X103013Y24645D01*
X103003Y24573D01*
X103000Y24500D01*
X103003Y24427D01*
X103013Y24355D01*
X103029Y24284D01*
X103050Y24215D01*
X103078Y24148D01*
X103112Y24083D01*
X103151Y24022D01*
X103195Y23964D01*
X103244Y23911D01*
X103298Y23862D01*
X103355Y23817D01*
X103417Y23778D01*
X103481Y23745D01*
X103548Y23717D01*
X103618Y23695D01*
X103689Y23679D01*
X103761Y23670D01*
X103833Y23667D01*
X104667Y25333D02*
X104667Y27000D01*
X104667Y25333D02*
X103833Y25333D01*
X93000Y27000D02*
X93000Y17000D01*
X104667Y23667D02*
X103833Y23667D01*
X93000Y27000D02*
X102167Y27000D01*
X103000Y27000D02*
X104667Y27000D01*
X90679Y13444D02*
X91274Y12333D01*
X91274Y11222D01*
X90679Y10111D01*
X88298Y10111D01*
X88298Y5111D02*
X88298Y8444D01*
X89488Y8444D01*
X89488Y6222D01*
X90083Y5111D01*
X90679Y5111D01*
X91274Y6222D01*
X91274Y8444D01*
X93000Y5000D02*
X153000Y5000D01*
X105500Y15000D02*
X143000Y15000D01*
X153000Y15000D02*
X153000Y5000D01*
X143833Y15000D02*
X143833Y11667D01*
X145500Y15000D02*
X153000Y15000D01*
X144667Y14167D02*
X143833Y15000D01*
X103833Y13333D02*
X103761Y13330D01*
X103689Y13321D01*
X103618Y13305D01*
X103548Y13283D01*
X103481Y13255D01*
X103417Y13222D01*
X103355Y13183D01*
X103298Y13138D01*
X103244Y13089D01*
X103195Y13036D01*
X103151Y12978D01*
X103112Y12917D01*
X103078Y12852D01*
X103050Y12785D01*
X103029Y12716D01*
X103013Y12645D01*
X103003Y12573D01*
X103000Y12500D01*
X103003Y12427D01*
X103013Y12355D01*
X103029Y12284D01*
X103050Y12215D01*
X103078Y12148D01*
X103112Y12083D01*
X103151Y12022D01*
X103195Y11964D01*
X103244Y11911D01*
X103298Y11862D01*
X103355Y11817D01*
X103417Y11778D01*
X103481Y11745D01*
X103548Y11717D01*
X103618Y11695D01*
X103689Y11679D01*
X103761Y11670D01*
X103833Y11667D01*
X104667Y13333D02*
X104667Y15000D01*
X104667Y13333D02*
X103833Y13333D01*
X93000Y15000D02*
X93000Y5000D01*
X104667Y11667D02*
X103833Y11667D01*
X93000Y15000D02*
X102167Y15000D01*
X103000Y15000D02*
X104667Y15000D01*
X222679Y26444D02*
X223274Y25333D01*
X223274Y24222D01*
X222679Y23111D01*
X220298Y23111D01*
X220893Y21444D02*
X220298Y20333D01*
X220298Y19222D01*
X220893Y18111D01*
X221190Y18111D01*
X223274Y21444D01*
X223274Y18111D01*
X222976Y18111D01*
X225000Y17000D02*
X285000Y17000D01*
X237500Y27000D02*
X275000Y27000D01*
X285000Y27000D02*
X285000Y17000D01*
X275833Y27000D02*
X275833Y23667D01*
X277500Y27000D02*
X285000Y27000D01*
X276667Y26167D02*
X275833Y27000D01*
X235833Y25333D02*
X235761Y25330D01*
X235689Y25321D01*
X235618Y25305D01*
X235548Y25283D01*
X235481Y25255D01*
X235417Y25222D01*
X235355Y25183D01*
X235298Y25138D01*
X235244Y25089D01*
X235195Y25036D01*
X235151Y24978D01*
X235112Y24917D01*
X235078Y24852D01*
X235050Y24785D01*
X235029Y24716D01*
X235013Y24645D01*
X235003Y24573D01*
X235000Y24500D01*
X235003Y24427D01*
X235013Y24355D01*
X235029Y24284D01*
X235050Y24215D01*
X235078Y24148D01*
X235112Y24083D01*
X235151Y24022D01*
X235195Y23964D01*
X235244Y23911D01*
X235298Y23862D01*
X235355Y23817D01*
X235417Y23778D01*
X235481Y23745D01*
X235548Y23717D01*
X235618Y23695D01*
X235689Y23679D01*
X235761Y23670D01*
X235833Y23667D01*
X236667Y25333D02*
X236667Y27000D01*
X236667Y25333D02*
X235833Y25333D01*
X225000Y27000D02*
X225000Y17000D01*
X236667Y23667D02*
X235833Y23667D01*
X225000Y27000D02*
X234167Y27000D01*
X235000Y27000D02*
X236667Y27000D01*
X222679Y13444D02*
X223274Y12333D01*
X223274Y11222D01*
X222679Y10111D01*
X220298Y10111D01*
X220595Y7889D02*
X220298Y7333D01*
X220298Y6222D01*
X220893Y5111D01*
X221488Y5111D01*
X221786Y5667D01*
X222083Y5111D01*
X222679Y5111D01*
X223274Y6222D01*
X223274Y7333D01*
X222976Y7889D01*
X221786Y7333D02*
X221786Y5667D01*
X225000Y5000D02*
X285000Y5000D01*
X237500Y15000D02*
X275000Y15000D01*
X285000Y15000D02*
X285000Y5000D01*
X275833Y15000D02*
X275833Y11667D01*
X277500Y15000D02*
X285000Y15000D01*
X276667Y14167D02*
X275833Y15000D01*
X235833Y13333D02*
X235761Y13330D01*
X235689Y13321D01*
X235618Y13305D01*
X235548Y13283D01*
X235481Y13255D01*
X235417Y13222D01*
X235355Y13183D01*
X235298Y13138D01*
X235244Y13089D01*
X235195Y13036D01*
X235151Y12978D01*
X235112Y12917D01*
X235078Y12852D01*
X235050Y12785D01*
X235029Y12716D01*
X235013Y12645D01*
X235003Y12573D01*
X235000Y12500D01*
X235003Y12427D01*
X235013Y12355D01*
X235029Y12284D01*
X235050Y12215D01*
X235078Y12148D01*
X235112Y12083D01*
X235151Y12022D01*
X235195Y11964D01*
X235244Y11911D01*
X235298Y11862D01*
X235355Y11817D01*
X235417Y11778D01*
X235481Y11745D01*
X235548Y11717D01*
X235618Y11695D01*
X235689Y11679D01*
X235761Y11670D01*
X235833Y11667D01*
X236667Y13333D02*
X236667Y15000D01*
X236667Y13333D02*
X235833Y13333D01*
X225000Y15000D02*
X225000Y5000D01*
X236667Y11667D02*
X235833Y11667D01*
X225000Y15000D02*
X234167Y15000D01*
X235000Y15000D02*
X236667Y15000D01*
G54D16*
X-1500Y-1500D02*
X-1500Y26800D01*
X-1500Y-1500D02*
X38800Y-1500D01*
X401500Y-1500D02*
X361200Y-1500D01*
X401500Y-1500D02*
X401500Y26800D01*
X401500Y281500D02*
X401500Y253200D01*
X401500Y281500D02*
X361200Y281500D01*
X-1500Y281500D02*
X38800Y281500D01*
X-1500Y281500D02*
X-1500Y253200D01*
X-21185Y-1500D02*
X-60555Y-1500D01*
X-40870Y-21185D02*
X-40870Y18185D01*
X-55634Y-1500D02*
G75*
D01*
G02X-55634Y-1500I14764J0*
G01*
X421185Y-1500D02*
X460555Y-1500D01*
X440870Y-21185D02*
X440870Y18185D01*
X426106Y-1500D02*
G75*
D01*
G02X426106Y-1500I14764J0*
G01*
X435949Y-1500D02*
G75*
D01*
G02X435949Y-1500I4921J0*
G01*
X-21185Y281500D02*
X-60555Y281500D01*
X-40870Y261815D02*
X-40870Y301185D01*
X-55634Y281500D02*
G75*
D01*
G02X-55634Y281500I14764J0*
G01*
X-50713Y281500D02*
G75*
D01*
G02X-50713Y281500I9843J0*
G01*
X-45791Y281500D02*
G75*
D01*
G02X-45791Y281500I4921J0*
G01*

M02*
