G04 Generated by Ultiboard 13.0 *
%FSLAX25Y25*%
%MOIN*%

%ADD10C,0.00001*%
%ADD11C,0.01000*%
%ADD12C,0.00500*%
%ADD13C,0.06334*%
%ADD14R,0.02083X0.02083*%
%ADD15C,0.03917*%
%ADD16C,0.08000*%


G04 ColorRGB 0000FF for the following layer *
%LNCopper Bottom*%
%LPD*%
G54D10*
G36*
X16364Y18345D02*
X16364Y18345D01*
X13655Y18345D01*
X13655Y16677D01*
X10345Y16677D01*
X10345Y18345D01*
X7636Y18345D01*
G74*
D01*
G03X8723Y16677I4364J1655*
G01*
X8723Y16677D01*
X5277Y16677D01*
G75*
D01*
G03X-1277Y16677I-3277J3323*
G01*
X-1277Y16677D01*
X-23835Y16677D01*
X-27533Y20375D01*
G75*
D01*
G03X-27483Y20959I-3424J587*
G01*
X-27483Y20959D01*
X-27483Y23042D01*
G74*
D01*
G03X-29123Y25993I3475J0*
G01*
X-29123Y25993D01*
X-24416Y25993D01*
G75*
D01*
G03X-19584Y25993I2416J-3993*
G01*
X-19584Y25993D01*
X-14416Y25993D01*
G74*
D01*
G03X-16364Y23655I2416J3993*
G01*
X-16364Y23655D01*
X-13655Y23655D01*
X-13655Y25993D01*
X-10345Y25993D01*
X-10345Y23655D01*
X-7636Y23655D01*
G74*
D01*
G03X-9584Y25993I4364J1655*
G01*
X-9584Y25993D01*
X69584Y25993D01*
G75*
D01*
G03X74416Y25993I2416J-3993*
G01*
X74416Y25993D01*
X78493Y25993D01*
X78493Y-25993D01*
X74307Y-25993D01*
G74*
D01*
G03X77143Y-22950I2307J4993*
G01*
X77143Y-22950D01*
X73950Y-22950D01*
X73950Y-25993D01*
X70050Y-25993D01*
X70050Y-22950D01*
X66857Y-22950D01*
G74*
D01*
G03X69693Y-25993I5143J1950*
G01*
X69693Y-25993D01*
X-78493Y-25993D01*
X-78493Y25993D01*
X-34877Y25993D01*
G74*
D01*
G03X-36517Y23042I1835J2951*
G01*
X-36517Y23042D01*
X-36517Y20959D01*
G75*
D01*
G03X-33041Y17483I3476J0*
G01*
X-33041Y17483D01*
X-30958Y17483D01*
G74*
D01*
G03X-30375Y17533I4J3476*
G01*
X-30375Y17533D01*
X-26090Y13248D01*
G74*
D01*
G03X-25647Y12912I1424J1417*
G01*
G75*
D01*
G03X-18163Y12657I3647J-2910*
G01*
X-18163Y12657D01*
X-15837Y12657D01*
G74*
D01*
G03X-16364Y11655I3837J2657*
G01*
X-16364Y11655D01*
X-13655Y11655D01*
X-13655Y12657D01*
X-10345Y12657D01*
X-10345Y11655D01*
X-7636Y11655D01*
G74*
D01*
G03X-8163Y12657I4364J1655*
G01*
X-8163Y12657D01*
X58835Y12657D01*
X67591Y3901D01*
G74*
D01*
G03X67483Y3042I3367J860*
G01*
X67483Y3042D01*
X67483Y959D01*
G75*
D01*
G03X70959Y-2517I3476J0*
G01*
X70959Y-2517D01*
X73042Y-2517D01*
G74*
D01*
G03X76517Y958I1J3476*
G01*
X76517Y958D01*
X76517Y3042D01*
G74*
D01*
G03X73042Y6517I3475J0*
G01*
X73042Y6517D01*
X70959Y6517D01*
G75*
D01*
G03X70671Y6505I1J-3475*
G01*
X70671Y6505D01*
X61090Y16086D01*
G74*
D01*
G03X59667Y16677I1423J1418*
G01*
X59667Y16677D01*
X45663Y16677D01*
G75*
D01*
G03X46517Y18959I-2621J2282*
G01*
X46517Y18959D01*
X46517Y21042D01*
G74*
D01*
G03X43042Y24517I3475J0*
G01*
X43042Y24517D01*
X40959Y24517D01*
G75*
D01*
G03X37483Y21042I-1J-3475*
G01*
X37483Y21042D01*
X37483Y18959D01*
G75*
D01*
G03X38337Y16677I3476J0*
G01*
X38337Y16677D01*
X35277Y16677D01*
G75*
D01*
G03X28723Y16677I-3277J3323*
G01*
X28723Y16677D01*
X25277Y16677D01*
G74*
D01*
G03X26364Y18345I3277J3323*
G01*
X26364Y18345D01*
X23655Y18345D01*
X23655Y16677D01*
X20345Y16677D01*
X20345Y18345D01*
X17636Y18345D01*
G74*
D01*
G03X18723Y16677I4364J1655*
G01*
X18723Y16677D01*
X15277Y16677D01*
G74*
D01*
G03X16364Y18345I3277J3323*
G01*
D02*
G37*
%LPC*%
G36*
X12981Y18551D02*
G75*
D01*
G03X12981Y18551I-981J1449*
G01*
D02*
G37*
G36*
X7636Y21655D02*
X7636Y21655D01*
X10345Y21655D01*
X10345Y24364D01*
G74*
D01*
G03X7636Y21655I1655J4364*
G01*
D02*
G37*
G36*
X-13655Y17636D02*
X-13655Y17636D01*
X-13655Y20345D01*
X-16364Y20345D01*
G74*
D01*
G03X-13655Y17636I4364J1655*
G01*
D02*
G37*
G36*
X-7636Y20345D02*
X-7636Y20345D01*
X-10345Y20345D01*
X-10345Y17636D01*
G74*
D01*
G03X-7636Y20345I1655J4364*
G01*
D02*
G37*
G36*
X-13750Y22000D02*
G75*
D01*
G03X-13750Y22000I1750J0*
G01*
D02*
G37*
G36*
X69250Y-21000D02*
G75*
D01*
G03X69250Y-21000I2750J0*
G01*
D02*
G37*
G36*
X66857Y-19050D02*
X66857Y-19050D01*
X70050Y-19050D01*
X70050Y-15857D01*
G74*
D01*
G03X66857Y-19050I1950J5143*
G01*
D02*
G37*
G36*
X73950Y-15857D02*
X73950Y-15857D01*
X73950Y-19050D01*
X77143Y-19050D01*
G74*
D01*
G03X73950Y-15857I5143J1950*
G01*
D02*
G37*
G36*
X66500Y-9000D02*
G75*
D01*
G03X66500Y-9000I5500J0*
G01*
D02*
G37*
G36*
X67333Y12000D02*
G75*
D01*
G03X67333Y12000I4667J0*
G01*
D02*
G37*
G36*
X13655Y24364D02*
X13655Y24364D01*
X13655Y21655D01*
X16364Y21655D01*
G74*
D01*
G03X13655Y24364I4364J1655*
G01*
D02*
G37*
G36*
X17636Y21655D02*
X17636Y21655D01*
X20345Y21655D01*
X20345Y24364D01*
G74*
D01*
G03X17636Y21655I1655J4364*
G01*
D02*
G37*
G36*
X20250Y20000D02*
G75*
D01*
G03X20250Y20000I1750J0*
G01*
D02*
G37*
G36*
X23655Y24364D02*
X23655Y24364D01*
X23655Y21655D01*
X26364Y21655D01*
G74*
D01*
G03X23655Y24364I4364J1655*
G01*
D02*
G37*
G36*
X-13750Y10000D02*
G75*
D01*
G03X-13750Y10000I1750J0*
G01*
D02*
G37*
G36*
X-36517Y11042D02*
X-36517Y11042D01*
X-36517Y8959D01*
G75*
D01*
G03X-33041Y5483I3476J0*
G01*
X-33041Y5483D01*
X-30958Y5483D01*
G75*
D01*
G03X-27483Y8959I-1J3476*
G01*
X-27483Y8959D01*
X-27483Y11042D01*
G74*
D01*
G03X-30958Y14517I3475J0*
G01*
X-30958Y14517D01*
X-33041Y14517D01*
G75*
D01*
G03X-36517Y11042I-1J-3475*
G01*
D02*
G37*
G36*
X-73041Y-24517D02*
X-73041Y-24517D01*
X-70958Y-24517D01*
G75*
D01*
G03X-67483Y-21041I-1J3476*
G01*
X-67483Y-21041D01*
X-67483Y-18958D01*
G74*
D01*
G03X-70958Y-15483I3475J0*
G01*
X-70958Y-15483D01*
X-73041Y-15483D01*
G75*
D01*
G03X-76517Y-18958I-1J-3475*
G01*
X-76517Y-18958D01*
X-76517Y-21041D01*
G75*
D01*
G03X-73041Y-24517I3476J0*
G01*
D02*
G37*
G36*
X-66667Y-20000D02*
G75*
D01*
G03X-66667Y-20000I4667J0*
G01*
D02*
G37*
G36*
X-36517Y-12959D02*
X-36517Y-12959D01*
X-36517Y-15042D01*
G75*
D01*
G03X-33041Y-18517I3476J1*
G01*
X-33041Y-18517D01*
X-30958Y-18517D01*
G75*
D01*
G03X-27483Y-15042I0J3475*
G01*
X-27483Y-15042D01*
X-27483Y-12959D01*
G74*
D01*
G03X-30958Y-9483I3475J1*
G01*
X-30958Y-9483D01*
X-33041Y-9483D01*
G75*
D01*
G03X-36517Y-12959I0J-3476*
G01*
D02*
G37*
G36*
X-26667Y-14000D02*
G75*
D01*
G03X-26667Y-14000I4667J0*
G01*
D02*
G37*
G36*
X-13655Y-18364D02*
X-13655Y-18364D01*
X-13655Y-15655D01*
X-16364Y-15655D01*
G74*
D01*
G03X-13655Y-18364I4364J1655*
G01*
D02*
G37*
G36*
X-13750Y-14000D02*
G75*
D01*
G03X-13750Y-14000I1750J0*
G01*
D02*
G37*
G36*
X-7636Y-15655D02*
X-7636Y-15655D01*
X-10345Y-15655D01*
X-10345Y-18364D01*
G74*
D01*
G03X-7636Y-15655I1655J4364*
G01*
D02*
G37*
G36*
X-10345Y-9636D02*
X-10345Y-9636D01*
X-10345Y-12345D01*
X-7636Y-12345D01*
G74*
D01*
G03X-10345Y-9636I4364J1655*
G01*
D02*
G37*
G36*
X-16364Y-12345D02*
X-16364Y-12345D01*
X-13655Y-12345D01*
X-13655Y-9636D01*
G74*
D01*
G03X-16364Y-12345I1655J4364*
G01*
D02*
G37*
G36*
X-76667Y-10000D02*
G75*
D01*
G03X-76667Y-10000I4667J0*
G01*
D02*
G37*
G36*
X-66667Y-10000D02*
G75*
D01*
G03X-66667Y-10000I4667J0*
G01*
D02*
G37*
G36*
X-73750Y0D02*
G75*
D01*
G03X-73750Y0I1750J0*
G01*
D02*
G37*
G36*
X-73655Y-4364D02*
X-73655Y-4364D01*
X-73655Y-1655D01*
X-76364Y-1655D01*
G74*
D01*
G03X-73655Y-4364I4364J1655*
G01*
D02*
G37*
G36*
X-76364Y1655D02*
X-76364Y1655D01*
X-73655Y1655D01*
X-73655Y4364D01*
G74*
D01*
G03X-76364Y1655I1655J4364*
G01*
D02*
G37*
G36*
X-67636Y-1655D02*
X-67636Y-1655D01*
X-70345Y-1655D01*
X-70345Y-4364D01*
G74*
D01*
G03X-67636Y-1655I1655J4364*
G01*
D02*
G37*
G36*
X-70345Y4364D02*
X-70345Y4364D01*
X-70345Y1655D01*
X-67636Y1655D01*
G74*
D01*
G03X-70345Y4364I4364J1655*
G01*
D02*
G37*
G36*
X-63750Y0D02*
G75*
D01*
G03X-63750Y0I1750J0*
G01*
D02*
G37*
G36*
X-63655Y-4364D02*
X-63655Y-4364D01*
X-63655Y-1655D01*
X-66364Y-1655D01*
G74*
D01*
G03X-63655Y-4364I4364J1655*
G01*
D02*
G37*
G36*
X-66364Y1655D02*
X-66364Y1655D01*
X-63655Y1655D01*
X-63655Y4364D01*
G74*
D01*
G03X-66364Y1655I1655J4364*
G01*
D02*
G37*
G36*
X-57636Y-1655D02*
X-57636Y-1655D01*
X-60345Y-1655D01*
X-60345Y-4364D01*
G74*
D01*
G03X-57636Y-1655I1655J4364*
G01*
D02*
G37*
G36*
X-60345Y4364D02*
X-60345Y4364D01*
X-60345Y1655D01*
X-57636Y1655D01*
G74*
D01*
G03X-60345Y4364I4364J1655*
G01*
D02*
G37*
G36*
X-36517Y-958D02*
X-36517Y-958D01*
X-36517Y-3041D01*
G75*
D01*
G03X-33041Y-6517I3476J0*
G01*
X-33041Y-6517D01*
X-30958Y-6517D01*
G75*
D01*
G03X-27483Y-3041I-1J3476*
G01*
X-27483Y-3041D01*
X-27483Y-958D01*
G74*
D01*
G03X-30958Y2517I3475J0*
G01*
X-30958Y2517D01*
X-33041Y2517D01*
G75*
D01*
G03X-36517Y-958I-1J-3475*
G01*
D02*
G37*
G36*
X-7636Y8345D02*
X-7636Y8345D01*
X-10345Y8345D01*
X-10345Y5636D01*
G74*
D01*
G03X-7636Y8345I1655J4364*
G01*
D02*
G37*
G36*
X-13655Y5636D02*
X-13655Y5636D01*
X-13655Y8345D01*
X-16364Y8345D01*
G74*
D01*
G03X-13655Y5636I4364J1655*
G01*
D02*
G37*
G36*
X-26667Y-2000D02*
G75*
D01*
G03X-26667Y-2000I4667J0*
G01*
D02*
G37*
G36*
X-13655Y-6364D02*
X-13655Y-6364D01*
X-13655Y-3655D01*
X-16364Y-3655D01*
G74*
D01*
G03X-13655Y-6364I4364J1655*
G01*
D02*
G37*
G36*
X-13750Y-2000D02*
G75*
D01*
G03X-13750Y-2000I1750J0*
G01*
D02*
G37*
G36*
X-7636Y-3655D02*
X-7636Y-3655D01*
X-10345Y-3655D01*
X-10345Y-6364D01*
G74*
D01*
G03X-7636Y-3655I1655J4364*
G01*
D02*
G37*
G36*
X-10345Y2364D02*
X-10345Y2364D01*
X-10345Y-345D01*
X-7636Y-345D01*
G74*
D01*
G03X-10345Y2364I4364J1655*
G01*
D02*
G37*
G36*
X-16364Y-345D02*
X-16364Y-345D01*
X-13655Y-345D01*
X-13655Y2364D01*
G74*
D01*
G03X-16364Y-345I1655J4364*
G01*
D02*
G37*
%LPD*%
G54D11*
X12981Y18551D02*
G75*
D01*
G03X12981Y18551I-981J1449*
G01*
X7636Y21655D02*
X10345Y21655D01*
X10345Y24364D01*
G74*
D01*
G03X7636Y21655I1655J4364*
G01*
X-13655Y17636D02*
X-13655Y20345D01*
X-16364Y20345D01*
G74*
D01*
G03X-13655Y17636I4364J1655*
G01*
X-7636Y20345D02*
X-10345Y20345D01*
X-10345Y17636D01*
G74*
D01*
G03X-7636Y20345I1655J4364*
G01*
X-13750Y22000D02*
G75*
D01*
G03X-13750Y22000I1750J0*
G01*
X69250Y-21000D02*
G75*
D01*
G03X69250Y-21000I2750J0*
G01*
X66857Y-19050D02*
X70050Y-19050D01*
X70050Y-15857D01*
G74*
D01*
G03X66857Y-19050I1950J5143*
G01*
X73950Y-15857D02*
X73950Y-19050D01*
X77143Y-19050D01*
G74*
D01*
G03X73950Y-15857I5143J1950*
G01*
X66500Y-9000D02*
G75*
D01*
G03X66500Y-9000I5500J0*
G01*
X67333Y12000D02*
G75*
D01*
G03X67333Y12000I4667J0*
G01*
X13655Y24364D02*
X13655Y21655D01*
X16364Y21655D01*
G74*
D01*
G03X13655Y24364I4364J1655*
G01*
X17636Y21655D02*
X20345Y21655D01*
X20345Y24364D01*
G74*
D01*
G03X17636Y21655I1655J4364*
G01*
X20250Y20000D02*
G75*
D01*
G03X20250Y20000I1750J0*
G01*
X23655Y24364D02*
X23655Y21655D01*
X26364Y21655D01*
G74*
D01*
G03X23655Y24364I4364J1655*
G01*
X-13750Y10000D02*
G75*
D01*
G03X-13750Y10000I1750J0*
G01*
X-36517Y11042D02*
X-36517Y8959D01*
G75*
D01*
G03X-33041Y5483I3476J0*
G01*
X-30958Y5483D01*
G75*
D01*
G03X-27483Y8959I-1J3476*
G01*
X-27483Y11042D01*
G74*
D01*
G03X-30958Y14517I3475J0*
G01*
X-33041Y14517D01*
G75*
D01*
G03X-36517Y11042I-1J-3475*
G01*
X-73041Y-24517D02*
X-70958Y-24517D01*
G75*
D01*
G03X-67483Y-21041I-1J3476*
G01*
X-67483Y-18958D01*
G74*
D01*
G03X-70958Y-15483I3475J0*
G01*
X-73041Y-15483D01*
G75*
D01*
G03X-76517Y-18958I-1J-3475*
G01*
X-76517Y-21041D01*
G75*
D01*
G03X-73041Y-24517I3476J0*
G01*
X-66667Y-20000D02*
G75*
D01*
G03X-66667Y-20000I4667J0*
G01*
X-36517Y-12959D02*
X-36517Y-15042D01*
G75*
D01*
G03X-33041Y-18517I3476J1*
G01*
X-30958Y-18517D01*
G75*
D01*
G03X-27483Y-15042I0J3475*
G01*
X-27483Y-12959D01*
G74*
D01*
G03X-30958Y-9483I3475J1*
G01*
X-33041Y-9483D01*
G75*
D01*
G03X-36517Y-12959I0J-3476*
G01*
X-26667Y-14000D02*
G75*
D01*
G03X-26667Y-14000I4667J0*
G01*
X-13655Y-18364D02*
X-13655Y-15655D01*
X-16364Y-15655D01*
G74*
D01*
G03X-13655Y-18364I4364J1655*
G01*
X-13750Y-14000D02*
G75*
D01*
G03X-13750Y-14000I1750J0*
G01*
X-7636Y-15655D02*
X-10345Y-15655D01*
X-10345Y-18364D01*
G74*
D01*
G03X-7636Y-15655I1655J4364*
G01*
X-10345Y-9636D02*
X-10345Y-12345D01*
X-7636Y-12345D01*
G74*
D01*
G03X-10345Y-9636I4364J1655*
G01*
X-16364Y-12345D02*
X-13655Y-12345D01*
X-13655Y-9636D01*
G74*
D01*
G03X-16364Y-12345I1655J4364*
G01*
X-76667Y-10000D02*
G75*
D01*
G03X-76667Y-10000I4667J0*
G01*
X-66667Y-10000D02*
G75*
D01*
G03X-66667Y-10000I4667J0*
G01*
X-73750Y0D02*
G75*
D01*
G03X-73750Y0I1750J0*
G01*
X-73655Y-4364D02*
X-73655Y-1655D01*
X-76364Y-1655D01*
G74*
D01*
G03X-73655Y-4364I4364J1655*
G01*
X-76364Y1655D02*
X-73655Y1655D01*
X-73655Y4364D01*
G74*
D01*
G03X-76364Y1655I1655J4364*
G01*
X-67636Y-1655D02*
X-70345Y-1655D01*
X-70345Y-4364D01*
G74*
D01*
G03X-67636Y-1655I1655J4364*
G01*
X-70345Y4364D02*
X-70345Y1655D01*
X-67636Y1655D01*
G74*
D01*
G03X-70345Y4364I4364J1655*
G01*
X-63750Y0D02*
G75*
D01*
G03X-63750Y0I1750J0*
G01*
X-63655Y-4364D02*
X-63655Y-1655D01*
X-66364Y-1655D01*
G74*
D01*
G03X-63655Y-4364I4364J1655*
G01*
X-66364Y1655D02*
X-63655Y1655D01*
X-63655Y4364D01*
G74*
D01*
G03X-66364Y1655I1655J4364*
G01*
X-57636Y-1655D02*
X-60345Y-1655D01*
X-60345Y-4364D01*
G74*
D01*
G03X-57636Y-1655I1655J4364*
G01*
X-60345Y4364D02*
X-60345Y1655D01*
X-57636Y1655D01*
G74*
D01*
G03X-60345Y4364I4364J1655*
G01*
X-36517Y-958D02*
X-36517Y-3041D01*
G75*
D01*
G03X-33041Y-6517I3476J0*
G01*
X-30958Y-6517D01*
G75*
D01*
G03X-27483Y-3041I-1J3476*
G01*
X-27483Y-958D01*
G74*
D01*
G03X-30958Y2517I3475J0*
G01*
X-33041Y2517D01*
G75*
D01*
G03X-36517Y-958I-1J-3475*
G01*
X-7636Y8345D02*
X-10345Y8345D01*
X-10345Y5636D01*
G74*
D01*
G03X-7636Y8345I1655J4364*
G01*
X-13655Y5636D02*
X-13655Y8345D01*
X-16364Y8345D01*
G74*
D01*
G03X-13655Y5636I4364J1655*
G01*
X-26667Y-2000D02*
G75*
D01*
G03X-26667Y-2000I4667J0*
G01*
X-13655Y-6364D02*
X-13655Y-3655D01*
X-16364Y-3655D01*
G74*
D01*
G03X-13655Y-6364I4364J1655*
G01*
X-13750Y-2000D02*
G75*
D01*
G03X-13750Y-2000I1750J0*
G01*
X-7636Y-3655D02*
X-10345Y-3655D01*
X-10345Y-6364D01*
G74*
D01*
G03X-7636Y-3655I1655J4364*
G01*
X-10345Y2364D02*
X-10345Y-345D01*
X-7636Y-345D01*
G74*
D01*
G03X-10345Y2364I4364J1655*
G01*
X-16364Y-345D02*
X-13655Y-345D01*
X-13655Y2364D01*
G74*
D01*
G03X-16364Y-345I1655J4364*
G01*
X16364Y18345D02*
X13655Y18345D01*
X13655Y16677D01*
X10345Y16677D01*
X10345Y18345D01*
X7636Y18345D01*
G74*
D01*
G03X8723Y16677I4364J1655*
G01*
X5277Y16677D01*
G75*
D01*
G03X-1277Y16677I-3277J3323*
G01*
X-23835Y16677D01*
X-27533Y20375D01*
G75*
D01*
G03X-27483Y20959I-3424J587*
G01*
X-27483Y23042D01*
G74*
D01*
G03X-29123Y25993I3475J0*
G01*
X-24416Y25993D01*
G75*
D01*
G03X-19584Y25993I2416J-3993*
G01*
X-14416Y25993D01*
G74*
D01*
G03X-16364Y23655I2416J3993*
G01*
X-13655Y23655D01*
X-13655Y25993D01*
X-10345Y25993D01*
X-10345Y23655D01*
X-7636Y23655D01*
G74*
D01*
G03X-9584Y25993I4364J1655*
G01*
X69584Y25993D01*
G75*
D01*
G03X74416Y25993I2416J-3993*
G01*
X78493Y25993D01*
X78493Y-25993D01*
X74307Y-25993D01*
G74*
D01*
G03X77143Y-22950I2307J4993*
G01*
X73950Y-22950D01*
X73950Y-25993D01*
X70050Y-25993D01*
X70050Y-22950D01*
X66857Y-22950D01*
G74*
D01*
G03X69693Y-25993I5143J1950*
G01*
X-78493Y-25993D01*
X-78493Y25993D01*
X-34877Y25993D01*
G74*
D01*
G03X-36517Y23042I1835J2951*
G01*
X-36517Y20959D01*
G75*
D01*
G03X-33041Y17483I3476J0*
G01*
X-30958Y17483D01*
G74*
D01*
G03X-30375Y17533I4J3476*
G01*
X-26090Y13248D01*
G74*
D01*
G03X-25647Y12912I1424J1417*
G01*
G75*
D01*
G03X-18163Y12657I3647J-2910*
G01*
X-15837Y12657D01*
G74*
D01*
G03X-16364Y11655I3837J2657*
G01*
X-13655Y11655D01*
X-13655Y12657D01*
X-10345Y12657D01*
X-10345Y11655D01*
X-7636Y11655D01*
G74*
D01*
G03X-8163Y12657I4364J1655*
G01*
X58835Y12657D01*
X67591Y3901D01*
G74*
D01*
G03X67483Y3042I3367J860*
G01*
X67483Y959D01*
G75*
D01*
G03X70959Y-2517I3476J0*
G01*
X73042Y-2517D01*
G74*
D01*
G03X76517Y958I1J3476*
G01*
X76517Y3042D01*
G74*
D01*
G03X73042Y6517I3475J0*
G01*
X70959Y6517D01*
G75*
D01*
G03X70671Y6505I1J-3475*
G01*
X61090Y16086D01*
G74*
D01*
G03X59667Y16677I1423J1418*
G01*
X45663Y16677D01*
G75*
D01*
G03X46517Y18959I-2621J2282*
G01*
X46517Y21042D01*
G74*
D01*
G03X43042Y24517I3475J0*
G01*
X40959Y24517D01*
G75*
D01*
G03X37483Y21042I-1J-3475*
G01*
X37483Y18959D01*
G75*
D01*
G03X38337Y16677I3476J0*
G01*
X35277Y16677D01*
G75*
D01*
G03X28723Y16677I-3277J3323*
G01*
X25277Y16677D01*
G74*
D01*
G03X26364Y18345I3277J3323*
G01*
X23655Y18345D01*
X23655Y16677D01*
X20345Y16677D01*
X20345Y18345D01*
X17636Y18345D01*
G74*
D01*
G03X18723Y16677I4364J1655*
G01*
X15277Y16677D01*
G74*
D01*
G03X16364Y18345I3277J3323*
G01*
X-32000Y22000D02*
X-24667Y14667D01*
X59667Y14667D02*
X72000Y2334D01*
X72000Y2000D01*
X-24667Y14667D02*
X59667Y14667D01*
G54D12*
X-81500Y-29000D02*
X-81500Y-23200D01*
X-81500Y-29000D02*
X-65200Y-29000D01*
X81500Y-29000D02*
X65200Y-29000D01*
X81500Y-29000D02*
X81500Y-23200D01*
X81500Y29000D02*
X81500Y23200D01*
X81500Y29000D02*
X65200Y29000D01*
X-81500Y29000D02*
X-65200Y29000D01*
X-81500Y29000D02*
X-81500Y23200D01*
X-101185Y-29000D02*
X-140555Y-29000D01*
X-120870Y-48685D02*
X-120870Y-9315D01*
X-135634Y-29000D02*
G75*
D01*
G02X-135634Y-29000I14764J0*
G01*
X101185Y-29000D02*
X140555Y-29000D01*
X120870Y-48685D02*
X120870Y-9315D01*
X106106Y-29000D02*
G75*
D01*
G02X106106Y-29000I14764J0*
G01*
X115949Y-29000D02*
G75*
D01*
G02X115949Y-29000I4921J0*
G01*
X-101185Y29000D02*
X-140555Y29000D01*
X-120870Y9315D02*
X-120870Y48685D01*
X-135634Y29000D02*
G75*
D01*
G02X-135634Y29000I14764J0*
G01*
X-130713Y29000D02*
G75*
D01*
G02X-130713Y29000I9843J0*
G01*
X-125791Y29000D02*
G75*
D01*
G02X-125791Y29000I4921J0*
G01*
G54D13*
X-62000Y-20000D03*
X-62000Y0D03*
X-72000Y0D03*
X-62000Y-10000D03*
X-72000Y-10000D03*
X-22000Y-14000D03*
X-12000Y-14000D03*
X-22000Y10000D03*
X-12000Y10000D03*
X-22000Y-2000D03*
X-12000Y-2000D03*
X-22000Y22000D03*
X-12000Y22000D03*
X32000Y20000D03*
X22000Y20000D03*
X2000Y20000D03*
X12000Y20000D03*
X72000Y12000D03*
X72000Y22000D03*
G54D14*
X-72000Y-20000D03*
X-32000Y-14000D03*
X-32000Y10000D03*
X-32000Y-2000D03*
X-32000Y22000D03*
X42000Y20000D03*
X72000Y2000D03*
G54D15*
X-73041Y-21041D02*
X-70959Y-21041D01*
X-70959Y-18959D01*
X-73041Y-18959D01*
X-73041Y-21041D01*D02*
X-33041Y-15041D02*
X-30959Y-15041D01*
X-30959Y-12959D01*
X-33041Y-12959D01*
X-33041Y-15041D01*D02*
X-33041Y8959D02*
X-30959Y8959D01*
X-30959Y11041D01*
X-33041Y11041D01*
X-33041Y8959D01*D02*
X-33041Y-3041D02*
X-30959Y-3041D01*
X-30959Y-959D01*
X-33041Y-959D01*
X-33041Y-3041D01*D02*
X-33041Y20959D02*
X-30959Y20959D01*
X-30959Y23041D01*
X-33041Y23041D01*
X-33041Y20959D01*D02*
X40959Y18959D02*
X43041Y18959D01*
X43041Y21041D01*
X40959Y21041D01*
X40959Y18959D01*D02*
X70959Y959D02*
X73041Y959D01*
X73041Y3041D01*
X70959Y3041D01*
X70959Y959D01*D02*
G54D16*
X72000Y-9000D03*
X72000Y-21000D03*

M02*
