M48
INCH,TZ
VER,1
FMAT,2
DETECT,ON
ATC,ON
T1C0.03500
T2C0.03917
T3C0.05500
%
T1
X-0.62000Y-0.20000
Y0.00000
X-0.72000
X-0.62000Y-0.10000
X-0.72000
X-0.22000Y-0.14000
X-0.12000
X-0.22000Y0.10000
X-0.12000
X-0.22000Y-0.02000
X-0.12000
X-0.22000Y0.22000
X-0.12000
X0.32000Y0.20000
X0.22000
X0.02000
X0.12000
X0.72000Y0.12000
Y0.22000
T2
X-0.72000Y-0.20000
X-0.32000Y-0.14000
Y0.10000
Y-0.02000
Y0.22000
X0.42000Y0.20000
X0.72000Y0.02000
T3
X0.72000Y-0.09000
Y-0.21000
M30
