G04 Generated by Ultiboard 13.0 *
%FSLAX25Y25*%
%MOIN*%

%ADD10C,0.00001*%
%ADD11C,0.00500*%
%ADD12C,0.06334*%
%ADD13R,0.02083X0.02083*%
%ADD14C,0.03917*%
%ADD15C,0.08000*%


G04 ColorRGB FF00CC for the following layer *
%LNSolder Mask Top*%
%LPD*%
G54D10*
G54D11*
X-81500Y-29000D02*
X-81500Y-23200D01*
X-81500Y-29000D02*
X-65200Y-29000D01*
X81500Y-29000D02*
X65200Y-29000D01*
X81500Y-29000D02*
X81500Y-23200D01*
X81500Y29000D02*
X81500Y23200D01*
X81500Y29000D02*
X65200Y29000D01*
X-81500Y29000D02*
X-65200Y29000D01*
X-81500Y29000D02*
X-81500Y23200D01*
X-101185Y-29000D02*
X-140555Y-29000D01*
X-120870Y-48685D02*
X-120870Y-9315D01*
X-135634Y-29000D02*
G75*
D01*
G02X-135634Y-29000I14764J0*
G01*
X101185Y-29000D02*
X140555Y-29000D01*
X120870Y-48685D02*
X120870Y-9315D01*
X106106Y-29000D02*
G75*
D01*
G02X106106Y-29000I14764J0*
G01*
X115949Y-29000D02*
G75*
D01*
G02X115949Y-29000I4921J0*
G01*
X-101185Y29000D02*
X-140555Y29000D01*
X-120870Y9315D02*
X-120870Y48685D01*
X-135634Y29000D02*
G75*
D01*
G02X-135634Y29000I14764J0*
G01*
X-130713Y29000D02*
G75*
D01*
G02X-130713Y29000I9843J0*
G01*
X-125791Y29000D02*
G75*
D01*
G02X-125791Y29000I4921J0*
G01*
G54D12*
X-62000Y-20000D03*
X-62000Y0D03*
X-72000Y0D03*
X-62000Y-10000D03*
X-72000Y-10000D03*
X-22000Y-14000D03*
X-12000Y-14000D03*
X-22000Y10000D03*
X-12000Y10000D03*
X-22000Y-2000D03*
X-12000Y-2000D03*
X-22000Y22000D03*
X-12000Y22000D03*
X32000Y20000D03*
X22000Y20000D03*
X2000Y20000D03*
X12000Y20000D03*
X72000Y12000D03*
X72000Y22000D03*
G54D13*
X-72000Y-20000D03*
X-32000Y-14000D03*
X-32000Y10000D03*
X-32000Y-2000D03*
X-32000Y22000D03*
X42000Y20000D03*
X72000Y2000D03*
G54D14*
X-73041Y-21041D02*
X-70959Y-21041D01*
X-70959Y-18959D01*
X-73041Y-18959D01*
X-73041Y-21041D01*D02*
X-33041Y-15041D02*
X-30959Y-15041D01*
X-30959Y-12959D01*
X-33041Y-12959D01*
X-33041Y-15041D01*D02*
X-33041Y8959D02*
X-30959Y8959D01*
X-30959Y11041D01*
X-33041Y11041D01*
X-33041Y8959D01*D02*
X-33041Y-3041D02*
X-30959Y-3041D01*
X-30959Y-959D01*
X-33041Y-959D01*
X-33041Y-3041D01*D02*
X-33041Y20959D02*
X-30959Y20959D01*
X-30959Y23041D01*
X-33041Y23041D01*
X-33041Y20959D01*D02*
X40959Y18959D02*
X43041Y18959D01*
X43041Y21041D01*
X40959Y21041D01*
X40959Y18959D01*D02*
X70959Y959D02*
X73041Y959D01*
X73041Y3041D01*
X70959Y3041D01*
X70959Y959D01*D02*
G54D15*
X72000Y-9000D03*
X72000Y-21000D03*

M02*
