G04 Generated by Ultiboard 13.0 *
%FSLAX25Y25*%
%MOIN*%

%ADD11C,0.00004*%
%ADD12C,0.00500*%


G04 ColorRGB 00FFFF for the following layer *
%LNBoard Outline*%
%LPD*%
G54D10*
G54D11*
X-80000Y-27500D02*
X80000Y-27500D01*
X80000Y27500D01*
X-80000Y27500D01*
X-80000Y-27500D01*
G54D12*
X-81500Y-29000D02*
X-81500Y-23200D01*
X-81500Y-29000D02*
X-65200Y-29000D01*
X81500Y-29000D02*
X65200Y-29000D01*
X81500Y-29000D02*
X81500Y-23200D01*
X81500Y29000D02*
X81500Y23200D01*
X81500Y29000D02*
X65200Y29000D01*
X-81500Y29000D02*
X-65200Y29000D01*
X-81500Y29000D02*
X-81500Y23200D01*
X-101185Y-29000D02*
X-140555Y-29000D01*
X-120870Y-48685D02*
X-120870Y-9315D01*
X-135634Y-29000D02*
G75*
D01*
G02X-135634Y-29000I14764J0*
G01*
X101185Y-29000D02*
X140555Y-29000D01*
X120870Y-48685D02*
X120870Y-9315D01*
X106106Y-29000D02*
G75*
D01*
G02X106106Y-29000I14764J0*
G01*
X115949Y-29000D02*
G75*
D01*
G02X115949Y-29000I4921J0*
G01*
X-101185Y29000D02*
X-140555Y29000D01*
X-120870Y9315D02*
X-120870Y48685D01*
X-135634Y29000D02*
G75*
D01*
G02X-135634Y29000I14764J0*
G01*
X-130713Y29000D02*
G75*
D01*
G02X-130713Y29000I9843J0*
G01*
X-125791Y29000D02*
G75*
D01*
G02X-125791Y29000I4921J0*
G01*

M02*
