G04 Generated by Ultiboard 13.0 *
%FSLAX25Y25*%
%MOIN*%

%ADD10C,0.00001*%
%ADD11C,0.00500*%
%ADD12C,0.05400*%
%ADD13C,0.03937*%
%ADD14R,0.05512X0.04134*%
%ADD15C,0.07166*%
%ADD16R,0.05709X0.04528*%
%ADD17C,0.06334*%
%ADD18R,0.02083X0.02083*%
%ADD19C,0.03917*%
%ADD20C,0.05337*%
%ADD21C,0.06518*%
%ADD22C,0.02100*%
%ADD23C,0.11811*%
%ADD24C,0.08093*%
%ADD25C,0.08880*%
%ADD26R,0.10000X0.10000*%
%ADD27R,0.13211X0.13211*%


G04 ColorRGB 9900CC for the following layer *
%LNSolder Mask Bottom*%
%LPD*%
G54D10*
G54D11*
X-1500Y-1500D02*
X-1500Y26800D01*
X-1500Y-1500D02*
X38800Y-1500D01*
X401500Y-1500D02*
X361200Y-1500D01*
X401500Y-1500D02*
X401500Y26800D01*
X401500Y281500D02*
X401500Y253200D01*
X401500Y281500D02*
X361200Y281500D01*
X-1500Y281500D02*
X38800Y281500D01*
X-1500Y281500D02*
X-1500Y253200D01*
X-21185Y-1500D02*
X-60555Y-1500D01*
X-40870Y-21185D02*
X-40870Y18185D01*
X-55634Y-1500D02*
G75*
D01*
G02X-55634Y-1500I14764J0*
G01*
X421185Y-1500D02*
X460555Y-1500D01*
X440870Y-21185D02*
X440870Y18185D01*
X426106Y-1500D02*
G75*
D01*
G02X426106Y-1500I14764J0*
G01*
X435949Y-1500D02*
G75*
D01*
G02X435949Y-1500I4921J0*
G01*
X-21185Y281500D02*
X-60555Y281500D01*
X-40870Y261815D02*
X-40870Y301185D01*
X-55634Y281500D02*
G75*
D01*
G02X-55634Y281500I14764J0*
G01*
X-50713Y281500D02*
G75*
D01*
G02X-50713Y281500I9843J0*
G01*
X-45791Y281500D02*
G75*
D01*
G02X-45791Y281500I4921J0*
G01*
G54D12*
X42000Y208000D03*
X52000Y208000D03*
X62000Y208000D03*
X72000Y208000D03*
X82000Y208000D03*
X92000Y208000D03*
X102000Y208000D03*
X112000Y208000D03*
X122000Y208000D03*
X132000Y208000D03*
X142000Y208000D03*
X152000Y208000D03*
X162000Y208000D03*
X172000Y208000D03*
X182000Y208000D03*
X192000Y208000D03*
X202000Y208000D03*
X22000Y268000D03*
X32000Y268000D03*
X42000Y268000D03*
X52000Y268000D03*
X62000Y268000D03*
X72000Y268000D03*
X82000Y268000D03*
X92000Y268000D03*
X102000Y268000D03*
X112000Y268000D03*
X122000Y268000D03*
X132000Y268000D03*
X142000Y268000D03*
X152000Y268000D03*
X162000Y268000D03*
X172000Y268000D03*
X182000Y268000D03*
X42000Y195000D03*
X42000Y195000D03*
X28000Y195000D03*
X28000Y195000D03*
X74000Y26000D03*
X74000Y26000D03*
X66000Y17000D03*
X66000Y17000D03*
X213000Y26000D03*
X213000Y26000D03*
X206000Y16000D03*
X206000Y16000D03*
X175000Y44000D03*
X175000Y44000D03*
X121000Y37000D03*
X121000Y37000D03*
X253000Y37000D03*
X253000Y37000D03*
X308000Y44000D03*
X308000Y44000D03*
X236000Y39000D03*
X236000Y39000D03*
X81000Y195000D03*
X81000Y195000D03*
X32000Y256000D03*
X32000Y256000D03*
X22000Y256000D03*
X22000Y256000D03*
G54D13*
X104000Y38000D03*
X110000Y45000D03*
X128000Y49000D03*
X134000Y49000D03*
X163000Y49000D03*
X169000Y49000D03*
X242000Y46000D03*
X260000Y49000D03*
X266000Y49000D03*
X295000Y49000D03*
X301000Y49000D03*
X85000Y56000D03*
X91000Y56000D03*
X104000Y52000D03*
X125000Y54000D03*
X130000Y54000D03*
X136000Y54000D03*
X160000Y54000D03*
X165000Y54000D03*
X170000Y54000D03*
X217000Y56000D03*
X223000Y56000D03*
X236000Y53000D03*
X257000Y54000D03*
X262000Y54000D03*
X267000Y54000D03*
X292000Y54000D03*
X297000Y54000D03*
X302000Y54000D03*
X110000Y59000D03*
X242000Y60000D03*
X103000Y67000D03*
X125000Y68000D03*
X130000Y68000D03*
X136000Y68000D03*
X161000Y68000D03*
X166000Y68000D03*
X171000Y68000D03*
X235000Y67000D03*
X258000Y68000D03*
X263000Y68000D03*
X268000Y68000D03*
X293000Y68000D03*
X298000Y68000D03*
X303000Y68000D03*
X103000Y81000D03*
X110000Y74000D03*
X235000Y81000D03*
X242000Y74000D03*
X110000Y88000D03*
X242000Y88000D03*
X103000Y95000D03*
X235000Y95000D03*
X110000Y102000D03*
X242000Y102000D03*
X110000Y123000D03*
X242000Y123000D03*
X103000Y130000D03*
X235000Y130000D03*
X103000Y137000D03*
X110000Y137000D03*
X133000Y139000D03*
X242000Y137000D03*
X265000Y138000D03*
X268000Y144000D03*
X136000Y145000D03*
X147000Y151000D03*
X216000Y145000D03*
X278000Y151000D03*
X140000Y174000D03*
X151000Y174000D03*
X272000Y173000D03*
X282000Y173000D03*
X110000Y197000D03*
X82000Y233000D03*
X111000Y233000D03*
X208000Y215000D03*
X187000Y215000D03*
X235000Y137000D03*
X319000Y47000D03*
X328000Y55000D03*
X319000Y64000D03*
X328000Y72000D03*
X291000Y23000D03*
X299000Y23000D03*
X307000Y23000D03*
X295000Y16000D03*
X291000Y10000D03*
X299000Y10000D03*
X307000Y10000D03*
X310000Y68000D03*
X312000Y83000D03*
X310000Y105000D03*
X310000Y113000D03*
X310000Y122000D03*
X289000Y44000D03*
X285000Y53000D03*
X285000Y68000D03*
X242000Y112000D03*
X242000Y32000D03*
X225000Y35000D03*
X231000Y46000D03*
X110000Y32000D03*
X99000Y45000D03*
X92000Y36000D03*
X110000Y112000D03*
X96000Y123000D03*
X228000Y123000D03*
X94000Y102000D03*
X85000Y102000D03*
X229000Y102000D03*
X218000Y102000D03*
X251000Y115000D03*
X251000Y107000D03*
X250000Y99000D03*
X275000Y68000D03*
X275000Y53000D03*
X177000Y123000D03*
X177000Y114000D03*
X177000Y106000D03*
X156000Y45000D03*
X180000Y84000D03*
X153000Y69000D03*
X153000Y53000D03*
X178000Y69000D03*
X118000Y115000D03*
X118000Y107000D03*
X118000Y99000D03*
X143000Y69000D03*
X143000Y53000D03*
X174000Y91000D03*
X160000Y76000D03*
X170000Y76000D03*
X174000Y81000D03*
X165000Y91000D03*
X155000Y91000D03*
X160000Y86000D03*
X169000Y86000D03*
X155000Y81000D03*
X165000Y81000D03*
X127000Y76000D03*
X122000Y81000D03*
X132000Y81000D03*
X137000Y76000D03*
X141000Y81000D03*
X127000Y86000D03*
X136000Y86000D03*
X122000Y91000D03*
X132000Y91000D03*
X141000Y91000D03*
X259000Y76000D03*
X254000Y81000D03*
X264000Y81000D03*
X269000Y76000D03*
X273000Y81000D03*
X259000Y86000D03*
X268000Y86000D03*
X254000Y91000D03*
X264000Y91000D03*
X273000Y91000D03*
X291000Y76000D03*
X286000Y81000D03*
X296000Y81000D03*
X301000Y76000D03*
X305000Y81000D03*
X291000Y86000D03*
X300000Y86000D03*
X286000Y91000D03*
X296000Y91000D03*
X305000Y91000D03*
X268000Y101000D03*
X263000Y106000D03*
X273000Y106000D03*
X278000Y101000D03*
X282000Y106000D03*
X268000Y111000D03*
X277000Y111000D03*
X263000Y116000D03*
X273000Y116000D03*
X282000Y116000D03*
X136000Y101000D03*
X131000Y106000D03*
X141000Y106000D03*
X146000Y101000D03*
X150000Y106000D03*
X136000Y111000D03*
X145000Y111000D03*
X131000Y116000D03*
X141000Y116000D03*
X150000Y116000D03*
X156000Y101000D03*
X160000Y106000D03*
X155000Y111000D03*
X160000Y116000D03*
X166000Y111000D03*
X166000Y101000D03*
X288000Y101000D03*
X298000Y101000D03*
X292000Y106000D03*
X287000Y111000D03*
X298000Y111000D03*
X292000Y116000D03*
X157000Y9000D03*
X161000Y15000D03*
X165000Y9000D03*
X169000Y15000D03*
X173000Y9000D03*
X157000Y22000D03*
X165000Y22000D03*
X173000Y22000D03*
X344000Y101000D03*
X355000Y101000D03*
X367000Y101000D03*
X379000Y101000D03*
X134000Y16000D03*
X266000Y16000D03*
X142000Y16000D03*
X274000Y16000D03*
X74000Y145000D03*
X357000Y58000D03*
X345000Y58000D03*
X357000Y48000D03*
X345000Y48000D03*
X303000Y16000D03*
X28000Y218000D03*
X23000Y213000D03*
X241000Y217000D03*
X261000Y217000D03*
X322000Y217000D03*
X302000Y217000D03*
X337000Y190000D03*
X337000Y170000D03*
G54D14*
X140000Y158260D03*
X140000Y165740D03*
X151500Y158260D03*
X151500Y165740D03*
X272000Y158260D03*
X272000Y165740D03*
X282000Y158260D03*
X282000Y165740D03*
G54D15*
X168000Y176000D03*
X252000Y176000D03*
X120000Y176000D03*
X300000Y176000D03*
X334000Y14000D03*
X354000Y14000D03*
X280000Y186000D03*
X150000Y186000D03*
G54D16*
X262000Y166457D03*
X262000Y173543D03*
X130000Y166457D03*
X130000Y173543D03*
G54D17*
X24000Y66000D03*
X34000Y66000D03*
X24000Y78000D03*
X34000Y78000D03*
X24000Y90000D03*
X34000Y90000D03*
X24000Y54000D03*
X34000Y54000D03*
X34000Y160000D03*
X24000Y160000D03*
X34000Y170000D03*
X34000Y130000D03*
X24000Y130000D03*
X34000Y140000D03*
X24000Y140000D03*
X34000Y150000D03*
X24000Y150000D03*
X34000Y110000D03*
X24000Y110000D03*
X34000Y120000D03*
X24000Y120000D03*
X138000Y22000D03*
X128000Y22000D03*
X108000Y22000D03*
X118000Y22000D03*
X98000Y22000D03*
X138000Y10000D03*
X128000Y10000D03*
X108000Y10000D03*
X118000Y10000D03*
X98000Y10000D03*
X270000Y22000D03*
X260000Y22000D03*
X240000Y22000D03*
X250000Y22000D03*
X230000Y22000D03*
X270000Y10000D03*
X260000Y10000D03*
X240000Y10000D03*
X250000Y10000D03*
X230000Y10000D03*
G54D18*
X14000Y66000D03*
X14000Y78000D03*
X14000Y90000D03*
X14000Y54000D03*
X24000Y170000D03*
X148000Y22000D03*
X148000Y10000D03*
X280000Y22000D03*
X280000Y10000D03*
G54D19*
X12959Y64959D02*
X15041Y64959D01*
X15041Y67041D01*
X12959Y67041D01*
X12959Y64959D01*D02*
X12959Y76959D02*
X15041Y76959D01*
X15041Y79041D01*
X12959Y79041D01*
X12959Y76959D01*D02*
X12959Y88959D02*
X15041Y88959D01*
X15041Y91041D01*
X12959Y91041D01*
X12959Y88959D01*D02*
X12959Y52959D02*
X15041Y52959D01*
X15041Y55041D01*
X12959Y55041D01*
X12959Y52959D01*D02*
X22959Y168959D02*
X25041Y168959D01*
X25041Y171041D01*
X22959Y171041D01*
X22959Y168959D01*D02*
X146959Y20959D02*
X149041Y20959D01*
X149041Y23041D01*
X146959Y23041D01*
X146959Y20959D01*D02*
X146959Y8959D02*
X149041Y8959D01*
X149041Y11041D01*
X146959Y11041D01*
X146959Y8959D01*D02*
X278959Y20959D02*
X281041Y20959D01*
X281041Y23041D01*
X278959Y23041D01*
X278959Y20959D01*D02*
X278959Y8959D02*
X281041Y8959D01*
X281041Y11041D01*
X278959Y11041D01*
X278959Y8959D01*D02*
G54D20*
X320000Y34000D03*
X340000Y34000D03*
X68000Y59000D03*
X68000Y69000D03*
X68000Y113000D03*
X68000Y103000D03*
X198000Y59000D03*
X198000Y69000D03*
X198000Y113000D03*
X198000Y103000D03*
X351000Y38000D03*
X351000Y38000D03*
G54D21*
X368000Y136000D03*
X368000Y116000D03*
G54D22*
X90000Y159000D03*
X90000Y159000D03*
X182000Y200000D03*
X182000Y200000D03*
X172000Y200000D03*
X172000Y200000D03*
X162000Y200000D03*
X162000Y200000D03*
X152000Y200000D03*
X152000Y200000D03*
X142000Y200000D03*
X142000Y200000D03*
G54D23*
X346000Y114000D03*
X346000Y114000D03*
X346000Y137000D03*
X346000Y137000D03*
G54D24*
X251000Y253185D03*
X373185Y180000D03*
X312000Y253185D03*
G54D25*
X251000Y207319D03*
X327319Y180000D03*
X312000Y207319D03*
G54D26*
X274425Y249445D03*
X274425Y228972D03*
X227575Y228972D03*
X227575Y249445D03*
X348972Y156575D03*
X348972Y203425D03*
X369445Y156575D03*
X369445Y203425D03*
X335425Y228972D03*
X288575Y228972D03*
X335425Y249445D03*
X288575Y249445D03*
G54D27*
X251000Y233500D03*
X353500Y180000D03*
X312000Y233500D03*

M02*
