G04 Generated by Ultiboard 13.0 *
%FSLAX25Y25*%
%MOIN*%

%ADD10C,0.00001*%
%ADD11C,0.01111*%
%ADD12C,0.00612*%
%ADD13C,0.00800*%
%ADD14C,0.00005*%
%ADD15C,0.01000*%
%ADD16C,0.00787*%
%ADD17C,0.00167*%
%ADD18C,0.00367*%
%ADD19C,0.00004*%
%ADD20C,0.00020*%
%ADD21C,0.00889*%
%ADD22C,0.00500*%
%ADD23C,0.00556*%
%ADD24C,0.01969*%


G04 ColorRGB FFFF00 for the following layer *
%LNSilkscreen Top*%
%LPD*%
G54D10*
G54D11*
X106857Y232911D02*
X102571Y232911D01*
X99714Y234333D01*
X99714Y235756D01*
X102571Y237178D01*
X106857Y237178D01*
X104714Y232911D02*
X104714Y237178D01*
X101143Y239311D02*
X106857Y243578D01*
X101143Y243578D02*
X106857Y239311D01*
X104000Y239311D02*
X104000Y243578D01*
X101143Y241444D02*
X106857Y241444D01*
G54D12*
X11394Y266337D02*
X14543Y266337D01*
X15331Y267121D01*
X15331Y267905D01*
X14543Y268689D01*
X11394Y268689D01*
X12181Y270256D02*
X11394Y271040D01*
X15331Y271040D01*
X15331Y269864D02*
X15331Y272216D01*
X152331Y147337D02*
X148394Y147337D01*
X148394Y148905D01*
X149181Y149689D01*
X149575Y149689D01*
X150362Y148905D01*
X150362Y147337D01*
X150362Y147729D02*
X152331Y149689D01*
X152331Y152040D02*
X150362Y152040D01*
X149181Y153216D01*
X148394Y153216D01*
X148394Y150864D01*
X149181Y150864D01*
X141331Y147337D02*
X137394Y147337D01*
X137394Y148905D01*
X138181Y149689D01*
X138575Y149689D01*
X139362Y148905D01*
X139362Y147337D01*
X139362Y147729D02*
X141331Y149689D01*
X140543Y150864D02*
X141331Y151648D01*
X141331Y152432D01*
X140543Y153216D01*
X138969Y153216D01*
X138181Y153216D01*
X137394Y152432D01*
X137394Y151648D01*
X138181Y150864D01*
X138969Y150864D01*
X139756Y151648D01*
X139756Y152432D01*
X138969Y153216D01*
X163331Y147337D02*
X159394Y147337D01*
X159394Y148905D01*
X160181Y149689D01*
X160575Y149689D01*
X161362Y148905D01*
X161362Y147337D01*
X161362Y147729D02*
X163331Y149689D01*
X159787Y151256D02*
X159394Y151648D01*
X159394Y152432D01*
X160181Y153216D01*
X160969Y153216D01*
X161362Y152824D01*
X161756Y153216D01*
X162543Y153216D01*
X163331Y152432D01*
X163331Y151648D01*
X162937Y151256D01*
X161362Y151648D02*
X161362Y152824D01*
X173331Y147337D02*
X169394Y147337D01*
X169394Y148905D01*
X170181Y149689D01*
X170575Y149689D01*
X171362Y148905D01*
X171362Y147337D01*
X171362Y147729D02*
X173331Y149689D01*
X170181Y151256D02*
X169394Y152040D01*
X173331Y152040D01*
X173331Y150864D02*
X173331Y153216D01*
X244331Y143809D02*
X240394Y143809D01*
X240394Y145377D01*
X241181Y146161D01*
X241575Y146161D01*
X242362Y145377D01*
X242362Y143809D01*
X242362Y144201D02*
X244331Y146161D01*
X241181Y147729D02*
X240394Y148513D01*
X244331Y148513D01*
X244331Y147337D02*
X244331Y149689D01*
X244331Y152040D02*
X242362Y152040D01*
X241181Y153216D01*
X240394Y153216D01*
X240394Y150864D01*
X241181Y150864D01*
X253331Y143809D02*
X249394Y143809D01*
X249394Y145377D01*
X250181Y146161D01*
X250575Y146161D01*
X251362Y145377D01*
X251362Y143809D01*
X251362Y144201D02*
X253331Y146161D01*
X250181Y147729D02*
X249394Y148513D01*
X253331Y148513D01*
X253331Y147337D02*
X253331Y149689D01*
X249787Y151256D02*
X249394Y151648D01*
X249394Y152432D01*
X250181Y153216D01*
X250969Y153216D01*
X251362Y152824D01*
X251756Y153216D01*
X252543Y153216D01*
X253331Y152432D01*
X253331Y151648D01*
X252937Y151256D01*
X251362Y151648D02*
X251362Y152824D01*
X264331Y143809D02*
X260394Y143809D01*
X260394Y145377D01*
X261181Y146161D01*
X261575Y146161D01*
X262362Y145377D01*
X262362Y143809D01*
X262362Y144201D02*
X264331Y146161D01*
X261181Y147729D02*
X260394Y148513D01*
X264331Y148513D01*
X264331Y147337D02*
X264331Y149689D01*
X260394Y153216D02*
X260394Y150864D01*
X261969Y150864D01*
X261969Y152432D01*
X262756Y153216D01*
X263543Y153216D01*
X264331Y152432D01*
X264331Y150864D01*
X145331Y28337D02*
X145331Y29905D01*
X144543Y30689D01*
X142181Y30689D01*
X141394Y29905D01*
X141394Y28337D01*
X141394Y28729D02*
X145331Y28729D01*
X142181Y32256D02*
X141394Y33040D01*
X145331Y33040D01*
X145331Y31864D02*
X145331Y34216D01*
X145331Y35337D02*
X145331Y36905D01*
X144543Y37689D01*
X142181Y37689D01*
X141394Y36905D01*
X141394Y35337D01*
X141394Y35729D02*
X145331Y35729D01*
X142181Y38864D02*
X141394Y39648D01*
X141394Y40432D01*
X142181Y41216D01*
X142575Y41216D01*
X145331Y38864D01*
X145331Y41216D01*
X144937Y41216D01*
X137331Y41809D02*
X133394Y41809D01*
X133394Y43377D01*
X134181Y44161D01*
X134575Y44161D01*
X135362Y43377D01*
X135362Y41809D01*
X135362Y42201D02*
X137331Y44161D01*
X134181Y45729D02*
X133394Y46513D01*
X137331Y46513D01*
X137331Y45337D02*
X137331Y47689D01*
X134181Y49256D02*
X133394Y50040D01*
X137331Y50040D01*
X137331Y48864D02*
X137331Y51216D01*
X277331Y28337D02*
X277331Y29905D01*
X276543Y30689D01*
X274181Y30689D01*
X273394Y29905D01*
X273394Y28337D01*
X273394Y28729D02*
X277331Y28729D01*
X273787Y32256D02*
X273394Y32648D01*
X273394Y33432D01*
X274181Y34216D01*
X274969Y34216D01*
X275362Y33824D01*
X275756Y34216D01*
X276543Y34216D01*
X277331Y33432D01*
X277331Y32648D01*
X276937Y32256D01*
X275362Y32648D02*
X275362Y33824D01*
X277331Y35337D02*
X277331Y36905D01*
X276543Y37689D01*
X274181Y37689D01*
X273394Y36905D01*
X273394Y35337D01*
X273394Y35729D02*
X277331Y35729D01*
X275756Y41216D02*
X275756Y38864D01*
X273394Y40824D01*
X277331Y40824D01*
X277331Y40432D02*
X277331Y41216D01*
X268331Y41809D02*
X264394Y41809D01*
X264394Y43377D01*
X265181Y44161D01*
X265575Y44161D01*
X266362Y43377D01*
X266362Y41809D01*
X266362Y42201D02*
X268331Y44161D01*
X265181Y45337D02*
X264394Y46121D01*
X264394Y46905D01*
X265181Y47689D01*
X265575Y47689D01*
X268331Y45337D01*
X268331Y47689D01*
X267937Y47689D01*
X265181Y48864D02*
X264394Y49648D01*
X264394Y50432D01*
X265181Y51216D01*
X265575Y51216D01*
X268331Y48864D01*
X268331Y51216D01*
X267937Y51216D01*
X211543Y42161D02*
X212331Y41377D01*
X212331Y40593D01*
X211543Y39809D01*
X209181Y39809D01*
X208394Y40593D01*
X208394Y41377D01*
X209181Y42161D01*
X209181Y43729D02*
X208394Y44513D01*
X212331Y44513D01*
X212331Y43337D02*
X212331Y45689D01*
X209181Y46864D02*
X208394Y47648D01*
X208394Y48432D01*
X209181Y49216D01*
X211543Y49216D01*
X212331Y48432D01*
X212331Y47648D01*
X211543Y46864D01*
X209181Y46864D01*
X209181Y49216D02*
X211543Y46864D01*
X78543Y43689D02*
X79331Y42905D01*
X79331Y42121D01*
X78543Y41337D01*
X76181Y41337D01*
X75394Y42121D01*
X75394Y42905D01*
X76181Y43689D01*
X76181Y45256D02*
X75394Y46040D01*
X79331Y46040D01*
X79331Y44864D02*
X79331Y47216D01*
X73543Y125689D02*
X74331Y124905D01*
X74331Y124121D01*
X73543Y123337D01*
X71181Y123337D01*
X70394Y124121D01*
X70394Y124905D01*
X71181Y125689D01*
X71181Y126864D02*
X70394Y127648D01*
X70394Y128432D01*
X71181Y129216D01*
X71575Y129216D01*
X74331Y126864D01*
X74331Y129216D01*
X73937Y129216D01*
X204543Y124689D02*
X205331Y123905D01*
X205331Y123121D01*
X204543Y122337D01*
X202181Y122337D01*
X201394Y123121D01*
X201394Y123905D01*
X202181Y124689D01*
X205331Y127432D02*
X205331Y126648D01*
X204543Y125864D01*
X203756Y125864D01*
X203362Y126256D01*
X202969Y125864D01*
X202181Y125864D01*
X201394Y126648D01*
X201394Y127432D01*
X202181Y128216D01*
X202969Y128216D01*
X203362Y127824D01*
X203756Y128216D01*
X204543Y128216D01*
X205331Y127432D01*
X203362Y126256D02*
X203362Y127824D01*
X78543Y135689D02*
X79331Y134905D01*
X79331Y134121D01*
X78543Y133337D01*
X76181Y133337D01*
X75394Y134121D01*
X75394Y134905D01*
X76181Y135689D01*
X75787Y137256D02*
X75394Y137648D01*
X75394Y138432D01*
X76181Y139216D01*
X76969Y139216D01*
X77362Y138824D01*
X77756Y139216D01*
X78543Y139216D01*
X79331Y138432D01*
X79331Y137648D01*
X78937Y137256D01*
X77362Y137648D02*
X77362Y138824D01*
X210543Y135689D02*
X211331Y134905D01*
X211331Y134121D01*
X210543Y133337D01*
X208181Y133337D01*
X207394Y134121D01*
X207394Y134905D01*
X208181Y135689D01*
X210543Y136864D02*
X211331Y137648D01*
X211331Y138432D01*
X210543Y139216D01*
X208969Y139216D01*
X208181Y139216D01*
X207394Y138432D01*
X207394Y137648D01*
X208181Y136864D01*
X208969Y136864D01*
X209756Y137648D01*
X209756Y138432D01*
X208969Y139216D01*
X111331Y147337D02*
X107394Y147337D01*
X107394Y148905D01*
X108181Y149689D01*
X108575Y149689D01*
X109362Y148905D01*
X109362Y147337D01*
X109362Y147729D02*
X111331Y149689D01*
X107394Y152824D02*
X107394Y151648D01*
X108181Y150864D01*
X109756Y150864D01*
X110543Y150864D01*
X111331Y151648D01*
X111331Y152432D01*
X110543Y153216D01*
X109756Y153216D01*
X108969Y152432D01*
X108969Y151648D01*
X109756Y150864D01*
X121331Y147337D02*
X117394Y147337D01*
X117394Y148905D01*
X118181Y149689D01*
X118575Y149689D01*
X119362Y148905D01*
X119362Y147337D01*
X119362Y147729D02*
X121331Y149689D01*
X118181Y150864D02*
X117394Y151648D01*
X117394Y152432D01*
X118181Y153216D01*
X118575Y153216D01*
X121331Y150864D01*
X121331Y153216D01*
X120937Y153216D01*
X131331Y147337D02*
X127394Y147337D01*
X127394Y148905D01*
X128181Y149689D01*
X128575Y149689D01*
X129362Y148905D01*
X129362Y147337D01*
X129362Y147729D02*
X131331Y149689D01*
X129756Y153216D02*
X129756Y150864D01*
X127394Y152824D01*
X131331Y152824D01*
X131331Y152432D02*
X131331Y153216D01*
X274331Y144809D02*
X270394Y144809D01*
X270394Y146377D01*
X271181Y147161D01*
X271575Y147161D01*
X272362Y146377D01*
X272362Y144809D01*
X272362Y145201D02*
X274331Y147161D01*
X271181Y148337D02*
X270394Y149121D01*
X270394Y149905D01*
X271181Y150689D01*
X271575Y150689D01*
X274331Y148337D01*
X274331Y150689D01*
X273937Y150689D01*
X271181Y151864D02*
X270394Y152648D01*
X270394Y153432D01*
X271181Y154216D01*
X273543Y154216D01*
X274331Y153432D01*
X274331Y152648D01*
X273543Y151864D01*
X271181Y151864D01*
X271181Y154216D02*
X273543Y151864D01*
X283331Y143809D02*
X279394Y143809D01*
X279394Y145377D01*
X280181Y146161D01*
X280575Y146161D01*
X281362Y145377D01*
X281362Y143809D01*
X281362Y144201D02*
X283331Y146161D01*
X280181Y147729D02*
X279394Y148513D01*
X283331Y148513D01*
X283331Y147337D02*
X283331Y149689D01*
X283331Y152432D02*
X283331Y151648D01*
X282543Y150864D01*
X281756Y150864D01*
X281362Y151256D01*
X280969Y150864D01*
X280181Y150864D01*
X279394Y151648D01*
X279394Y152432D01*
X280181Y153216D01*
X280969Y153216D01*
X281362Y152824D01*
X281756Y153216D01*
X282543Y153216D01*
X283331Y152432D01*
X281362Y151256D02*
X281362Y152824D01*
X296331Y143809D02*
X292394Y143809D01*
X292394Y145377D01*
X293181Y146161D01*
X293575Y146161D01*
X294362Y145377D01*
X294362Y143809D01*
X294362Y144201D02*
X296331Y146161D01*
X293181Y147729D02*
X292394Y148513D01*
X296331Y148513D01*
X296331Y147337D02*
X296331Y149689D01*
X294756Y153216D02*
X294756Y150864D01*
X292394Y152824D01*
X296331Y152824D01*
X296331Y152432D02*
X296331Y153216D01*
X306331Y143809D02*
X302394Y143809D01*
X302394Y145377D01*
X303181Y146161D01*
X303575Y146161D01*
X304362Y145377D01*
X304362Y143809D01*
X304362Y144201D02*
X306331Y146161D01*
X303181Y147729D02*
X302394Y148513D01*
X306331Y148513D01*
X306331Y147337D02*
X306331Y149689D01*
X303181Y150864D02*
X302394Y151648D01*
X302394Y152432D01*
X303181Y153216D01*
X303575Y153216D01*
X306331Y150864D01*
X306331Y153216D01*
X305937Y153216D01*
X316331Y143809D02*
X312394Y143809D01*
X312394Y145377D01*
X313181Y146161D01*
X313575Y146161D01*
X314362Y145377D01*
X314362Y143809D01*
X314362Y144201D02*
X316331Y146161D01*
X313181Y147729D02*
X312394Y148513D01*
X316331Y148513D01*
X316331Y147337D02*
X316331Y149689D01*
X312394Y152824D02*
X312394Y151648D01*
X313181Y150864D01*
X314756Y150864D01*
X315543Y150864D01*
X316331Y151648D01*
X316331Y152432D01*
X315543Y153216D01*
X314756Y153216D01*
X313969Y152432D01*
X313969Y151648D01*
X314756Y150864D01*
X183331Y147337D02*
X179394Y147337D01*
X179394Y148905D01*
X180181Y149689D01*
X180575Y149689D01*
X181362Y148905D01*
X181362Y147337D01*
X181362Y147729D02*
X183331Y149689D01*
X179394Y153216D02*
X179394Y150864D01*
X180969Y150864D01*
X180969Y152432D01*
X181756Y153216D01*
X182543Y153216D01*
X183331Y152432D01*
X183331Y150864D01*
X309394Y31337D02*
X312543Y31337D01*
X313331Y32121D01*
X313331Y32905D01*
X312543Y33689D01*
X309394Y33689D01*
X311756Y37216D02*
X311756Y34864D01*
X309394Y36824D01*
X313331Y36824D01*
X313331Y36432D02*
X313331Y37216D01*
X60543Y56689D02*
X61331Y55905D01*
X61331Y55121D01*
X60543Y54337D01*
X58181Y54337D01*
X57394Y55121D01*
X57394Y55905D01*
X58181Y56689D01*
X57394Y60216D02*
X57394Y57864D01*
X58969Y57864D01*
X58969Y59432D01*
X59756Y60216D01*
X60543Y60216D01*
X61331Y59432D01*
X61331Y57864D01*
X60543Y100689D02*
X61331Y99905D01*
X61331Y99121D01*
X60543Y98337D01*
X58181Y98337D01*
X57394Y99121D01*
X57394Y99905D01*
X58181Y100689D01*
X57394Y103824D02*
X57394Y102648D01*
X58181Y101864D01*
X59756Y101864D01*
X60543Y101864D01*
X61331Y102648D01*
X61331Y103432D01*
X60543Y104216D01*
X59756Y104216D01*
X58969Y103432D01*
X58969Y102648D01*
X59756Y101864D01*
X190543Y56161D02*
X191331Y55377D01*
X191331Y54593D01*
X190543Y53809D01*
X188181Y53809D01*
X187394Y54593D01*
X187394Y55377D01*
X188181Y56161D01*
X188181Y57729D02*
X187394Y58513D01*
X191331Y58513D01*
X191331Y57337D02*
X191331Y59689D01*
X188181Y61256D02*
X187394Y62040D01*
X191331Y62040D01*
X191331Y60864D02*
X191331Y63216D01*
X190543Y100161D02*
X191331Y99377D01*
X191331Y98593D01*
X190543Y97809D01*
X188181Y97809D01*
X187394Y98593D01*
X187394Y99377D01*
X188181Y100161D01*
X188181Y101729D02*
X187394Y102513D01*
X191331Y102513D01*
X191331Y101337D02*
X191331Y103689D01*
X188181Y104864D02*
X187394Y105648D01*
X187394Y106432D01*
X188181Y107216D01*
X188575Y107216D01*
X191331Y104864D01*
X191331Y107216D01*
X190937Y107216D01*
X351543Y122337D02*
X352331Y123121D01*
X352331Y123905D01*
X351543Y124689D01*
X349181Y122337D01*
X348394Y123121D01*
X348394Y123905D01*
X349181Y124689D01*
X349181Y126256D02*
X348394Y127040D01*
X352331Y127040D01*
X352331Y125864D02*
X352331Y128216D01*
X227394Y271337D02*
X230543Y271337D01*
X231331Y272121D01*
X231331Y272905D01*
X230543Y273689D01*
X227394Y273689D01*
X227394Y276824D02*
X227394Y275648D01*
X228181Y274864D01*
X229756Y274864D01*
X230543Y274864D01*
X231331Y275648D01*
X231331Y276432D01*
X230543Y277216D01*
X229756Y277216D01*
X228969Y276432D01*
X228969Y275648D01*
X229756Y274864D01*
X334394Y193337D02*
X337543Y193337D01*
X338331Y194121D01*
X338331Y194905D01*
X337543Y195689D01*
X334394Y195689D01*
X334394Y199216D02*
X334394Y196864D01*
X335969Y196864D01*
X335969Y198432D01*
X336756Y199216D01*
X337543Y199216D01*
X338331Y198432D01*
X338331Y196864D01*
X288394Y271337D02*
X291543Y271337D01*
X292331Y272121D01*
X292331Y272905D01*
X291543Y273689D01*
X288394Y273689D01*
X289181Y274864D02*
X288394Y275648D01*
X288394Y276432D01*
X289181Y277216D01*
X289575Y277216D01*
X292331Y274864D01*
X292331Y277216D01*
X291937Y277216D01*
G54D13*
X17000Y203000D02*
X207000Y203000D01*
X207000Y273000D01*
X17000Y273000D01*
X17000Y234000D02*
X17349Y234015D01*
X17695Y234061D01*
X18035Y234136D01*
X18368Y234241D01*
X18690Y234375D01*
X19000Y234536D01*
X19294Y234723D01*
X19571Y234936D01*
X19828Y235172D01*
X20064Y235429D01*
X20277Y235706D01*
X20464Y236000D01*
X20625Y236310D01*
X20759Y236632D01*
X20864Y236965D01*
X20939Y237305D01*
X20985Y237651D01*
X21000Y238000D01*
X20985Y238349D01*
X20939Y238695D01*
X20864Y239035D01*
X20759Y239368D01*
X20625Y239690D01*
X20464Y240000D01*
X20277Y240294D01*
X20064Y240571D01*
X19828Y240828D01*
X19571Y241064D01*
X19294Y241277D01*
X19000Y241464D01*
X18690Y241625D01*
X18368Y241759D01*
X18035Y241864D01*
X17695Y241939D01*
X17349Y241985D01*
X17000Y242000D01*
X17000Y273000D02*
X17000Y242000D01*
X17000Y234000D02*
X17000Y203000D01*
X313858Y127496D02*
X246142Y127496D01*
X246142Y64504D01*
X313858Y64504D01*
X305787Y122669D02*
G75*
D01*
G02X305787Y122669I1772J0*
G01*
X313858Y97969D02*
X313687Y97961D01*
X313516Y97939D01*
X313349Y97901D01*
X313185Y97850D01*
X313026Y97784D01*
X312874Y97705D01*
X312729Y97613D01*
X312593Y97508D01*
X312466Y97392D01*
X312350Y97265D01*
X312246Y97129D01*
X312153Y96984D01*
X312074Y96832D01*
X312008Y96673D01*
X311957Y96509D01*
X311920Y96342D01*
X311897Y96172D01*
X311890Y96000D01*
X311897Y95828D01*
X311920Y95658D01*
X311957Y95491D01*
X312008Y95327D01*
X312074Y95168D01*
X312153Y95016D01*
X312246Y94871D01*
X312350Y94735D01*
X312466Y94608D01*
X312593Y94492D01*
X312729Y94387D01*
X312874Y94295D01*
X313026Y94216D01*
X313185Y94150D01*
X313349Y94099D01*
X313516Y94061D01*
X313687Y94039D01*
X313858Y94031D01*
X313858Y64504D02*
X313858Y94031D01*
X313858Y97969D02*
X313858Y127496D01*
X158679Y168556D02*
X159274Y169667D01*
X159274Y170778D01*
X158679Y171889D01*
X156298Y171889D01*
X156893Y174111D02*
X156298Y175222D01*
X159274Y175222D01*
X159274Y173556D02*
X159274Y176889D01*
X156893Y178556D02*
X156298Y179667D01*
X156298Y180778D01*
X156893Y181889D01*
X158679Y181889D01*
X159274Y180778D01*
X159274Y179667D01*
X158679Y178556D01*
X156893Y178556D01*
X156893Y181889D02*
X158679Y178556D01*
X168000Y169333D02*
X168581Y169359D01*
X169158Y169435D01*
X169725Y169560D01*
X170280Y169735D01*
X170817Y169958D01*
X171333Y170226D01*
X171824Y170539D01*
X172285Y170893D01*
X172714Y171286D01*
X173107Y171715D01*
X173461Y172176D01*
X173774Y172667D01*
X174042Y173183D01*
X174265Y173720D01*
X174440Y174275D01*
X174565Y174842D01*
X174641Y175419D01*
X174667Y176000D01*
X174641Y176581D01*
X174565Y177158D01*
X174440Y177725D01*
X174265Y178280D01*
X174042Y178817D01*
X173774Y179333D01*
X173461Y179824D01*
X173107Y180285D01*
X172714Y180714D01*
X172285Y181107D01*
X171824Y181461D01*
X171333Y181774D01*
X170817Y182042D01*
X170280Y182265D01*
X169725Y182440D01*
X169158Y182565D01*
X168581Y182641D01*
X168000Y182667D01*
X167419Y182641D01*
X166842Y182565D01*
X166275Y182440D01*
X165720Y182265D01*
X165183Y182042D01*
X164667Y181774D01*
X164176Y181461D01*
X163715Y181107D01*
X163286Y180714D01*
X162893Y180285D01*
X162539Y179824D01*
X162226Y179333D01*
X161958Y178817D01*
X161735Y178280D01*
X161560Y177725D01*
X161435Y177158D01*
X161359Y176581D01*
X161333Y176000D01*
X161359Y175419D01*
X161435Y174842D01*
X161560Y174275D01*
X161735Y173720D01*
X161958Y173183D01*
X162226Y172667D01*
X162539Y172176D01*
X162893Y171715D01*
X163286Y171286D01*
X163715Y170893D01*
X164176Y170539D01*
X164667Y170226D01*
X165183Y169958D01*
X165720Y169735D01*
X166275Y169560D01*
X166842Y169435D01*
X167419Y169359D01*
X168000Y169333D01*
X168000Y169333D01*
X242679Y169556D02*
X243274Y170667D01*
X243274Y171778D01*
X242679Y172889D01*
X240298Y172889D01*
X240893Y175111D02*
X240298Y176222D01*
X243274Y176222D01*
X243274Y174556D02*
X243274Y177889D01*
X240595Y180111D02*
X240298Y180667D01*
X240298Y181778D01*
X240893Y182889D01*
X241488Y182889D01*
X241786Y182333D01*
X242083Y182889D01*
X242679Y182889D01*
X243274Y181778D01*
X243274Y180667D01*
X242976Y180111D01*
X241786Y180667D02*
X241786Y182333D01*
X252000Y169333D02*
X252581Y169359D01*
X253158Y169435D01*
X253725Y169560D01*
X254280Y169735D01*
X254817Y169958D01*
X255333Y170226D01*
X255824Y170539D01*
X256285Y170893D01*
X256714Y171286D01*
X257107Y171715D01*
X257461Y172176D01*
X257774Y172667D01*
X258042Y173183D01*
X258265Y173720D01*
X258440Y174275D01*
X258565Y174842D01*
X258641Y175419D01*
X258667Y176000D01*
X258641Y176581D01*
X258565Y177158D01*
X258440Y177725D01*
X258265Y178280D01*
X258042Y178817D01*
X257774Y179333D01*
X257461Y179824D01*
X257107Y180285D01*
X256714Y180714D01*
X256285Y181107D01*
X255824Y181461D01*
X255333Y181774D01*
X254817Y182042D01*
X254280Y182265D01*
X253725Y182440D01*
X253158Y182565D01*
X252581Y182641D01*
X252000Y182667D01*
X251419Y182641D01*
X250842Y182565D01*
X250275Y182440D01*
X249720Y182265D01*
X249183Y182042D01*
X248667Y181774D01*
X248176Y181461D01*
X247715Y181107D01*
X247286Y180714D01*
X246893Y180285D01*
X246539Y179824D01*
X246226Y179333D01*
X245958Y178817D01*
X245735Y178280D01*
X245560Y177725D01*
X245435Y177158D01*
X245359Y176581D01*
X245333Y176000D01*
X245359Y175419D01*
X245435Y174842D01*
X245560Y174275D01*
X245735Y173720D01*
X245958Y173183D01*
X246226Y172667D01*
X246539Y172176D01*
X246893Y171715D01*
X247286Y171286D01*
X247715Y170893D01*
X248176Y170539D01*
X248667Y170226D01*
X249183Y169958D01*
X249720Y169735D01*
X250275Y169560D01*
X250842Y169435D01*
X251419Y169359D01*
X252000Y169333D01*
X252000Y169333D01*
X6679Y62556D02*
X7274Y63667D01*
X7274Y64778D01*
X6679Y65889D01*
X4298Y65889D01*
X7274Y69778D02*
X7274Y68667D01*
X6679Y67556D01*
X6083Y67556D01*
X5786Y68111D01*
X5488Y67556D01*
X4893Y67556D01*
X4298Y68667D01*
X4298Y69778D01*
X4893Y70889D01*
X5488Y70889D01*
X5786Y70333D01*
X6083Y70889D01*
X6679Y70889D01*
X7274Y69778D01*
X5786Y68111D02*
X5786Y70333D01*
X9000Y71000D02*
X9000Y61000D01*
X39000Y71000D02*
X39000Y61000D01*
X39000Y71000D02*
X19000Y71000D01*
X16500Y71000D02*
X9000Y71000D01*
X18167Y71000D02*
X18167Y67667D01*
X17333Y70167D02*
X18167Y71000D01*
X39000Y61000D02*
X9000Y61000D01*
X6679Y74556D02*
X7274Y75667D01*
X7274Y76778D01*
X6679Y77889D01*
X4298Y77889D01*
X7274Y81222D02*
X5786Y81222D01*
X4893Y82889D01*
X4298Y82889D01*
X4298Y79556D01*
X4893Y79556D01*
X9000Y83000D02*
X9000Y73000D01*
X39000Y83000D02*
X39000Y73000D01*
X39000Y83000D02*
X19000Y83000D01*
X16500Y83000D02*
X9000Y83000D01*
X18167Y83000D02*
X18167Y79667D01*
X17333Y82167D02*
X18167Y83000D01*
X39000Y73000D02*
X9000Y73000D01*
X6679Y86556D02*
X7274Y87667D01*
X7274Y88778D01*
X6679Y89889D01*
X4298Y89889D01*
X4298Y94333D02*
X4298Y92667D01*
X4893Y91556D01*
X6083Y91556D01*
X6679Y91556D01*
X7274Y92667D01*
X7274Y93778D01*
X6679Y94889D01*
X6083Y94889D01*
X5488Y93778D01*
X5488Y92667D01*
X6083Y91556D01*
X9000Y95000D02*
X9000Y85000D01*
X39000Y95000D02*
X39000Y85000D01*
X39000Y95000D02*
X19000Y95000D01*
X16500Y95000D02*
X9000Y95000D01*
X18167Y95000D02*
X18167Y91667D01*
X17333Y94167D02*
X18167Y95000D01*
X39000Y85000D02*
X9000Y85000D01*
X6673Y49550D02*
X7268Y50661D01*
X7268Y51772D01*
X6673Y52883D01*
X4292Y52883D01*
X6673Y54550D02*
X7268Y55661D01*
X7268Y56772D01*
X6673Y57883D01*
X5483Y57883D01*
X4887Y57883D01*
X4292Y56772D01*
X4292Y55661D01*
X4887Y54550D01*
X5483Y54550D01*
X6078Y55661D01*
X6078Y56772D01*
X5483Y57883D01*
X9000Y59000D02*
X9000Y49000D01*
X39000Y59000D02*
X39000Y49000D01*
X39000Y59000D02*
X19000Y59000D01*
X16500Y59000D02*
X9000Y59000D01*
X18167Y59000D02*
X18167Y55667D01*
X17333Y58167D02*
X18167Y59000D01*
X39000Y49000D02*
X9000Y49000D01*
X157500Y34500D02*
X146500Y34500D01*
X146500Y29500D01*
X157500Y29500D01*
X157500Y34500D01*
X146500Y35500D02*
X157500Y35500D01*
X157500Y40500D01*
X146500Y40500D01*
X146500Y35500D01*
X289500Y34500D02*
X278500Y34500D01*
X278500Y29500D01*
X289500Y29500D01*
X289500Y34500D01*
X278500Y35500D02*
X289500Y35500D01*
X289500Y40500D01*
X278500Y40500D01*
X278500Y35500D01*
X73543Y79307D02*
X74331Y80094D01*
X74331Y80882D01*
X73543Y81669D01*
X71181Y81669D01*
X70394Y80882D01*
X70394Y80094D01*
X71181Y79307D01*
X73543Y79307D01*
X73543Y80882D02*
X74331Y81669D01*
X71181Y83244D02*
X70394Y84031D01*
X74331Y84031D01*
X74331Y82850D02*
X74331Y85213D01*
X75236Y128764D02*
X75236Y99236D01*
X100000Y128764D02*
X75236Y128764D01*
X75236Y99236D02*
X100000Y99236D01*
X105000Y104000D02*
X105000Y124000D01*
X100000Y128764D01*
X105000Y104000D02*
X100000Y99236D01*
X205543Y79307D02*
X206331Y80094D01*
X206331Y80882D01*
X205543Y81669D01*
X203181Y81669D01*
X202394Y80882D01*
X202394Y80094D01*
X203181Y79307D01*
X205543Y79307D01*
X205543Y80882D02*
X206331Y81669D01*
X203181Y82850D02*
X202394Y83638D01*
X202394Y84425D01*
X203181Y85213D01*
X203575Y85213D01*
X206331Y82850D01*
X206331Y85213D01*
X205937Y85213D01*
X207236Y128764D02*
X207236Y99236D01*
X232000Y128764D02*
X207236Y128764D01*
X207236Y99236D02*
X232000Y99236D01*
X237000Y104000D02*
X237000Y124000D01*
X232000Y128764D01*
X237000Y104000D02*
X232000Y99236D01*
X110679Y170556D02*
X111274Y171667D01*
X111274Y172778D01*
X110679Y173889D01*
X108298Y173889D01*
X108893Y176111D02*
X108298Y177222D01*
X111274Y177222D01*
X111274Y175556D02*
X111274Y178889D01*
X108893Y181111D02*
X108298Y182222D01*
X111274Y182222D01*
X111274Y180556D02*
X111274Y183889D01*
X120000Y169333D02*
X120581Y169359D01*
X121158Y169435D01*
X121725Y169560D01*
X122280Y169735D01*
X122817Y169958D01*
X123333Y170226D01*
X123824Y170539D01*
X124285Y170893D01*
X124714Y171286D01*
X125107Y171715D01*
X125461Y172176D01*
X125774Y172667D01*
X126042Y173183D01*
X126265Y173720D01*
X126440Y174275D01*
X126565Y174842D01*
X126641Y175419D01*
X126667Y176000D01*
X126641Y176581D01*
X126565Y177158D01*
X126440Y177725D01*
X126265Y178280D01*
X126042Y178817D01*
X125774Y179333D01*
X125461Y179824D01*
X125107Y180285D01*
X124714Y180714D01*
X124285Y181107D01*
X123824Y181461D01*
X123333Y181774D01*
X122817Y182042D01*
X122280Y182265D01*
X121725Y182440D01*
X121158Y182565D01*
X120581Y182641D01*
X120000Y182667D01*
X119419Y182641D01*
X118842Y182565D01*
X118275Y182440D01*
X117720Y182265D01*
X117183Y182042D01*
X116667Y181774D01*
X116176Y181461D01*
X115715Y181107D01*
X115286Y180714D01*
X114893Y180285D01*
X114539Y179824D01*
X114226Y179333D01*
X113958Y178817D01*
X113735Y178280D01*
X113560Y177725D01*
X113435Y177158D01*
X113359Y176581D01*
X113333Y176000D01*
X113359Y175419D01*
X113435Y174842D01*
X113560Y174275D01*
X113735Y173720D01*
X113958Y173183D01*
X114226Y172667D01*
X114539Y172176D01*
X114893Y171715D01*
X115286Y171286D01*
X115715Y170893D01*
X116176Y170539D01*
X116667Y170226D01*
X117183Y169958D01*
X117720Y169735D01*
X118275Y169560D01*
X118842Y169435D01*
X119419Y169359D01*
X120000Y169333D01*
X120000Y169333D01*
X290679Y169556D02*
X291274Y170667D01*
X291274Y171778D01*
X290679Y172889D01*
X288298Y172889D01*
X288893Y175111D02*
X288298Y176222D01*
X291274Y176222D01*
X291274Y174556D02*
X291274Y177889D01*
X288893Y179556D02*
X288298Y180667D01*
X288298Y181778D01*
X288893Y182889D01*
X289190Y182889D01*
X291274Y179556D01*
X291274Y182889D01*
X290976Y182889D01*
X300000Y169333D02*
X300581Y169359D01*
X301158Y169435D01*
X301725Y169560D01*
X302280Y169735D01*
X302817Y169958D01*
X303333Y170226D01*
X303824Y170539D01*
X304285Y170893D01*
X304714Y171286D01*
X305107Y171715D01*
X305461Y172176D01*
X305774Y172667D01*
X306042Y173183D01*
X306265Y173720D01*
X306440Y174275D01*
X306565Y174842D01*
X306641Y175419D01*
X306667Y176000D01*
X306641Y176581D01*
X306565Y177158D01*
X306440Y177725D01*
X306265Y178280D01*
X306042Y178817D01*
X305774Y179333D01*
X305461Y179824D01*
X305107Y180285D01*
X304714Y180714D01*
X304285Y181107D01*
X303824Y181461D01*
X303333Y181774D01*
X302817Y182042D01*
X302280Y182265D01*
X301725Y182440D01*
X301158Y182565D01*
X300581Y182641D01*
X300000Y182667D01*
X299419Y182641D01*
X298842Y182565D01*
X298275Y182440D01*
X297720Y182265D01*
X297183Y182042D01*
X296667Y181774D01*
X296176Y181461D01*
X295715Y181107D01*
X295286Y180714D01*
X294893Y180285D01*
X294539Y179824D01*
X294226Y179333D01*
X293958Y178817D01*
X293735Y178280D01*
X293560Y177725D01*
X293435Y177158D01*
X293359Y176581D01*
X293333Y176000D01*
X293359Y175419D01*
X293435Y174842D01*
X293560Y174275D01*
X293735Y173720D01*
X293958Y173183D01*
X294226Y172667D01*
X294539Y172176D01*
X294893Y171715D01*
X295286Y171286D01*
X295715Y170893D01*
X296176Y170539D01*
X296667Y170226D01*
X297183Y169958D01*
X297720Y169735D01*
X298275Y169560D01*
X298842Y169435D01*
X299419Y169359D01*
X300000Y169333D01*
X181858Y127496D02*
X114142Y127496D01*
X114142Y64504D01*
X181858Y64504D01*
X173787Y122669D02*
G75*
D01*
G02X173787Y122669I1772J0*
G01*
X181858Y97969D02*
X181687Y97961D01*
X181516Y97939D01*
X181349Y97901D01*
X181185Y97850D01*
X181026Y97784D01*
X180874Y97705D01*
X180729Y97613D01*
X180593Y97508D01*
X180466Y97392D01*
X180350Y97265D01*
X180246Y97129D01*
X180153Y96984D01*
X180074Y96832D01*
X180008Y96673D01*
X179957Y96509D01*
X179920Y96342D01*
X179897Y96172D01*
X179890Y96000D01*
X179897Y95828D01*
X179920Y95658D01*
X179957Y95491D01*
X180008Y95327D01*
X180074Y95168D01*
X180153Y95016D01*
X180246Y94871D01*
X180350Y94735D01*
X180466Y94608D01*
X180593Y94492D01*
X180729Y94387D01*
X180874Y94295D01*
X181026Y94216D01*
X181185Y94150D01*
X181349Y94099D01*
X181516Y94061D01*
X181687Y94039D01*
X181858Y94031D01*
X181858Y64504D02*
X181858Y94031D01*
X181858Y97969D02*
X181858Y127496D01*
X315000Y29000D02*
X345000Y29000D01*
X345000Y39000D01*
X315000Y39000D01*
X315000Y29000D01*
X16512Y165556D02*
X17107Y166667D01*
X17107Y167778D01*
X16512Y168889D01*
X14131Y168889D01*
X14726Y171111D02*
X14131Y172222D01*
X17107Y172222D01*
X17107Y170556D02*
X17107Y173889D01*
X19000Y164167D02*
X19000Y128333D01*
X39000Y164167D02*
X39000Y128333D01*
X19000Y167500D02*
X19000Y175000D01*
X39000Y175000D02*
X39000Y167500D01*
X19000Y175000D02*
X39000Y175000D01*
X19000Y165833D02*
X22333Y165833D01*
X21500Y166667D01*
X37333Y165833D02*
X37336Y165761D01*
X37346Y165689D01*
X37362Y165618D01*
X37383Y165548D01*
X37411Y165481D01*
X37445Y165417D01*
X37484Y165355D01*
X37528Y165298D01*
X37577Y165244D01*
X37631Y165195D01*
X37689Y165151D01*
X37750Y165112D01*
X37814Y165078D01*
X37882Y165050D01*
X37951Y165029D01*
X38022Y165013D01*
X38094Y165003D01*
X38167Y165000D01*
X38239Y165003D01*
X38311Y165013D01*
X38382Y165029D01*
X38452Y165050D01*
X38519Y165078D01*
X38583Y165112D01*
X38645Y165151D01*
X38702Y165195D01*
X38756Y165244D01*
X38805Y165298D01*
X38849Y165355D01*
X38888Y165417D01*
X38922Y165481D01*
X38950Y165548D01*
X38971Y165618D01*
X38987Y165689D01*
X38997Y165761D01*
X39000Y165833D01*
X38997Y165906D01*
X38987Y165978D01*
X38971Y166049D01*
X38950Y166118D01*
X38922Y166186D01*
X38888Y166250D01*
X38849Y166311D01*
X38805Y166369D01*
X38756Y166423D01*
X38702Y166472D01*
X38645Y166516D01*
X38583Y166555D01*
X38519Y166589D01*
X38452Y166617D01*
X38382Y166638D01*
X38311Y166654D01*
X38239Y166664D01*
X38167Y166667D01*
X35667Y165000D02*
X35667Y166667D01*
X37333Y165833D02*
X37330Y165906D01*
X37321Y165978D01*
X37305Y166049D01*
X37283Y166118D01*
X37255Y166186D01*
X37222Y166250D01*
X37183Y166311D01*
X37138Y166369D01*
X37089Y166423D01*
X37036Y166472D01*
X36978Y166516D01*
X36917Y166555D01*
X36852Y166589D01*
X36785Y166617D01*
X36716Y166638D01*
X36645Y166654D01*
X36573Y166664D01*
X36500Y166667D01*
X35667Y166667D02*
X36500Y166667D01*
X35667Y126667D02*
X39000Y126667D01*
X38167Y127500D01*
X19833Y126667D02*
X19761Y126664D01*
X19689Y126654D01*
X19618Y126638D01*
X19548Y126617D01*
X19481Y126589D01*
X19417Y126555D01*
X19355Y126516D01*
X19298Y126472D01*
X19244Y126423D01*
X19195Y126369D01*
X19151Y126311D01*
X19112Y126250D01*
X19078Y126186D01*
X19050Y126118D01*
X19029Y126049D01*
X19013Y125978D01*
X19003Y125906D01*
X19000Y125833D01*
X19003Y125761D01*
X19013Y125689D01*
X19029Y125618D01*
X19050Y125548D01*
X19078Y125481D01*
X19112Y125417D01*
X19151Y125355D01*
X19195Y125298D01*
X19244Y125244D01*
X19298Y125195D01*
X19355Y125151D01*
X19417Y125112D01*
X19481Y125078D01*
X19548Y125050D01*
X19618Y125029D01*
X19689Y125013D01*
X19761Y125003D01*
X19833Y125000D01*
X19833Y125000D01*
X21500Y125000D02*
X21573Y125003D01*
X21645Y125013D01*
X21716Y125029D01*
X21785Y125050D01*
X21852Y125078D01*
X21917Y125112D01*
X21978Y125151D01*
X22036Y125195D01*
X22089Y125244D01*
X22138Y125298D01*
X22183Y125355D01*
X22222Y125417D01*
X22255Y125481D01*
X22283Y125548D01*
X22305Y125618D01*
X22321Y125689D01*
X22330Y125761D01*
X22333Y125833D01*
X22330Y125906D01*
X22321Y125978D01*
X22305Y126049D01*
X22283Y126118D01*
X22255Y126186D01*
X22222Y126250D01*
X22183Y126311D01*
X22138Y126369D01*
X22089Y126423D01*
X22036Y126472D01*
X21978Y126516D01*
X21917Y126555D01*
X21852Y126589D01*
X21785Y126617D01*
X21716Y126638D01*
X21645Y126654D01*
X21573Y126664D01*
X21500Y126667D01*
X21427Y126664D01*
X21355Y126654D01*
X21284Y126638D01*
X21215Y126617D01*
X21148Y126589D01*
X21083Y126555D01*
X21022Y126516D01*
X20964Y126472D01*
X20911Y126423D01*
X20862Y126369D01*
X20817Y126311D01*
X20778Y126250D01*
X20745Y126186D01*
X20717Y126118D01*
X20695Y126049D01*
X20679Y125978D01*
X20670Y125906D01*
X20667Y125833D01*
X20670Y125761D01*
X20679Y125689D01*
X20695Y125618D01*
X20717Y125548D01*
X20745Y125481D01*
X20778Y125417D01*
X20817Y125355D01*
X20862Y125298D01*
X20911Y125244D01*
X20964Y125195D01*
X21022Y125151D01*
X21083Y125112D01*
X21148Y125078D01*
X21215Y125050D01*
X21284Y125029D01*
X21355Y125013D01*
X21427Y125003D01*
X21500Y125000D01*
X19000Y105000D02*
X19000Y124167D01*
X39000Y105000D02*
X39000Y123333D01*
X19833Y125000D02*
X21500Y125000D01*
X38167Y124167D02*
X36500Y125833D01*
X38167Y124167D02*
X36500Y124167D01*
X38167Y124167D02*
X38239Y124170D01*
X38311Y124179D01*
X38382Y124195D01*
X38452Y124217D01*
X38519Y124245D01*
X38583Y124278D01*
X38645Y124317D01*
X38702Y124362D01*
X38756Y124411D01*
X38805Y124464D01*
X38849Y124522D01*
X38888Y124583D01*
X38922Y124648D01*
X38950Y124715D01*
X38971Y124784D01*
X38987Y124855D01*
X38997Y124927D01*
X39000Y125000D01*
X38997Y125073D01*
X38987Y125145D01*
X38971Y125216D01*
X38950Y125285D01*
X38922Y125352D01*
X38888Y125417D01*
X38849Y125478D01*
X38805Y125536D01*
X38756Y125589D01*
X38702Y125638D01*
X38645Y125683D01*
X38583Y125722D01*
X38519Y125755D01*
X38452Y125783D01*
X38382Y125805D01*
X38311Y125821D01*
X38239Y125830D01*
X38167Y125833D01*
X36500Y125833D02*
X38167Y125833D01*
X36500Y125833D02*
X36427Y125830D01*
X36355Y125821D01*
X36284Y125805D01*
X36215Y125783D01*
X36148Y125755D01*
X36083Y125722D01*
X36022Y125683D01*
X35964Y125638D01*
X35911Y125589D01*
X35862Y125536D01*
X35817Y125478D01*
X35778Y125417D01*
X35745Y125352D01*
X35717Y125285D01*
X35695Y125216D01*
X35679Y125145D01*
X35670Y125073D01*
X35667Y125000D01*
X35670Y124927D01*
X35679Y124855D01*
X35695Y124784D01*
X35717Y124715D01*
X35745Y124648D01*
X35778Y124583D01*
X35817Y124522D01*
X35862Y124464D01*
X35911Y124411D01*
X35964Y124362D01*
X36022Y124317D01*
X36083Y124278D01*
X36148Y124245D01*
X36215Y124217D01*
X36284Y124195D01*
X36355Y124179D01*
X36427Y124170D01*
X36500Y124167D01*
X39000Y105000D02*
X19000Y105000D01*
X63000Y74000D02*
X63000Y54000D01*
X73000Y54000D01*
X73000Y74000D01*
X63000Y74000D01*
X73000Y98000D02*
X73000Y118000D01*
X63000Y118000D01*
X63000Y98000D01*
X73000Y98000D01*
X193000Y74000D02*
X193000Y54000D01*
X203000Y54000D01*
X203000Y74000D01*
X193000Y74000D01*
X203000Y98000D02*
X203000Y118000D01*
X193000Y118000D01*
X193000Y98000D01*
X203000Y98000D01*
X325679Y3556D02*
X326274Y4667D01*
X326274Y5778D01*
X325679Y6889D01*
X323298Y6889D01*
X323893Y9111D02*
X323298Y10222D01*
X326274Y10222D01*
X326274Y8556D02*
X326274Y11889D01*
X326274Y15222D02*
X324786Y15222D01*
X323893Y16889D01*
X323298Y16889D01*
X323298Y13556D01*
X323893Y13556D01*
X340667Y14000D02*
X340641Y14581D01*
X340565Y15158D01*
X340440Y15725D01*
X340265Y16280D01*
X340042Y16817D01*
X339774Y17333D01*
X339461Y17824D01*
X339107Y18285D01*
X338714Y18714D01*
X338285Y19107D01*
X337824Y19461D01*
X337333Y19774D01*
X336817Y20042D01*
X336280Y20265D01*
X335725Y20440D01*
X335158Y20565D01*
X334581Y20641D01*
X334000Y20667D01*
X333419Y20641D01*
X332842Y20565D01*
X332275Y20440D01*
X331720Y20265D01*
X331183Y20042D01*
X330667Y19774D01*
X330176Y19461D01*
X329715Y19107D01*
X329286Y18714D01*
X328893Y18285D01*
X328539Y17824D01*
X328226Y17333D01*
X327958Y16817D01*
X327735Y16280D01*
X327560Y15725D01*
X327435Y15158D01*
X327359Y14581D01*
X327333Y14000D01*
X327359Y13419D01*
X327435Y12842D01*
X327560Y12275D01*
X327735Y11720D01*
X327958Y11183D01*
X328226Y10667D01*
X328539Y10176D01*
X328893Y9715D01*
X329286Y9286D01*
X329715Y8893D01*
X330176Y8539D01*
X330667Y8226D01*
X331183Y7958D01*
X331720Y7735D01*
X332275Y7560D01*
X332842Y7435D01*
X333419Y7359D01*
X334000Y7333D01*
X334581Y7359D01*
X335158Y7435D01*
X335725Y7560D01*
X336280Y7735D01*
X336817Y7958D01*
X337333Y8226D01*
X337824Y8539D01*
X338285Y8893D01*
X338714Y9286D01*
X339107Y9715D01*
X339461Y10176D01*
X339774Y10667D01*
X340042Y11183D01*
X340265Y11720D01*
X340440Y12275D01*
X340565Y12842D01*
X340641Y13419D01*
X340667Y14000D01*
X345679Y2556D02*
X346274Y3667D01*
X346274Y4778D01*
X345679Y5889D01*
X343298Y5889D01*
X343893Y8111D02*
X343298Y9222D01*
X346274Y9222D01*
X346274Y7556D02*
X346274Y10889D01*
X343298Y15333D02*
X343298Y13667D01*
X343893Y12556D01*
X345083Y12556D01*
X345679Y12556D01*
X346274Y13667D01*
X346274Y14778D01*
X345679Y15889D01*
X345083Y15889D01*
X344488Y14778D01*
X344488Y13667D01*
X345083Y12556D01*
X360667Y14000D02*
X360641Y14581D01*
X360565Y15158D01*
X360440Y15725D01*
X360265Y16280D01*
X360042Y16817D01*
X359774Y17333D01*
X359461Y17824D01*
X359107Y18285D01*
X358714Y18714D01*
X358285Y19107D01*
X357824Y19461D01*
X357333Y19774D01*
X356817Y20042D01*
X356280Y20265D01*
X355725Y20440D01*
X355158Y20565D01*
X354581Y20641D01*
X354000Y20667D01*
X353419Y20641D01*
X352842Y20565D01*
X352275Y20440D01*
X351720Y20265D01*
X351183Y20042D01*
X350667Y19774D01*
X350176Y19461D01*
X349715Y19107D01*
X349286Y18714D01*
X348893Y18285D01*
X348539Y17824D01*
X348226Y17333D01*
X347958Y16817D01*
X347735Y16280D01*
X347560Y15725D01*
X347435Y15158D01*
X347359Y14581D01*
X347333Y14000D01*
X347359Y13419D01*
X347435Y12842D01*
X347560Y12275D01*
X347735Y11720D01*
X347958Y11183D01*
X348226Y10667D01*
X348539Y10176D01*
X348893Y9715D01*
X349286Y9286D01*
X349715Y8893D01*
X350176Y8539D01*
X350667Y8226D01*
X351183Y7958D01*
X351720Y7735D01*
X352275Y7560D01*
X352842Y7435D01*
X353419Y7359D01*
X354000Y7333D01*
X354581Y7359D01*
X355158Y7435D01*
X355725Y7560D01*
X356280Y7735D01*
X356817Y7958D01*
X357333Y8226D01*
X357824Y8539D01*
X358285Y8893D01*
X358714Y9286D01*
X359107Y9715D01*
X359461Y10176D01*
X359774Y10667D01*
X360042Y11183D01*
X360265Y11720D01*
X360440Y12275D01*
X360565Y12842D01*
X360641Y13419D01*
X360667Y14000D01*
X270595Y179056D02*
X271190Y180167D01*
X271190Y181278D01*
X270595Y182389D01*
X268214Y182389D01*
X268810Y184611D02*
X268214Y185722D01*
X271190Y185722D01*
X271190Y184056D02*
X271190Y187389D01*
X268214Y192389D02*
X268214Y189056D01*
X269405Y189056D01*
X269405Y191278D01*
X270000Y192389D01*
X270595Y192389D01*
X271190Y191278D01*
X271190Y189056D01*
X286667Y186000D02*
X286641Y186581D01*
X286565Y187158D01*
X286440Y187725D01*
X286265Y188280D01*
X286042Y188817D01*
X285774Y189333D01*
X285461Y189824D01*
X285107Y190285D01*
X284714Y190714D01*
X284285Y191107D01*
X283824Y191461D01*
X283333Y191774D01*
X282817Y192042D01*
X282280Y192265D01*
X281725Y192440D01*
X281158Y192565D01*
X280581Y192641D01*
X280000Y192667D01*
X279419Y192641D01*
X278842Y192565D01*
X278275Y192440D01*
X277720Y192265D01*
X277183Y192042D01*
X276667Y191774D01*
X276176Y191461D01*
X275715Y191107D01*
X275286Y190714D01*
X274893Y190285D01*
X274539Y189824D01*
X274226Y189333D01*
X273958Y188817D01*
X273735Y188280D01*
X273560Y187725D01*
X273435Y187158D01*
X273359Y186581D01*
X273333Y186000D01*
X273359Y185419D01*
X273435Y184842D01*
X273560Y184275D01*
X273735Y183720D01*
X273958Y183183D01*
X274226Y182667D01*
X274539Y182176D01*
X274893Y181715D01*
X275286Y181286D01*
X275715Y180893D01*
X276176Y180539D01*
X276667Y180226D01*
X277183Y179958D01*
X277720Y179735D01*
X278275Y179560D01*
X278842Y179435D01*
X279419Y179359D01*
X280000Y179333D01*
X280581Y179359D01*
X281158Y179435D01*
X281725Y179560D01*
X282280Y179735D01*
X282817Y179958D01*
X283333Y180226D01*
X283824Y180539D01*
X284285Y180893D01*
X284714Y181286D01*
X285107Y181715D01*
X285461Y182176D01*
X285774Y182667D01*
X286042Y183183D01*
X286265Y183720D01*
X286440Y184275D01*
X286565Y184842D01*
X286641Y185419D01*
X286667Y186000D01*
X286667Y186000D01*
X354220Y145685D02*
X354220Y106315D01*
X381780Y106315D01*
X381780Y145685D01*
X354220Y145685D01*
X140679Y179556D02*
X141274Y180667D01*
X141274Y181778D01*
X140679Y182889D01*
X138298Y182889D01*
X138893Y185111D02*
X138298Y186222D01*
X141274Y186222D01*
X141274Y184556D02*
X141274Y187889D01*
X140083Y192889D02*
X140083Y189556D01*
X138298Y192333D01*
X141274Y192333D01*
X141274Y191778D02*
X141274Y192889D01*
X156667Y186000D02*
X156641Y186581D01*
X156565Y187158D01*
X156440Y187725D01*
X156265Y188280D01*
X156042Y188817D01*
X155774Y189333D01*
X155461Y189824D01*
X155107Y190285D01*
X154714Y190714D01*
X154285Y191107D01*
X153824Y191461D01*
X153333Y191774D01*
X152817Y192042D01*
X152280Y192265D01*
X151725Y192440D01*
X151158Y192565D01*
X150581Y192641D01*
X150000Y192667D01*
X149419Y192641D01*
X148842Y192565D01*
X148275Y192440D01*
X147720Y192265D01*
X147183Y192042D01*
X146667Y191774D01*
X146176Y191461D01*
X145715Y191107D01*
X145286Y190714D01*
X144893Y190285D01*
X144539Y189824D01*
X144226Y189333D01*
X143958Y188817D01*
X143735Y188280D01*
X143560Y187725D01*
X143435Y187158D01*
X143359Y186581D01*
X143333Y186000D01*
X143359Y185419D01*
X143435Y184842D01*
X143560Y184275D01*
X143735Y183720D01*
X143958Y183183D01*
X144226Y182667D01*
X144539Y182176D01*
X144893Y181715D01*
X145286Y181286D01*
X145715Y180893D01*
X146176Y180539D01*
X146667Y180226D01*
X147183Y179958D01*
X147720Y179735D01*
X148275Y179560D01*
X148842Y179435D01*
X149419Y179359D01*
X150000Y179333D01*
X150581Y179359D01*
X151158Y179435D01*
X151725Y179560D01*
X152280Y179735D01*
X152817Y179958D01*
X153333Y180226D01*
X153824Y180539D01*
X154285Y180893D01*
X154714Y181286D01*
X155107Y181715D01*
X155461Y182176D01*
X155774Y182667D01*
X156042Y183183D01*
X156265Y183720D01*
X156440Y184275D01*
X156565Y184842D01*
X156641Y185419D01*
X156667Y186000D01*
X156667Y186000D01*
X88150Y160675D02*
X88150Y157325D01*
G75*
D01*
G03X88325Y157150I175J0*
G01*
X91675Y157150D01*
G75*
D01*
G03X91850Y157325I0J175*
G01*
X91850Y160675D01*
G74*
D01*
G03X91675Y160850I175J0*
G01*
X88325Y160850D01*
G75*
D01*
G03X88150Y160675I0J-175*
G01*
X86929Y151185D02*
X83357Y151185D01*
X83357Y149796D02*
X83357Y152574D01*
X86929Y153963D02*
X83357Y153963D01*
X83357Y155815D01*
X84071Y156741D01*
X84429Y156741D01*
X85143Y155815D01*
X85143Y153963D01*
X84071Y158593D02*
X83357Y159519D01*
X86929Y159519D01*
X86929Y158130D02*
X86929Y160907D01*
X84071Y162296D02*
X83357Y163222D01*
X83357Y164148D01*
X84071Y165074D01*
X86214Y165074D01*
X86929Y164148D01*
X86929Y163222D01*
X86214Y162296D01*
X84071Y162296D01*
X84071Y165074D02*
X86214Y162296D01*
X88150Y160675D02*
X88150Y157325D01*
G75*
D01*
G03X88325Y157150I175J0*
G01*
X91675Y157150D01*
G75*
D01*
G03X91850Y157325I0J175*
G01*
X91850Y160675D01*
G74*
D01*
G03X91675Y160850I175J0*
G01*
X88325Y160850D01*
G75*
D01*
G03X88150Y160675I0J-175*
G01*
X38500Y198325D02*
X38500Y191675D01*
G75*
D01*
G03X38675Y191500I175J0*
G01*
X45325Y191500D01*
G75*
D01*
G03X45500Y191675I0J175*
G01*
X45500Y198325D01*
G74*
D01*
G03X45325Y198500I175J0*
G01*
X38675Y198500D01*
G75*
D01*
G03X38500Y198325I0J-175*
G01*
X38500Y198325D02*
X38500Y191675D01*
G75*
D01*
G03X38675Y191500I175J0*
G01*
X45325Y191500D01*
G75*
D01*
G03X45500Y191675I0J175*
G01*
X45500Y198325D01*
G74*
D01*
G03X45325Y198500I175J0*
G01*
X38675Y198500D01*
G75*
D01*
G03X38500Y198325I0J-175*
G01*
X24500Y198325D02*
X24500Y191675D01*
G75*
D01*
G03X24675Y191500I175J0*
G01*
X31325Y191500D01*
G75*
D01*
G03X31500Y191675I0J175*
G01*
X31500Y198325D01*
G74*
D01*
G03X31325Y198500I175J0*
G01*
X24675Y198500D01*
G75*
D01*
G03X24500Y198325I0J-175*
G01*
X24500Y198325D02*
X24500Y191675D01*
G75*
D01*
G03X24675Y191500I175J0*
G01*
X31325Y191500D01*
G75*
D01*
G03X31500Y191675I0J175*
G01*
X31500Y198325D01*
G74*
D01*
G03X31325Y198500I175J0*
G01*
X24675Y198500D01*
G75*
D01*
G03X24500Y198325I0J-175*
G01*
X70500Y29325D02*
X70500Y22675D01*
G75*
D01*
G03X70675Y22500I175J0*
G01*
X77325Y22500D01*
G75*
D01*
G03X77500Y22675I0J175*
G01*
X77500Y29325D01*
G74*
D01*
G03X77325Y29500I175J0*
G01*
X70675Y29500D01*
G75*
D01*
G03X70500Y29325I0J-175*
G01*
X68929Y24352D02*
X65357Y24352D01*
X65357Y22963D02*
X65357Y25741D01*
X68929Y27130D02*
X65357Y27130D01*
X65357Y28981D01*
X66071Y29907D01*
X66429Y29907D01*
X67143Y28981D01*
X67143Y27130D01*
X68929Y32685D02*
X67143Y32685D01*
X66071Y34074D01*
X65357Y34074D01*
X65357Y31296D01*
X66071Y31296D01*
X70500Y29325D02*
X70500Y22675D01*
G75*
D01*
G03X70675Y22500I175J0*
G01*
X77325Y22500D01*
G75*
D01*
G03X77500Y22675I0J175*
G01*
X77500Y29325D01*
G74*
D01*
G03X77325Y29500I175J0*
G01*
X70675Y29500D01*
G75*
D01*
G03X70500Y29325I0J-175*
G01*
X62500Y20325D02*
X62500Y13675D01*
G75*
D01*
G03X62675Y13500I175J0*
G01*
X69325Y13500D01*
G75*
D01*
G03X69500Y13675I0J175*
G01*
X69500Y20325D01*
G74*
D01*
G03X69325Y20500I175J0*
G01*
X62675Y20500D01*
G75*
D01*
G03X62500Y20325I0J-175*
G01*
X60929Y12352D02*
X57357Y12352D01*
X57357Y10963D02*
X57357Y13741D01*
X60929Y15130D02*
X57357Y15130D01*
X57357Y16981D01*
X58071Y17907D01*
X58429Y17907D01*
X59143Y16981D01*
X59143Y15130D01*
X57357Y21611D02*
X57357Y20222D01*
X58071Y19296D01*
X59500Y19296D01*
X60214Y19296D01*
X60929Y20222D01*
X60929Y21148D01*
X60214Y22074D01*
X59500Y22074D01*
X58786Y21148D01*
X58786Y20222D01*
X59500Y19296D01*
X62500Y20325D02*
X62500Y13675D01*
G75*
D01*
G03X62675Y13500I175J0*
G01*
X69325Y13500D01*
G75*
D01*
G03X69500Y13675I0J175*
G01*
X69500Y20325D01*
G74*
D01*
G03X69325Y20500I175J0*
G01*
X62675Y20500D01*
G75*
D01*
G03X62500Y20325I0J-175*
G01*
X209500Y29325D02*
X209500Y22675D01*
G75*
D01*
G03X209675Y22500I175J0*
G01*
X216325Y22500D01*
G75*
D01*
G03X216500Y22675I0J175*
G01*
X216500Y29325D01*
G74*
D01*
G03X216325Y29500I175J0*
G01*
X209675Y29500D01*
G75*
D01*
G03X209500Y29325I0J-175*
G01*
X207929Y23352D02*
X204357Y23352D01*
X204357Y21963D02*
X204357Y24741D01*
X207929Y26130D02*
X204357Y26130D01*
X204357Y27981D01*
X205071Y28907D01*
X205429Y28907D01*
X206143Y27981D01*
X206143Y26130D01*
X207214Y30296D02*
X207929Y31222D01*
X207929Y32148D01*
X207214Y33074D01*
X205786Y33074D01*
X205071Y33074D01*
X204357Y32148D01*
X204357Y31222D01*
X205071Y30296D01*
X205786Y30296D01*
X206500Y31222D01*
X206500Y32148D01*
X205786Y33074D01*
X209500Y29325D02*
X209500Y22675D01*
G75*
D01*
G03X209675Y22500I175J0*
G01*
X216325Y22500D01*
G75*
D01*
G03X216500Y22675I0J175*
G01*
X216500Y29325D01*
G74*
D01*
G03X216325Y29500I175J0*
G01*
X209675Y29500D01*
G75*
D01*
G03X209500Y29325I0J-175*
G01*
X202500Y19325D02*
X202500Y12675D01*
G75*
D01*
G03X202675Y12500I175J0*
G01*
X209325Y12500D01*
G75*
D01*
G03X209500Y12675I0J175*
G01*
X209500Y19325D01*
G74*
D01*
G03X209325Y19500I175J0*
G01*
X202675Y19500D01*
G75*
D01*
G03X202500Y19325I0J-175*
G01*
X200929Y12352D02*
X197357Y12352D01*
X197357Y10963D02*
X197357Y13741D01*
X200929Y15130D02*
X197357Y15130D01*
X197357Y16981D01*
X198071Y17907D01*
X198429Y17907D01*
X199143Y16981D01*
X199143Y15130D01*
X200929Y21148D02*
X200929Y20222D01*
X200214Y19296D01*
X199500Y19296D01*
X199143Y19759D01*
X198786Y19296D01*
X198071Y19296D01*
X197357Y20222D01*
X197357Y21148D01*
X198071Y22074D01*
X198786Y22074D01*
X199143Y21611D01*
X199500Y22074D01*
X200214Y22074D01*
X200929Y21148D01*
X199143Y19759D02*
X199143Y21611D01*
X202500Y19325D02*
X202500Y12675D01*
G75*
D01*
G03X202675Y12500I175J0*
G01*
X209325Y12500D01*
G75*
D01*
G03X209500Y12675I0J175*
G01*
X209500Y19325D01*
G74*
D01*
G03X209325Y19500I175J0*
G01*
X202675Y19500D01*
G75*
D01*
G03X202500Y19325I0J-175*
G01*
X171500Y47325D02*
X171500Y40675D01*
G75*
D01*
G03X171675Y40500I175J0*
G01*
X178325Y40500D01*
G75*
D01*
G03X178500Y40675I0J175*
G01*
X178500Y47325D01*
G74*
D01*
G03X178325Y47500I175J0*
G01*
X171675Y47500D01*
G75*
D01*
G03X171500Y47325I0J-175*
G01*
X171500Y47325D02*
X171500Y40675D01*
G75*
D01*
G03X171675Y40500I175J0*
G01*
X178325Y40500D01*
G75*
D01*
G03X178500Y40675I0J175*
G01*
X178500Y47325D01*
G74*
D01*
G03X178325Y47500I175J0*
G01*
X171675Y47500D01*
G75*
D01*
G03X171500Y47325I0J-175*
G01*
X117500Y40325D02*
X117500Y33675D01*
G75*
D01*
G03X117675Y33500I175J0*
G01*
X124325Y33500D01*
G75*
D01*
G03X124500Y33675I0J175*
G01*
X124500Y40325D01*
G74*
D01*
G03X124325Y40500I175J0*
G01*
X117675Y40500D01*
G75*
D01*
G03X117500Y40325I0J-175*
G01*
X117500Y40325D02*
X117500Y33675D01*
G75*
D01*
G03X117675Y33500I175J0*
G01*
X124325Y33500D01*
G75*
D01*
G03X124500Y33675I0J175*
G01*
X124500Y40325D01*
G74*
D01*
G03X124325Y40500I175J0*
G01*
X117675Y40500D01*
G75*
D01*
G03X117500Y40325I0J-175*
G01*
X249500Y40325D02*
X249500Y33675D01*
G75*
D01*
G03X249675Y33500I175J0*
G01*
X256325Y33500D01*
G75*
D01*
G03X256500Y33675I0J175*
G01*
X256500Y40325D01*
G74*
D01*
G03X256325Y40500I175J0*
G01*
X249675Y40500D01*
G75*
D01*
G03X249500Y40325I0J-175*
G01*
X249500Y40325D02*
X249500Y33675D01*
G75*
D01*
G03X249675Y33500I175J0*
G01*
X256325Y33500D01*
G75*
D01*
G03X256500Y33675I0J175*
G01*
X256500Y40325D01*
G74*
D01*
G03X256325Y40500I175J0*
G01*
X249675Y40500D01*
G75*
D01*
G03X249500Y40325I0J-175*
G01*
X304500Y47325D02*
X304500Y40675D01*
G75*
D01*
G03X304675Y40500I175J0*
G01*
X311325Y40500D01*
G75*
D01*
G03X311500Y40675I0J175*
G01*
X311500Y47325D01*
G74*
D01*
G03X311325Y47500I175J0*
G01*
X304675Y47500D01*
G75*
D01*
G03X304500Y47325I0J-175*
G01*
X304500Y47325D02*
X304500Y40675D01*
G75*
D01*
G03X304675Y40500I175J0*
G01*
X311325Y40500D01*
G75*
D01*
G03X311500Y40675I0J175*
G01*
X311500Y47325D01*
G74*
D01*
G03X311325Y47500I175J0*
G01*
X304675Y47500D01*
G75*
D01*
G03X304500Y47325I0J-175*
G01*
X232500Y42325D02*
X232500Y35675D01*
G75*
D01*
G03X232675Y35500I175J0*
G01*
X239325Y35500D01*
G75*
D01*
G03X239500Y35675I0J175*
G01*
X239500Y42325D01*
G74*
D01*
G03X239325Y42500I175J0*
G01*
X232675Y42500D01*
G75*
D01*
G03X232500Y42325I0J-175*
G01*
X232500Y42325D02*
X232500Y35675D01*
G75*
D01*
G03X232675Y35500I175J0*
G01*
X239325Y35500D01*
G75*
D01*
G03X239500Y35675I0J175*
G01*
X239500Y42325D01*
G74*
D01*
G03X239325Y42500I175J0*
G01*
X232675Y42500D01*
G75*
D01*
G03X232500Y42325I0J-175*
G01*
X339294Y120531D02*
X339294Y107469D01*
G75*
D01*
G03X339469Y107294I175J0*
G01*
X352531Y107294D01*
G75*
D01*
G03X352706Y107469I0J175*
G01*
X352706Y120531D01*
G74*
D01*
G03X352531Y120706I175J0*
G01*
X339469Y120706D01*
G75*
D01*
G03X339294Y120531I0J-175*
G01*
X339294Y120531D02*
X339294Y107469D01*
G75*
D01*
G03X339469Y107294I175J0*
G01*
X352531Y107294D01*
G75*
D01*
G03X352706Y107469I0J175*
G01*
X352706Y120531D01*
G74*
D01*
G03X352531Y120706I175J0*
G01*
X339469Y120706D01*
G75*
D01*
G03X339294Y120531I0J-175*
G01*
X339294Y143531D02*
X339294Y130469D01*
G75*
D01*
G03X339469Y130294I175J0*
G01*
X352531Y130294D01*
G75*
D01*
G03X352706Y130469I0J175*
G01*
X352706Y143531D01*
G74*
D01*
G03X352531Y143706I175J0*
G01*
X339469Y143706D01*
G75*
D01*
G03X339294Y143531I0J-175*
G01*
X339294Y143531D02*
X339294Y130469D01*
G75*
D01*
G03X339469Y130294I175J0*
G01*
X352531Y130294D01*
G75*
D01*
G03X352706Y130469I0J175*
G01*
X352706Y143531D01*
G74*
D01*
G03X352531Y143706I175J0*
G01*
X339469Y143706D01*
G75*
D01*
G03X339294Y143531I0J-175*
G01*
X347531Y41294D02*
X347531Y34706D01*
G75*
D01*
G03X347706Y34531I175J0*
G01*
X354294Y34531D01*
G75*
D01*
G03X354469Y34706I0J175*
G01*
X354469Y41294D01*
G74*
D01*
G03X354294Y41469I175J0*
G01*
X347706Y41469D01*
G75*
D01*
G03X347531Y41294I0J-175*
G01*
X347531Y41294D02*
X347531Y34706D01*
G75*
D01*
G03X347706Y34531I175J0*
G01*
X354294Y34531D01*
G75*
D01*
G03X354469Y34706I0J175*
G01*
X354469Y41294D01*
G74*
D01*
G03X354294Y41469I175J0*
G01*
X347706Y41469D01*
G75*
D01*
G03X347531Y41294I0J-175*
G01*
X180150Y201675D02*
X180150Y198325D01*
G75*
D01*
G03X180325Y198150I175J0*
G01*
X183675Y198150D01*
G75*
D01*
G03X183850Y198325I0J175*
G01*
X183850Y201675D01*
G74*
D01*
G03X183675Y201850I175J0*
G01*
X180325Y201850D01*
G75*
D01*
G03X180150Y201675I0J-175*
G01*
X180150Y201675D02*
X180150Y198325D01*
G75*
D01*
G03X180325Y198150I175J0*
G01*
X183675Y198150D01*
G75*
D01*
G03X183850Y198325I0J175*
G01*
X183850Y201675D01*
G74*
D01*
G03X183675Y201850I175J0*
G01*
X180325Y201850D01*
G75*
D01*
G03X180150Y201675I0J-175*
G01*
X170150Y201675D02*
X170150Y198325D01*
G75*
D01*
G03X170325Y198150I175J0*
G01*
X173675Y198150D01*
G75*
D01*
G03X173850Y198325I0J175*
G01*
X173850Y201675D01*
G74*
D01*
G03X173675Y201850I175J0*
G01*
X170325Y201850D01*
G75*
D01*
G03X170150Y201675I0J-175*
G01*
X170150Y201675D02*
X170150Y198325D01*
G75*
D01*
G03X170325Y198150I175J0*
G01*
X173675Y198150D01*
G75*
D01*
G03X173850Y198325I0J175*
G01*
X173850Y201675D01*
G74*
D01*
G03X173675Y201850I175J0*
G01*
X170325Y201850D01*
G75*
D01*
G03X170150Y201675I0J-175*
G01*
X160150Y201675D02*
X160150Y198325D01*
G75*
D01*
G03X160325Y198150I175J0*
G01*
X163675Y198150D01*
G75*
D01*
G03X163850Y198325I0J175*
G01*
X163850Y201675D01*
G74*
D01*
G03X163675Y201850I175J0*
G01*
X160325Y201850D01*
G75*
D01*
G03X160150Y201675I0J-175*
G01*
X160150Y201675D02*
X160150Y198325D01*
G75*
D01*
G03X160325Y198150I175J0*
G01*
X163675Y198150D01*
G75*
D01*
G03X163850Y198325I0J175*
G01*
X163850Y201675D01*
G74*
D01*
G03X163675Y201850I175J0*
G01*
X160325Y201850D01*
G75*
D01*
G03X160150Y201675I0J-175*
G01*
X150150Y201675D02*
X150150Y198325D01*
G75*
D01*
G03X150325Y198150I175J0*
G01*
X153675Y198150D01*
G75*
D01*
G03X153850Y198325I0J175*
G01*
X153850Y201675D01*
G74*
D01*
G03X153675Y201850I175J0*
G01*
X150325Y201850D01*
G75*
D01*
G03X150150Y201675I0J-175*
G01*
X150150Y201675D02*
X150150Y198325D01*
G75*
D01*
G03X150325Y198150I175J0*
G01*
X153675Y198150D01*
G75*
D01*
G03X153850Y198325I0J175*
G01*
X153850Y201675D01*
G74*
D01*
G03X153675Y201850I175J0*
G01*
X150325Y201850D01*
G75*
D01*
G03X150150Y201675I0J-175*
G01*
X140150Y201675D02*
X140150Y198325D01*
G75*
D01*
G03X140325Y198150I175J0*
G01*
X143675Y198150D01*
G75*
D01*
G03X143850Y198325I0J175*
G01*
X143850Y201675D01*
G74*
D01*
G03X143675Y201850I175J0*
G01*
X140325Y201850D01*
G75*
D01*
G03X140150Y201675I0J-175*
G01*
X140150Y201675D02*
X140150Y198325D01*
G75*
D01*
G03X140325Y198150I175J0*
G01*
X143675Y198150D01*
G75*
D01*
G03X143850Y198325I0J175*
G01*
X143850Y201675D01*
G74*
D01*
G03X143675Y201850I175J0*
G01*
X140325Y201850D01*
G75*
D01*
G03X140150Y201675I0J-175*
G01*
X77500Y198325D02*
X77500Y191675D01*
G75*
D01*
G03X77675Y191500I175J0*
G01*
X84325Y191500D01*
G75*
D01*
G03X84500Y191675I0J175*
G01*
X84500Y198325D01*
G74*
D01*
G03X84325Y198500I175J0*
G01*
X77675Y198500D01*
G75*
D01*
G03X77500Y198325I0J-175*
G01*
X77500Y198325D02*
X77500Y191675D01*
G75*
D01*
G03X77675Y191500I175J0*
G01*
X84325Y191500D01*
G75*
D01*
G03X84500Y191675I0J175*
G01*
X84500Y198325D01*
G74*
D01*
G03X84325Y198500I175J0*
G01*
X77675Y198500D01*
G75*
D01*
G03X77500Y198325I0J-175*
G01*
X28500Y259325D02*
X28500Y252675D01*
G75*
D01*
G03X28675Y252500I175J0*
G01*
X35325Y252500D01*
G75*
D01*
G03X35500Y252675I0J175*
G01*
X35500Y259325D01*
G74*
D01*
G03X35325Y259500I175J0*
G01*
X28675Y259500D01*
G75*
D01*
G03X28500Y259325I0J-175*
G01*
X28500Y252675D01*
G75*
D01*
G03X28675Y252500I175J0*
G01*
X35325Y252500D01*
G75*
D01*
G03X35500Y252675I0J175*
G01*
X35500Y259325D01*
G74*
D01*
G03X35325Y259500I175J0*
G01*
X28675Y259500D01*
G75*
D01*
G03X28500Y259325I0J-175*
G01*
X18500Y259325D02*
X18500Y252675D01*
G75*
D01*
G03X18675Y252500I175J0*
G01*
X25325Y252500D01*
G75*
D01*
G03X25500Y252675I0J175*
G01*
X25500Y259325D01*
G74*
D01*
G03X25325Y259500I175J0*
G01*
X18675Y259500D01*
G75*
D01*
G03X18500Y259325I0J-175*
G01*
X18500Y252675D01*
G75*
D01*
G03X18675Y252500I175J0*
G01*
X25325Y252500D01*
G75*
D01*
G03X25500Y252675I0J175*
G01*
X25500Y259325D01*
G74*
D01*
G03X25325Y259500I175J0*
G01*
X18675Y259500D01*
G75*
D01*
G03X18500Y259325I0J-175*
G01*
X269701Y278382D02*
X232299Y278382D01*
X232299Y219720D01*
X269701Y219720D02*
X269701Y278382D01*
X232299Y219720D02*
X269701Y219720D01*
X398382Y161299D02*
X398382Y198701D01*
X339720Y198701D01*
X339720Y161299D02*
X398382Y161299D01*
X339720Y198701D02*
X339720Y161299D01*
X330701Y278382D02*
X293299Y278382D01*
X293299Y219720D01*
X330701Y219720D02*
X330701Y278382D01*
X293299Y219720D02*
X330701Y219720D01*
G54D14*
G36*
X362000Y49000D02*
X362000Y98000D01*
X377000Y98000D01*
X377000Y49000D01*
X362000Y49000D01*
G37*
G54D15*
X301000Y97000D02*
X301000Y119000D01*
X259000Y119000D01*
X259000Y97000D01*
X301000Y97000D01*
X277000Y95000D02*
X277000Y73000D01*
X251000Y73000D01*
X251000Y95000D01*
X277000Y95000D01*
X283000Y95000D02*
X309000Y95000D01*
X309000Y73000D02*
X283000Y73000D01*
X283000Y95000D01*
X309000Y95000D02*
X309000Y73000D01*
X169000Y97000D02*
X169000Y119000D01*
X127000Y119000D01*
X127000Y97000D01*
X169000Y97000D01*
X145000Y95000D02*
X145000Y73000D01*
X119000Y73000D01*
X119000Y95000D01*
X145000Y95000D01*
X151000Y95000D02*
X177000Y95000D01*
X177000Y73000D02*
X151000Y73000D01*
X151000Y95000D01*
X177000Y95000D02*
X177000Y73000D01*
G54D16*
X148835Y162000D02*
X153165Y162000D01*
X148835Y162000D02*
X153165Y162000D01*
X137835Y162000D02*
X142165Y162000D01*
X137835Y162000D02*
X142165Y162000D01*
X159835Y162000D02*
X164165Y162000D01*
X159835Y162000D02*
X164165Y162000D01*
X169835Y162000D02*
X174165Y162000D01*
X169835Y162000D02*
X174165Y162000D01*
X239835Y162000D02*
X244165Y162000D01*
X239835Y162000D02*
X244165Y162000D01*
X249835Y162000D02*
X254165Y162000D01*
X249835Y162000D02*
X254165Y162000D01*
X259835Y162000D02*
X264165Y162000D01*
X259835Y162000D02*
X264165Y162000D01*
X146000Y48165D02*
X146000Y43835D01*
X146000Y48165D02*
X146000Y43835D01*
X278000Y48165D02*
X278000Y43835D01*
X278000Y48165D02*
X278000Y43835D01*
X100795Y66520D02*
X100795Y62189D01*
X75205Y62189D01*
X75205Y66520D01*
X232795Y66520D02*
X232795Y62189D01*
X207205Y62189D01*
X207205Y66520D01*
X107835Y162000D02*
X112165Y162000D01*
X107835Y162000D02*
X112165Y162000D01*
X117835Y162000D02*
X122165Y162000D01*
X117835Y162000D02*
X122165Y162000D01*
X127835Y162000D02*
X132165Y162000D01*
X127835Y162000D02*
X132165Y162000D01*
X269835Y162000D02*
X274165Y162000D01*
X269835Y162000D02*
X274165Y162000D01*
X279835Y162000D02*
X284165Y162000D01*
X279835Y162000D02*
X284165Y162000D01*
X291835Y162000D02*
X296165Y162000D01*
X291835Y162000D02*
X296165Y162000D01*
X301835Y162000D02*
X306165Y162000D01*
X301835Y162000D02*
X306165Y162000D01*
X311835Y162000D02*
X316165Y162000D01*
X311835Y162000D02*
X316165Y162000D01*
X179835Y162000D02*
X184165Y162000D01*
X179835Y162000D02*
X184165Y162000D01*
G54D17*
X151756Y31179D02*
X152822Y32071D01*
X151756Y32964D01*
X152244Y38821D02*
X151178Y37929D01*
X152244Y37036D01*
X283756Y31179D02*
X284822Y32071D01*
X283756Y32964D01*
X284244Y38821D02*
X283178Y37929D01*
X284244Y37036D01*
G54D18*
X326864Y31425D02*
X326864Y35362D01*
X328432Y35362D01*
X329216Y34575D01*
X329216Y34181D01*
X328432Y33394D01*
X326864Y33394D01*
X330392Y31425D02*
X330392Y35362D01*
X332744Y35362D01*
X330392Y33394D02*
X331960Y33394D01*
X380917Y200630D02*
X380133Y199843D01*
X379349Y199843D01*
X378565Y200630D01*
X378565Y202992D01*
X379349Y203780D01*
X380133Y203780D01*
X380917Y202992D01*
X382093Y199843D02*
X382093Y203780D01*
X384444Y199843D02*
X384444Y203780D01*
X382093Y201811D02*
X384444Y201811D01*
X385620Y199843D02*
X385620Y202205D01*
X386404Y203780D01*
X387188Y203780D01*
X387972Y202205D01*
X387972Y199843D01*
X385620Y201024D02*
X387972Y201024D01*
X389148Y199843D02*
X389148Y203780D01*
X390716Y203780D01*
X391500Y202992D01*
X391500Y202598D01*
X390716Y201811D01*
X389148Y201811D01*
X389540Y201811D02*
X391500Y199843D01*
X394243Y201811D02*
X395027Y201811D01*
X395027Y200630D01*
X394243Y199843D01*
X393459Y199843D01*
X392675Y200630D01*
X392675Y202992D01*
X393459Y203780D01*
X395027Y203780D01*
X398555Y199843D02*
X396203Y199843D01*
X396203Y201811D01*
X396203Y203780D01*
X398555Y203780D01*
X396203Y201811D02*
X397771Y201811D01*
X205331Y174754D02*
X201394Y174754D01*
X201394Y176322D01*
X202181Y177106D01*
X202575Y177106D01*
X203362Y176322D01*
X203362Y174754D01*
X203362Y175146D02*
X205331Y177106D01*
X205331Y179066D02*
X205331Y179850D01*
X201394Y179066D02*
X201394Y179850D01*
X205331Y179458D02*
X201394Y179458D01*
X203362Y183377D02*
X203362Y184161D01*
X204543Y184161D01*
X205331Y183377D01*
X205331Y182593D01*
X204543Y181809D01*
X202181Y181809D01*
X201394Y182593D01*
X201394Y184161D01*
X205331Y185337D02*
X201394Y185337D01*
X205331Y187689D02*
X201394Y187689D01*
X203362Y185337D02*
X203362Y187689D01*
X205331Y190040D02*
X201394Y190040D01*
X201394Y188864D02*
X201394Y191216D01*
X210843Y174754D02*
X206906Y174754D01*
X208874Y175930D01*
X206906Y177106D01*
X210843Y177106D01*
X210055Y178282D02*
X210843Y179066D01*
X210843Y179850D01*
X210055Y180633D01*
X207693Y180633D01*
X206906Y179850D01*
X206906Y179066D01*
X207693Y178282D01*
X210055Y178282D01*
X210843Y182985D02*
X206906Y182985D01*
X206906Y181809D02*
X206906Y184161D01*
X210055Y185337D02*
X210843Y186121D01*
X210843Y186905D01*
X210055Y187689D01*
X207693Y187689D01*
X206906Y186905D01*
X206906Y186121D01*
X207693Y185337D01*
X210055Y185337D01*
X210843Y188864D02*
X206906Y188864D01*
X206906Y190432D01*
X207693Y191216D01*
X208087Y191216D01*
X208874Y190432D01*
X208874Y188864D01*
X208874Y189256D02*
X210843Y191216D01*
X216354Y174754D02*
X216354Y176322D01*
X215567Y177106D01*
X215173Y177106D01*
X214386Y176322D01*
X213598Y177106D01*
X213205Y177106D01*
X212417Y176322D01*
X212417Y175146D01*
X212417Y174754D01*
X214386Y175146D02*
X214386Y176322D01*
X212417Y175146D02*
X216354Y175146D01*
X216354Y178282D02*
X213992Y178282D01*
X212417Y179066D01*
X212417Y179850D01*
X213992Y180633D01*
X216354Y180633D01*
X215173Y178282D02*
X215173Y180633D01*
X216354Y181809D02*
X212417Y181809D01*
X216354Y184161D01*
X212417Y184161D01*
X216354Y185337D02*
X212417Y185337D01*
X214386Y185337D02*
X214386Y185729D01*
X212417Y187689D01*
X214386Y185729D02*
X216354Y187689D01*
X134392Y28425D02*
X135960Y28425D01*
X136744Y29213D01*
X136744Y29606D01*
X135960Y30394D01*
X136744Y31181D01*
X136744Y31575D01*
X135960Y32362D01*
X134784Y32362D01*
X134392Y32362D01*
X134784Y30394D02*
X135960Y30394D01*
X134784Y32362D02*
X134784Y28425D01*
X266392Y28425D02*
X267960Y28425D01*
X268744Y29213D01*
X268744Y29606D01*
X267960Y30394D01*
X268744Y31181D01*
X268744Y31575D01*
X267960Y32362D01*
X266784Y32362D01*
X266392Y32362D01*
X266784Y30394D02*
X267960Y30394D01*
X266784Y32362D02*
X266784Y28425D01*
X155392Y24425D02*
X155392Y26787D01*
X156176Y28362D01*
X156960Y28362D01*
X157744Y26787D01*
X157744Y24425D01*
X155392Y25606D02*
X157744Y25606D01*
X286392Y24425D02*
X286392Y26787D01*
X287176Y28362D01*
X287960Y28362D01*
X288744Y26787D01*
X288744Y24425D01*
X286392Y25606D02*
X288744Y25606D01*
X62331Y189337D02*
X58394Y189337D01*
X60362Y190513D01*
X58394Y191689D01*
X62331Y191689D01*
X60756Y195216D02*
X60756Y192864D01*
X58394Y194824D01*
X62331Y194824D01*
X62331Y194432D02*
X62331Y195216D01*
X14331Y22337D02*
X10394Y22337D01*
X12362Y23513D01*
X10394Y24689D01*
X14331Y24689D01*
X11181Y26256D02*
X10394Y27040D01*
X14331Y27040D01*
X14331Y25864D02*
X14331Y28216D01*
X364331Y21337D02*
X360394Y21337D01*
X362362Y22513D01*
X360394Y23689D01*
X364331Y23689D01*
X361181Y24864D02*
X360394Y25648D01*
X360394Y26432D01*
X361181Y27216D01*
X361575Y27216D01*
X364331Y24864D01*
X364331Y27216D01*
X363937Y27216D01*
X365331Y252337D02*
X361394Y252337D01*
X363362Y253513D01*
X361394Y254689D01*
X365331Y254689D01*
X361787Y256256D02*
X361394Y256648D01*
X361394Y257432D01*
X362181Y258216D01*
X362969Y258216D01*
X363362Y257824D01*
X363756Y258216D01*
X364543Y258216D01*
X365331Y257432D01*
X365331Y256648D01*
X364937Y256256D01*
X363362Y256648D02*
X363362Y257824D01*
X333181Y260201D02*
X332394Y260985D01*
X336331Y260985D01*
X336331Y259809D02*
X336331Y262161D01*
X333181Y263337D02*
X332394Y264121D01*
X332394Y264905D01*
X333181Y265689D01*
X335543Y265689D01*
X336331Y264905D01*
X336331Y264121D01*
X335543Y263337D01*
X333181Y263337D01*
X333181Y265689D02*
X335543Y263337D01*
X336331Y266864D02*
X333969Y266864D01*
X332394Y267648D01*
X332394Y268432D01*
X333969Y269216D01*
X336331Y269216D01*
X335150Y266864D02*
X335150Y269216D01*
X341843Y259809D02*
X337906Y259809D01*
X339874Y260985D01*
X337906Y262161D01*
X341843Y262161D01*
X341843Y263337D02*
X339480Y263337D01*
X337906Y264121D01*
X337906Y264905D01*
X339480Y265689D01*
X341843Y265689D01*
X340661Y263337D02*
X340661Y265689D01*
X337906Y266864D02*
X341843Y269216D01*
X341843Y266864D02*
X337906Y269216D01*
X345394Y22689D02*
X345394Y20337D01*
X346969Y20337D01*
X346969Y21905D01*
X347756Y22689D01*
X348543Y22689D01*
X349331Y21905D01*
X349331Y20337D01*
X345394Y23864D02*
X349331Y25040D01*
X345394Y26216D01*
X327362Y20377D02*
X327362Y21161D01*
X328543Y21161D01*
X329331Y20377D01*
X329331Y19593D01*
X328543Y18809D01*
X326181Y18809D01*
X325394Y19593D01*
X325394Y21161D01*
X329331Y22337D02*
X325394Y22337D01*
X329331Y24689D01*
X325394Y24689D01*
X329331Y25864D02*
X329331Y27432D01*
X328543Y28216D01*
X326181Y28216D01*
X325394Y27432D01*
X325394Y25864D01*
X325394Y26256D02*
X329331Y26256D01*
X340543Y47479D02*
X341331Y48262D01*
X341331Y49046D01*
X340543Y49830D01*
X337394Y49830D01*
X340543Y51006D02*
X341331Y51790D01*
X341331Y52574D01*
X340543Y53358D01*
X338181Y53358D01*
X337394Y52574D01*
X337394Y51790D01*
X338181Y51006D01*
X340543Y51006D01*
X340543Y54534D02*
X341331Y55318D01*
X341331Y56101D01*
X340543Y56885D01*
X338181Y54534D01*
X337394Y55318D01*
X337394Y56101D01*
X338181Y56885D01*
X341331Y60413D02*
X341331Y58061D01*
X339362Y58061D01*
X337394Y58061D01*
X337394Y60413D01*
X339362Y58061D02*
X339362Y59629D01*
X341331Y61589D02*
X337394Y61589D01*
X337394Y63157D01*
X338181Y63941D01*
X338575Y63941D01*
X339362Y63157D01*
X339362Y61589D01*
X341331Y65116D02*
X337394Y65116D01*
X341331Y67468D02*
X337394Y67468D01*
X339362Y65116D02*
X339362Y67468D01*
X341331Y72171D02*
X337394Y72171D01*
X339362Y72171D02*
X339362Y72563D01*
X337394Y74523D01*
X339362Y72563D02*
X341331Y74523D01*
X337394Y75699D02*
X341331Y75699D01*
X341331Y78051D01*
X340543Y79227D02*
X341331Y80010D01*
X341331Y80794D01*
X340543Y81578D01*
X338181Y81578D01*
X337394Y80794D01*
X337394Y80010D01*
X338181Y79227D01*
X340543Y79227D01*
X341331Y85106D02*
X341331Y82754D01*
X339362Y82754D01*
X337394Y82754D01*
X337394Y85106D01*
X339362Y82754D02*
X339362Y84322D01*
X341331Y86282D02*
X337394Y86282D01*
X337394Y87850D01*
X338181Y88633D01*
X338575Y88633D01*
X339362Y87850D01*
X339362Y86282D01*
X341331Y89809D02*
X337394Y89809D01*
X337394Y91377D01*
X338181Y92161D01*
X338575Y92161D01*
X339362Y91377D01*
X339362Y89809D01*
X341331Y95689D02*
X341331Y93337D01*
X339362Y93337D01*
X337394Y93337D01*
X337394Y95689D01*
X339362Y93337D02*
X339362Y94905D01*
X337394Y96864D02*
X341331Y96864D01*
X341331Y99216D01*
X342906Y68644D02*
X346055Y68644D01*
X346843Y69428D01*
X346843Y70212D01*
X346055Y70996D01*
X342906Y70996D01*
X346843Y72171D02*
X342906Y72171D01*
X346843Y74523D01*
X342906Y74523D01*
X346843Y75699D02*
X342906Y75699D01*
X344874Y76875D01*
X342906Y78051D01*
X346843Y78051D01*
X351567Y47479D02*
X352354Y48262D01*
X352354Y49046D01*
X351567Y49830D01*
X349205Y49830D01*
X348417Y49046D01*
X348417Y48262D01*
X349205Y47479D01*
X351567Y47479D01*
X351567Y53358D02*
X352354Y52574D01*
X352354Y51790D01*
X351567Y51006D01*
X349205Y51006D01*
X348417Y51790D01*
X348417Y52574D01*
X349205Y53358D01*
X352354Y55710D02*
X348417Y55710D01*
X348417Y54534D02*
X348417Y56885D01*
X351567Y58061D02*
X352354Y58845D01*
X352354Y59629D01*
X351567Y60413D01*
X349205Y60413D01*
X348417Y59629D01*
X348417Y58845D01*
X349205Y58061D01*
X351567Y58061D01*
X352354Y61589D02*
X352354Y63157D01*
X351567Y63941D01*
X351173Y63941D01*
X350386Y63157D01*
X349598Y63941D01*
X349205Y63941D01*
X348417Y63157D01*
X348417Y61981D01*
X348417Y61589D01*
X350386Y61981D02*
X350386Y63157D01*
X348417Y61981D02*
X352354Y61981D01*
X352354Y67468D02*
X352354Y65116D01*
X350386Y65116D01*
X348417Y65116D01*
X348417Y67468D01*
X350386Y65116D02*
X350386Y66684D01*
X352354Y68644D02*
X348417Y68644D01*
X348417Y70212D01*
X349205Y70996D01*
X349598Y70996D01*
X350386Y70212D01*
X350386Y68644D01*
X350386Y69036D02*
X352354Y70996D01*
X349205Y75699D02*
X348417Y76483D01*
X348417Y77267D01*
X349205Y78051D01*
X349598Y78051D01*
X352354Y75699D01*
X352354Y78051D01*
X351961Y78051D01*
X349205Y79619D02*
X348417Y80402D01*
X352354Y80402D01*
X352354Y79227D02*
X352354Y81578D01*
X349205Y86282D02*
X348417Y87066D01*
X348417Y87850D01*
X349205Y88633D01*
X349598Y88633D01*
X352354Y86282D01*
X352354Y88633D01*
X351961Y88633D01*
X349205Y89809D02*
X348417Y90593D01*
X348417Y91377D01*
X349205Y92161D01*
X351567Y92161D01*
X352354Y91377D01*
X352354Y90593D01*
X351567Y89809D01*
X349205Y89809D01*
X349205Y92161D02*
X351567Y89809D01*
X349205Y93729D02*
X348417Y94513D01*
X352354Y94513D01*
X352354Y93337D02*
X352354Y95689D01*
X348417Y99216D02*
X348417Y96864D01*
X349992Y96864D01*
X349992Y98432D01*
X350780Y99216D01*
X351567Y99216D01*
X352354Y98432D01*
X352354Y96864D01*
X357866Y65116D02*
X353929Y65116D01*
X353929Y66684D01*
X354717Y67468D01*
X355110Y67468D01*
X355898Y66684D01*
X355898Y65116D01*
X355898Y65508D02*
X357866Y67468D01*
X357866Y70996D02*
X357866Y68644D01*
X355898Y68644D01*
X353929Y68644D01*
X353929Y70996D01*
X355898Y68644D02*
X355898Y70212D01*
X353929Y72171D02*
X357866Y73347D01*
X353929Y74523D01*
X357866Y79227D02*
X357866Y80794D01*
X357079Y81578D01*
X356685Y81578D01*
X355898Y80794D01*
X355110Y81578D01*
X354717Y81578D01*
X353929Y80794D01*
X353929Y79619D01*
X353929Y79227D01*
X355898Y79619D02*
X355898Y80794D01*
X353929Y79619D02*
X357866Y79619D01*
X220331Y223479D02*
X220331Y225046D01*
X219543Y225830D01*
X219150Y225830D01*
X218362Y225046D01*
X217575Y225830D01*
X217181Y225830D01*
X216394Y225046D01*
X216394Y223871D01*
X216394Y223479D01*
X218362Y223871D02*
X218362Y225046D01*
X216394Y223871D02*
X220331Y223871D01*
X220331Y227006D02*
X217969Y227006D01*
X216394Y227790D01*
X216394Y228574D01*
X217969Y229358D01*
X220331Y229358D01*
X219150Y227006D02*
X219150Y229358D01*
X220331Y231710D02*
X216394Y231710D01*
X216394Y230534D02*
X216394Y232885D01*
X220331Y235237D02*
X216394Y235237D01*
X216394Y234061D02*
X216394Y236413D01*
X220331Y239941D02*
X220331Y237589D01*
X218362Y237589D01*
X216394Y237589D01*
X216394Y239941D01*
X218362Y237589D02*
X218362Y239157D01*
X220331Y241116D02*
X216394Y241116D01*
X216394Y242684D01*
X217181Y243468D01*
X217575Y243468D01*
X218362Y242684D01*
X218362Y241116D01*
X218362Y241508D02*
X220331Y243468D01*
X216394Y244644D02*
X218362Y245820D01*
X216394Y246996D01*
X218362Y245820D02*
X220331Y245820D01*
X217181Y252091D02*
X216394Y252875D01*
X220331Y252875D01*
X220331Y251699D02*
X220331Y254051D01*
X217181Y255227D02*
X216394Y256010D01*
X216394Y256794D01*
X217181Y257578D01*
X217575Y257578D01*
X220331Y255227D01*
X220331Y257578D01*
X219937Y257578D01*
X216394Y258754D02*
X220331Y259930D01*
X216394Y261106D01*
X218756Y262282D02*
X218756Y264633D01*
X217181Y266201D02*
X216394Y266985D01*
X220331Y266985D01*
X220331Y265809D02*
X220331Y268161D01*
X219543Y269337D02*
X220331Y270121D01*
X220331Y270905D01*
X219543Y271689D01*
X217969Y271689D01*
X217181Y271689D01*
X216394Y270905D01*
X216394Y270121D01*
X217181Y269337D01*
X217969Y269337D01*
X218756Y270121D01*
X218756Y270905D01*
X217969Y271689D01*
X216394Y272864D02*
X220331Y274040D01*
X216394Y275216D01*
X210425Y248437D02*
X209638Y249221D01*
X213575Y249221D01*
X213575Y248045D02*
X213575Y250397D01*
X210425Y251573D02*
X209638Y252357D01*
X209638Y253141D01*
X210425Y253925D01*
X212787Y253925D01*
X213575Y253141D01*
X213575Y252357D01*
X212787Y251573D01*
X210425Y251573D01*
X210425Y253925D02*
X212787Y251573D01*
X213575Y255101D02*
X211213Y255101D01*
X209638Y255885D01*
X209638Y256668D01*
X211213Y257452D01*
X213575Y257452D01*
X212394Y255101D02*
X212394Y257452D01*
X213575Y262156D02*
X209638Y262156D01*
X211606Y263332D01*
X209638Y264507D01*
X213575Y264507D01*
X213575Y265683D02*
X211213Y265683D01*
X209638Y266467D01*
X209638Y267251D01*
X211213Y268035D01*
X213575Y268035D01*
X212394Y265683D02*
X212394Y268035D01*
X209638Y269211D02*
X213575Y271563D01*
X213575Y269211D02*
X209638Y271563D01*
X292331Y258809D02*
X288394Y258809D01*
X292331Y261161D01*
X288394Y261161D01*
X288394Y262337D02*
X291543Y262337D01*
X292331Y263121D01*
X292331Y263905D01*
X291543Y264689D01*
X288394Y264689D01*
X291543Y268216D02*
X292331Y267432D01*
X292331Y266648D01*
X291543Y265864D01*
X289181Y265864D01*
X288394Y266648D01*
X288394Y267432D01*
X289181Y268216D01*
X358543Y115935D02*
X359331Y116719D01*
X359331Y117503D01*
X358543Y118287D01*
X356181Y115935D01*
X355394Y116719D01*
X355394Y117503D01*
X356181Y118287D01*
X355394Y119463D02*
X359331Y119855D01*
X357756Y120639D01*
X359331Y121423D01*
X355394Y121815D01*
X359331Y123774D02*
X359331Y124558D01*
X355394Y123774D02*
X355394Y124558D01*
X359331Y124166D02*
X355394Y124166D01*
X359331Y127694D02*
X355394Y127694D01*
X355394Y126518D02*
X355394Y128870D01*
X358543Y132397D02*
X359331Y131613D01*
X359331Y130829D01*
X358543Y130045D01*
X356181Y130045D01*
X355394Y130829D01*
X355394Y131613D01*
X356181Y132397D01*
X359331Y133573D02*
X355394Y133573D01*
X359331Y135925D02*
X355394Y135925D01*
X357362Y133573D02*
X357362Y135925D01*
X364055Y112996D02*
X364843Y112212D01*
X364843Y111428D01*
X364055Y110644D01*
X361693Y110644D01*
X360906Y111428D01*
X360906Y112212D01*
X361693Y112996D01*
X364055Y114171D02*
X364843Y114955D01*
X364843Y115739D01*
X364055Y116523D01*
X362874Y116523D01*
X362087Y115739D01*
X362087Y114955D01*
X362874Y114171D01*
X364055Y114171D01*
X364843Y117699D02*
X362480Y117699D01*
X362087Y117699D01*
X362480Y117699D02*
X362087Y118091D01*
X362087Y118875D01*
X362480Y119267D01*
X364843Y119267D01*
X364843Y121227D02*
X362480Y121227D01*
X362087Y121227D01*
X362480Y121227D02*
X362087Y121619D01*
X362087Y122402D01*
X362480Y122794D01*
X364843Y122794D01*
X364055Y127106D02*
X364843Y126322D01*
X364843Y125538D01*
X364055Y124754D01*
X362874Y124754D01*
X362087Y125538D01*
X362087Y126322D01*
X362874Y127106D01*
X363268Y126714D01*
X363268Y124754D01*
X364449Y130241D02*
X364843Y129850D01*
X364843Y129066D01*
X364055Y128282D01*
X362874Y128282D01*
X362087Y129066D01*
X362087Y129850D01*
X362480Y130241D01*
X364449Y133769D02*
X364843Y133377D01*
X364449Y132985D01*
X360906Y132985D01*
X362087Y132201D02*
X362087Y133769D01*
X364055Y135337D02*
X364843Y136121D01*
X364843Y136905D01*
X364055Y137689D01*
X362874Y137689D01*
X362087Y136905D01*
X362087Y136121D01*
X362874Y135337D01*
X364055Y135337D01*
X363268Y138864D02*
X362087Y140040D01*
X362087Y140432D01*
X362874Y141216D01*
X364843Y138864D02*
X362087Y138864D01*
X393181Y136091D02*
X392394Y136875D01*
X396331Y136875D01*
X396331Y135699D02*
X396331Y138051D01*
X393181Y139227D02*
X392394Y140010D01*
X392394Y140794D01*
X393181Y141578D01*
X395543Y141578D01*
X396331Y140794D01*
X396331Y140010D01*
X395543Y139227D01*
X393181Y139227D01*
X393181Y141578D02*
X395543Y139227D01*
X396331Y142754D02*
X393969Y142754D01*
X392394Y143538D01*
X392394Y144322D01*
X393969Y145106D01*
X396331Y145106D01*
X395150Y142754D02*
X395150Y145106D01*
X396331Y149809D02*
X392394Y149809D01*
X394362Y150985D01*
X392394Y152161D01*
X396331Y152161D01*
X396331Y153337D02*
X393969Y153337D01*
X392394Y154121D01*
X392394Y154905D01*
X393969Y155689D01*
X396331Y155689D01*
X395150Y153337D02*
X395150Y155689D01*
X392394Y156864D02*
X396331Y159216D01*
X396331Y156864D02*
X392394Y159216D01*
X76126Y170392D02*
X80063Y170392D01*
X80063Y172744D01*
X80063Y176271D02*
X80063Y173920D01*
X78094Y173920D01*
X76126Y173920D01*
X76126Y176271D01*
X78094Y173920D02*
X78094Y175487D01*
X80063Y177447D02*
X76126Y177447D01*
X76126Y179799D01*
X78094Y177447D02*
X78094Y179015D01*
X80063Y182150D02*
X76126Y182150D01*
X76126Y180975D02*
X76126Y183326D01*
X85575Y170392D02*
X81638Y170392D01*
X83606Y171568D01*
X81638Y172744D01*
X85575Y172744D01*
X84787Y173920D02*
X85575Y174703D01*
X85575Y175487D01*
X84787Y176271D01*
X82425Y176271D01*
X81638Y175487D01*
X81638Y174703D01*
X82425Y173920D01*
X84787Y173920D01*
X85575Y178623D02*
X81638Y178623D01*
X81638Y177447D02*
X81638Y179799D01*
X84787Y180975D02*
X85575Y181759D01*
X85575Y182542D01*
X84787Y183326D01*
X82425Y183326D01*
X81638Y182542D01*
X81638Y181759D01*
X82425Y180975D01*
X84787Y180975D01*
X85575Y184502D02*
X81638Y184502D01*
X81638Y186070D01*
X82425Y186854D01*
X82819Y186854D01*
X83606Y186070D01*
X83606Y184502D01*
X83606Y184894D02*
X85575Y186854D01*
X91087Y170392D02*
X91087Y171960D01*
X90299Y172744D01*
X89906Y172744D01*
X89118Y171960D01*
X88331Y172744D01*
X87937Y172744D01*
X87150Y171960D01*
X87150Y170784D01*
X87150Y170392D01*
X89118Y170784D02*
X89118Y171960D01*
X87150Y170784D02*
X91087Y170784D01*
X91087Y173920D02*
X88724Y173920D01*
X87150Y174703D01*
X87150Y175487D01*
X88724Y176271D01*
X91087Y176271D01*
X89906Y173920D02*
X89906Y176271D01*
X91087Y177447D02*
X87150Y177447D01*
X91087Y179799D01*
X87150Y179799D01*
X91087Y180975D02*
X87150Y180975D01*
X89118Y180975D02*
X89118Y181367D01*
X87150Y183326D01*
X89118Y181367D02*
X91087Y183326D01*
X237171Y264169D02*
X237171Y268106D01*
X238739Y268106D01*
X239523Y267319D01*
X239523Y266925D01*
X238739Y266138D01*
X237171Y266138D01*
X240699Y264957D02*
X241483Y264169D01*
X242267Y264169D01*
X243051Y264957D01*
X243051Y268106D01*
X244227Y265744D02*
X246578Y265744D01*
X247754Y267319D02*
X248538Y268106D01*
X249322Y268106D01*
X250106Y267319D01*
X250106Y264957D01*
X249322Y264169D01*
X248538Y264169D01*
X247754Y264957D01*
X247754Y267319D01*
X250106Y267319D02*
X247754Y264957D01*
X252850Y264169D02*
X252066Y264169D01*
X251282Y264957D01*
X251282Y265744D01*
X251674Y266138D01*
X251282Y266531D01*
X251282Y267319D01*
X252066Y268106D01*
X252850Y268106D01*
X253633Y267319D01*
X253633Y266531D01*
X253241Y266138D01*
X253633Y265744D01*
X253633Y264957D01*
X252850Y264169D01*
X251674Y266138D02*
X253241Y266138D01*
X254809Y267319D02*
X255593Y268106D01*
X256377Y268106D01*
X257161Y267319D01*
X257161Y264957D01*
X256377Y264169D01*
X255593Y264169D01*
X254809Y264957D01*
X254809Y267319D01*
X257161Y267319D02*
X254809Y264957D01*
X258337Y264169D02*
X259905Y264169D01*
X260689Y264957D01*
X260689Y265350D01*
X259905Y266138D01*
X260689Y266925D01*
X260689Y267319D01*
X259905Y268106D01*
X258729Y268106D01*
X258337Y268106D01*
X258729Y266138D02*
X259905Y266138D01*
X258729Y268106D02*
X258729Y264169D01*
X261864Y264169D02*
X261864Y268106D01*
X264216Y264169D02*
X264216Y268106D01*
X261864Y266138D02*
X264216Y266138D01*
X384169Y193829D02*
X388106Y193829D01*
X388106Y192261D01*
X387319Y191477D01*
X386925Y191477D01*
X386138Y192261D01*
X386138Y193829D01*
X384957Y190301D02*
X384169Y189517D01*
X384169Y188733D01*
X384957Y187949D01*
X388106Y187949D01*
X385744Y186773D02*
X385744Y184422D01*
X387319Y183246D02*
X388106Y182462D01*
X388106Y181678D01*
X387319Y180894D01*
X384957Y180894D01*
X384169Y181678D01*
X384169Y182462D01*
X384957Y183246D01*
X387319Y183246D01*
X387319Y180894D02*
X384957Y183246D01*
X384169Y178150D02*
X384169Y178934D01*
X384957Y179718D01*
X385744Y179718D01*
X386138Y179326D01*
X386531Y179718D01*
X387319Y179718D01*
X388106Y178934D01*
X388106Y178150D01*
X387319Y177367D01*
X386531Y177367D01*
X386138Y177759D01*
X385744Y177367D01*
X384957Y177367D01*
X384169Y178150D01*
X386138Y179326D02*
X386138Y177759D01*
X387319Y176191D02*
X388106Y175407D01*
X388106Y174623D01*
X387319Y173839D01*
X384957Y173839D01*
X384169Y174623D01*
X384169Y175407D01*
X384957Y176191D01*
X387319Y176191D01*
X387319Y173839D02*
X384957Y176191D01*
X384169Y172663D02*
X384169Y171095D01*
X384957Y170311D01*
X385350Y170311D01*
X386138Y171095D01*
X386925Y170311D01*
X387319Y170311D01*
X388106Y171095D01*
X388106Y172271D01*
X388106Y172663D01*
X386138Y172271D02*
X386138Y171095D01*
X388106Y172271D02*
X384169Y172271D01*
X384169Y169136D02*
X388106Y169136D01*
X384169Y166784D02*
X388106Y166784D01*
X386138Y169136D02*
X386138Y166784D01*
X298171Y264169D02*
X298171Y268106D01*
X299739Y268106D01*
X300523Y267319D01*
X300523Y266925D01*
X299739Y266138D01*
X298171Y266138D01*
X301699Y264957D02*
X302483Y264169D01*
X303267Y264169D01*
X304051Y264957D01*
X304051Y268106D01*
X305227Y265744D02*
X307578Y265744D01*
X308754Y267319D02*
X309538Y268106D01*
X310322Y268106D01*
X311106Y267319D01*
X311106Y264957D01*
X310322Y264169D01*
X309538Y264169D01*
X308754Y264957D01*
X308754Y267319D01*
X311106Y267319D02*
X308754Y264957D01*
X313850Y264169D02*
X313066Y264169D01*
X312282Y264957D01*
X312282Y265744D01*
X312674Y266138D01*
X312282Y266531D01*
X312282Y267319D01*
X313066Y268106D01*
X313850Y268106D01*
X314633Y267319D01*
X314633Y266531D01*
X314241Y266138D01*
X314633Y265744D01*
X314633Y264957D01*
X313850Y264169D01*
X312674Y266138D02*
X314241Y266138D01*
X315809Y267319D02*
X316593Y268106D01*
X317377Y268106D01*
X318161Y267319D01*
X318161Y264957D01*
X317377Y264169D01*
X316593Y264169D01*
X315809Y264957D01*
X315809Y267319D01*
X318161Y267319D02*
X315809Y264957D01*
X319337Y264169D02*
X320905Y264169D01*
X321689Y264957D01*
X321689Y265350D01*
X320905Y266138D01*
X321689Y266925D01*
X321689Y267319D01*
X320905Y268106D01*
X319729Y268106D01*
X319337Y268106D01*
X319729Y266138D02*
X320905Y266138D01*
X319729Y268106D02*
X319729Y264169D01*
X322864Y264169D02*
X322864Y268106D01*
X325216Y264169D02*
X325216Y268106D01*
X322864Y266138D02*
X325216Y266138D01*
G54D19*
G36*
X67774Y65357D02*
X67774Y65357D01*
X68226Y62746D01*
X68226Y65357D01*
X67774Y65357D01*
D02*
G37*
X68226Y62746D01*
X68226Y65357D01*
X67774Y65357D01*
G36*
X68226Y62746D02*
X68226Y62746D01*
X67774Y65357D01*
X67774Y64278D01*
X68226Y62746D01*
D02*
G37*
X67774Y65357D01*
X67774Y64278D01*
X68226Y62746D01*
G36*
X67774Y64278D02*
X67774Y64278D01*
X67774Y63825D01*
X68226Y62746D01*
X67774Y64278D01*
D02*
G37*
X67774Y63825D01*
X68226Y62746D01*
X67774Y64278D01*
G36*
X67774Y63825D02*
X67774Y63825D01*
X67774Y64278D01*
X66695Y64278D01*
X67774Y63825D01*
D02*
G37*
X67774Y64278D01*
X66695Y64278D01*
X67774Y63825D01*
G36*
X66695Y64278D02*
X66695Y64278D01*
X66695Y63825D01*
X67774Y63825D01*
X66695Y64278D01*
D02*
G37*
X66695Y63825D01*
X67774Y63825D01*
X66695Y64278D01*
G36*
X68226Y63825D02*
X68226Y63825D01*
X69305Y63825D01*
X68226Y64278D01*
X68226Y63825D01*
D02*
G37*
X69305Y63825D01*
X68226Y64278D01*
X68226Y63825D01*
G36*
X68226Y63825D01*
X68226Y65357D01*
X68226Y63825D01*
D02*
G37*
X68226Y65357D01*
X68226Y63825D01*
G36*
X68226Y63825D01*
X68226Y65357D01*
X68226Y62746D01*
X68226Y63825D01*
D02*
G37*
X68226Y65357D01*
X68226Y62746D01*
X68226Y63825D01*
G36*
X68226Y64278D02*
X68226Y64278D01*
X69305Y63825D01*
X69305Y64278D01*
X68226Y64278D01*
D02*
G37*
X69305Y63825D01*
X69305Y64278D01*
X68226Y64278D01*
G36*
X68226Y62746D02*
X68226Y62746D01*
X67774Y63825D01*
X67774Y62746D01*
X68226Y62746D01*
D02*
G37*
X67774Y63825D01*
X67774Y62746D01*
X68226Y62746D01*
G36*
X67260Y55813D02*
X67260Y55813D01*
X67260Y55326D01*
X68740Y55326D01*
X67260Y55813D01*
D02*
G37*
X67260Y55326D01*
X68740Y55326D01*
X67260Y55813D01*
G36*
X67260Y55813D01*
X68740Y55326D01*
X68740Y55813D01*
X67260Y55813D01*
D02*
G37*
X68740Y55326D01*
X68740Y55813D01*
X67260Y55813D01*
G36*
X67774Y109254D02*
X67774Y109254D01*
X68226Y106643D01*
X68226Y109254D01*
X67774Y109254D01*
D02*
G37*
X68226Y106643D01*
X68226Y109254D01*
X67774Y109254D01*
G36*
X68226Y106643D02*
X68226Y106643D01*
X67774Y109254D01*
X67774Y108175D01*
X68226Y106643D01*
D02*
G37*
X67774Y109254D01*
X67774Y108175D01*
X68226Y106643D01*
G36*
X67774Y108175D02*
X67774Y108175D01*
X67774Y107722D01*
X68226Y106643D01*
X67774Y108175D01*
D02*
G37*
X67774Y107722D01*
X68226Y106643D01*
X67774Y108175D01*
G36*
X67774Y107722D02*
X67774Y107722D01*
X67774Y108175D01*
X66695Y108175D01*
X67774Y107722D01*
D02*
G37*
X67774Y108175D01*
X66695Y108175D01*
X67774Y107722D01*
G36*
X66695Y108175D02*
X66695Y108175D01*
X66695Y107722D01*
X67774Y107722D01*
X66695Y108175D01*
D02*
G37*
X66695Y107722D01*
X67774Y107722D01*
X66695Y108175D01*
G36*
X68226Y107722D02*
X68226Y107722D01*
X69305Y107722D01*
X68226Y108175D01*
X68226Y107722D01*
D02*
G37*
X69305Y107722D01*
X68226Y108175D01*
X68226Y107722D01*
G36*
X68226Y107722D01*
X68226Y109254D01*
X68226Y107722D01*
D02*
G37*
X68226Y109254D01*
X68226Y107722D01*
G36*
X68226Y107722D01*
X68226Y109254D01*
X68226Y106643D01*
X68226Y107722D01*
D02*
G37*
X68226Y109254D01*
X68226Y106643D01*
X68226Y107722D01*
G36*
X68226Y108175D02*
X68226Y108175D01*
X69305Y107722D01*
X69305Y108175D01*
X68226Y108175D01*
D02*
G37*
X69305Y107722D01*
X69305Y108175D01*
X68226Y108175D01*
G36*
X68226Y106643D02*
X68226Y106643D01*
X67774Y107722D01*
X67774Y106643D01*
X68226Y106643D01*
D02*
G37*
X67774Y107722D01*
X67774Y106643D01*
X68226Y106643D01*
G36*
X68740Y116187D02*
X68740Y116187D01*
X68740Y116674D01*
X67260Y116674D01*
X68740Y116187D01*
D02*
G37*
X68740Y116674D01*
X67260Y116674D01*
X68740Y116187D01*
G36*
X68740Y116187D01*
X67260Y116674D01*
X67260Y116187D01*
X68740Y116187D01*
D02*
G37*
X67260Y116674D01*
X67260Y116187D01*
X68740Y116187D01*
G36*
X197774Y65357D02*
X197774Y65357D01*
X198226Y62746D01*
X198226Y65357D01*
X197774Y65357D01*
D02*
G37*
X198226Y62746D01*
X198226Y65357D01*
X197774Y65357D01*
G36*
X198226Y62746D02*
X198226Y62746D01*
X197774Y65357D01*
X197774Y64278D01*
X198226Y62746D01*
D02*
G37*
X197774Y65357D01*
X197774Y64278D01*
X198226Y62746D01*
G36*
X197774Y64278D02*
X197774Y64278D01*
X197774Y63825D01*
X198226Y62746D01*
X197774Y64278D01*
D02*
G37*
X197774Y63825D01*
X198226Y62746D01*
X197774Y64278D01*
G36*
X197774Y63825D02*
X197774Y63825D01*
X197774Y64278D01*
X196695Y64278D01*
X197774Y63825D01*
D02*
G37*
X197774Y64278D01*
X196695Y64278D01*
X197774Y63825D01*
G36*
X196695Y64278D02*
X196695Y64278D01*
X196695Y63825D01*
X197774Y63825D01*
X196695Y64278D01*
D02*
G37*
X196695Y63825D01*
X197774Y63825D01*
X196695Y64278D01*
G36*
X198226Y63825D02*
X198226Y63825D01*
X199305Y63825D01*
X198226Y64278D01*
X198226Y63825D01*
D02*
G37*
X199305Y63825D01*
X198226Y64278D01*
X198226Y63825D01*
G36*
X198226Y63825D01*
X198226Y65357D01*
X198226Y63825D01*
D02*
G37*
X198226Y65357D01*
X198226Y63825D01*
G36*
X198226Y63825D01*
X198226Y65357D01*
X198226Y62746D01*
X198226Y63825D01*
D02*
G37*
X198226Y65357D01*
X198226Y62746D01*
X198226Y63825D01*
G36*
X198226Y64278D02*
X198226Y64278D01*
X199305Y63825D01*
X199305Y64278D01*
X198226Y64278D01*
D02*
G37*
X199305Y63825D01*
X199305Y64278D01*
X198226Y64278D01*
G36*
X198226Y62746D02*
X198226Y62746D01*
X197774Y63825D01*
X197774Y62746D01*
X198226Y62746D01*
D02*
G37*
X197774Y63825D01*
X197774Y62746D01*
X198226Y62746D01*
G36*
X197260Y55813D02*
X197260Y55813D01*
X197260Y55326D01*
X198740Y55326D01*
X197260Y55813D01*
D02*
G37*
X197260Y55326D01*
X198740Y55326D01*
X197260Y55813D01*
G36*
X197260Y55813D01*
X198740Y55326D01*
X198740Y55813D01*
X197260Y55813D01*
D02*
G37*
X198740Y55326D01*
X198740Y55813D01*
X197260Y55813D01*
G36*
X197774Y109254D02*
X197774Y109254D01*
X198226Y106643D01*
X198226Y109254D01*
X197774Y109254D01*
D02*
G37*
X198226Y106643D01*
X198226Y109254D01*
X197774Y109254D01*
G36*
X198226Y106643D02*
X198226Y106643D01*
X197774Y109254D01*
X197774Y108175D01*
X198226Y106643D01*
D02*
G37*
X197774Y109254D01*
X197774Y108175D01*
X198226Y106643D01*
G36*
X197774Y108175D02*
X197774Y108175D01*
X197774Y107722D01*
X198226Y106643D01*
X197774Y108175D01*
D02*
G37*
X197774Y107722D01*
X198226Y106643D01*
X197774Y108175D01*
G36*
X197774Y107722D02*
X197774Y107722D01*
X197774Y108175D01*
X196695Y108175D01*
X197774Y107722D01*
D02*
G37*
X197774Y108175D01*
X196695Y108175D01*
X197774Y107722D01*
G36*
X196695Y108175D02*
X196695Y108175D01*
X196695Y107722D01*
X197774Y107722D01*
X196695Y108175D01*
D02*
G37*
X196695Y107722D01*
X197774Y107722D01*
X196695Y108175D01*
G36*
X198226Y107722D02*
X198226Y107722D01*
X199305Y107722D01*
X198226Y108175D01*
X198226Y107722D01*
D02*
G37*
X199305Y107722D01*
X198226Y108175D01*
X198226Y107722D01*
G36*
X198226Y107722D01*
X198226Y109254D01*
X198226Y107722D01*
D02*
G37*
X198226Y109254D01*
X198226Y107722D01*
G36*
X198226Y107722D01*
X198226Y109254D01*
X198226Y106643D01*
X198226Y107722D01*
D02*
G37*
X198226Y109254D01*
X198226Y106643D01*
X198226Y107722D01*
G36*
X198226Y108175D02*
X198226Y108175D01*
X199305Y107722D01*
X199305Y108175D01*
X198226Y108175D01*
D02*
G37*
X199305Y107722D01*
X199305Y108175D01*
X198226Y108175D01*
G36*
X198226Y106643D02*
X198226Y106643D01*
X197774Y107722D01*
X197774Y106643D01*
X198226Y106643D01*
D02*
G37*
X197774Y107722D01*
X197774Y106643D01*
X198226Y106643D01*
G36*
X198740Y116187D02*
X198740Y116187D01*
X198740Y116674D01*
X197260Y116674D01*
X198740Y116187D01*
D02*
G37*
X198740Y116674D01*
X197260Y116674D01*
X198740Y116187D01*
G36*
X198740Y116187D01*
X197260Y116674D01*
X197260Y116187D01*
X198740Y116187D01*
D02*
G37*
X197260Y116674D01*
X197260Y116187D01*
X198740Y116187D01*
G54D20*
X188000Y4000D02*
X323000Y4000D01*
X323000Y200000D01*
X188000Y200000D01*
X188000Y4000D01*
X51000Y200000D02*
X186000Y200000D01*
X186000Y4000D01*
X51000Y4000D01*
X51000Y200000D01*
G54D21*
X330143Y84729D02*
X331286Y85867D01*
X331286Y87004D01*
X330143Y88142D01*
X326714Y84729D01*
X325571Y85867D01*
X325571Y87004D01*
X326714Y88142D01*
X325571Y89849D02*
X331286Y90418D01*
X329000Y91556D01*
X331286Y92693D01*
X325571Y93262D01*
X331286Y94969D02*
X327857Y94969D01*
X325571Y96107D01*
X325571Y97244D01*
X327857Y98382D01*
X331286Y98382D01*
X329571Y94969D02*
X329571Y98382D01*
X331286Y100089D02*
X325571Y100089D01*
X325571Y102364D01*
X326714Y103502D01*
X327286Y103502D01*
X328429Y102364D01*
X328429Y100089D01*
X328429Y100658D02*
X331286Y103502D01*
X331286Y105209D02*
X325571Y105209D01*
X328429Y106916D01*
X325571Y108622D01*
X331286Y108622D01*
X331286Y111467D02*
X331286Y112604D01*
X325571Y111467D02*
X325571Y112604D01*
X331286Y112036D02*
X325571Y112036D01*
X331286Y118862D02*
X331286Y115449D01*
X328429Y115449D01*
X325571Y115449D01*
X325571Y118862D01*
X328429Y115449D02*
X328429Y117724D01*
G54D22*
X377000Y107500D02*
X377714Y108142D01*
X378370Y108845D01*
X378961Y109601D01*
X379485Y110407D01*
X379936Y111255D01*
X380312Y112139D01*
X380609Y113052D01*
X380826Y113988D01*
X380960Y114939D01*
X381011Y115899D01*
X380978Y116859D01*
X380861Y117812D01*
X380662Y118752D01*
X380382Y119671D01*
X380022Y120562D01*
X379586Y121418D01*
X379078Y122233D01*
X378500Y123000D01*
X377858Y123714D01*
X377155Y124370D01*
X377000Y124500D01*
X377000Y127500D02*
X377714Y128142D01*
X378370Y128845D01*
X378961Y129601D01*
X379485Y130407D01*
X379936Y131255D01*
X380312Y132139D01*
X380609Y133052D01*
X380826Y133988D01*
X380960Y134939D01*
X381011Y135899D01*
X380978Y136859D01*
X380861Y137812D01*
X380662Y138752D01*
X380382Y139671D01*
X380022Y140562D01*
X379586Y141418D01*
X379078Y142233D01*
X378500Y143000D01*
X377858Y143714D01*
X377155Y144370D01*
X377000Y144500D01*
X-1500Y-1500D02*
X-1500Y26800D01*
X-1500Y-1500D02*
X38800Y-1500D01*
X401500Y-1500D02*
X361200Y-1500D01*
X401500Y-1500D02*
X401500Y26800D01*
X401500Y281500D02*
X401500Y253200D01*
X401500Y281500D02*
X361200Y281500D01*
X-1500Y281500D02*
X38800Y281500D01*
X-1500Y281500D02*
X-1500Y253200D01*
X-21185Y-1500D02*
X-60555Y-1500D01*
X-40870Y-21185D02*
X-40870Y18185D01*
X-55634Y-1500D02*
G75*
D01*
G02X-55634Y-1500I14764J0*
G01*
X421185Y-1500D02*
X460555Y-1500D01*
X440870Y-21185D02*
X440870Y18185D01*
X426106Y-1500D02*
G75*
D01*
G02X426106Y-1500I14764J0*
G01*
X435949Y-1500D02*
G75*
D01*
G02X435949Y-1500I4921J0*
G01*
X-21185Y281500D02*
X-60555Y281500D01*
X-40870Y261815D02*
X-40870Y301185D01*
X-55634Y281500D02*
G75*
D01*
G02X-55634Y281500I14764J0*
G01*
X-50713Y281500D02*
G75*
D01*
G02X-50713Y281500I9843J0*
G01*
X-45791Y281500D02*
G75*
D01*
G02X-45791Y281500I4921J0*
G01*
G54D23*
X35143Y192178D02*
X35143Y192889D01*
X36214Y192889D01*
X36929Y192178D01*
X36929Y191467D01*
X36214Y190756D01*
X34071Y190756D01*
X33357Y191467D01*
X33357Y192889D01*
X36929Y193956D02*
X33357Y193956D01*
X36929Y196089D01*
X33357Y196089D01*
X36929Y197156D02*
X36929Y198578D01*
X36214Y199289D01*
X34071Y199289D01*
X33357Y198578D01*
X33357Y197156D01*
X33357Y197511D02*
X36929Y197511D01*
X19357Y190756D02*
X22929Y191822D01*
X19357Y192889D01*
X22214Y196089D02*
X22929Y195378D01*
X22929Y194667D01*
X22214Y193956D01*
X20071Y193956D01*
X19357Y194667D01*
X19357Y195378D01*
X20071Y196089D01*
X22214Y199289D02*
X22929Y198578D01*
X22929Y197867D01*
X22214Y197156D01*
X20071Y197156D01*
X19357Y197867D01*
X19357Y198578D01*
X20071Y199289D01*
X166357Y39956D02*
X169929Y39956D01*
X169929Y42089D01*
X169929Y43156D02*
X167786Y43156D01*
X166357Y43867D01*
X166357Y44578D01*
X167786Y45289D01*
X169929Y45289D01*
X168857Y43156D02*
X168857Y45289D01*
X112357Y34956D02*
X115929Y34956D01*
X115929Y37089D01*
X115929Y38156D02*
X115929Y39578D01*
X115214Y40289D01*
X114857Y40289D01*
X114143Y39578D01*
X113429Y40289D01*
X113071Y40289D01*
X112357Y39578D01*
X112357Y38511D01*
X112357Y38156D01*
X114143Y38511D02*
X114143Y39578D01*
X112357Y38511D02*
X115929Y38511D01*
X247929Y33956D02*
X244357Y33956D01*
X244357Y35378D01*
X245071Y36089D01*
X245429Y36089D01*
X246143Y35378D01*
X246143Y33956D01*
X246143Y34311D02*
X247929Y36089D01*
X247929Y37156D02*
X247929Y38578D01*
X247214Y39289D01*
X246857Y39289D01*
X246143Y38578D01*
X245429Y39289D01*
X245071Y39289D01*
X244357Y38578D01*
X244357Y37511D01*
X244357Y37156D01*
X246143Y37511D02*
X246143Y38578D01*
X244357Y37511D02*
X247929Y37511D01*
X302929Y39956D02*
X299357Y39956D01*
X299357Y41378D01*
X300071Y42089D01*
X300429Y42089D01*
X301143Y41378D01*
X301143Y39956D01*
X301143Y40311D02*
X302929Y42089D01*
X302929Y43156D02*
X300786Y43156D01*
X299357Y43867D01*
X299357Y44578D01*
X300786Y45289D01*
X302929Y45289D01*
X301857Y43156D02*
X301857Y45289D01*
X227357Y33222D02*
X230929Y34289D01*
X227357Y35356D01*
X230929Y36422D02*
X227357Y36422D01*
X229143Y37489D01*
X227357Y38556D01*
X230929Y38556D01*
X230929Y39622D02*
X227357Y39622D01*
X229143Y40689D01*
X227357Y41756D01*
X230929Y41756D01*
X334357Y109222D02*
X337929Y110289D01*
X334357Y111356D01*
X337929Y112422D02*
X334357Y112422D01*
X336143Y113489D01*
X334357Y114556D01*
X337929Y114556D01*
X337929Y115622D02*
X334357Y115622D01*
X336143Y116689D01*
X334357Y117756D01*
X337929Y117756D01*
X334357Y132622D02*
X337929Y133689D01*
X334357Y134756D01*
X337929Y135822D02*
X337929Y137244D01*
X337214Y137956D01*
X336857Y137956D01*
X336143Y137244D01*
X335429Y137956D01*
X335071Y137956D01*
X334357Y137244D01*
X334357Y136178D01*
X334357Y135822D01*
X336143Y136178D02*
X336143Y137244D01*
X334357Y136178D02*
X337929Y136178D01*
X337929Y139022D02*
X335786Y139022D01*
X334357Y139733D01*
X334357Y140444D01*
X335786Y141156D01*
X337929Y141156D01*
X336857Y139022D02*
X336857Y141156D01*
X337929Y143289D02*
X334357Y143289D01*
X334357Y142222D02*
X334357Y144356D01*
X355357Y29756D02*
X358929Y30822D01*
X355357Y31889D01*
X358929Y32956D02*
X355357Y32956D01*
X357143Y34022D01*
X355357Y35089D01*
X358929Y35089D01*
X358929Y36156D02*
X355357Y36156D01*
X357143Y37222D01*
X355357Y38289D01*
X358929Y38289D01*
X176071Y198506D02*
X175357Y199217D01*
X175357Y199928D01*
X176071Y200639D01*
X176429Y200639D01*
X178929Y198506D01*
X178929Y200639D01*
X178571Y200639D01*
X165714Y198861D02*
X165357Y199217D01*
X165357Y199928D01*
X166071Y200639D01*
X166786Y200639D01*
X167143Y200283D01*
X167500Y200639D01*
X168214Y200639D01*
X168929Y199928D01*
X168929Y199217D01*
X168571Y198861D01*
X167143Y199217D02*
X167143Y200283D01*
X157500Y200639D02*
X157500Y198506D01*
X155357Y200283D01*
X158929Y200283D01*
X158929Y199928D02*
X158929Y200639D01*
X145357Y200639D02*
X145357Y198506D01*
X146786Y198506D01*
X146786Y199928D01*
X147500Y200639D01*
X148214Y200639D01*
X148929Y199928D01*
X148929Y198506D01*
X135357Y200283D02*
X135357Y199217D01*
X136071Y198506D01*
X137500Y198506D01*
X138214Y198506D01*
X138929Y199217D01*
X138929Y199928D01*
X138214Y200639D01*
X137500Y200639D01*
X136786Y199928D01*
X136786Y199217D01*
X137500Y198506D01*
X72714Y191661D02*
X72357Y192017D01*
X72357Y192728D01*
X73071Y193439D01*
X73786Y193439D01*
X74143Y193083D01*
X74500Y193439D01*
X75214Y193439D01*
X75929Y192728D01*
X75929Y192017D01*
X75571Y191661D01*
X74143Y192017D02*
X74143Y193083D01*
X72357Y194506D02*
X75929Y195572D01*
X72357Y196639D01*
X72714Y198061D02*
X72357Y198417D01*
X72357Y199128D01*
X73071Y199839D01*
X73786Y199839D01*
X74143Y199483D01*
X74500Y199839D01*
X75214Y199839D01*
X75929Y199128D01*
X75929Y198417D01*
X75571Y198061D01*
X74143Y198417D02*
X74143Y199483D01*
G54D24*
X74772Y52524D03*
X206772Y52524D03*

M02*
