G04 Generated by Ultiboard 13.0 *
%FSLAX25Y25*%
%MOIN*%

%ADD10C,0.00001*%
%ADD11C,0.00039*%
%ADD12C,0.00394*%
%ADD13C,0.00004*%
%ADD14C,0.00500*%


G04 ColorRGB 000000 for the following layer *
%LNDrill Symbols-Copper Top-Copper Bottom*%
%LPD*%
G54D11*
X287206Y227894D02*
X287206Y230650D01*
X285828Y229272D02*
X288583Y229272D01*
X287206Y229272D02*
X287206Y238328D01*
X310633Y220622D02*
X310633Y223378D01*
X309255Y222000D02*
X312011Y222000D01*
X310633Y222000D02*
X301578Y222000D01*
X310633Y244622D02*
X310633Y247378D01*
X309255Y246000D02*
X312011Y246000D01*
X310633Y246000D02*
X301578Y246000D01*
X102819Y36819D02*
X105181Y36819D01*
X105181Y39181D01*
X102819Y39181D01*
X102819Y36819D01*
X108819Y43819D02*
X111181Y43819D01*
X111181Y46181D01*
X108819Y46181D01*
X108819Y43819D01*
X126819Y47819D02*
X129181Y47819D01*
X129181Y50181D01*
X126819Y50181D01*
X126819Y47819D01*
X132819Y47819D02*
X135181Y47819D01*
X135181Y50181D01*
X132819Y50181D01*
X132819Y47819D01*
X161819Y47819D02*
X164181Y47819D01*
X164181Y50181D01*
X161819Y50181D01*
X161819Y47819D01*
X167819Y47819D02*
X170181Y47819D01*
X170181Y50181D01*
X167819Y50181D01*
X167819Y47819D01*
X240819Y44819D02*
X243181Y44819D01*
X243181Y47181D01*
X240819Y47181D01*
X240819Y44819D01*
X258819Y47819D02*
X261181Y47819D01*
X261181Y50181D01*
X258819Y50181D01*
X258819Y47819D01*
X264819Y47819D02*
X267181Y47819D01*
X267181Y50181D01*
X264819Y50181D01*
X264819Y47819D01*
X293819Y47819D02*
X296181Y47819D01*
X296181Y50181D01*
X293819Y50181D01*
X293819Y47819D01*
X299819Y47819D02*
X302181Y47819D01*
X302181Y50181D01*
X299819Y50181D01*
X299819Y47819D01*
X83819Y54819D02*
X86181Y54819D01*
X86181Y57181D01*
X83819Y57181D01*
X83819Y54819D01*
X89819Y54819D02*
X92181Y54819D01*
X92181Y57181D01*
X89819Y57181D01*
X89819Y54819D01*
X102819Y50819D02*
X105181Y50819D01*
X105181Y53181D01*
X102819Y53181D01*
X102819Y50819D01*
X123819Y52819D02*
X126181Y52819D01*
X126181Y55181D01*
X123819Y55181D01*
X123819Y52819D01*
X128819Y52819D02*
X131181Y52819D01*
X131181Y55181D01*
X128819Y55181D01*
X128819Y52819D01*
X134819Y52819D02*
X137181Y52819D01*
X137181Y55181D01*
X134819Y55181D01*
X134819Y52819D01*
X158819Y52819D02*
X161181Y52819D01*
X161181Y55181D01*
X158819Y55181D01*
X158819Y52819D01*
X163819Y52819D02*
X166181Y52819D01*
X166181Y55181D01*
X163819Y55181D01*
X163819Y52819D01*
X168819Y52819D02*
X171181Y52819D01*
X171181Y55181D01*
X168819Y55181D01*
X168819Y52819D01*
X215819Y54819D02*
X218181Y54819D01*
X218181Y57181D01*
X215819Y57181D01*
X215819Y54819D01*
X221819Y54819D02*
X224181Y54819D01*
X224181Y57181D01*
X221819Y57181D01*
X221819Y54819D01*
X234819Y51819D02*
X237181Y51819D01*
X237181Y54181D01*
X234819Y54181D01*
X234819Y51819D01*
X255819Y52819D02*
X258181Y52819D01*
X258181Y55181D01*
X255819Y55181D01*
X255819Y52819D01*
X260819Y52819D02*
X263181Y52819D01*
X263181Y55181D01*
X260819Y55181D01*
X260819Y52819D01*
X265819Y52819D02*
X268181Y52819D01*
X268181Y55181D01*
X265819Y55181D01*
X265819Y52819D01*
X290819Y52819D02*
X293181Y52819D01*
X293181Y55181D01*
X290819Y55181D01*
X290819Y52819D01*
X295819Y52819D02*
X298181Y52819D01*
X298181Y55181D01*
X295819Y55181D01*
X295819Y52819D01*
X300819Y52819D02*
X303181Y52819D01*
X303181Y55181D01*
X300819Y55181D01*
X300819Y52819D01*
X108819Y57819D02*
X111181Y57819D01*
X111181Y60181D01*
X108819Y60181D01*
X108819Y57819D01*
X240819Y58819D02*
X243181Y58819D01*
X243181Y61181D01*
X240819Y61181D01*
X240819Y58819D01*
X101819Y65819D02*
X104181Y65819D01*
X104181Y68181D01*
X101819Y68181D01*
X101819Y65819D01*
X123819Y66819D02*
X126181Y66819D01*
X126181Y69181D01*
X123819Y69181D01*
X123819Y66819D01*
X128819Y66819D02*
X131181Y66819D01*
X131181Y69181D01*
X128819Y69181D01*
X128819Y66819D01*
X134819Y66819D02*
X137181Y66819D01*
X137181Y69181D01*
X134819Y69181D01*
X134819Y66819D01*
X159819Y66819D02*
X162181Y66819D01*
X162181Y69181D01*
X159819Y69181D01*
X159819Y66819D01*
X164819Y66819D02*
X167181Y66819D01*
X167181Y69181D01*
X164819Y69181D01*
X164819Y66819D01*
X169819Y66819D02*
X172181Y66819D01*
X172181Y69181D01*
X169819Y69181D01*
X169819Y66819D01*
X233819Y65819D02*
X236181Y65819D01*
X236181Y68181D01*
X233819Y68181D01*
X233819Y65819D01*
X256819Y66819D02*
X259181Y66819D01*
X259181Y69181D01*
X256819Y69181D01*
X256819Y66819D01*
X261819Y66819D02*
X264181Y66819D01*
X264181Y69181D01*
X261819Y69181D01*
X261819Y66819D01*
X266819Y66819D02*
X269181Y66819D01*
X269181Y69181D01*
X266819Y69181D01*
X266819Y66819D01*
X291819Y66819D02*
X294181Y66819D01*
X294181Y69181D01*
X291819Y69181D01*
X291819Y66819D01*
X296819Y66819D02*
X299181Y66819D01*
X299181Y69181D01*
X296819Y69181D01*
X296819Y66819D01*
X301819Y66819D02*
X304181Y66819D01*
X304181Y69181D01*
X301819Y69181D01*
X301819Y66819D01*
X101819Y79819D02*
X104181Y79819D01*
X104181Y82181D01*
X101819Y82181D01*
X101819Y79819D01*
X108819Y72819D02*
X111181Y72819D01*
X111181Y75181D01*
X108819Y75181D01*
X108819Y72819D01*
X233819Y79819D02*
X236181Y79819D01*
X236181Y82181D01*
X233819Y82181D01*
X233819Y79819D01*
X240819Y72819D02*
X243181Y72819D01*
X243181Y75181D01*
X240819Y75181D01*
X240819Y72819D01*
X108819Y86819D02*
X111181Y86819D01*
X111181Y89181D01*
X108819Y89181D01*
X108819Y86819D01*
X240819Y86819D02*
X243181Y86819D01*
X243181Y89181D01*
X240819Y89181D01*
X240819Y86819D01*
X101819Y93819D02*
X104181Y93819D01*
X104181Y96181D01*
X101819Y96181D01*
X101819Y93819D01*
X233819Y93819D02*
X236181Y93819D01*
X236181Y96181D01*
X233819Y96181D01*
X233819Y93819D01*
X108819Y100819D02*
X111181Y100819D01*
X111181Y103181D01*
X108819Y103181D01*
X108819Y100819D01*
X240819Y100819D02*
X243181Y100819D01*
X243181Y103181D01*
X240819Y103181D01*
X240819Y100819D01*
X108819Y121819D02*
X111181Y121819D01*
X111181Y124181D01*
X108819Y124181D01*
X108819Y121819D01*
X240819Y121819D02*
X243181Y121819D01*
X243181Y124181D01*
X240819Y124181D01*
X240819Y121819D01*
X101819Y128819D02*
X104181Y128819D01*
X104181Y131181D01*
X101819Y131181D01*
X101819Y128819D01*
X233819Y128819D02*
X236181Y128819D01*
X236181Y131181D01*
X233819Y131181D01*
X233819Y128819D01*
X101819Y135819D02*
X104181Y135819D01*
X104181Y138181D01*
X101819Y138181D01*
X101819Y135819D01*
X108819Y135819D02*
X111181Y135819D01*
X111181Y138181D01*
X108819Y138181D01*
X108819Y135819D01*
X131819Y137819D02*
X134181Y137819D01*
X134181Y140181D01*
X131819Y140181D01*
X131819Y137819D01*
X240819Y135819D02*
X243181Y135819D01*
X243181Y138181D01*
X240819Y138181D01*
X240819Y135819D01*
X263819Y136819D02*
X266181Y136819D01*
X266181Y139181D01*
X263819Y139181D01*
X263819Y136819D01*
X266819Y142819D02*
X269181Y142819D01*
X269181Y145181D01*
X266819Y145181D01*
X266819Y142819D01*
X134819Y143819D02*
X137181Y143819D01*
X137181Y146181D01*
X134819Y146181D01*
X134819Y143819D01*
X145819Y149819D02*
X148181Y149819D01*
X148181Y152181D01*
X145819Y152181D01*
X145819Y149819D01*
X214819Y143819D02*
X217181Y143819D01*
X217181Y146181D01*
X214819Y146181D01*
X214819Y143819D01*
X276819Y149819D02*
X279181Y149819D01*
X279181Y152181D01*
X276819Y152181D01*
X276819Y149819D01*
X138819Y172819D02*
X141181Y172819D01*
X141181Y175181D01*
X138819Y175181D01*
X138819Y172819D01*
X149819Y172819D02*
X152181Y172819D01*
X152181Y175181D01*
X149819Y175181D01*
X149819Y172819D01*
X270819Y171819D02*
X273181Y171819D01*
X273181Y174181D01*
X270819Y174181D01*
X270819Y171819D01*
X280819Y171819D02*
X283181Y171819D01*
X283181Y174181D01*
X280819Y174181D01*
X280819Y171819D01*
X108819Y195819D02*
X111181Y195819D01*
X111181Y198181D01*
X108819Y198181D01*
X108819Y195819D01*
X80819Y231819D02*
X83181Y231819D01*
X83181Y234181D01*
X80819Y234181D01*
X80819Y231819D01*
X109819Y231819D02*
X112181Y231819D01*
X112181Y234181D01*
X109819Y234181D01*
X109819Y231819D01*
X206819Y213819D02*
X209181Y213819D01*
X209181Y216181D01*
X206819Y216181D01*
X206819Y213819D01*
X185819Y213819D02*
X188181Y213819D01*
X188181Y216181D01*
X185819Y216181D01*
X185819Y213819D01*
X233819Y135819D02*
X236181Y135819D01*
X236181Y138181D01*
X233819Y138181D01*
X233819Y135819D01*
X317819Y45819D02*
X320181Y45819D01*
X320181Y48181D01*
X317819Y48181D01*
X317819Y45819D01*
X326819Y53819D02*
X329181Y53819D01*
X329181Y56181D01*
X326819Y56181D01*
X326819Y53819D01*
X317819Y62819D02*
X320181Y62819D01*
X320181Y65181D01*
X317819Y65181D01*
X317819Y62819D01*
X326819Y70819D02*
X329181Y70819D01*
X329181Y73181D01*
X326819Y73181D01*
X326819Y70819D01*
X289819Y21819D02*
X292181Y21819D01*
X292181Y24181D01*
X289819Y24181D01*
X289819Y21819D01*
X297819Y21819D02*
X300181Y21819D01*
X300181Y24181D01*
X297819Y24181D01*
X297819Y21819D01*
X305819Y21819D02*
X308181Y21819D01*
X308181Y24181D01*
X305819Y24181D01*
X305819Y21819D01*
X293819Y14819D02*
X296181Y14819D01*
X296181Y17181D01*
X293819Y17181D01*
X293819Y14819D01*
X301819Y14819D02*
X304181Y14819D01*
X304181Y17181D01*
X301819Y17181D01*
X301819Y14819D01*
X289819Y8819D02*
X292181Y8819D01*
X292181Y11181D01*
X289819Y11181D01*
X289819Y8819D01*
X297819Y8819D02*
X300181Y8819D01*
X300181Y11181D01*
X297819Y11181D01*
X297819Y8819D01*
X305819Y8819D02*
X308181Y8819D01*
X308181Y11181D01*
X305819Y11181D01*
X305819Y8819D01*
X308819Y66819D02*
X311181Y66819D01*
X311181Y69181D01*
X308819Y69181D01*
X308819Y66819D01*
X310819Y81819D02*
X313181Y81819D01*
X313181Y84181D01*
X310819Y84181D01*
X310819Y81819D01*
X308819Y103819D02*
X311181Y103819D01*
X311181Y106181D01*
X308819Y106181D01*
X308819Y103819D01*
X308819Y111819D02*
X311181Y111819D01*
X311181Y114181D01*
X308819Y114181D01*
X308819Y111819D01*
X308819Y120819D02*
X311181Y120819D01*
X311181Y123181D01*
X308819Y123181D01*
X308819Y120819D01*
X287819Y42819D02*
X290181Y42819D01*
X290181Y45181D01*
X287819Y45181D01*
X287819Y42819D01*
X283819Y51819D02*
X286181Y51819D01*
X286181Y54181D01*
X283819Y54181D01*
X283819Y51819D01*
X283819Y66819D02*
X286181Y66819D01*
X286181Y69181D01*
X283819Y69181D01*
X283819Y66819D01*
X240819Y110819D02*
X243181Y110819D01*
X243181Y113181D01*
X240819Y113181D01*
X240819Y110819D01*
X240819Y30819D02*
X243181Y30819D01*
X243181Y33181D01*
X240819Y33181D01*
X240819Y30819D01*
X223819Y33819D02*
X226181Y33819D01*
X226181Y36181D01*
X223819Y36181D01*
X223819Y33819D01*
X229819Y44819D02*
X232181Y44819D01*
X232181Y47181D01*
X229819Y47181D01*
X229819Y44819D01*
X108819Y30819D02*
X111181Y30819D01*
X111181Y33181D01*
X108819Y33181D01*
X108819Y30819D01*
X97819Y43819D02*
X100181Y43819D01*
X100181Y46181D01*
X97819Y46181D01*
X97819Y43819D01*
X90819Y34819D02*
X93181Y34819D01*
X93181Y37181D01*
X90819Y37181D01*
X90819Y34819D01*
X108819Y110819D02*
X111181Y110819D01*
X111181Y113181D01*
X108819Y113181D01*
X108819Y110819D01*
X94819Y121819D02*
X97181Y121819D01*
X97181Y124181D01*
X94819Y124181D01*
X94819Y121819D01*
X226819Y121819D02*
X229181Y121819D01*
X229181Y124181D01*
X226819Y124181D01*
X226819Y121819D01*
X92819Y100819D02*
X95181Y100819D01*
X95181Y103181D01*
X92819Y103181D01*
X92819Y100819D01*
X83819Y100819D02*
X86181Y100819D01*
X86181Y103181D01*
X83819Y103181D01*
X83819Y100819D01*
X227819Y100819D02*
X230181Y100819D01*
X230181Y103181D01*
X227819Y103181D01*
X227819Y100819D01*
X216819Y100819D02*
X219181Y100819D01*
X219181Y103181D01*
X216819Y103181D01*
X216819Y100819D01*
X249819Y113819D02*
X252181Y113819D01*
X252181Y116181D01*
X249819Y116181D01*
X249819Y113819D01*
X249819Y105819D02*
X252181Y105819D01*
X252181Y108181D01*
X249819Y108181D01*
X249819Y105819D01*
X248819Y97819D02*
X251181Y97819D01*
X251181Y100181D01*
X248819Y100181D01*
X248819Y97819D01*
X273819Y66819D02*
X276181Y66819D01*
X276181Y69181D01*
X273819Y69181D01*
X273819Y66819D01*
X273819Y51819D02*
X276181Y51819D01*
X276181Y54181D01*
X273819Y54181D01*
X273819Y51819D01*
X175819Y121819D02*
X178181Y121819D01*
X178181Y124181D01*
X175819Y124181D01*
X175819Y121819D01*
X175819Y112819D02*
X178181Y112819D01*
X178181Y115181D01*
X175819Y115181D01*
X175819Y112819D01*
X175819Y104819D02*
X178181Y104819D01*
X178181Y107181D01*
X175819Y107181D01*
X175819Y104819D01*
X154819Y43819D02*
X157181Y43819D01*
X157181Y46181D01*
X154819Y46181D01*
X154819Y43819D01*
X178819Y82819D02*
X181181Y82819D01*
X181181Y85181D01*
X178819Y85181D01*
X178819Y82819D01*
X151819Y67819D02*
X154181Y67819D01*
X154181Y70181D01*
X151819Y70181D01*
X151819Y67819D01*
X151819Y51819D02*
X154181Y51819D01*
X154181Y54181D01*
X151819Y54181D01*
X151819Y51819D01*
X176819Y67819D02*
X179181Y67819D01*
X179181Y70181D01*
X176819Y70181D01*
X176819Y67819D01*
X116819Y113819D02*
X119181Y113819D01*
X119181Y116181D01*
X116819Y116181D01*
X116819Y113819D01*
X116819Y105819D02*
X119181Y105819D01*
X119181Y108181D01*
X116819Y108181D01*
X116819Y105819D01*
X116819Y97819D02*
X119181Y97819D01*
X119181Y100181D01*
X116819Y100181D01*
X116819Y97819D01*
X141819Y67819D02*
X144181Y67819D01*
X144181Y70181D01*
X141819Y70181D01*
X141819Y67819D01*
X141819Y51819D02*
X144181Y51819D01*
X144181Y54181D01*
X141819Y54181D01*
X141819Y51819D01*
X172819Y89819D02*
X175181Y89819D01*
X175181Y92181D01*
X172819Y92181D01*
X172819Y89819D01*
X158819Y74819D02*
X161181Y74819D01*
X161181Y77181D01*
X158819Y77181D01*
X158819Y74819D01*
X168819Y74819D02*
X171181Y74819D01*
X171181Y77181D01*
X168819Y77181D01*
X168819Y74819D01*
X172819Y79819D02*
X175181Y79819D01*
X175181Y82181D01*
X172819Y82181D01*
X172819Y79819D01*
X163819Y89819D02*
X166181Y89819D01*
X166181Y92181D01*
X163819Y92181D01*
X163819Y89819D01*
X153819Y89819D02*
X156181Y89819D01*
X156181Y92181D01*
X153819Y92181D01*
X153819Y89819D01*
X158819Y84819D02*
X161181Y84819D01*
X161181Y87181D01*
X158819Y87181D01*
X158819Y84819D01*
X167819Y84819D02*
X170181Y84819D01*
X170181Y87181D01*
X167819Y87181D01*
X167819Y84819D01*
X153819Y79819D02*
X156181Y79819D01*
X156181Y82181D01*
X153819Y82181D01*
X153819Y79819D01*
X163819Y79819D02*
X166181Y79819D01*
X166181Y82181D01*
X163819Y82181D01*
X163819Y79819D01*
X125819Y74819D02*
X128181Y74819D01*
X128181Y77181D01*
X125819Y77181D01*
X125819Y74819D01*
X120819Y79819D02*
X123181Y79819D01*
X123181Y82181D01*
X120819Y82181D01*
X120819Y79819D01*
X130819Y79819D02*
X133181Y79819D01*
X133181Y82181D01*
X130819Y82181D01*
X130819Y79819D01*
X135819Y74819D02*
X138181Y74819D01*
X138181Y77181D01*
X135819Y77181D01*
X135819Y74819D01*
X139819Y79819D02*
X142181Y79819D01*
X142181Y82181D01*
X139819Y82181D01*
X139819Y79819D01*
X125819Y84819D02*
X128181Y84819D01*
X128181Y87181D01*
X125819Y87181D01*
X125819Y84819D01*
X134819Y84819D02*
X137181Y84819D01*
X137181Y87181D01*
X134819Y87181D01*
X134819Y84819D01*
X120819Y89819D02*
X123181Y89819D01*
X123181Y92181D01*
X120819Y92181D01*
X120819Y89819D01*
X130819Y89819D02*
X133181Y89819D01*
X133181Y92181D01*
X130819Y92181D01*
X130819Y89819D01*
X139819Y89819D02*
X142181Y89819D01*
X142181Y92181D01*
X139819Y92181D01*
X139819Y89819D01*
X257819Y74819D02*
X260181Y74819D01*
X260181Y77181D01*
X257819Y77181D01*
X257819Y74819D01*
X252819Y79819D02*
X255181Y79819D01*
X255181Y82181D01*
X252819Y82181D01*
X252819Y79819D01*
X262819Y79819D02*
X265181Y79819D01*
X265181Y82181D01*
X262819Y82181D01*
X262819Y79819D01*
X267819Y74819D02*
X270181Y74819D01*
X270181Y77181D01*
X267819Y77181D01*
X267819Y74819D01*
X271819Y79819D02*
X274181Y79819D01*
X274181Y82181D01*
X271819Y82181D01*
X271819Y79819D01*
X257819Y84819D02*
X260181Y84819D01*
X260181Y87181D01*
X257819Y87181D01*
X257819Y84819D01*
X266819Y84819D02*
X269181Y84819D01*
X269181Y87181D01*
X266819Y87181D01*
X266819Y84819D01*
X252819Y89819D02*
X255181Y89819D01*
X255181Y92181D01*
X252819Y92181D01*
X252819Y89819D01*
X262819Y89819D02*
X265181Y89819D01*
X265181Y92181D01*
X262819Y92181D01*
X262819Y89819D01*
X271819Y89819D02*
X274181Y89819D01*
X274181Y92181D01*
X271819Y92181D01*
X271819Y89819D01*
X289819Y74819D02*
X292181Y74819D01*
X292181Y77181D01*
X289819Y77181D01*
X289819Y74819D01*
X284819Y79819D02*
X287181Y79819D01*
X287181Y82181D01*
X284819Y82181D01*
X284819Y79819D01*
X294819Y79819D02*
X297181Y79819D01*
X297181Y82181D01*
X294819Y82181D01*
X294819Y79819D01*
X299819Y74819D02*
X302181Y74819D01*
X302181Y77181D01*
X299819Y77181D01*
X299819Y74819D01*
X303819Y79819D02*
X306181Y79819D01*
X306181Y82181D01*
X303819Y82181D01*
X303819Y79819D01*
X289819Y84819D02*
X292181Y84819D01*
X292181Y87181D01*
X289819Y87181D01*
X289819Y84819D01*
X298819Y84819D02*
X301181Y84819D01*
X301181Y87181D01*
X298819Y87181D01*
X298819Y84819D01*
X284819Y89819D02*
X287181Y89819D01*
X287181Y92181D01*
X284819Y92181D01*
X284819Y89819D01*
X294819Y89819D02*
X297181Y89819D01*
X297181Y92181D01*
X294819Y92181D01*
X294819Y89819D01*
X303819Y89819D02*
X306181Y89819D01*
X306181Y92181D01*
X303819Y92181D01*
X303819Y89819D01*
X266819Y99819D02*
X269181Y99819D01*
X269181Y102181D01*
X266819Y102181D01*
X266819Y99819D01*
X261819Y104819D02*
X264181Y104819D01*
X264181Y107181D01*
X261819Y107181D01*
X261819Y104819D01*
X271819Y104819D02*
X274181Y104819D01*
X274181Y107181D01*
X271819Y107181D01*
X271819Y104819D01*
X276819Y99819D02*
X279181Y99819D01*
X279181Y102181D01*
X276819Y102181D01*
X276819Y99819D01*
X280819Y104819D02*
X283181Y104819D01*
X283181Y107181D01*
X280819Y107181D01*
X280819Y104819D01*
X266819Y109819D02*
X269181Y109819D01*
X269181Y112181D01*
X266819Y112181D01*
X266819Y109819D01*
X275819Y109819D02*
X278181Y109819D01*
X278181Y112181D01*
X275819Y112181D01*
X275819Y109819D01*
X261819Y114819D02*
X264181Y114819D01*
X264181Y117181D01*
X261819Y117181D01*
X261819Y114819D01*
X271819Y114819D02*
X274181Y114819D01*
X274181Y117181D01*
X271819Y117181D01*
X271819Y114819D01*
X280819Y114819D02*
X283181Y114819D01*
X283181Y117181D01*
X280819Y117181D01*
X280819Y114819D01*
X134819Y99819D02*
X137181Y99819D01*
X137181Y102181D01*
X134819Y102181D01*
X134819Y99819D01*
X129819Y104819D02*
X132181Y104819D01*
X132181Y107181D01*
X129819Y107181D01*
X129819Y104819D01*
X139819Y104819D02*
X142181Y104819D01*
X142181Y107181D01*
X139819Y107181D01*
X139819Y104819D01*
X144819Y99819D02*
X147181Y99819D01*
X147181Y102181D01*
X144819Y102181D01*
X144819Y99819D01*
X148819Y104819D02*
X151181Y104819D01*
X151181Y107181D01*
X148819Y107181D01*
X148819Y104819D01*
X134819Y109819D02*
X137181Y109819D01*
X137181Y112181D01*
X134819Y112181D01*
X134819Y109819D01*
X143819Y109819D02*
X146181Y109819D01*
X146181Y112181D01*
X143819Y112181D01*
X143819Y109819D01*
X129819Y114819D02*
X132181Y114819D01*
X132181Y117181D01*
X129819Y117181D01*
X129819Y114819D01*
X139819Y114819D02*
X142181Y114819D01*
X142181Y117181D01*
X139819Y117181D01*
X139819Y114819D01*
X148819Y114819D02*
X151181Y114819D01*
X151181Y117181D01*
X148819Y117181D01*
X148819Y114819D01*
X154819Y99819D02*
X157181Y99819D01*
X157181Y102181D01*
X154819Y102181D01*
X154819Y99819D01*
X158819Y104819D02*
X161181Y104819D01*
X161181Y107181D01*
X158819Y107181D01*
X158819Y104819D01*
X153819Y109819D02*
X156181Y109819D01*
X156181Y112181D01*
X153819Y112181D01*
X153819Y109819D01*
X158819Y114819D02*
X161181Y114819D01*
X161181Y117181D01*
X158819Y117181D01*
X158819Y114819D01*
X164819Y109819D02*
X167181Y109819D01*
X167181Y112181D01*
X164819Y112181D01*
X164819Y109819D01*
X164819Y99819D02*
X167181Y99819D01*
X167181Y102181D01*
X164819Y102181D01*
X164819Y99819D01*
X286819Y99819D02*
X289181Y99819D01*
X289181Y102181D01*
X286819Y102181D01*
X286819Y99819D01*
X296819Y99819D02*
X299181Y99819D01*
X299181Y102181D01*
X296819Y102181D01*
X296819Y99819D01*
X290819Y104819D02*
X293181Y104819D01*
X293181Y107181D01*
X290819Y107181D01*
X290819Y104819D01*
X285819Y109819D02*
X288181Y109819D01*
X288181Y112181D01*
X285819Y112181D01*
X285819Y109819D01*
X296819Y109819D02*
X299181Y109819D01*
X299181Y112181D01*
X296819Y112181D01*
X296819Y109819D01*
X290819Y114819D02*
X293181Y114819D01*
X293181Y117181D01*
X290819Y117181D01*
X290819Y114819D01*
X155819Y7819D02*
X158181Y7819D01*
X158181Y10181D01*
X155819Y10181D01*
X155819Y7819D01*
X159819Y13819D02*
X162181Y13819D01*
X162181Y16181D01*
X159819Y16181D01*
X159819Y13819D01*
X163819Y7819D02*
X166181Y7819D01*
X166181Y10181D01*
X163819Y10181D01*
X163819Y7819D01*
X167819Y13819D02*
X170181Y13819D01*
X170181Y16181D01*
X167819Y16181D01*
X167819Y13819D01*
X171819Y7819D02*
X174181Y7819D01*
X174181Y10181D01*
X171819Y10181D01*
X171819Y7819D01*
X155819Y20819D02*
X158181Y20819D01*
X158181Y23181D01*
X155819Y23181D01*
X155819Y20819D01*
X163819Y20819D02*
X166181Y20819D01*
X166181Y23181D01*
X163819Y23181D01*
X163819Y20819D01*
X171819Y20819D02*
X174181Y20819D01*
X174181Y23181D01*
X171819Y23181D01*
X171819Y20819D01*
X240819Y215819D02*
X243181Y215819D01*
X243181Y218181D01*
X240819Y218181D01*
X240819Y215819D01*
X261819Y215819D02*
X264181Y215819D01*
X264181Y218181D01*
X261819Y218181D01*
X261819Y215819D01*
X288819Y220819D02*
X291181Y220819D01*
X291181Y223181D01*
X288819Y223181D01*
X288819Y220819D01*
X321819Y220819D02*
X324181Y220819D01*
X324181Y223181D01*
X321819Y223181D01*
X321819Y220819D01*
X332819Y186819D02*
X335181Y186819D01*
X335181Y189181D01*
X332819Y189181D01*
X332819Y186819D01*
X332819Y168819D02*
X335181Y168819D01*
X335181Y171181D01*
X332819Y171181D01*
X332819Y168819D01*
X342819Y99819D02*
X345181Y99819D01*
X345181Y102181D01*
X342819Y102181D01*
X342819Y99819D01*
X353819Y99819D02*
X356181Y99819D01*
X356181Y102181D01*
X353819Y102181D01*
X353819Y99819D01*
X365819Y99819D02*
X368181Y99819D01*
X368181Y102181D01*
X365819Y102181D01*
X365819Y99819D01*
X377819Y99819D02*
X380181Y99819D01*
X380181Y102181D01*
X377819Y102181D01*
X377819Y99819D01*
X132819Y14819D02*
X135181Y14819D01*
X135181Y17181D01*
X132819Y17181D01*
X132819Y14819D01*
X264819Y14819D02*
X267181Y14819D01*
X267181Y17181D01*
X264819Y17181D01*
X264819Y14819D01*
X140819Y14819D02*
X143181Y14819D01*
X143181Y17181D01*
X140819Y17181D01*
X140819Y14819D01*
X272819Y14819D02*
X275181Y14819D01*
X275181Y17181D01*
X272819Y17181D01*
X272819Y14819D01*
X72819Y143819D02*
X75181Y143819D01*
X75181Y146181D01*
X72819Y146181D01*
X72819Y143819D01*
X355819Y56819D02*
X358181Y56819D01*
X358181Y59181D01*
X355819Y59181D01*
X355819Y56819D01*
X343819Y56819D02*
X346181Y56819D01*
X346181Y59181D01*
X343819Y59181D01*
X343819Y56819D01*
X355819Y46819D02*
X358181Y46819D01*
X358181Y49181D01*
X355819Y49181D01*
X355819Y46819D01*
X343819Y46819D02*
X346181Y46819D01*
X346181Y49181D01*
X343819Y49181D01*
X343819Y46819D01*
X168000Y173525D02*
X170475Y176000D01*
X168000Y178475D01*
X165525Y176000D01*
X168000Y173525D01*
X156000Y187525D02*
X158475Y190000D01*
X156000Y192475D01*
X153525Y190000D01*
X156000Y187525D01*
X252000Y173525D02*
X254475Y176000D01*
X252000Y178475D01*
X249525Y176000D01*
X252000Y173525D01*
X364334Y110334D02*
X367667Y110334D01*
X366000Y113178D01*
X364334Y110334D01*
X366000Y139525D02*
X368475Y142000D01*
X366000Y144475D01*
X363525Y142000D01*
X366000Y139525D01*
X24000Y63525D02*
X26475Y66000D01*
X24000Y68475D01*
X21525Y66000D01*
X24000Y63525D01*
X13238Y65440D02*
X13238Y66280D01*
X13674Y66839D01*
X14109Y66839D01*
X14544Y66280D01*
X14544Y65440D01*
X13238Y65860D02*
X14544Y65860D01*
X12042Y66000D02*
G75*
D01*
G02X12042Y66000I1958J0*
G01*
X34000Y63525D02*
X36475Y66000D01*
X34000Y68475D01*
X31525Y66000D01*
X34000Y63525D01*
X24000Y75525D02*
X26475Y78000D01*
X24000Y80475D01*
X21525Y78000D01*
X24000Y75525D01*
X13238Y77440D02*
X13238Y78280D01*
X13674Y78839D01*
X14109Y78839D01*
X14544Y78280D01*
X14544Y77440D01*
X13238Y77860D02*
X14544Y77860D01*
X12042Y78000D02*
G75*
D01*
G02X12042Y78000I1958J0*
G01*
X34000Y75525D02*
X36475Y78000D01*
X34000Y80475D01*
X31525Y78000D01*
X34000Y75525D01*
X24000Y87525D02*
X26475Y90000D01*
X24000Y92475D01*
X21525Y90000D01*
X24000Y87525D01*
X13238Y89440D02*
X13238Y90280D01*
X13674Y90839D01*
X14109Y90839D01*
X14544Y90280D01*
X14544Y89440D01*
X13238Y89860D02*
X14544Y89860D01*
X12042Y90000D02*
G75*
D01*
G02X12042Y90000I1958J0*
G01*
X34000Y87525D02*
X36475Y90000D01*
X34000Y92475D01*
X31525Y90000D01*
X34000Y87525D01*
X24000Y51525D02*
X26475Y54000D01*
X24000Y56475D01*
X21525Y54000D01*
X24000Y51525D01*
X13238Y53440D02*
X13238Y54280D01*
X13674Y54839D01*
X14109Y54839D01*
X14544Y54280D01*
X14544Y53440D01*
X13238Y53860D02*
X14544Y53860D01*
X12042Y54000D02*
G75*
D01*
G02X12042Y54000I1958J0*
G01*
X34000Y51525D02*
X36475Y54000D01*
X34000Y56475D01*
X31525Y54000D01*
X34000Y51525D01*
X138000Y7525D02*
X140475Y10000D01*
X138000Y12475D01*
X135525Y10000D01*
X138000Y7525D01*
X147238Y9440D02*
X147238Y10280D01*
X147674Y10839D01*
X148109Y10839D01*
X148544Y10280D01*
X148544Y9440D01*
X147238Y9860D02*
X148544Y9860D01*
X146042Y10000D02*
G75*
D01*
G02X146042Y10000I1958J0*
G01*
X128000Y7525D02*
X130475Y10000D01*
X128000Y12475D01*
X125525Y10000D01*
X128000Y7525D01*
X108000Y7525D02*
X110475Y10000D01*
X108000Y12475D01*
X105525Y10000D01*
X108000Y7525D01*
X118000Y7525D02*
X120475Y10000D01*
X118000Y12475D01*
X115525Y10000D01*
X118000Y7525D01*
X98000Y7525D02*
X100475Y10000D01*
X98000Y12475D01*
X95525Y10000D01*
X98000Y7525D01*
X138000Y19525D02*
X140475Y22000D01*
X138000Y24475D01*
X135525Y22000D01*
X138000Y19525D01*
X147238Y21440D02*
X147238Y22280D01*
X147674Y22839D01*
X148109Y22839D01*
X148544Y22280D01*
X148544Y21440D01*
X147238Y21860D02*
X148544Y21860D01*
X146042Y22000D02*
G75*
D01*
G02X146042Y22000I1958J0*
G01*
X128000Y19525D02*
X130475Y22000D01*
X128000Y24475D01*
X125525Y22000D01*
X128000Y19525D01*
X108000Y19525D02*
X110475Y22000D01*
X108000Y24475D01*
X105525Y22000D01*
X108000Y19525D01*
X118000Y19525D02*
X120475Y22000D01*
X118000Y24475D01*
X115525Y22000D01*
X118000Y19525D01*
X98000Y19525D02*
X100475Y22000D01*
X98000Y24475D01*
X95525Y22000D01*
X98000Y19525D01*
X270000Y7525D02*
X272475Y10000D01*
X270000Y12475D01*
X267525Y10000D01*
X270000Y7525D01*
X279238Y9440D02*
X279238Y10280D01*
X279674Y10839D01*
X280109Y10839D01*
X280544Y10280D01*
X280544Y9440D01*
X279238Y9860D02*
X280544Y9860D01*
X278042Y10000D02*
G75*
D01*
G02X278042Y10000I1958J0*
G01*
X260000Y7525D02*
X262475Y10000D01*
X260000Y12475D01*
X257525Y10000D01*
X260000Y7525D01*
X240000Y7525D02*
X242475Y10000D01*
X240000Y12475D01*
X237525Y10000D01*
X240000Y7525D01*
X250000Y7525D02*
X252475Y10000D01*
X250000Y12475D01*
X247525Y10000D01*
X250000Y7525D01*
X230000Y7525D02*
X232475Y10000D01*
X230000Y12475D01*
X227525Y10000D01*
X230000Y7525D01*
X270000Y19525D02*
X272475Y22000D01*
X270000Y24475D01*
X267525Y22000D01*
X270000Y19525D01*
X279238Y21440D02*
X279238Y22280D01*
X279674Y22839D01*
X280109Y22839D01*
X280544Y22280D01*
X280544Y21440D01*
X279238Y21860D02*
X280544Y21860D01*
X278042Y22000D02*
G75*
D01*
G02X278042Y22000I1958J0*
G01*
X260000Y19525D02*
X262475Y22000D01*
X260000Y24475D01*
X257525Y22000D01*
X260000Y19525D01*
X240000Y19525D02*
X242475Y22000D01*
X240000Y24475D01*
X237525Y22000D01*
X240000Y19525D01*
X250000Y19525D02*
X252475Y22000D01*
X250000Y24475D01*
X247525Y22000D01*
X250000Y19525D01*
X230000Y19525D02*
X232475Y22000D01*
X230000Y24475D01*
X227525Y22000D01*
X230000Y19525D01*
X120000Y173525D02*
X122475Y176000D01*
X120000Y178475D01*
X117525Y176000D01*
X120000Y173525D01*
X300000Y173525D02*
X302475Y176000D01*
X300000Y178475D01*
X297525Y176000D01*
X300000Y173525D01*
X288000Y187525D02*
X290475Y190000D01*
X288000Y192475D01*
X285525Y190000D01*
X288000Y187525D01*
X141864Y199900D02*
X141864Y200050D01*
X141942Y200150D01*
X142019Y200150D01*
X142097Y200050D01*
X142097Y199900D01*
X141864Y199975D02*
X142097Y199975D01*
X142000Y199505D02*
X142495Y200000D01*
X142000Y200495D01*
X141505Y200000D01*
X142000Y199505D01*
X151864Y199900D02*
X151864Y200050D01*
X151942Y200150D01*
X152019Y200150D01*
X152097Y200050D01*
X152097Y199900D01*
X151864Y199975D02*
X152097Y199975D01*
X152000Y199505D02*
X152495Y200000D01*
X152000Y200495D01*
X151505Y200000D01*
X152000Y199505D01*
X161864Y199900D02*
X161864Y200050D01*
X161942Y200150D01*
X162019Y200150D01*
X162097Y200050D01*
X162097Y199900D01*
X161864Y199975D02*
X162097Y199975D01*
X162000Y199505D02*
X162495Y200000D01*
X162000Y200495D01*
X161505Y200000D01*
X162000Y199505D01*
X171864Y199900D02*
X171864Y200050D01*
X171942Y200150D01*
X172019Y200150D01*
X172097Y200050D01*
X172097Y199900D01*
X171864Y199975D02*
X172097Y199975D01*
X172000Y199505D02*
X172495Y200000D01*
X172000Y200495D01*
X171505Y200000D01*
X172000Y199505D01*
X181864Y199900D02*
X181864Y200050D01*
X181942Y200150D01*
X182019Y200150D01*
X182097Y200050D01*
X182097Y199900D01*
X181864Y199975D02*
X182097Y199975D01*
X182000Y199505D02*
X182495Y200000D01*
X182000Y200495D01*
X181505Y200000D01*
X182000Y199505D01*
X73864Y25900D02*
X73864Y26050D01*
X73942Y26150D01*
X74019Y26150D01*
X74097Y26050D01*
X74097Y25900D01*
X73864Y25975D02*
X74097Y25975D01*
X74000Y25505D02*
X74495Y26000D01*
X74000Y26495D01*
X73505Y26000D01*
X74000Y25505D01*
X65864Y17900D02*
X65864Y18050D01*
X65942Y18150D01*
X66019Y18150D01*
X66097Y18050D01*
X66097Y17900D01*
X65864Y17975D02*
X66097Y17975D01*
X66000Y17505D02*
X66495Y18000D01*
X66000Y18495D01*
X65505Y18000D01*
X66000Y17505D01*
X212864Y24900D02*
X212864Y25050D01*
X212942Y25150D01*
X213019Y25150D01*
X213097Y25050D01*
X213097Y24900D01*
X212864Y24975D02*
X213097Y24975D01*
X213000Y24505D02*
X213495Y25000D01*
X213000Y25495D01*
X212505Y25000D01*
X213000Y24505D01*
X205864Y16900D02*
X205864Y17050D01*
X205942Y17150D01*
X206019Y17150D01*
X206097Y17050D01*
X206097Y16900D01*
X205864Y16975D02*
X206097Y16975D01*
X206000Y16505D02*
X206495Y17000D01*
X206000Y17495D01*
X205505Y17000D01*
X206000Y16505D01*
X89864Y158900D02*
X89864Y159050D01*
X89942Y159150D01*
X90019Y159150D01*
X90097Y159050D01*
X90097Y158900D01*
X89864Y158975D02*
X90097Y158975D01*
X90000Y158505D02*
X90495Y159000D01*
X90000Y159495D01*
X89505Y159000D01*
X90000Y158505D01*
X365388Y182881D02*
X366087Y182881D01*
X366437Y183106D01*
X366437Y183218D01*
X366087Y183443D01*
X366437Y183668D01*
X366437Y183781D01*
X366087Y184006D01*
X365563Y184006D01*
X365388Y184006D01*
X365563Y183443D02*
X366087Y183443D01*
X365563Y184006D02*
X365563Y182881D01*
X366000Y181104D02*
X368227Y183331D01*
X366000Y185558D01*
X363773Y183331D01*
X366000Y181104D01*
X366000Y183331D02*
X366000Y174669D01*
X369718Y196463D02*
X370418Y196463D01*
X370768Y196688D01*
X370768Y196801D01*
X370418Y197026D01*
X370768Y197251D01*
X370768Y197363D01*
X370418Y197588D01*
X369893Y197588D01*
X369718Y197588D01*
X369893Y197026D02*
X370418Y197026D01*
X369893Y197588D02*
X369893Y196463D01*
X368756Y196126D02*
X371906Y196126D01*
X370331Y198814D01*
X368756Y196126D01*
X370331Y197701D02*
X365606Y197701D01*
X351214Y159062D02*
X351914Y159062D01*
X352264Y159287D01*
X352264Y159399D01*
X351914Y159624D01*
X352264Y159849D01*
X352264Y159962D01*
X351914Y160187D01*
X351389Y160187D01*
X351214Y160187D01*
X351389Y159624D02*
X351914Y159624D01*
X351389Y160187D02*
X351389Y159062D01*
X350252Y158724D02*
X353402Y158724D01*
X351827Y161413D01*
X350252Y158724D01*
X351827Y160299D02*
X347102Y160299D01*
X351214Y196463D02*
X351914Y196463D01*
X352264Y196688D01*
X352264Y196801D01*
X351914Y197026D01*
X352264Y197251D01*
X352264Y197363D01*
X351914Y197588D01*
X351389Y197588D01*
X351214Y197588D01*
X351389Y197026D02*
X351914Y197026D01*
X351389Y197588D02*
X351389Y196463D01*
X350252Y196126D02*
X353402Y196126D01*
X351827Y198814D01*
X350252Y196126D01*
X351827Y197701D02*
X347102Y197701D01*
X369718Y159062D02*
X370418Y159062D01*
X370768Y159287D01*
X370768Y159399D01*
X370418Y159624D01*
X370768Y159849D01*
X370768Y159962D01*
X370418Y160187D01*
X369893Y160187D01*
X369718Y160187D01*
X369893Y159624D02*
X370418Y159624D01*
X369893Y160187D02*
X369893Y159062D01*
X368756Y158724D02*
X371906Y158724D01*
X370331Y161413D01*
X368756Y158724D01*
X370331Y160299D02*
X365606Y160299D01*
X232687Y251093D02*
X233387Y251093D01*
X233737Y251318D01*
X233737Y251431D01*
X233387Y251656D01*
X233737Y251881D01*
X233737Y251993D01*
X233387Y252218D01*
X232862Y252218D01*
X232687Y252218D01*
X232862Y251656D02*
X233387Y251656D01*
X232862Y252218D02*
X232862Y251093D01*
X231724Y250756D02*
X234874Y250756D01*
X233299Y253444D01*
X231724Y250756D01*
X233299Y252331D02*
X233299Y247606D01*
X270088Y232589D02*
X270788Y232589D01*
X271138Y232814D01*
X271138Y232927D01*
X270788Y233152D01*
X271138Y233377D01*
X271138Y233489D01*
X270788Y233714D01*
X270263Y233714D01*
X270088Y233714D01*
X270263Y233152D02*
X270788Y233152D01*
X270263Y233714D02*
X270263Y232589D01*
X269126Y232252D02*
X272276Y232252D01*
X270701Y234940D01*
X269126Y232252D01*
X270701Y233827D02*
X270701Y229102D01*
X232687Y232589D02*
X233387Y232589D01*
X233737Y232814D01*
X233737Y232927D01*
X233387Y233152D01*
X233737Y233377D01*
X233737Y233489D01*
X233387Y233714D01*
X232862Y233714D01*
X232687Y233714D01*
X232862Y233152D02*
X233387Y233152D01*
X232862Y233714D02*
X232862Y232589D01*
X231724Y232252D02*
X234874Y232252D01*
X233299Y234940D01*
X231724Y232252D01*
X233299Y233827D02*
X233299Y229102D01*
X270088Y251093D02*
X270788Y251093D01*
X271138Y251318D01*
X271138Y251431D01*
X270788Y251656D01*
X271138Y251881D01*
X271138Y251993D01*
X270788Y252218D01*
X270263Y252218D01*
X270088Y252218D01*
X270263Y251656D02*
X270788Y251656D01*
X270263Y252218D02*
X270263Y251093D01*
X269126Y250756D02*
X272276Y250756D01*
X270701Y253444D01*
X269126Y250756D01*
X270701Y252331D02*
X270701Y247606D01*
X247057Y247550D02*
X247757Y247550D01*
X248107Y247775D01*
X248107Y247888D01*
X247757Y248112D01*
X248107Y248337D01*
X248107Y248450D01*
X247757Y248675D01*
X247232Y248675D01*
X247057Y248675D01*
X247232Y248112D02*
X247757Y248112D01*
X247232Y248675D02*
X247232Y247550D01*
X247669Y245773D02*
X249896Y248000D01*
X247669Y250227D01*
X245442Y248000D01*
X247669Y245773D01*
X247669Y248000D02*
X256331Y248000D01*
X519045Y-27130D02*
X519045Y-26291D01*
X519481Y-25731D01*
X519916Y-25731D01*
X520351Y-26291D01*
X520351Y-27130D01*
X519045Y-26711D02*
X520351Y-26711D01*
X517849Y-26571D02*
G75*
D01*
G02X517849Y-26571I1958J0*
G01*
X519807Y482D02*
X522282Y2957D01*
X519807Y5432D01*
X517332Y2957D01*
X519807Y482D01*
X518141Y30818D02*
X521474Y30818D01*
X519807Y33663D01*
X518141Y30818D01*
X519195Y60775D02*
X519895Y60775D01*
X520245Y60999D01*
X520245Y61112D01*
X519895Y61337D01*
X520245Y61562D01*
X520245Y61674D01*
X519895Y61899D01*
X519370Y61899D01*
X519195Y61899D01*
X519370Y61337D02*
X519895Y61337D01*
X519370Y61899D02*
X519370Y60775D01*
X518232Y60437D02*
X521382Y60437D01*
X519807Y63125D01*
X518232Y60437D01*
X519195Y91089D02*
X519895Y91089D01*
X520245Y91314D01*
X520245Y91427D01*
X519895Y91652D01*
X520245Y91877D01*
X520245Y91989D01*
X519895Y92214D01*
X519370Y92214D01*
X519195Y92214D01*
X519370Y91652D02*
X519895Y91652D01*
X519370Y92214D02*
X519370Y91089D01*
X519807Y89312D02*
X522034Y91539D01*
X519807Y93767D01*
X517580Y91539D01*
X519807Y89312D01*
X518429Y121067D02*
X521185Y121067D01*
X519807Y119689D02*
X519807Y122445D01*
X518626Y149413D02*
X520988Y149413D01*
X520988Y151776D01*
X518626Y151776D01*
X518626Y149413D01*
X519671Y180022D02*
X519671Y180172D01*
X519749Y180272D01*
X519827Y180272D01*
X519904Y180172D01*
X519904Y180022D01*
X519671Y180097D02*
X519904Y180097D01*
X519807Y179627D02*
X520302Y180122D01*
X519807Y180617D01*
X519312Y180122D01*
X519807Y179627D01*
G54D12*
X40586Y209414D02*
X43414Y206586D01*
X40586Y206586D02*
X43414Y209414D01*
X50586Y209414D02*
X53414Y206586D01*
X50586Y206586D02*
X53414Y209414D01*
X60586Y209414D02*
X63414Y206586D01*
X60586Y206586D02*
X63414Y209414D01*
X70586Y209414D02*
X73414Y206586D01*
X70586Y206586D02*
X73414Y209414D01*
X80586Y209414D02*
X83414Y206586D01*
X80586Y206586D02*
X83414Y209414D01*
X90586Y209414D02*
X93414Y206586D01*
X90586Y206586D02*
X93414Y209414D01*
X100586Y209414D02*
X103414Y206586D01*
X100586Y206586D02*
X103414Y209414D01*
X110586Y209414D02*
X113414Y206586D01*
X110586Y206586D02*
X113414Y209414D01*
X120586Y209414D02*
X123414Y206586D01*
X120586Y206586D02*
X123414Y209414D01*
X130586Y209414D02*
X133414Y206586D01*
X130586Y206586D02*
X133414Y209414D01*
X140586Y209414D02*
X143414Y206586D01*
X140586Y206586D02*
X143414Y209414D01*
X150586Y209414D02*
X153414Y206586D01*
X150586Y206586D02*
X153414Y209414D01*
X160586Y209414D02*
X163414Y206586D01*
X160586Y206586D02*
X163414Y209414D01*
X170586Y209414D02*
X173414Y206586D01*
X170586Y206586D02*
X173414Y209414D01*
X180586Y209414D02*
X183414Y206586D01*
X180586Y206586D02*
X183414Y209414D01*
X190586Y209414D02*
X193414Y206586D01*
X190586Y206586D02*
X193414Y209414D01*
X200586Y209414D02*
X203414Y206586D01*
X200586Y206586D02*
X203414Y209414D01*
X20586Y269414D02*
X23414Y266586D01*
X20586Y266586D02*
X23414Y269414D01*
X30586Y269414D02*
X33414Y266586D01*
X30586Y266586D02*
X33414Y269414D01*
X40586Y269414D02*
X43414Y266586D01*
X40586Y266586D02*
X43414Y269414D01*
X50586Y269414D02*
X53414Y266586D01*
X50586Y266586D02*
X53414Y269414D01*
X60586Y269414D02*
X63414Y266586D01*
X60586Y266586D02*
X63414Y269414D01*
X70586Y269414D02*
X73414Y266586D01*
X70586Y266586D02*
X73414Y269414D01*
X80586Y269414D02*
X83414Y266586D01*
X80586Y266586D02*
X83414Y269414D01*
X90586Y269414D02*
X93414Y266586D01*
X90586Y266586D02*
X93414Y269414D01*
X100586Y269414D02*
X103414Y266586D01*
X100586Y266586D02*
X103414Y269414D01*
X110586Y269414D02*
X113414Y266586D01*
X110586Y266586D02*
X113414Y269414D01*
X120586Y269414D02*
X123414Y266586D01*
X120586Y266586D02*
X123414Y269414D01*
X130586Y269414D02*
X133414Y266586D01*
X130586Y266586D02*
X133414Y269414D01*
X140586Y269414D02*
X143414Y266586D01*
X140586Y266586D02*
X143414Y269414D01*
X150586Y269414D02*
X153414Y266586D01*
X150586Y266586D02*
X153414Y269414D01*
X160586Y269414D02*
X163414Y266586D01*
X160586Y266586D02*
X163414Y269414D01*
X170586Y269414D02*
X173414Y266586D01*
X170586Y266586D02*
X173414Y269414D01*
X180586Y269414D02*
X183414Y266586D01*
X180586Y266586D02*
X183414Y269414D01*
X12402Y25000D02*
G75*
D01*
G02X12402Y25000I12598J0*
G01*
X362402Y25000D02*
G75*
D01*
G02X362402Y25000I12598J0*
G01*
X362402Y255000D02*
G75*
D01*
G02X362402Y255000I12598J0*
G01*
X47402Y180000D02*
G75*
D01*
G02X47402Y180000I12598J0*
G01*
X344469Y110875D02*
X344469Y112562D01*
X345344Y113687D01*
X346219Y113687D01*
X347094Y112562D01*
X347094Y110875D01*
X344469Y111719D02*
X347094Y111719D01*
X342063Y108063D02*
X349937Y108063D01*
X349937Y115937D01*
X342063Y115937D01*
X342063Y108063D01*
X344469Y140875D02*
X344469Y142562D01*
X345344Y143687D01*
X346219Y143687D01*
X347094Y142562D01*
X347094Y140875D01*
X344469Y141719D02*
X347094Y141719D01*
X342063Y138063D02*
X349937Y138063D01*
X349937Y145937D01*
X342063Y145937D01*
X342063Y138063D01*
X26586Y196414D02*
X29414Y193586D01*
X26586Y193586D02*
X29414Y196414D01*
X19586Y186414D02*
X22414Y183586D01*
X19586Y183586D02*
X22414Y186414D01*
X176586Y53414D02*
X179414Y50586D01*
X176586Y50586D02*
X179414Y53414D01*
X117586Y50414D02*
X120414Y47586D01*
X117586Y47586D02*
X120414Y50414D01*
X319234Y32453D02*
X319234Y33297D01*
X319672Y33859D01*
X320109Y33859D01*
X320547Y33297D01*
X320547Y32453D01*
X319234Y32875D02*
X320547Y32875D01*
X318031Y32031D02*
X321969Y32031D01*
X320000Y35392D01*
X318031Y32031D01*
X339234Y32453D02*
X339234Y33297D01*
X339672Y33859D01*
X340109Y33859D01*
X340547Y33297D01*
X340547Y32453D01*
X339234Y32875D02*
X340547Y32875D01*
X338031Y32031D02*
X341969Y32031D01*
X340000Y35392D01*
X338031Y32031D01*
X350234Y36453D02*
X350234Y37297D01*
X350672Y37859D01*
X351109Y37859D01*
X351547Y37297D01*
X351547Y36453D01*
X350234Y36875D02*
X351547Y36875D01*
X349031Y36031D02*
X352969Y36031D01*
X351000Y39392D01*
X349031Y36031D01*
X234586Y40414D02*
X237414Y37586D01*
X234586Y37586D02*
X237414Y40414D01*
X249586Y50414D02*
X252414Y47586D01*
X249586Y47586D02*
X252414Y50414D01*
X308586Y53414D02*
X311414Y50586D01*
X308586Y50586D02*
X311414Y53414D01*
X33234Y158453D02*
X33234Y159297D01*
X33672Y159859D01*
X34109Y159859D01*
X34547Y159297D01*
X34547Y158453D01*
X33234Y158875D02*
X34547Y158875D01*
X32031Y158031D02*
X35969Y158031D01*
X34000Y161392D01*
X32031Y158031D01*
X23234Y158453D02*
X23234Y159297D01*
X23672Y159859D01*
X24109Y159859D01*
X24547Y159297D01*
X24547Y158453D01*
X23234Y158875D02*
X24547Y158875D01*
X22031Y158031D02*
X25969Y158031D01*
X24000Y161392D01*
X22031Y158031D01*
X33234Y168453D02*
X33234Y169297D01*
X33672Y169859D01*
X34109Y169859D01*
X34547Y169297D01*
X34547Y168453D01*
X33234Y168875D02*
X34547Y168875D01*
X32031Y168031D02*
X35969Y168031D01*
X34000Y171392D01*
X32031Y168031D01*
X23234Y168453D02*
X23234Y169297D01*
X23672Y169859D01*
X24109Y169859D01*
X24547Y169297D01*
X24547Y168453D01*
X23234Y168875D02*
X24547Y168875D01*
X22031Y168031D02*
X25969Y168031D01*
X24000Y171392D01*
X22031Y168031D01*
X33234Y128453D02*
X33234Y129297D01*
X33672Y129859D01*
X34109Y129859D01*
X34547Y129297D01*
X34547Y128453D01*
X33234Y128875D02*
X34547Y128875D01*
X32031Y128031D02*
X35969Y128031D01*
X34000Y131392D01*
X32031Y128031D01*
X23234Y128453D02*
X23234Y129297D01*
X23672Y129859D01*
X24109Y129859D01*
X24547Y129297D01*
X24547Y128453D01*
X23234Y128875D02*
X24547Y128875D01*
X22031Y128031D02*
X25969Y128031D01*
X24000Y131392D01*
X22031Y128031D01*
X33234Y138453D02*
X33234Y139297D01*
X33672Y139859D01*
X34109Y139859D01*
X34547Y139297D01*
X34547Y138453D01*
X33234Y138875D02*
X34547Y138875D01*
X32031Y138031D02*
X35969Y138031D01*
X34000Y141392D01*
X32031Y138031D01*
X23234Y138453D02*
X23234Y139297D01*
X23672Y139859D01*
X24109Y139859D01*
X24547Y139297D01*
X24547Y138453D01*
X23234Y138875D02*
X24547Y138875D01*
X22031Y138031D02*
X25969Y138031D01*
X24000Y141392D01*
X22031Y138031D01*
X33234Y148453D02*
X33234Y149297D01*
X33672Y149859D01*
X34109Y149859D01*
X34547Y149297D01*
X34547Y148453D01*
X33234Y148875D02*
X34547Y148875D01*
X32031Y148031D02*
X35969Y148031D01*
X34000Y151392D01*
X32031Y148031D01*
X23234Y148453D02*
X23234Y149297D01*
X23672Y149859D01*
X24109Y149859D01*
X24547Y149297D01*
X24547Y148453D01*
X23234Y148875D02*
X24547Y148875D01*
X22031Y148031D02*
X25969Y148031D01*
X24000Y151392D01*
X22031Y148031D01*
X33234Y108453D02*
X33234Y109297D01*
X33672Y109859D01*
X34109Y109859D01*
X34547Y109297D01*
X34547Y108453D01*
X33234Y108875D02*
X34547Y108875D01*
X32031Y108031D02*
X35969Y108031D01*
X34000Y111392D01*
X32031Y108031D01*
X23234Y108453D02*
X23234Y109297D01*
X23672Y109859D01*
X24109Y109859D01*
X24547Y109297D01*
X24547Y108453D01*
X23234Y108875D02*
X24547Y108875D01*
X22031Y108031D02*
X25969Y108031D01*
X24000Y111392D01*
X22031Y108031D01*
X33234Y118453D02*
X33234Y119297D01*
X33672Y119859D01*
X34109Y119859D01*
X34547Y119297D01*
X34547Y118453D01*
X33234Y118875D02*
X34547Y118875D01*
X32031Y118031D02*
X35969Y118031D01*
X34000Y121392D01*
X32031Y118031D01*
X23234Y118453D02*
X23234Y119297D01*
X23672Y119859D01*
X24109Y119859D01*
X24547Y119297D01*
X24547Y118453D01*
X23234Y118875D02*
X24547Y118875D01*
X22031Y118031D02*
X25969Y118031D01*
X24000Y121392D01*
X22031Y118031D01*
X341230Y178156D02*
X342542Y178156D01*
X343198Y178578D01*
X343198Y178789D01*
X342542Y179211D01*
X343198Y179633D01*
X343198Y179844D01*
X342542Y180265D01*
X341558Y180265D01*
X341230Y180265D01*
X341558Y179211D02*
X342542Y179211D01*
X341558Y180265D02*
X341558Y178156D01*
X339425Y179000D02*
G75*
D01*
G02X339425Y179000I2953J0*
G01*
X377494Y178044D02*
X378981Y178044D01*
X379725Y178522D01*
X379725Y178761D01*
X378981Y179239D01*
X379725Y179717D01*
X379725Y179956D01*
X378981Y180434D01*
X377866Y180434D01*
X377494Y180434D01*
X377866Y179239D02*
X378981Y179239D01*
X377866Y180434D02*
X377866Y178044D01*
X375449Y175654D02*
X382142Y175654D01*
X382142Y182346D01*
X375449Y182346D01*
X375449Y175654D01*
X67234Y57453D02*
X67234Y58297D01*
X67672Y58859D01*
X68109Y58859D01*
X68547Y58297D01*
X68547Y57453D01*
X67234Y57875D02*
X68547Y57875D01*
X66031Y57031D02*
X69969Y57031D01*
X68000Y60392D01*
X66031Y57031D01*
X67234Y67453D02*
X67234Y68297D01*
X67672Y68859D01*
X68109Y68859D01*
X68547Y68297D01*
X68547Y67453D01*
X67234Y67875D02*
X68547Y67875D01*
X66031Y67031D02*
X69969Y67031D01*
X68000Y70392D01*
X66031Y67031D01*
X67234Y111453D02*
X67234Y112297D01*
X67672Y112859D01*
X68109Y112859D01*
X68547Y112297D01*
X68547Y111453D01*
X67234Y111875D02*
X68547Y111875D01*
X66031Y111031D02*
X69969Y111031D01*
X68000Y114392D01*
X66031Y111031D01*
X67234Y101453D02*
X67234Y102297D01*
X67672Y102859D01*
X68109Y102859D01*
X68547Y102297D01*
X68547Y101453D01*
X67234Y101875D02*
X68547Y101875D01*
X66031Y101031D02*
X69969Y101031D01*
X68000Y104392D01*
X66031Y101031D01*
X197234Y57453D02*
X197234Y58297D01*
X197672Y58859D01*
X198109Y58859D01*
X198547Y58297D01*
X198547Y57453D01*
X197234Y57875D02*
X198547Y57875D01*
X196031Y57031D02*
X199969Y57031D01*
X198000Y60392D01*
X196031Y57031D01*
X197234Y67453D02*
X197234Y68297D01*
X197672Y68859D01*
X198109Y68859D01*
X198547Y68297D01*
X198547Y67453D01*
X197234Y67875D02*
X198547Y67875D01*
X196031Y67031D02*
X199969Y67031D01*
X198000Y70392D01*
X196031Y67031D01*
X197234Y111453D02*
X197234Y112297D01*
X197672Y112859D01*
X198109Y112859D01*
X198547Y112297D01*
X198547Y111453D01*
X197234Y111875D02*
X198547Y111875D01*
X196031Y111031D02*
X199969Y111031D01*
X198000Y114392D01*
X196031Y111031D01*
X197234Y101453D02*
X197234Y102297D01*
X197672Y102859D01*
X198109Y102859D01*
X198547Y102297D01*
X198547Y101453D01*
X197234Y101875D02*
X198547Y101875D01*
X196031Y101031D02*
X199969Y101031D01*
X198000Y104392D01*
X196031Y101031D01*
X250852Y223534D02*
X252164Y223534D01*
X252820Y223956D01*
X252820Y224167D01*
X252164Y224589D01*
X252820Y225011D01*
X252820Y225222D01*
X252164Y225643D01*
X251180Y225643D01*
X250852Y225643D01*
X251180Y224589D02*
X252164Y224589D01*
X251180Y225643D02*
X251180Y223534D01*
X249047Y224378D02*
G75*
D01*
G02X249047Y224378I2953J0*
G01*
X250699Y259839D02*
X252186Y259839D01*
X252930Y260317D01*
X252930Y260556D01*
X252186Y261034D01*
X252930Y261512D01*
X252930Y261751D01*
X252186Y262229D01*
X251070Y262229D01*
X250699Y262229D01*
X251070Y261034D02*
X252186Y261034D01*
X251070Y262229D02*
X251070Y259839D01*
X248654Y257449D02*
X255346Y257449D01*
X255346Y264142D01*
X248654Y264142D01*
X248654Y257449D01*
X507209Y-203736D02*
G75*
D01*
G02X507209Y-203736I12598J0*
G01*
X560883Y-200362D02*
X563508Y-198674D01*
X566133Y-198674D01*
X568757Y-200362D01*
X568757Y-201205D01*
X560883Y-207111D01*
X568757Y-207111D01*
X568757Y-206267D01*
X580568Y-198674D02*
X572694Y-198674D01*
X572694Y-202049D01*
X577944Y-202049D01*
X580568Y-203736D01*
X580568Y-205423D01*
X577944Y-207111D01*
X572694Y-207111D01*
X585818Y-200362D02*
X588442Y-198674D01*
X588442Y-207111D01*
X584505Y-207111D02*
X592379Y-207111D01*
X600253Y-207111D02*
X600253Y-206267D01*
X608127Y-205423D02*
X610752Y-207111D01*
X613377Y-207111D01*
X616001Y-205423D01*
X616001Y-202049D01*
X616001Y-200362D01*
X613377Y-198674D01*
X610752Y-198674D01*
X608127Y-200362D01*
X608127Y-202049D01*
X610752Y-203736D01*
X613377Y-203736D01*
X616001Y-202049D01*
X626500Y-198674D02*
X622563Y-198674D01*
X619938Y-200362D01*
X619938Y-203736D01*
X619938Y-205423D01*
X622563Y-207111D01*
X625188Y-207111D01*
X627812Y-205423D01*
X627812Y-203736D01*
X625188Y-202049D01*
X622563Y-202049D01*
X619938Y-203736D01*
X636999Y-207111D02*
X634374Y-207111D01*
X631749Y-205423D01*
X631749Y-203736D01*
X633062Y-202892D01*
X631749Y-202049D01*
X631749Y-200362D01*
X634374Y-198674D01*
X636999Y-198674D01*
X639623Y-200362D01*
X639623Y-202049D01*
X638311Y-202892D01*
X639623Y-203736D01*
X639623Y-205423D01*
X636999Y-207111D01*
X633062Y-202892D02*
X638311Y-202892D01*
X651434Y-203736D02*
X643560Y-203736D01*
X650122Y-198674D01*
X650122Y-207111D01*
X648810Y-207111D02*
X651434Y-207111D01*
X656684Y-199518D02*
X657996Y-198674D01*
X660621Y-198674D01*
X663245Y-200362D01*
X663245Y-202049D01*
X661933Y-202892D01*
X663245Y-203736D01*
X663245Y-205423D01*
X660621Y-207111D01*
X657996Y-207111D01*
X656684Y-206267D01*
X657996Y-202892D02*
X661933Y-202892D01*
X720726Y-203736D02*
X712852Y-203736D01*
X719413Y-198674D01*
X719413Y-207111D01*
X718101Y-207111D02*
X720726Y-207111D01*
X788049Y-207111D02*
X788049Y-198674D01*
X793298Y-198674D01*
X795923Y-200362D01*
X795923Y-201205D01*
X793298Y-202892D01*
X788049Y-202892D01*
X803797Y-207111D02*
X803797Y-198674D01*
X799860Y-198674D02*
X807734Y-198674D01*
X811671Y-207111D02*
X811671Y-198674D01*
X819545Y-207111D02*
X819545Y-198674D01*
X811671Y-202892D02*
X819545Y-202892D01*
X857340Y-200362D02*
X859965Y-198674D01*
X862589Y-198674D01*
X865214Y-200362D01*
X865214Y-205423D01*
X862589Y-207111D01*
X859965Y-207111D01*
X857340Y-205423D01*
X857340Y-200362D01*
X865214Y-200362D02*
X857340Y-205423D01*
X887524Y-207111D02*
X886211Y-207111D01*
X883587Y-205423D01*
X883587Y-200362D01*
X886211Y-198674D01*
X887524Y-198674D01*
X892773Y-207111D02*
X892773Y-198674D01*
X898022Y-198674D01*
X900647Y-200362D01*
X900647Y-201205D01*
X898022Y-202892D01*
X892773Y-202892D01*
X894085Y-202892D02*
X900647Y-207111D01*
X904584Y-205423D02*
X907209Y-207111D01*
X909833Y-207111D01*
X912458Y-205423D01*
X912458Y-200362D01*
X909833Y-198674D01*
X907209Y-198674D01*
X904584Y-200362D01*
X904584Y-205423D01*
X916395Y-198674D02*
X916395Y-205423D01*
X919020Y-207111D01*
X921644Y-207111D01*
X924269Y-205423D01*
X924269Y-198674D01*
X928206Y-207111D02*
X928206Y-198674D01*
X936080Y-207111D01*
X936080Y-198674D01*
X940017Y-207111D02*
X945266Y-207111D01*
X947891Y-205423D01*
X947891Y-200362D01*
X945266Y-198674D01*
X940017Y-198674D01*
X941329Y-198674D02*
X941329Y-207111D01*
X953140Y-198674D02*
X954453Y-198674D01*
X957077Y-200362D01*
X957077Y-205423D01*
X954453Y-207111D01*
X953140Y-207111D01*
X518276Y-175333D02*
X518276Y-173646D01*
X519151Y-172521D01*
X520026Y-172521D01*
X520901Y-173646D01*
X520901Y-175333D01*
X518276Y-174490D02*
X520901Y-174490D01*
X515870Y-178146D02*
X523744Y-178146D01*
X523744Y-170272D01*
X515870Y-170272D01*
X515870Y-178146D01*
X570726Y-177583D02*
X570726Y-173365D01*
X574663Y-170834D01*
X574663Y-169147D01*
X566789Y-169147D01*
X566789Y-170834D01*
X583849Y-177583D02*
X581224Y-177583D01*
X578600Y-175896D01*
X578600Y-174209D01*
X579912Y-173365D01*
X578600Y-172521D01*
X578600Y-170834D01*
X581224Y-169147D01*
X583849Y-169147D01*
X586474Y-170834D01*
X586474Y-172521D01*
X585161Y-173365D01*
X586474Y-174209D01*
X586474Y-175896D01*
X583849Y-177583D01*
X579912Y-173365D02*
X585161Y-173365D01*
X594348Y-177583D02*
X594348Y-176739D01*
X606159Y-177583D02*
X606159Y-173365D01*
X610096Y-170834D01*
X610096Y-169147D01*
X602222Y-169147D01*
X602222Y-170834D01*
X621907Y-174209D02*
X614033Y-174209D01*
X620594Y-169147D01*
X620594Y-177583D01*
X619282Y-177583D02*
X621907Y-177583D01*
X625844Y-170834D02*
X628469Y-169147D01*
X631093Y-169147D01*
X633718Y-170834D01*
X633718Y-175896D01*
X631093Y-177583D01*
X628469Y-177583D01*
X625844Y-175896D01*
X625844Y-170834D01*
X633718Y-170834D02*
X625844Y-175896D01*
X638967Y-170834D02*
X641592Y-169147D01*
X641592Y-177583D01*
X637655Y-177583D02*
X645529Y-177583D01*
X656028Y-169147D02*
X652091Y-169147D01*
X649466Y-170834D01*
X649466Y-174209D01*
X649466Y-175896D01*
X652091Y-177583D01*
X654715Y-177583D01*
X657340Y-175896D01*
X657340Y-174209D01*
X654715Y-172521D01*
X652091Y-172521D01*
X649466Y-174209D01*
X712852Y-170834D02*
X715476Y-169147D01*
X718101Y-169147D01*
X720726Y-170834D01*
X720726Y-171678D01*
X712852Y-177583D01*
X720726Y-177583D01*
X720726Y-176739D01*
X788049Y-177583D02*
X788049Y-169147D01*
X793298Y-169147D01*
X795923Y-170834D01*
X795923Y-171678D01*
X793298Y-173365D01*
X788049Y-173365D01*
X803797Y-177583D02*
X803797Y-169147D01*
X799860Y-169147D02*
X807734Y-169147D01*
X811671Y-177583D02*
X811671Y-169147D01*
X819545Y-177583D02*
X819545Y-169147D01*
X811671Y-173365D02*
X819545Y-173365D01*
X857340Y-170834D02*
X859965Y-169147D01*
X862589Y-169147D01*
X865214Y-170834D01*
X865214Y-175896D01*
X862589Y-177583D01*
X859965Y-177583D01*
X857340Y-175896D01*
X857340Y-170834D01*
X865214Y-170834D02*
X857340Y-175896D01*
X887524Y-177583D02*
X886211Y-177583D01*
X883587Y-175896D01*
X883587Y-170834D01*
X886211Y-169147D01*
X887524Y-169147D01*
X892773Y-177583D02*
X892773Y-169147D01*
X898022Y-169147D01*
X900647Y-170834D01*
X900647Y-171678D01*
X898022Y-173365D01*
X892773Y-173365D01*
X894085Y-173365D02*
X900647Y-177583D01*
X904584Y-175896D02*
X907209Y-177583D01*
X909833Y-177583D01*
X912458Y-175896D01*
X912458Y-170834D01*
X909833Y-169147D01*
X907209Y-169147D01*
X904584Y-170834D01*
X904584Y-175896D01*
X916395Y-169147D02*
X916395Y-175896D01*
X919020Y-177583D01*
X921644Y-177583D01*
X924269Y-175896D01*
X924269Y-169147D01*
X928206Y-177583D02*
X928206Y-169147D01*
X936080Y-177583D01*
X936080Y-169147D01*
X940017Y-177583D02*
X945266Y-177583D01*
X947891Y-175896D01*
X947891Y-170834D01*
X945266Y-169147D01*
X940017Y-169147D01*
X941329Y-169147D02*
X941329Y-177583D01*
X953140Y-169147D02*
X954453Y-169147D01*
X957077Y-170834D01*
X957077Y-175896D01*
X954453Y-177583D01*
X953140Y-177583D01*
X573350Y-139619D02*
X569413Y-139619D01*
X566789Y-141306D01*
X566789Y-144681D01*
X566789Y-146368D01*
X569413Y-148056D01*
X572038Y-148056D01*
X574663Y-146368D01*
X574663Y-144681D01*
X572038Y-142994D01*
X569413Y-142994D01*
X566789Y-144681D01*
X585161Y-139619D02*
X581224Y-139619D01*
X578600Y-141306D01*
X578600Y-144681D01*
X578600Y-146368D01*
X581224Y-148056D01*
X583849Y-148056D01*
X586474Y-146368D01*
X586474Y-144681D01*
X583849Y-142994D01*
X581224Y-142994D01*
X578600Y-144681D01*
X594348Y-148056D02*
X594348Y-147212D01*
X602222Y-146368D02*
X604846Y-148056D01*
X607471Y-148056D01*
X610096Y-146368D01*
X610096Y-142994D01*
X610096Y-141306D01*
X607471Y-139619D01*
X604846Y-139619D01*
X602222Y-141306D01*
X602222Y-142994D01*
X604846Y-144681D01*
X607471Y-144681D01*
X610096Y-142994D01*
X614033Y-141306D02*
X616657Y-139619D01*
X619282Y-139619D01*
X621907Y-141306D01*
X621907Y-142150D01*
X614033Y-148056D01*
X621907Y-148056D01*
X621907Y-147212D01*
X625844Y-146368D02*
X628469Y-148056D01*
X631093Y-148056D01*
X633718Y-146368D01*
X633718Y-142994D01*
X633718Y-141306D01*
X631093Y-139619D01*
X628469Y-139619D01*
X625844Y-141306D01*
X625844Y-142994D01*
X628469Y-144681D01*
X631093Y-144681D01*
X633718Y-142994D01*
X638967Y-141306D02*
X641592Y-139619D01*
X641592Y-148056D01*
X637655Y-148056D02*
X645529Y-148056D01*
X650778Y-140463D02*
X652091Y-139619D01*
X654715Y-139619D01*
X657340Y-141306D01*
X657340Y-142994D01*
X656028Y-143837D01*
X657340Y-144681D01*
X657340Y-146368D01*
X654715Y-148056D01*
X652091Y-148056D01*
X650778Y-147212D01*
X652091Y-143837D02*
X656028Y-143837D01*
X712852Y-141306D02*
X715476Y-139619D01*
X718101Y-139619D01*
X720726Y-141306D01*
X720726Y-142150D01*
X712852Y-148056D01*
X720726Y-148056D01*
X720726Y-147212D01*
X788049Y-148056D02*
X788049Y-139619D01*
X793298Y-139619D01*
X795923Y-141306D01*
X795923Y-142150D01*
X793298Y-143837D01*
X788049Y-143837D01*
X803797Y-148056D02*
X803797Y-139619D01*
X799860Y-139619D02*
X807734Y-139619D01*
X811671Y-148056D02*
X811671Y-139619D01*
X819545Y-148056D02*
X819545Y-139619D01*
X811671Y-143837D02*
X819545Y-143837D01*
X857340Y-141306D02*
X859965Y-139619D01*
X862589Y-139619D01*
X865214Y-141306D01*
X865214Y-146368D01*
X862589Y-148056D01*
X859965Y-148056D01*
X857340Y-146368D01*
X857340Y-141306D01*
X865214Y-141306D02*
X857340Y-146368D01*
X887524Y-148056D02*
X886211Y-148056D01*
X883587Y-146368D01*
X883587Y-141306D01*
X886211Y-139619D01*
X887524Y-139619D01*
X892773Y-148056D02*
X892773Y-139619D01*
X898022Y-139619D01*
X900647Y-141306D01*
X900647Y-142150D01*
X898022Y-143837D01*
X892773Y-143837D01*
X894085Y-143837D02*
X900647Y-148056D01*
X904584Y-146368D02*
X907209Y-148056D01*
X909833Y-148056D01*
X912458Y-146368D01*
X912458Y-141306D01*
X909833Y-139619D01*
X907209Y-139619D01*
X904584Y-141306D01*
X904584Y-146368D01*
X916395Y-139619D02*
X916395Y-146368D01*
X919020Y-148056D01*
X921644Y-148056D01*
X924269Y-146368D01*
X924269Y-139619D01*
X928206Y-148056D02*
X928206Y-139619D01*
X936080Y-148056D01*
X936080Y-139619D01*
X940017Y-148056D02*
X945266Y-148056D01*
X947891Y-146368D01*
X947891Y-141306D01*
X945266Y-139619D01*
X940017Y-139619D01*
X941329Y-139619D02*
X941329Y-148056D01*
X953140Y-139619D02*
X954453Y-139619D01*
X957077Y-141306D01*
X957077Y-146368D01*
X954453Y-148056D01*
X953140Y-148056D01*
X518506Y-145637D02*
X519993Y-145637D01*
X520737Y-145159D01*
X520737Y-144920D01*
X519993Y-144442D01*
X520737Y-143964D01*
X520737Y-143725D01*
X519993Y-143247D01*
X518878Y-143247D01*
X518506Y-143247D01*
X518878Y-144442D02*
X519993Y-144442D01*
X518878Y-143247D02*
X518878Y-145637D01*
X516461Y-148027D02*
X523154Y-148027D01*
X523154Y-141335D01*
X516461Y-141335D01*
X516461Y-148027D01*
X518659Y-115997D02*
X519971Y-115997D01*
X520627Y-115575D01*
X520627Y-115364D01*
X519971Y-114943D01*
X520627Y-114521D01*
X520627Y-114310D01*
X519971Y-113888D01*
X518987Y-113888D01*
X518659Y-113888D01*
X518987Y-114943D02*
X519971Y-114943D01*
X518987Y-113888D02*
X518987Y-115997D01*
X516854Y-115153D02*
G75*
D01*
G02X516854Y-115153I2953J0*
G01*
X574663Y-110092D02*
X566789Y-110092D01*
X566789Y-113466D01*
X572038Y-113466D01*
X574663Y-115153D01*
X574663Y-116841D01*
X572038Y-118528D01*
X566789Y-118528D01*
X578600Y-116841D02*
X581224Y-118528D01*
X583849Y-118528D01*
X586474Y-116841D01*
X586474Y-113466D01*
X586474Y-111779D01*
X583849Y-110092D01*
X581224Y-110092D01*
X578600Y-111779D01*
X578600Y-113466D01*
X581224Y-115153D01*
X583849Y-115153D01*
X586474Y-113466D01*
X594348Y-118528D02*
X594348Y-117684D01*
X602222Y-111779D02*
X604846Y-110092D01*
X607471Y-110092D01*
X610096Y-111779D01*
X610096Y-116841D01*
X607471Y-118528D01*
X604846Y-118528D01*
X602222Y-116841D01*
X602222Y-111779D01*
X610096Y-111779D02*
X602222Y-116841D01*
X621907Y-110092D02*
X614033Y-110092D01*
X614033Y-113466D01*
X619282Y-113466D01*
X621907Y-115153D01*
X621907Y-116841D01*
X619282Y-118528D01*
X614033Y-118528D01*
X633718Y-110092D02*
X625844Y-110092D01*
X625844Y-113466D01*
X631093Y-113466D01*
X633718Y-115153D01*
X633718Y-116841D01*
X631093Y-118528D01*
X625844Y-118528D01*
X638967Y-111779D02*
X641592Y-110092D01*
X641592Y-118528D01*
X637655Y-118528D02*
X645529Y-118528D01*
X649466Y-111779D02*
X652091Y-110092D01*
X654715Y-110092D01*
X657340Y-111779D01*
X657340Y-112623D01*
X649466Y-118528D01*
X657340Y-118528D01*
X657340Y-117684D01*
X712852Y-111779D02*
X715476Y-110092D01*
X718101Y-110092D01*
X720726Y-111779D01*
X720726Y-112623D01*
X712852Y-118528D01*
X720726Y-118528D01*
X720726Y-117684D01*
X788049Y-118528D02*
X788049Y-110092D01*
X793298Y-110092D01*
X795923Y-111779D01*
X795923Y-112623D01*
X793298Y-114310D01*
X788049Y-114310D01*
X803797Y-118528D02*
X803797Y-110092D01*
X799860Y-110092D02*
X807734Y-110092D01*
X811671Y-118528D02*
X811671Y-110092D01*
X819545Y-118528D02*
X819545Y-110092D01*
X811671Y-114310D02*
X819545Y-114310D01*
X857340Y-111779D02*
X859965Y-110092D01*
X862589Y-110092D01*
X865214Y-111779D01*
X865214Y-116841D01*
X862589Y-118528D01*
X859965Y-118528D01*
X857340Y-116841D01*
X857340Y-111779D01*
X865214Y-111779D02*
X857340Y-116841D01*
X887524Y-118528D02*
X886211Y-118528D01*
X883587Y-116841D01*
X883587Y-111779D01*
X886211Y-110092D01*
X887524Y-110092D01*
X892773Y-118528D02*
X892773Y-110092D01*
X898022Y-110092D01*
X900647Y-111779D01*
X900647Y-112623D01*
X898022Y-114310D01*
X892773Y-114310D01*
X894085Y-114310D02*
X900647Y-118528D01*
X904584Y-116841D02*
X907209Y-118528D01*
X909833Y-118528D01*
X912458Y-116841D01*
X912458Y-111779D01*
X909833Y-110092D01*
X907209Y-110092D01*
X904584Y-111779D01*
X904584Y-116841D01*
X916395Y-110092D02*
X916395Y-116841D01*
X919020Y-118528D01*
X921644Y-118528D01*
X924269Y-116841D01*
X924269Y-110092D01*
X928206Y-118528D02*
X928206Y-110092D01*
X936080Y-118528D01*
X936080Y-110092D01*
X940017Y-118528D02*
X945266Y-118528D01*
X947891Y-116841D01*
X947891Y-111779D01*
X945266Y-110092D01*
X940017Y-110092D01*
X941329Y-110092D02*
X941329Y-118528D01*
X953140Y-110092D02*
X954453Y-110092D01*
X957077Y-111779D01*
X957077Y-116841D01*
X954453Y-118528D01*
X953140Y-118528D01*
X518393Y-87040D02*
X521221Y-84212D01*
X518393Y-84212D02*
X521221Y-87040D01*
X574663Y-85626D02*
X566789Y-85626D01*
X573350Y-80564D01*
X573350Y-89000D01*
X572038Y-89000D02*
X574663Y-89000D01*
X578600Y-82251D02*
X581224Y-80564D01*
X583849Y-80564D01*
X586474Y-82251D01*
X586474Y-87313D01*
X583849Y-89000D01*
X581224Y-89000D01*
X578600Y-87313D01*
X578600Y-82251D01*
X586474Y-82251D02*
X578600Y-87313D01*
X594348Y-89000D02*
X594348Y-88157D01*
X602222Y-82251D02*
X604846Y-80564D01*
X607471Y-80564D01*
X610096Y-82251D01*
X610096Y-87313D01*
X607471Y-89000D01*
X604846Y-89000D01*
X602222Y-87313D01*
X602222Y-82251D01*
X610096Y-82251D02*
X602222Y-87313D01*
X614033Y-82251D02*
X616657Y-80564D01*
X619282Y-80564D01*
X621907Y-82251D01*
X621907Y-87313D01*
X619282Y-89000D01*
X616657Y-89000D01*
X614033Y-87313D01*
X614033Y-82251D01*
X621907Y-82251D02*
X614033Y-87313D01*
X625844Y-82251D02*
X628469Y-80564D01*
X631093Y-80564D01*
X633718Y-82251D01*
X633718Y-87313D01*
X631093Y-89000D01*
X628469Y-89000D01*
X625844Y-87313D01*
X625844Y-82251D01*
X633718Y-82251D02*
X625844Y-87313D01*
X637655Y-82251D02*
X640280Y-80564D01*
X642904Y-80564D01*
X645529Y-82251D01*
X645529Y-87313D01*
X642904Y-89000D01*
X640280Y-89000D01*
X637655Y-87313D01*
X637655Y-82251D01*
X645529Y-82251D02*
X637655Y-87313D01*
X649466Y-82251D02*
X652091Y-80564D01*
X654715Y-80564D01*
X657340Y-82251D01*
X657340Y-87313D01*
X654715Y-89000D01*
X652091Y-89000D01*
X649466Y-87313D01*
X649466Y-82251D01*
X657340Y-82251D02*
X649466Y-87313D01*
X714820Y-85626D02*
X706946Y-85626D01*
X713508Y-80564D01*
X713508Y-89000D01*
X712196Y-89000D02*
X714820Y-89000D01*
X720070Y-82251D02*
X722694Y-80564D01*
X722694Y-89000D01*
X718757Y-89000D02*
X726631Y-89000D01*
X788049Y-89000D02*
X788049Y-80564D01*
X793298Y-80564D01*
X795923Y-82251D01*
X795923Y-83095D01*
X793298Y-84782D01*
X788049Y-84782D01*
X803797Y-89000D02*
X803797Y-80564D01*
X799860Y-80564D02*
X807734Y-80564D01*
X811671Y-89000D02*
X811671Y-80564D01*
X819545Y-89000D02*
X819545Y-80564D01*
X811671Y-84782D02*
X819545Y-84782D01*
X857340Y-82251D02*
X859965Y-80564D01*
X862589Y-80564D01*
X865214Y-82251D01*
X865214Y-87313D01*
X862589Y-89000D01*
X859965Y-89000D01*
X857340Y-87313D01*
X857340Y-82251D01*
X865214Y-82251D02*
X857340Y-87313D01*
X887524Y-89000D02*
X886211Y-89000D01*
X883587Y-87313D01*
X883587Y-82251D01*
X886211Y-80564D01*
X887524Y-80564D01*
X892773Y-89000D02*
X892773Y-80564D01*
X898022Y-80564D01*
X900647Y-82251D01*
X900647Y-83095D01*
X898022Y-84782D01*
X892773Y-84782D01*
X894085Y-84782D02*
X900647Y-89000D01*
X904584Y-87313D02*
X907209Y-89000D01*
X909833Y-89000D01*
X912458Y-87313D01*
X912458Y-82251D01*
X909833Y-80564D01*
X907209Y-80564D01*
X904584Y-82251D01*
X904584Y-87313D01*
X916395Y-80564D02*
X916395Y-87313D01*
X919020Y-89000D01*
X921644Y-89000D01*
X924269Y-87313D01*
X924269Y-80564D01*
X928206Y-89000D02*
X928206Y-80564D01*
X936080Y-89000D01*
X936080Y-80564D01*
X940017Y-89000D02*
X945266Y-89000D01*
X947891Y-87313D01*
X947891Y-82251D01*
X945266Y-80564D01*
X940017Y-80564D01*
X941329Y-80564D02*
X941329Y-89000D01*
X953140Y-80564D02*
X954453Y-80564D01*
X957077Y-82251D01*
X957077Y-87313D01*
X954453Y-89000D01*
X953140Y-89000D01*
X519042Y-57645D02*
X519042Y-56801D01*
X519479Y-56239D01*
X519916Y-56239D01*
X520354Y-56801D01*
X520354Y-57645D01*
X519042Y-57223D02*
X520354Y-57223D01*
X517839Y-58067D02*
X521776Y-58067D01*
X519807Y-54706D01*
X517839Y-58067D01*
X568101Y-51880D02*
X569413Y-51036D01*
X572038Y-51036D01*
X574663Y-52724D01*
X574663Y-54411D01*
X573350Y-55255D01*
X574663Y-56098D01*
X574663Y-57786D01*
X572038Y-59473D01*
X569413Y-59473D01*
X568101Y-58629D01*
X569413Y-55255D02*
X573350Y-55255D01*
X578600Y-57786D02*
X581224Y-59473D01*
X583849Y-59473D01*
X586474Y-57786D01*
X586474Y-54411D01*
X586474Y-52724D01*
X583849Y-51036D01*
X581224Y-51036D01*
X578600Y-52724D01*
X578600Y-54411D01*
X581224Y-56098D01*
X583849Y-56098D01*
X586474Y-54411D01*
X594348Y-59473D02*
X594348Y-58629D01*
X603534Y-51880D02*
X604846Y-51036D01*
X607471Y-51036D01*
X610096Y-52724D01*
X610096Y-54411D01*
X608783Y-55255D01*
X610096Y-56098D01*
X610096Y-57786D01*
X607471Y-59473D01*
X604846Y-59473D01*
X603534Y-58629D01*
X604846Y-55255D02*
X608783Y-55255D01*
X617970Y-59473D02*
X617970Y-55255D01*
X621907Y-52724D01*
X621907Y-51036D01*
X614033Y-51036D01*
X614033Y-52724D01*
X625844Y-52724D02*
X628469Y-51036D01*
X631093Y-51036D01*
X633718Y-52724D01*
X633718Y-57786D01*
X631093Y-59473D01*
X628469Y-59473D01*
X625844Y-57786D01*
X625844Y-52724D01*
X633718Y-52724D02*
X625844Y-57786D01*
X637655Y-52724D02*
X640280Y-51036D01*
X642904Y-51036D01*
X645529Y-52724D01*
X645529Y-57786D01*
X642904Y-59473D01*
X640280Y-59473D01*
X637655Y-57786D01*
X637655Y-52724D01*
X645529Y-52724D02*
X637655Y-57786D01*
X654715Y-59473D02*
X652091Y-59473D01*
X649466Y-57786D01*
X649466Y-56098D01*
X650778Y-55255D01*
X649466Y-54411D01*
X649466Y-52724D01*
X652091Y-51036D01*
X654715Y-51036D01*
X657340Y-52724D01*
X657340Y-54411D01*
X656028Y-55255D01*
X657340Y-56098D01*
X657340Y-57786D01*
X654715Y-59473D01*
X650778Y-55255D02*
X656028Y-55255D01*
X706946Y-52724D02*
X709571Y-51036D01*
X712196Y-51036D01*
X714820Y-52724D01*
X714820Y-53567D01*
X706946Y-59473D01*
X714820Y-59473D01*
X714820Y-58629D01*
X726631Y-51036D02*
X718757Y-51036D01*
X718757Y-54411D01*
X724007Y-54411D01*
X726631Y-56098D01*
X726631Y-57786D01*
X724007Y-59473D01*
X718757Y-59473D01*
X788049Y-59473D02*
X788049Y-51036D01*
X793298Y-51036D01*
X795923Y-52724D01*
X795923Y-53567D01*
X793298Y-55255D01*
X788049Y-55255D01*
X803797Y-59473D02*
X803797Y-51036D01*
X799860Y-51036D02*
X807734Y-51036D01*
X811671Y-59473D02*
X811671Y-51036D01*
X819545Y-59473D02*
X819545Y-51036D01*
X811671Y-55255D02*
X819545Y-55255D01*
X857340Y-52724D02*
X859965Y-51036D01*
X862589Y-51036D01*
X865214Y-52724D01*
X865214Y-57786D01*
X862589Y-59473D01*
X859965Y-59473D01*
X857340Y-57786D01*
X857340Y-52724D01*
X865214Y-52724D02*
X857340Y-57786D01*
X887524Y-59473D02*
X886211Y-59473D01*
X883587Y-57786D01*
X883587Y-52724D01*
X886211Y-51036D01*
X887524Y-51036D01*
X892773Y-59473D02*
X892773Y-51036D01*
X898022Y-51036D01*
X900647Y-52724D01*
X900647Y-53567D01*
X898022Y-55255D01*
X892773Y-55255D01*
X894085Y-55255D02*
X900647Y-59473D01*
X904584Y-57786D02*
X907209Y-59473D01*
X909833Y-59473D01*
X912458Y-57786D01*
X912458Y-52724D01*
X909833Y-51036D01*
X907209Y-51036D01*
X904584Y-52724D01*
X904584Y-57786D01*
X916395Y-51036D02*
X916395Y-57786D01*
X919020Y-59473D01*
X921644Y-59473D01*
X924269Y-57786D01*
X924269Y-51036D01*
X928206Y-59473D02*
X928206Y-51036D01*
X936080Y-59473D01*
X936080Y-51036D01*
X940017Y-59473D02*
X945266Y-59473D01*
X947891Y-57786D01*
X947891Y-52724D01*
X945266Y-51036D01*
X940017Y-51036D01*
X941329Y-51036D02*
X941329Y-59473D01*
X953140Y-51036D02*
X954453Y-51036D01*
X957077Y-52724D01*
X957077Y-57786D01*
X954453Y-59473D01*
X953140Y-59473D01*
X568101Y-22353D02*
X569413Y-21509D01*
X572038Y-21509D01*
X574663Y-23196D01*
X574663Y-24883D01*
X573350Y-25727D01*
X574663Y-26571D01*
X574663Y-28258D01*
X572038Y-29945D01*
X569413Y-29945D01*
X568101Y-29102D01*
X569413Y-25727D02*
X573350Y-25727D01*
X578600Y-28258D02*
X581224Y-29945D01*
X583849Y-29945D01*
X586474Y-28258D01*
X586474Y-24883D01*
X586474Y-23196D01*
X583849Y-21509D01*
X581224Y-21509D01*
X578600Y-23196D01*
X578600Y-24883D01*
X581224Y-26571D01*
X583849Y-26571D01*
X586474Y-24883D01*
X594348Y-29945D02*
X594348Y-29102D01*
X603534Y-23196D02*
X606159Y-21509D01*
X606159Y-29945D01*
X602222Y-29945D02*
X610096Y-29945D01*
X617970Y-29945D02*
X617970Y-25727D01*
X621907Y-23196D01*
X621907Y-21509D01*
X614033Y-21509D01*
X614033Y-23196D01*
X625844Y-23196D02*
X628469Y-21509D01*
X631093Y-21509D01*
X633718Y-23196D01*
X633718Y-28258D01*
X631093Y-29945D01*
X628469Y-29945D01*
X625844Y-28258D01*
X625844Y-23196D01*
X633718Y-23196D02*
X625844Y-28258D01*
X637655Y-23196D02*
X640280Y-21509D01*
X642904Y-21509D01*
X645529Y-23196D01*
X645529Y-28258D01*
X642904Y-29945D01*
X640280Y-29945D01*
X637655Y-28258D01*
X637655Y-23196D01*
X645529Y-23196D02*
X637655Y-28258D01*
X649466Y-23196D02*
X652091Y-21509D01*
X654715Y-21509D01*
X657340Y-23196D01*
X657340Y-28258D01*
X654715Y-29945D01*
X652091Y-29945D01*
X649466Y-28258D01*
X649466Y-23196D01*
X657340Y-23196D02*
X649466Y-28258D01*
X718101Y-29945D02*
X715476Y-29945D01*
X712852Y-28258D01*
X712852Y-26571D01*
X714164Y-25727D01*
X712852Y-24883D01*
X712852Y-23196D01*
X715476Y-21509D01*
X718101Y-21509D01*
X720726Y-23196D01*
X720726Y-24883D01*
X719413Y-25727D01*
X720726Y-26571D01*
X720726Y-28258D01*
X718101Y-29945D01*
X714164Y-25727D02*
X719413Y-25727D01*
X788049Y-29945D02*
X788049Y-21509D01*
X793298Y-21509D01*
X795923Y-23196D01*
X795923Y-24040D01*
X793298Y-25727D01*
X788049Y-25727D01*
X803797Y-29945D02*
X803797Y-21509D01*
X799860Y-21509D02*
X807734Y-21509D01*
X811671Y-29945D02*
X811671Y-21509D01*
X819545Y-29945D02*
X819545Y-21509D01*
X811671Y-25727D02*
X819545Y-25727D01*
X857340Y-23196D02*
X859965Y-21509D01*
X862589Y-21509D01*
X865214Y-23196D01*
X865214Y-28258D01*
X862589Y-29945D01*
X859965Y-29945D01*
X857340Y-28258D01*
X857340Y-23196D01*
X865214Y-23196D02*
X857340Y-28258D01*
X887524Y-29945D02*
X886211Y-29945D01*
X883587Y-28258D01*
X883587Y-23196D01*
X886211Y-21509D01*
X887524Y-21509D01*
X892773Y-29945D02*
X892773Y-21509D01*
X898022Y-21509D01*
X900647Y-23196D01*
X900647Y-24040D01*
X898022Y-25727D01*
X892773Y-25727D01*
X894085Y-25727D02*
X900647Y-29945D01*
X904584Y-28258D02*
X907209Y-29945D01*
X909833Y-29945D01*
X912458Y-28258D01*
X912458Y-23196D01*
X909833Y-21509D01*
X907209Y-21509D01*
X904584Y-23196D01*
X904584Y-28258D01*
X916395Y-21509D02*
X916395Y-28258D01*
X919020Y-29945D01*
X921644Y-29945D01*
X924269Y-28258D01*
X924269Y-21509D01*
X928206Y-29945D02*
X928206Y-21509D01*
X936080Y-29945D01*
X936080Y-21509D01*
X940017Y-29945D02*
X945266Y-29945D01*
X947891Y-28258D01*
X947891Y-23196D01*
X945266Y-21509D01*
X940017Y-21509D01*
X941329Y-21509D02*
X941329Y-29945D01*
X953140Y-21509D02*
X954453Y-21509D01*
X957077Y-23196D01*
X957077Y-28258D01*
X954453Y-29945D01*
X953140Y-29945D01*
X568101Y7175D02*
X569413Y8019D01*
X572038Y8019D01*
X574663Y6331D01*
X574663Y4644D01*
X573350Y3800D01*
X574663Y2957D01*
X574663Y1269D01*
X572038Y-418D01*
X569413Y-418D01*
X568101Y426D01*
X569413Y3800D02*
X573350Y3800D01*
X586474Y8019D02*
X578600Y8019D01*
X578600Y4644D01*
X583849Y4644D01*
X586474Y2957D01*
X586474Y1269D01*
X583849Y-418D01*
X578600Y-418D01*
X594348Y-418D02*
X594348Y426D01*
X602222Y6331D02*
X604846Y8019D01*
X607471Y8019D01*
X610096Y6331D01*
X610096Y1269D01*
X607471Y-418D01*
X604846Y-418D01*
X602222Y1269D01*
X602222Y6331D01*
X610096Y6331D02*
X602222Y1269D01*
X614033Y6331D02*
X616657Y8019D01*
X619282Y8019D01*
X621907Y6331D01*
X621907Y1269D01*
X619282Y-418D01*
X616657Y-418D01*
X614033Y1269D01*
X614033Y6331D01*
X621907Y6331D02*
X614033Y1269D01*
X625844Y6331D02*
X628469Y8019D01*
X631093Y8019D01*
X633718Y6331D01*
X633718Y1269D01*
X631093Y-418D01*
X628469Y-418D01*
X625844Y1269D01*
X625844Y6331D01*
X633718Y6331D02*
X625844Y1269D01*
X637655Y6331D02*
X640280Y8019D01*
X642904Y8019D01*
X645529Y6331D01*
X645529Y1269D01*
X642904Y-418D01*
X640280Y-418D01*
X637655Y1269D01*
X637655Y6331D01*
X645529Y6331D02*
X637655Y1269D01*
X649466Y6331D02*
X652091Y8019D01*
X654715Y8019D01*
X657340Y6331D01*
X657340Y1269D01*
X654715Y-418D01*
X652091Y-418D01*
X649466Y1269D01*
X649466Y6331D01*
X657340Y6331D02*
X649466Y1269D01*
X708259Y7175D02*
X709571Y8019D01*
X712196Y8019D01*
X714820Y6331D01*
X714820Y4644D01*
X713508Y3800D01*
X714820Y2957D01*
X714820Y1269D01*
X712196Y-418D01*
X709571Y-418D01*
X708259Y426D01*
X709571Y3800D02*
X713508Y3800D01*
X726631Y8019D02*
X718757Y8019D01*
X718757Y4644D01*
X724007Y4644D01*
X726631Y2957D01*
X726631Y1269D01*
X724007Y-418D01*
X718757Y-418D01*
X788049Y-418D02*
X788049Y8019D01*
X793298Y8019D01*
X795923Y6331D01*
X795923Y5488D01*
X793298Y3800D01*
X788049Y3800D01*
X803797Y-418D02*
X803797Y8019D01*
X799860Y8019D02*
X807734Y8019D01*
X811671Y-418D02*
X811671Y8019D01*
X819545Y-418D02*
X819545Y8019D01*
X811671Y3800D02*
X819545Y3800D01*
X857340Y6331D02*
X859965Y8019D01*
X862589Y8019D01*
X865214Y6331D01*
X865214Y1269D01*
X862589Y-418D01*
X859965Y-418D01*
X857340Y1269D01*
X857340Y6331D01*
X865214Y6331D02*
X857340Y1269D01*
X887524Y-418D02*
X886211Y-418D01*
X883587Y1269D01*
X883587Y6331D01*
X886211Y8019D01*
X887524Y8019D01*
X892773Y-418D02*
X892773Y8019D01*
X898022Y8019D01*
X900647Y6331D01*
X900647Y5488D01*
X898022Y3800D01*
X892773Y3800D01*
X894085Y3800D02*
X900647Y-418D01*
X904584Y1269D02*
X907209Y-418D01*
X909833Y-418D01*
X912458Y1269D01*
X912458Y6331D01*
X909833Y8019D01*
X907209Y8019D01*
X904584Y6331D01*
X904584Y1269D01*
X916395Y8019D02*
X916395Y1269D01*
X919020Y-418D01*
X921644Y-418D01*
X924269Y1269D01*
X924269Y8019D01*
X928206Y-418D02*
X928206Y8019D01*
X936080Y-418D01*
X936080Y8019D01*
X940017Y-418D02*
X945266Y-418D01*
X947891Y1269D01*
X947891Y6331D01*
X945266Y8019D01*
X940017Y8019D01*
X941329Y8019D02*
X941329Y-418D01*
X953140Y8019D02*
X954453Y8019D01*
X957077Y6331D01*
X957077Y1269D01*
X954453Y-418D01*
X953140Y-418D01*
X568101Y36703D02*
X569413Y37546D01*
X572038Y37546D01*
X574663Y35859D01*
X574663Y34172D01*
X573350Y33328D01*
X574663Y32484D01*
X574663Y30797D01*
X572038Y29110D01*
X569413Y29110D01*
X568101Y29953D01*
X569413Y33328D02*
X573350Y33328D01*
X579912Y36703D02*
X581224Y37546D01*
X583849Y37546D01*
X586474Y35859D01*
X586474Y34172D01*
X585161Y33328D01*
X586474Y32484D01*
X586474Y30797D01*
X583849Y29110D01*
X581224Y29110D01*
X579912Y29953D01*
X581224Y33328D02*
X585161Y33328D01*
X594348Y29110D02*
X594348Y29953D01*
X603534Y36703D02*
X604846Y37546D01*
X607471Y37546D01*
X610096Y35859D01*
X610096Y34172D01*
X608783Y33328D01*
X610096Y32484D01*
X610096Y30797D01*
X607471Y29110D01*
X604846Y29110D01*
X603534Y29953D01*
X604846Y33328D02*
X608783Y33328D01*
X615345Y36703D02*
X616657Y37546D01*
X619282Y37546D01*
X621907Y35859D01*
X621907Y34172D01*
X620594Y33328D01*
X621907Y32484D01*
X621907Y30797D01*
X619282Y29110D01*
X616657Y29110D01*
X615345Y29953D01*
X616657Y33328D02*
X620594Y33328D01*
X625844Y35859D02*
X628469Y37546D01*
X631093Y37546D01*
X633718Y35859D01*
X633718Y30797D01*
X631093Y29110D01*
X628469Y29110D01*
X625844Y30797D01*
X625844Y35859D01*
X633718Y35859D02*
X625844Y30797D01*
X637655Y35859D02*
X640280Y37546D01*
X642904Y37546D01*
X645529Y35859D01*
X645529Y30797D01*
X642904Y29110D01*
X640280Y29110D01*
X637655Y30797D01*
X637655Y35859D01*
X645529Y35859D02*
X637655Y30797D01*
X649466Y35859D02*
X652091Y37546D01*
X654715Y37546D01*
X657340Y35859D01*
X657340Y30797D01*
X654715Y29110D01*
X652091Y29110D01*
X649466Y30797D01*
X649466Y35859D01*
X657340Y35859D02*
X649466Y30797D01*
X714164Y35859D02*
X716789Y37546D01*
X716789Y29110D01*
X712852Y29110D02*
X720726Y29110D01*
X788049Y29110D02*
X788049Y37546D01*
X793298Y37546D01*
X795923Y35859D01*
X795923Y35015D01*
X793298Y33328D01*
X788049Y33328D01*
X803797Y29110D02*
X803797Y37546D01*
X799860Y37546D02*
X807734Y37546D01*
X811671Y29110D02*
X811671Y37546D01*
X819545Y29110D02*
X819545Y37546D01*
X811671Y33328D02*
X819545Y33328D01*
X857340Y35859D02*
X859965Y37546D01*
X862589Y37546D01*
X865214Y35859D01*
X865214Y30797D01*
X862589Y29110D01*
X859965Y29110D01*
X857340Y30797D01*
X857340Y35859D01*
X865214Y35859D02*
X857340Y30797D01*
X887524Y29110D02*
X886211Y29110D01*
X883587Y30797D01*
X883587Y35859D01*
X886211Y37546D01*
X887524Y37546D01*
X892773Y29110D02*
X892773Y37546D01*
X898022Y37546D01*
X900647Y35859D01*
X900647Y35015D01*
X898022Y33328D01*
X892773Y33328D01*
X894085Y33328D02*
X900647Y29110D01*
X904584Y30797D02*
X907209Y29110D01*
X909833Y29110D01*
X912458Y30797D01*
X912458Y35859D01*
X909833Y37546D01*
X907209Y37546D01*
X904584Y35859D01*
X904584Y30797D01*
X916395Y37546D02*
X916395Y30797D01*
X919020Y29110D01*
X921644Y29110D01*
X924269Y30797D01*
X924269Y37546D01*
X928206Y29110D02*
X928206Y37546D01*
X936080Y29110D01*
X936080Y37546D01*
X940017Y29110D02*
X945266Y29110D01*
X947891Y30797D01*
X947891Y35859D01*
X945266Y37546D01*
X940017Y37546D01*
X941329Y37546D02*
X941329Y29110D01*
X953140Y37546D02*
X954453Y37546D01*
X957077Y35859D01*
X957077Y30797D01*
X954453Y29110D01*
X953140Y29110D01*
X568101Y66230D02*
X569413Y67074D01*
X572038Y67074D01*
X574663Y65386D01*
X574663Y63699D01*
X573350Y62856D01*
X574663Y62012D01*
X574663Y60325D01*
X572038Y58637D01*
X569413Y58637D01*
X568101Y59481D01*
X569413Y62856D02*
X573350Y62856D01*
X579912Y65386D02*
X582537Y67074D01*
X582537Y58637D01*
X578600Y58637D02*
X586474Y58637D01*
X594348Y58637D02*
X594348Y59481D01*
X610096Y62012D02*
X602222Y62012D01*
X608783Y67074D01*
X608783Y58637D01*
X607471Y58637D02*
X610096Y58637D01*
X614033Y60325D02*
X616657Y58637D01*
X619282Y58637D01*
X621907Y60325D01*
X621907Y63699D01*
X621907Y65386D01*
X619282Y67074D01*
X616657Y67074D01*
X614033Y65386D01*
X614033Y63699D01*
X616657Y62012D01*
X619282Y62012D01*
X621907Y63699D01*
X632406Y67074D02*
X628469Y67074D01*
X625844Y65386D01*
X625844Y62012D01*
X625844Y60325D01*
X628469Y58637D01*
X631093Y58637D01*
X633718Y60325D01*
X633718Y62012D01*
X631093Y63699D01*
X628469Y63699D01*
X625844Y62012D01*
X637655Y65386D02*
X640280Y67074D01*
X642904Y67074D01*
X645529Y65386D01*
X645529Y60325D01*
X642904Y58637D01*
X640280Y58637D01*
X637655Y60325D01*
X637655Y65386D01*
X645529Y65386D02*
X637655Y60325D01*
X656028Y67074D02*
X652091Y67074D01*
X649466Y65386D01*
X649466Y62012D01*
X649466Y60325D01*
X652091Y58637D01*
X654715Y58637D01*
X657340Y60325D01*
X657340Y62012D01*
X654715Y63699D01*
X652091Y63699D01*
X649466Y62012D01*
X718101Y58637D02*
X715476Y58637D01*
X712852Y60325D01*
X712852Y62012D01*
X714164Y62856D01*
X712852Y63699D01*
X712852Y65386D01*
X715476Y67074D01*
X718101Y67074D01*
X720726Y65386D01*
X720726Y63699D01*
X719413Y62856D01*
X720726Y62012D01*
X720726Y60325D01*
X718101Y58637D01*
X714164Y62856D02*
X719413Y62856D01*
X788049Y58637D02*
X788049Y67074D01*
X793298Y67074D01*
X795923Y65386D01*
X795923Y64543D01*
X793298Y62856D01*
X788049Y62856D01*
X803797Y58637D02*
X803797Y67074D01*
X799860Y67074D02*
X807734Y67074D01*
X811671Y58637D02*
X811671Y67074D01*
X819545Y58637D02*
X819545Y67074D01*
X811671Y62856D02*
X819545Y62856D01*
X871119Y62012D02*
X863245Y62012D01*
X869807Y67074D01*
X869807Y58637D01*
X868495Y58637D02*
X871119Y58637D01*
X878993Y58637D02*
X878993Y62856D01*
X882930Y65386D01*
X882930Y67074D01*
X875056Y67074D01*
X875056Y65386D01*
X890804Y58637D02*
X890804Y59481D01*
X898678Y65386D02*
X901303Y67074D01*
X903928Y67074D01*
X906552Y65386D01*
X906552Y64543D01*
X898678Y58637D01*
X906552Y58637D01*
X906552Y59481D01*
X918364Y62012D02*
X910490Y62012D01*
X917051Y67074D01*
X917051Y58637D01*
X915739Y58637D02*
X918364Y58637D01*
X930175Y62012D02*
X922301Y62012D01*
X928862Y67074D01*
X928862Y58637D01*
X927550Y58637D02*
X930175Y58637D01*
X934112Y65386D02*
X936736Y67074D01*
X939361Y67074D01*
X941986Y65386D01*
X941986Y60325D01*
X939361Y58637D01*
X936736Y58637D01*
X934112Y60325D01*
X934112Y65386D01*
X941986Y65386D02*
X934112Y60325D01*
X945923Y60325D02*
X948547Y58637D01*
X951172Y58637D01*
X953797Y60325D01*
X953797Y63699D01*
X953797Y65386D01*
X951172Y67074D01*
X948547Y67074D01*
X945923Y65386D01*
X945923Y63699D01*
X948547Y62012D01*
X951172Y62012D01*
X953797Y63699D01*
X568101Y95758D02*
X569413Y96601D01*
X572038Y96601D01*
X574663Y94914D01*
X574663Y93227D01*
X573350Y92383D01*
X574663Y91539D01*
X574663Y89852D01*
X572038Y88165D01*
X569413Y88165D01*
X568101Y89008D01*
X569413Y92383D02*
X573350Y92383D01*
X579912Y94914D02*
X582537Y96601D01*
X582537Y88165D01*
X578600Y88165D02*
X586474Y88165D01*
X594348Y88165D02*
X594348Y89008D01*
X610096Y91539D02*
X602222Y91539D01*
X608783Y96601D01*
X608783Y88165D01*
X607471Y88165D02*
X610096Y88165D01*
X614033Y89852D02*
X616657Y88165D01*
X619282Y88165D01*
X621907Y89852D01*
X621907Y93227D01*
X621907Y94914D01*
X619282Y96601D01*
X616657Y96601D01*
X614033Y94914D01*
X614033Y93227D01*
X616657Y91539D01*
X619282Y91539D01*
X621907Y93227D01*
X632406Y96601D02*
X628469Y96601D01*
X625844Y94914D01*
X625844Y91539D01*
X625844Y89852D01*
X628469Y88165D01*
X631093Y88165D01*
X633718Y89852D01*
X633718Y91539D01*
X631093Y93227D01*
X628469Y93227D01*
X625844Y91539D01*
X637655Y94914D02*
X640280Y96601D01*
X642904Y96601D01*
X645529Y94914D01*
X645529Y89852D01*
X642904Y88165D01*
X640280Y88165D01*
X637655Y89852D01*
X637655Y94914D01*
X645529Y94914D02*
X637655Y89852D01*
X656028Y96601D02*
X652091Y96601D01*
X649466Y94914D01*
X649466Y91539D01*
X649466Y89852D01*
X652091Y88165D01*
X654715Y88165D01*
X657340Y89852D01*
X657340Y91539D01*
X654715Y93227D01*
X652091Y93227D01*
X649466Y91539D01*
X712852Y94914D02*
X715476Y96601D01*
X718101Y96601D01*
X720726Y94914D01*
X720726Y94070D01*
X712852Y88165D01*
X720726Y88165D01*
X720726Y89008D01*
X788049Y88165D02*
X788049Y96601D01*
X793298Y96601D01*
X795923Y94914D01*
X795923Y94070D01*
X793298Y92383D01*
X788049Y92383D01*
X803797Y88165D02*
X803797Y96601D01*
X799860Y96601D02*
X807734Y96601D01*
X811671Y88165D02*
X811671Y96601D01*
X819545Y88165D02*
X819545Y96601D01*
X811671Y92383D02*
X819545Y92383D01*
X868495Y88165D02*
X865870Y88165D01*
X863245Y89852D01*
X863245Y91539D01*
X864558Y92383D01*
X863245Y93227D01*
X863245Y94914D01*
X865870Y96601D01*
X868495Y96601D01*
X871119Y94914D01*
X871119Y93227D01*
X869807Y92383D01*
X871119Y91539D01*
X871119Y89852D01*
X868495Y88165D01*
X864558Y92383D02*
X869807Y92383D01*
X881618Y96601D02*
X877681Y96601D01*
X875056Y94914D01*
X875056Y91539D01*
X875056Y89852D01*
X877681Y88165D01*
X880306Y88165D01*
X882930Y89852D01*
X882930Y91539D01*
X880306Y93227D01*
X877681Y93227D01*
X875056Y91539D01*
X890804Y88165D02*
X890804Y89008D01*
X905240Y96601D02*
X901303Y96601D01*
X898678Y94914D01*
X898678Y91539D01*
X898678Y89852D01*
X901303Y88165D01*
X903928Y88165D01*
X906552Y89852D01*
X906552Y91539D01*
X903928Y93227D01*
X901303Y93227D01*
X898678Y91539D01*
X911802Y94914D02*
X914427Y96601D01*
X914427Y88165D01*
X910490Y88165D02*
X918364Y88165D01*
X930175Y91539D02*
X922301Y91539D01*
X928862Y96601D01*
X928862Y88165D01*
X927550Y88165D02*
X930175Y88165D01*
X935424Y94914D02*
X938049Y96601D01*
X938049Y88165D01*
X934112Y88165D02*
X941986Y88165D01*
X949860Y88165D02*
X949860Y92383D01*
X953797Y94914D01*
X953797Y96601D01*
X945923Y96601D01*
X945923Y94914D01*
X566789Y124442D02*
X569413Y126129D01*
X572038Y126129D01*
X574663Y124442D01*
X574663Y123598D01*
X566789Y117692D01*
X574663Y117692D01*
X574663Y118536D01*
X582537Y117692D02*
X582537Y121911D01*
X586474Y124442D01*
X586474Y126129D01*
X578600Y126129D01*
X578600Y124442D01*
X594348Y117692D02*
X594348Y118536D01*
X610096Y126129D02*
X602222Y126129D01*
X602222Y122754D01*
X607471Y122754D01*
X610096Y121067D01*
X610096Y119380D01*
X607471Y117692D01*
X602222Y117692D01*
X621907Y126129D02*
X614033Y126129D01*
X614033Y122754D01*
X619282Y122754D01*
X621907Y121067D01*
X621907Y119380D01*
X619282Y117692D01*
X614033Y117692D01*
X625844Y119380D02*
X628469Y117692D01*
X631093Y117692D01*
X633718Y119380D01*
X633718Y122754D01*
X633718Y124442D01*
X631093Y126129D01*
X628469Y126129D01*
X625844Y124442D01*
X625844Y122754D01*
X628469Y121067D01*
X631093Y121067D01*
X633718Y122754D01*
X637655Y124442D02*
X640280Y126129D01*
X642904Y126129D01*
X645529Y124442D01*
X645529Y119380D01*
X642904Y117692D01*
X640280Y117692D01*
X637655Y119380D01*
X637655Y124442D01*
X645529Y124442D02*
X637655Y119380D01*
X656028Y126129D02*
X652091Y126129D01*
X649466Y124442D01*
X649466Y121067D01*
X649466Y119380D01*
X652091Y117692D01*
X654715Y117692D01*
X657340Y119380D01*
X657340Y121067D01*
X654715Y122754D01*
X652091Y122754D01*
X649466Y121067D01*
X714164Y125285D02*
X715476Y126129D01*
X718101Y126129D01*
X720726Y124442D01*
X720726Y122754D01*
X719413Y121911D01*
X720726Y121067D01*
X720726Y119380D01*
X718101Y117692D01*
X715476Y117692D01*
X714164Y118536D01*
X715476Y121911D02*
X719413Y121911D01*
X788049Y117692D02*
X788049Y126129D01*
X793298Y126129D01*
X795923Y124442D01*
X795923Y123598D01*
X793298Y121911D01*
X788049Y121911D01*
X803797Y117692D02*
X803797Y126129D01*
X799860Y126129D02*
X807734Y126129D01*
X811671Y117692D02*
X811671Y126129D01*
X819545Y117692D02*
X819545Y126129D01*
X811671Y121911D02*
X819545Y121911D01*
X863245Y119380D02*
X865870Y117692D01*
X868495Y117692D01*
X871119Y119380D01*
X871119Y122754D01*
X871119Y124442D01*
X868495Y126129D01*
X865870Y126129D01*
X863245Y124442D01*
X863245Y122754D01*
X865870Y121067D01*
X868495Y121067D01*
X871119Y122754D01*
X875056Y124442D02*
X877681Y126129D01*
X880306Y126129D01*
X882930Y124442D01*
X882930Y119380D01*
X880306Y117692D01*
X877681Y117692D01*
X875056Y119380D01*
X875056Y124442D01*
X882930Y124442D02*
X875056Y119380D01*
X890804Y117692D02*
X890804Y118536D01*
X906552Y126129D02*
X898678Y126129D01*
X898678Y122754D01*
X903928Y122754D01*
X906552Y121067D01*
X906552Y119380D01*
X903928Y117692D01*
X898678Y117692D01*
X918364Y126129D02*
X910490Y126129D01*
X910490Y122754D01*
X915739Y122754D01*
X918364Y121067D01*
X918364Y119380D01*
X915739Y117692D01*
X910490Y117692D01*
X923613Y124442D02*
X926238Y126129D01*
X926238Y117692D01*
X922301Y117692D02*
X930175Y117692D01*
X935424Y124442D02*
X938049Y126129D01*
X938049Y117692D01*
X934112Y117692D02*
X941986Y117692D01*
X951172Y117692D02*
X948547Y117692D01*
X945923Y119380D01*
X945923Y121067D01*
X947235Y121911D01*
X945923Y122754D01*
X945923Y124442D01*
X948547Y126129D01*
X951172Y126129D01*
X953797Y124442D01*
X953797Y122754D01*
X952484Y121911D01*
X953797Y121067D01*
X953797Y119380D01*
X951172Y117692D01*
X947235Y121911D02*
X952484Y121911D01*
X566789Y153969D02*
X569413Y155656D01*
X572038Y155656D01*
X574663Y153969D01*
X574663Y153125D01*
X566789Y147220D01*
X574663Y147220D01*
X574663Y148064D01*
X579912Y154813D02*
X581224Y155656D01*
X583849Y155656D01*
X586474Y153969D01*
X586474Y152282D01*
X585161Y151438D01*
X586474Y150595D01*
X586474Y148907D01*
X583849Y147220D01*
X581224Y147220D01*
X579912Y148064D01*
X581224Y151438D02*
X585161Y151438D01*
X594348Y147220D02*
X594348Y148064D01*
X608783Y155656D02*
X604846Y155656D01*
X602222Y153969D01*
X602222Y150595D01*
X602222Y148907D01*
X604846Y147220D01*
X607471Y147220D01*
X610096Y148907D01*
X610096Y150595D01*
X607471Y152282D01*
X604846Y152282D01*
X602222Y150595D01*
X614033Y153969D02*
X616657Y155656D01*
X619282Y155656D01*
X621907Y153969D01*
X621907Y153125D01*
X614033Y147220D01*
X621907Y147220D01*
X621907Y148064D01*
X625844Y153969D02*
X628469Y155656D01*
X631093Y155656D01*
X633718Y153969D01*
X633718Y153125D01*
X625844Y147220D01*
X633718Y147220D01*
X633718Y148064D01*
X637655Y153969D02*
X640280Y155656D01*
X642904Y155656D01*
X645529Y153969D01*
X645529Y148907D01*
X642904Y147220D01*
X640280Y147220D01*
X637655Y148907D01*
X637655Y153969D01*
X645529Y153969D02*
X637655Y148907D01*
X657340Y155656D02*
X649466Y155656D01*
X649466Y152282D01*
X654715Y152282D01*
X657340Y150595D01*
X657340Y148907D01*
X654715Y147220D01*
X649466Y147220D01*
X701041Y153969D02*
X703665Y155656D01*
X706290Y155656D01*
X708915Y153969D01*
X708915Y153125D01*
X701041Y147220D01*
X708915Y147220D01*
X708915Y148064D01*
X714164Y154813D02*
X715476Y155656D01*
X718101Y155656D01*
X720726Y153969D01*
X720726Y152282D01*
X719413Y151438D01*
X720726Y150595D01*
X720726Y148907D01*
X718101Y147220D01*
X715476Y147220D01*
X714164Y148064D01*
X715476Y151438D02*
X719413Y151438D01*
X724663Y153969D02*
X727287Y155656D01*
X729912Y155656D01*
X732537Y153969D01*
X732537Y148907D01*
X729912Y147220D01*
X727287Y147220D01*
X724663Y148907D01*
X724663Y153969D01*
X732537Y153969D02*
X724663Y148907D01*
X788049Y147220D02*
X788049Y155656D01*
X793298Y155656D01*
X795923Y153969D01*
X795923Y153125D01*
X793298Y151438D01*
X788049Y151438D01*
X803797Y147220D02*
X803797Y155656D01*
X799860Y155656D02*
X807734Y155656D01*
X811671Y147220D02*
X811671Y155656D01*
X819545Y147220D02*
X819545Y155656D01*
X811671Y151438D02*
X819545Y151438D01*
X857340Y153969D02*
X859965Y155656D01*
X862589Y155656D01*
X865214Y153969D01*
X865214Y148907D01*
X862589Y147220D01*
X859965Y147220D01*
X857340Y148907D01*
X857340Y153969D01*
X865214Y153969D02*
X857340Y148907D01*
X887524Y147220D02*
X886211Y147220D01*
X883587Y148907D01*
X883587Y153969D01*
X886211Y155656D01*
X887524Y155656D01*
X892773Y147220D02*
X892773Y155656D01*
X898022Y155656D01*
X900647Y153969D01*
X900647Y153125D01*
X898022Y151438D01*
X892773Y151438D01*
X894085Y151438D02*
X900647Y147220D01*
X904584Y148907D02*
X907209Y147220D01*
X909833Y147220D01*
X912458Y148907D01*
X912458Y153969D01*
X909833Y155656D01*
X907209Y155656D01*
X904584Y153969D01*
X904584Y148907D01*
X916395Y155656D02*
X916395Y148907D01*
X919020Y147220D01*
X921644Y147220D01*
X924269Y148907D01*
X924269Y155656D01*
X928206Y147220D02*
X928206Y155656D01*
X936080Y147220D01*
X936080Y155656D01*
X940017Y147220D02*
X945266Y147220D01*
X947891Y148907D01*
X947891Y153969D01*
X945266Y155656D01*
X940017Y155656D01*
X941329Y155656D02*
X941329Y147220D01*
X953140Y155656D02*
X954453Y155656D01*
X957077Y153969D01*
X957077Y148907D01*
X954453Y147220D01*
X953140Y147220D01*
X576631Y176747D02*
X576631Y180966D01*
X580568Y183497D01*
X580568Y185184D01*
X572694Y185184D01*
X572694Y183497D01*
X588442Y176747D02*
X588442Y177591D01*
X596316Y183497D02*
X598941Y185184D01*
X601566Y185184D01*
X604190Y183497D01*
X604190Y178435D01*
X601566Y176747D01*
X598941Y176747D01*
X596316Y178435D01*
X596316Y183497D01*
X604190Y183497D02*
X596316Y178435D01*
X608127Y183497D02*
X610752Y185184D01*
X613377Y185184D01*
X616001Y183497D01*
X616001Y178435D01*
X613377Y176747D01*
X610752Y176747D01*
X608127Y178435D01*
X608127Y183497D01*
X616001Y183497D02*
X608127Y178435D01*
X619938Y183497D02*
X622563Y185184D01*
X625188Y185184D01*
X627812Y183497D01*
X627812Y178435D01*
X625188Y176747D01*
X622563Y176747D01*
X619938Y178435D01*
X619938Y183497D01*
X627812Y183497D02*
X619938Y178435D01*
X631749Y183497D02*
X634374Y185184D01*
X636999Y185184D01*
X639623Y183497D01*
X639623Y178435D01*
X636999Y176747D01*
X634374Y176747D01*
X631749Y178435D01*
X631749Y183497D01*
X639623Y183497D02*
X631749Y178435D01*
X643560Y183497D02*
X646185Y185184D01*
X648810Y185184D01*
X651434Y183497D01*
X651434Y178435D01*
X648810Y176747D01*
X646185Y176747D01*
X643560Y178435D01*
X643560Y183497D01*
X651434Y183497D02*
X643560Y178435D01*
X708259Y183497D02*
X710883Y185184D01*
X710883Y176747D01*
X706946Y176747D02*
X714820Y176747D01*
X718757Y183497D02*
X721382Y185184D01*
X724007Y185184D01*
X726631Y183497D01*
X726631Y178435D01*
X724007Y176747D01*
X721382Y176747D01*
X718757Y178435D01*
X718757Y183497D01*
X726631Y183497D02*
X718757Y178435D01*
X788049Y176747D02*
X788049Y185184D01*
X793298Y185184D01*
X795923Y183497D01*
X795923Y182653D01*
X793298Y180966D01*
X788049Y180966D01*
X803797Y176747D02*
X803797Y185184D01*
X799860Y185184D02*
X807734Y185184D01*
X811671Y176747D02*
X811671Y185184D01*
X819545Y176747D02*
X819545Y185184D01*
X811671Y180966D02*
X819545Y180966D01*
X857340Y183497D02*
X859965Y185184D01*
X862589Y185184D01*
X865214Y183497D01*
X865214Y178435D01*
X862589Y176747D01*
X859965Y176747D01*
X857340Y178435D01*
X857340Y183497D01*
X865214Y183497D02*
X857340Y178435D01*
X887524Y176747D02*
X886211Y176747D01*
X883587Y178435D01*
X883587Y183497D01*
X886211Y185184D01*
X887524Y185184D01*
X892773Y176747D02*
X892773Y185184D01*
X898022Y185184D01*
X900647Y183497D01*
X900647Y182653D01*
X898022Y180966D01*
X892773Y180966D01*
X894085Y180966D02*
X900647Y176747D01*
X904584Y178435D02*
X907209Y176747D01*
X909833Y176747D01*
X912458Y178435D01*
X912458Y183497D01*
X909833Y185184D01*
X907209Y185184D01*
X904584Y183497D01*
X904584Y178435D01*
X916395Y185184D02*
X916395Y178435D01*
X919020Y176747D01*
X921644Y176747D01*
X924269Y178435D01*
X924269Y185184D01*
X928206Y176747D02*
X928206Y185184D01*
X936080Y176747D01*
X936080Y185184D01*
X940017Y176747D02*
X945266Y176747D01*
X947891Y178435D01*
X947891Y183497D01*
X945266Y185184D01*
X940017Y185184D01*
X941329Y185184D02*
X941329Y176747D01*
X953140Y185184D02*
X954453Y185184D01*
X957077Y183497D01*
X957077Y178435D01*
X954453Y176747D01*
X953140Y176747D01*
G04 ColorRGB 00FFFF for the following layer *
%LNBoard Outline*%
%LPD*%
G54D10*
G54D13*
X0Y0D02*
X400000Y0D01*
X400000Y280000D01*
X0Y280000D01*
X0Y0D01*
G54D14*
X-1500Y-1500D02*
X-1500Y26800D01*
X-1500Y-1500D02*
X38800Y-1500D01*
X401500Y-1500D02*
X361200Y-1500D01*
X401500Y-1500D02*
X401500Y26800D01*
X401500Y281500D02*
X401500Y253200D01*
X401500Y281500D02*
X361200Y281500D01*
X-1500Y281500D02*
X38800Y281500D01*
X-1500Y281500D02*
X-1500Y253200D01*
X-21185Y-1500D02*
X-60555Y-1500D01*
X-40870Y-21185D02*
X-40870Y18185D01*
X-55634Y-1500D02*
G75*
D01*
G02X-55634Y-1500I14764J0*
G01*
X421185Y-1500D02*
X460555Y-1500D01*
X440870Y-21185D02*
X440870Y18185D01*
X426106Y-1500D02*
G75*
D01*
G02X426106Y-1500I14764J0*
G01*
X435949Y-1500D02*
G75*
D01*
G02X435949Y-1500I4921J0*
G01*
X-21185Y281500D02*
X-60555Y281500D01*
X-40870Y261815D02*
X-40870Y301185D01*
X-55634Y281500D02*
G75*
D01*
G02X-55634Y281500I14764J0*
G01*
X-50713Y281500D02*
G75*
D01*
G02X-50713Y281500I9843J0*
G01*
X-45791Y281500D02*
G75*
D01*
G02X-45791Y281500I4921J0*
G01*
G04 ColorRGB 000020 for the following layer *
%LNLegend Description*%
%LPD*%
G54D12*
X482209Y-218500D02*
X976303Y-218500D01*
X976303Y283469D01*
X482209Y283469D01*
X482209Y-218500D01*
X557406Y224413D02*
X557406Y-218500D01*
X668035Y224413D02*
X668035Y-218500D01*
X766854Y224413D02*
X766854Y-218500D01*
X842051Y224413D02*
X842051Y-218500D01*
X976303Y224413D02*
X976303Y-218500D01*
X482209Y-188972D02*
X976303Y-188972D01*
X482209Y-159445D02*
X976303Y-159445D01*
X482209Y-129917D02*
X976303Y-129917D01*
X482209Y-100390D02*
X976303Y-100390D01*
X482209Y-70862D02*
X976303Y-70862D01*
X482209Y-41335D02*
X976303Y-41335D01*
X482209Y-11807D02*
X976303Y-11807D01*
X482209Y17721D02*
X976303Y17721D01*
X482209Y47248D02*
X976303Y47248D01*
X482209Y76776D02*
X976303Y76776D01*
X482209Y106303D02*
X976303Y106303D01*
X482209Y135831D02*
X976303Y135831D01*
X482209Y165358D02*
X976303Y165358D01*
X482209Y194886D02*
X976303Y194886D01*
X485686Y207962D02*
X488311Y206275D01*
X490936Y206275D01*
X493560Y207962D01*
X485686Y213024D01*
X488311Y214711D01*
X490936Y214711D01*
X493560Y213024D01*
X497497Y203744D02*
X498810Y203744D01*
X505371Y212181D01*
X497497Y212181D02*
X501434Y207119D01*
X509308Y206275D02*
X509308Y211337D01*
X509308Y212181D01*
X509308Y211337D02*
X510621Y212181D01*
X511933Y212181D01*
X513245Y211337D01*
X514558Y212181D01*
X515870Y212181D01*
X517182Y211337D01*
X517182Y206275D01*
X513245Y211337D02*
X513245Y206275D01*
X521119Y207962D02*
X523744Y206275D01*
X526369Y206275D01*
X528993Y207962D01*
X528993Y209650D01*
X526369Y211337D01*
X523744Y211337D01*
X521119Y209650D01*
X521119Y214711D02*
X521119Y206275D01*
X532930Y207962D02*
X535555Y206275D01*
X538180Y206275D01*
X540804Y207962D01*
X540804Y210493D01*
X538180Y212181D01*
X535555Y212181D01*
X532930Y210493D01*
X532930Y207962D01*
X546054Y214711D02*
X546054Y207962D01*
X548678Y206275D01*
X590411Y207962D02*
X593035Y206275D01*
X595660Y206275D01*
X598285Y207962D01*
X590411Y213024D01*
X593035Y214711D01*
X595660Y214711D01*
X598285Y213024D01*
X606159Y206275D02*
X606159Y211337D01*
X606159Y213024D02*
X606159Y213868D01*
X614033Y212181D02*
X621907Y212181D01*
X614033Y206275D01*
X621907Y206275D01*
X633718Y207962D02*
X631093Y206275D01*
X628469Y206275D01*
X625844Y207962D01*
X625844Y210493D01*
X628469Y212181D01*
X631093Y212181D01*
X633718Y210493D01*
X632406Y209650D01*
X625844Y209650D01*
X671513Y207962D02*
X674138Y206275D01*
X676762Y206275D01*
X679387Y207962D01*
X679387Y213024D01*
X676762Y214711D01*
X674138Y214711D01*
X671513Y213024D01*
X671513Y207962D01*
X676762Y207962D02*
X679387Y206275D01*
X683324Y212181D02*
X683324Y207962D01*
X685949Y206275D01*
X688573Y206275D01*
X691198Y207962D01*
X691198Y212181D01*
X691198Y207962D02*
X691198Y206275D01*
X696448Y212181D02*
X700385Y212181D01*
X701697Y211337D01*
X701697Y207119D01*
X700385Y206275D01*
X696448Y206275D01*
X695135Y207119D01*
X695135Y208806D01*
X696448Y209650D01*
X701697Y209650D01*
X701697Y207119D02*
X703009Y206275D01*
X706946Y206275D02*
X706946Y211337D01*
X706946Y212181D01*
X706946Y211337D02*
X708259Y212181D01*
X710883Y212181D01*
X712196Y211337D01*
X712196Y206275D01*
X725319Y207119D02*
X724007Y206275D01*
X722694Y207119D01*
X722694Y214711D01*
X720070Y212181D02*
X725319Y212181D01*
X734505Y206275D02*
X734505Y211337D01*
X734505Y213024D02*
X734505Y213868D01*
X748941Y207119D02*
X747629Y206275D01*
X746316Y207119D01*
X746316Y214711D01*
X743692Y212181D02*
X748941Y212181D01*
X754190Y203744D02*
X755503Y203744D01*
X762064Y212181D01*
X754190Y212181D02*
X758127Y207119D01*
X770332Y206275D02*
X770332Y214711D01*
X775581Y214711D01*
X778206Y213024D01*
X778206Y212181D01*
X775581Y210493D01*
X770332Y210493D01*
X783455Y214711D02*
X783455Y207962D01*
X786080Y206275D01*
X795266Y212181D02*
X799203Y212181D01*
X800516Y211337D01*
X800516Y207119D01*
X799203Y206275D01*
X795266Y206275D01*
X793954Y207119D01*
X793954Y208806D01*
X795266Y209650D01*
X800516Y209650D01*
X800516Y207119D02*
X801828Y206275D01*
X812327Y207119D02*
X811014Y206275D01*
X809702Y207119D01*
X809702Y214711D01*
X807077Y212181D02*
X812327Y212181D01*
X825450Y207962D02*
X822825Y206275D01*
X820201Y206275D01*
X817576Y207962D01*
X817576Y210493D01*
X820201Y212181D01*
X822825Y212181D01*
X825450Y210493D01*
X824138Y209650D01*
X817576Y209650D01*
X837261Y207962D02*
X834636Y206275D01*
X832012Y206275D01*
X829387Y207962D01*
X829387Y209650D01*
X832012Y211337D01*
X834636Y211337D01*
X837261Y209650D01*
X837261Y214711D02*
X837261Y206275D01*
X845529Y207962D02*
X848154Y206275D01*
X850778Y206275D01*
X853403Y207962D01*
X845529Y213024D01*
X848154Y214711D01*
X850778Y214711D01*
X853403Y213024D01*
X858652Y214711D02*
X858652Y207962D01*
X861277Y206275D01*
X869151Y207962D02*
X871776Y206275D01*
X874400Y206275D01*
X877025Y207962D01*
X877025Y210493D01*
X874400Y212181D01*
X871776Y212181D01*
X869151Y210493D01*
X869151Y207962D01*
X887524Y207119D02*
X886211Y206275D01*
X884899Y207119D01*
X884899Y214711D01*
X882274Y212181D02*
X887524Y212181D01*
X904584Y214711D02*
X904584Y206275D01*
X912458Y206275D01*
X924269Y207962D02*
X921644Y206275D01*
X919020Y206275D01*
X916395Y207962D01*
X916395Y210493D01*
X919020Y212181D01*
X921644Y212181D01*
X924269Y210493D01*
X922957Y209650D01*
X916395Y209650D01*
X928206Y206275D02*
X928206Y211337D01*
X928206Y212181D01*
X928206Y211337D02*
X929518Y212181D01*
X932143Y212181D01*
X933455Y211337D01*
X933455Y206275D01*
X940017Y205431D02*
X942642Y203744D01*
X945266Y203744D01*
X947891Y205431D01*
X947891Y207962D01*
X947891Y210493D01*
X945266Y212181D01*
X942642Y212181D01*
X940017Y210493D01*
X940017Y207962D01*
X942642Y206275D01*
X945266Y206275D01*
X947891Y207962D01*
X958390Y207119D02*
X957077Y206275D01*
X955765Y207119D01*
X955765Y214711D01*
X953140Y212181D02*
X958390Y212181D01*
X963639Y210493D02*
X966264Y212181D01*
X968888Y212181D01*
X971513Y210493D01*
X971513Y206275D01*
X963639Y214711D02*
X963639Y206275D01*
X482209Y224413D02*
X976303Y224413D01*
X612458Y235803D02*
X612458Y240864D01*
X615083Y244239D01*
X617707Y244239D01*
X620332Y240864D01*
X620332Y235803D01*
X612458Y238334D02*
X620332Y238334D01*
X625581Y244239D02*
X625581Y237490D01*
X628206Y235803D01*
X637392Y244239D02*
X637392Y237490D01*
X640017Y235803D01*
X659702Y241708D02*
X659702Y237490D01*
X662327Y235803D01*
X664951Y235803D01*
X667576Y237490D01*
X667576Y241708D01*
X667576Y237490D02*
X667576Y235803D01*
X671513Y235803D02*
X671513Y240864D01*
X671513Y241708D01*
X671513Y240864D02*
X672825Y241708D01*
X675450Y241708D01*
X676762Y240864D01*
X676762Y235803D01*
X687261Y235803D02*
X687261Y240864D01*
X687261Y242552D02*
X687261Y243395D01*
X701697Y236646D02*
X700385Y235803D01*
X699072Y236646D01*
X699072Y244239D01*
X696448Y241708D02*
X701697Y241708D01*
X706946Y237490D02*
X709571Y235803D01*
X712196Y235803D01*
X714820Y237490D01*
X706946Y240021D01*
X709571Y241708D01*
X712196Y241708D01*
X714820Y240021D01*
X731881Y241708D02*
X735818Y241708D01*
X737130Y240864D01*
X737130Y236646D01*
X735818Y235803D01*
X731881Y235803D01*
X730568Y236646D01*
X730568Y238334D01*
X731881Y239177D01*
X737130Y239177D01*
X737130Y236646D02*
X738442Y235803D01*
X742379Y239177D02*
X746316Y241708D01*
X747629Y241708D01*
X750253Y240021D01*
X742379Y235803D02*
X742379Y241708D01*
X762064Y237490D02*
X759440Y235803D01*
X756815Y235803D01*
X754190Y237490D01*
X754190Y240021D01*
X756815Y241708D01*
X759440Y241708D01*
X762064Y240021D01*
X760752Y239177D01*
X754190Y239177D01*
X781749Y235803D02*
X781749Y240864D01*
X781749Y242552D02*
X781749Y243395D01*
X789623Y235803D02*
X789623Y240864D01*
X789623Y241708D01*
X789623Y240864D02*
X790936Y241708D01*
X793560Y241708D01*
X794873Y240864D01*
X794873Y235803D01*
X813245Y235803D02*
X813245Y240864D01*
X813245Y241708D01*
X813245Y240864D02*
X814558Y241708D01*
X815870Y241708D01*
X817182Y240864D01*
X818495Y241708D01*
X819807Y241708D01*
X821119Y240864D01*
X821119Y235803D01*
X817182Y240864D02*
X817182Y235803D01*
X828993Y235803D02*
X828993Y240864D01*
X828993Y242552D02*
X828993Y243395D01*
X838180Y244239D02*
X838180Y237490D01*
X840804Y235803D01*
X482209Y253941D02*
X976303Y253941D01*
X659702Y265330D02*
X664951Y265330D01*
X667576Y267017D01*
X667576Y272079D01*
X664951Y273767D01*
X659702Y273767D01*
X661014Y273767D02*
X661014Y265330D01*
X671513Y268705D02*
X675450Y271236D01*
X676762Y271236D01*
X679387Y269548D01*
X671513Y265330D02*
X671513Y271236D01*
X687261Y265330D02*
X687261Y270392D01*
X687261Y272079D02*
X687261Y272923D01*
X696448Y273767D02*
X696448Y267017D01*
X699072Y265330D01*
X708259Y273767D02*
X708259Y267017D01*
X710883Y265330D01*
X730568Y273767D02*
X730568Y265330D01*
X738442Y265330D01*
X750253Y267017D02*
X747629Y265330D01*
X745004Y265330D01*
X742379Y267017D01*
X742379Y269548D01*
X745004Y271236D01*
X747629Y271236D01*
X750253Y269548D01*
X748941Y268705D01*
X742379Y268705D01*
X754190Y264487D02*
X756815Y262799D01*
X759440Y262799D01*
X762064Y264487D01*
X762064Y267017D01*
X762064Y269548D01*
X759440Y271236D01*
X756815Y271236D01*
X754190Y269548D01*
X754190Y267017D01*
X756815Y265330D01*
X759440Y265330D01*
X762064Y267017D01*
X773875Y267017D02*
X771251Y265330D01*
X768626Y265330D01*
X766001Y267017D01*
X766001Y269548D01*
X768626Y271236D01*
X771251Y271236D01*
X773875Y269548D01*
X772563Y268705D01*
X766001Y268705D01*
X777812Y265330D02*
X777812Y270392D01*
X777812Y271236D01*
X777812Y270392D02*
X779125Y271236D01*
X781749Y271236D01*
X783062Y270392D01*
X783062Y265330D01*
X797497Y267017D02*
X794873Y265330D01*
X792248Y265330D01*
X789623Y267017D01*
X789623Y268705D01*
X792248Y270392D01*
X794873Y270392D01*
X797497Y268705D01*
X797497Y273767D02*
X797497Y265330D01*

M02*
