G04 Generated by Ultiboard 13.0 *
%FSLAX25Y25*%
%MOIN*%

%ADD10C,0.00001*%
%ADD11C,0.00367*%
%ADD12C,0.00612*%
%ADD13C,0.00800*%
%ADD14C,0.01111*%
%ADD15C,0.00005*%
%ADD16C,0.00787*%
%ADD17C,0.00167*%
%ADD18C,0.01000*%
%ADD19C,0.00556*%
%ADD20C,0.00889*%
%ADD21C,0.00004*%
%ADD22C,0.00500*%
%ADD23C,0.01969*%


G04 ColorRGB FFFF00 for the following layer *
%LNSilkscreen Top*%
%LPD*%
G54D10*
G54D11*
X319680Y253045D02*
X315743Y253045D01*
X315743Y254613D01*
X316531Y255397D01*
X316924Y255397D01*
X317712Y254613D01*
X317712Y253045D01*
X318893Y256573D02*
X319680Y257357D01*
X319680Y258141D01*
X318893Y258925D01*
X315743Y258925D01*
X318106Y260101D02*
X318106Y262452D01*
X316531Y263628D02*
X315743Y264412D01*
X315743Y265196D01*
X316531Y265980D01*
X318893Y265980D01*
X319680Y265196D01*
X319680Y264412D01*
X318893Y263628D01*
X316531Y263628D01*
X316531Y265980D02*
X318893Y263628D01*
X315743Y269115D02*
X315743Y267940D01*
X316531Y267156D01*
X318106Y267156D01*
X318893Y267156D01*
X319680Y267940D01*
X319680Y268724D01*
X318893Y269507D01*
X318106Y269507D01*
X317318Y268724D01*
X317318Y267940D01*
X318106Y267156D01*
X319680Y270683D02*
X316924Y273035D01*
X316924Y270683D02*
X319680Y273035D01*
X319680Y274211D02*
X316924Y276563D01*
X316924Y274211D02*
X319680Y276563D01*
X380917Y200630D02*
X380133Y199843D01*
X379349Y199843D01*
X378565Y200630D01*
X378565Y202992D01*
X379349Y203780D01*
X380133Y203780D01*
X380917Y202992D01*
X382093Y199843D02*
X382093Y203780D01*
X384444Y199843D02*
X384444Y203780D01*
X382093Y201811D02*
X384444Y201811D01*
X385620Y199843D02*
X385620Y202205D01*
X386404Y203780D01*
X387188Y203780D01*
X387972Y202205D01*
X387972Y199843D01*
X385620Y201024D02*
X387972Y201024D01*
X389148Y199843D02*
X389148Y203780D01*
X390716Y203780D01*
X391500Y202992D01*
X391500Y202598D01*
X390716Y201811D01*
X389148Y201811D01*
X389540Y201811D02*
X391500Y199843D01*
X394243Y201811D02*
X395027Y201811D01*
X395027Y200630D01*
X394243Y199843D01*
X393459Y199843D01*
X392675Y200630D01*
X392675Y202992D01*
X393459Y203780D01*
X395027Y203780D01*
X398555Y199843D02*
X396203Y199843D01*
X396203Y201811D01*
X396203Y203780D01*
X398555Y203780D01*
X396203Y201811D02*
X397771Y201811D01*
X284866Y247345D02*
X280929Y247345D01*
X284866Y249696D01*
X280929Y249696D01*
X280929Y250872D02*
X284079Y250872D01*
X284866Y251656D01*
X284866Y252440D01*
X284079Y253224D01*
X280929Y253224D01*
X284079Y256752D02*
X284866Y255968D01*
X284866Y255184D01*
X284079Y254400D01*
X281717Y254400D01*
X280929Y255184D01*
X280929Y255968D01*
X281717Y256752D01*
X225331Y224479D02*
X225331Y226046D01*
X224543Y226830D01*
X224150Y226830D01*
X223362Y226046D01*
X222575Y226830D01*
X222181Y226830D01*
X221394Y226046D01*
X221394Y224871D01*
X221394Y224479D01*
X223362Y224871D02*
X223362Y226046D01*
X221394Y224871D02*
X225331Y224871D01*
X225331Y228006D02*
X222969Y228006D01*
X221394Y228790D01*
X221394Y229574D01*
X222969Y230358D01*
X225331Y230358D01*
X224150Y228006D02*
X224150Y230358D01*
X225331Y232710D02*
X221394Y232710D01*
X221394Y231534D02*
X221394Y233885D01*
X225331Y236237D02*
X221394Y236237D01*
X221394Y235061D02*
X221394Y237413D01*
X225331Y240941D02*
X225331Y238589D01*
X223362Y238589D01*
X221394Y238589D01*
X221394Y240941D01*
X223362Y238589D02*
X223362Y240157D01*
X225331Y242116D02*
X221394Y242116D01*
X221394Y243684D01*
X222181Y244468D01*
X222575Y244468D01*
X223362Y243684D01*
X223362Y242116D01*
X223362Y242508D02*
X225331Y244468D01*
X221394Y245644D02*
X223362Y246820D01*
X221394Y247996D01*
X223362Y246820D02*
X225331Y246820D01*
X222181Y253091D02*
X221394Y253875D01*
X225331Y253875D01*
X225331Y252699D02*
X225331Y255051D01*
X222181Y256227D02*
X221394Y257010D01*
X221394Y257794D01*
X222181Y258578D01*
X222575Y258578D01*
X225331Y256227D01*
X225331Y258578D01*
X224937Y258578D01*
X221394Y259754D02*
X225331Y260930D01*
X221394Y262106D01*
X223756Y263282D02*
X223756Y265633D01*
X222181Y267201D02*
X221394Y267985D01*
X225331Y267985D01*
X225331Y266809D02*
X225331Y269161D01*
X224543Y270337D02*
X225331Y271121D01*
X225331Y271905D01*
X224543Y272689D01*
X222969Y272689D01*
X222181Y272689D01*
X221394Y271905D01*
X221394Y271121D01*
X222181Y270337D01*
X222969Y270337D01*
X223756Y271121D01*
X223756Y271905D01*
X222969Y272689D01*
X221394Y273864D02*
X225331Y275040D01*
X221394Y276216D01*
X340543Y47479D02*
X341331Y48262D01*
X341331Y49046D01*
X340543Y49830D01*
X337394Y49830D01*
X340543Y51006D02*
X341331Y51790D01*
X341331Y52574D01*
X340543Y53358D01*
X338181Y53358D01*
X337394Y52574D01*
X337394Y51790D01*
X338181Y51006D01*
X340543Y51006D01*
X340543Y54534D02*
X341331Y55318D01*
X341331Y56101D01*
X340543Y56885D01*
X338181Y54534D01*
X337394Y55318D01*
X337394Y56101D01*
X338181Y56885D01*
X341331Y60413D02*
X341331Y58061D01*
X339362Y58061D01*
X337394Y58061D01*
X337394Y60413D01*
X339362Y58061D02*
X339362Y59629D01*
X341331Y61589D02*
X337394Y61589D01*
X337394Y63157D01*
X338181Y63941D01*
X338575Y63941D01*
X339362Y63157D01*
X339362Y61589D01*
X341331Y65116D02*
X337394Y65116D01*
X341331Y67468D02*
X337394Y67468D01*
X339362Y65116D02*
X339362Y67468D01*
X341331Y72171D02*
X337394Y72171D01*
X339362Y72171D02*
X339362Y72563D01*
X337394Y74523D01*
X339362Y72563D02*
X341331Y74523D01*
X337394Y75699D02*
X341331Y75699D01*
X341331Y78051D01*
X340543Y79227D02*
X341331Y80010D01*
X341331Y80794D01*
X340543Y81578D01*
X338181Y81578D01*
X337394Y80794D01*
X337394Y80010D01*
X338181Y79227D01*
X340543Y79227D01*
X341331Y85106D02*
X341331Y82754D01*
X339362Y82754D01*
X337394Y82754D01*
X337394Y85106D01*
X339362Y82754D02*
X339362Y84322D01*
X341331Y86282D02*
X337394Y86282D01*
X337394Y87850D01*
X338181Y88633D01*
X338575Y88633D01*
X339362Y87850D01*
X339362Y86282D01*
X341331Y89809D02*
X337394Y89809D01*
X337394Y91377D01*
X338181Y92161D01*
X338575Y92161D01*
X339362Y91377D01*
X339362Y89809D01*
X341331Y95689D02*
X341331Y93337D01*
X339362Y93337D01*
X337394Y93337D01*
X337394Y95689D01*
X339362Y93337D02*
X339362Y94905D01*
X337394Y96864D02*
X341331Y96864D01*
X341331Y99216D01*
X342906Y68644D02*
X346055Y68644D01*
X346843Y69428D01*
X346843Y70212D01*
X346055Y70996D01*
X342906Y70996D01*
X346843Y72171D02*
X342906Y72171D01*
X346843Y74523D01*
X342906Y74523D01*
X346843Y75699D02*
X342906Y75699D01*
X344874Y76875D01*
X342906Y78051D01*
X346843Y78051D01*
X351567Y49242D02*
X352354Y50026D01*
X352354Y50810D01*
X351567Y51594D01*
X349205Y51594D01*
X348417Y50810D01*
X348417Y50026D01*
X349205Y49242D01*
X351567Y49242D01*
X351567Y55122D02*
X352354Y54338D01*
X352354Y53554D01*
X351567Y52770D01*
X349205Y52770D01*
X348417Y53554D01*
X348417Y54338D01*
X349205Y55122D01*
X352354Y57473D02*
X348417Y57473D01*
X348417Y56297D02*
X348417Y58649D01*
X351567Y59825D02*
X352354Y60609D01*
X352354Y61393D01*
X351567Y62177D01*
X349205Y62177D01*
X348417Y61393D01*
X348417Y60609D01*
X349205Y59825D01*
X351567Y59825D01*
X352354Y63353D02*
X352354Y64920D01*
X351567Y65704D01*
X351173Y65704D01*
X350386Y64920D01*
X349598Y65704D01*
X349205Y65704D01*
X348417Y64920D01*
X348417Y63745D01*
X348417Y63353D01*
X350386Y63745D02*
X350386Y64920D01*
X348417Y63745D02*
X352354Y63745D01*
X352354Y69232D02*
X352354Y66880D01*
X350386Y66880D01*
X348417Y66880D01*
X348417Y69232D01*
X350386Y66880D02*
X350386Y68448D01*
X352354Y70408D02*
X348417Y70408D01*
X348417Y71976D01*
X349205Y72759D01*
X349598Y72759D01*
X350386Y71976D01*
X350386Y70408D01*
X350386Y70800D02*
X352354Y72759D01*
X349205Y77855D02*
X348417Y78639D01*
X352354Y78639D01*
X352354Y77463D02*
X352354Y79815D01*
X349205Y84518D02*
X348417Y85302D01*
X348417Y86086D01*
X349205Y86870D01*
X349598Y86870D01*
X352354Y84518D01*
X352354Y86870D01*
X351961Y86870D01*
X349205Y88045D02*
X348417Y88829D01*
X348417Y89613D01*
X349205Y90397D01*
X351567Y90397D01*
X352354Y89613D01*
X352354Y88829D01*
X351567Y88045D01*
X349205Y88045D01*
X349205Y90397D02*
X351567Y88045D01*
X349205Y91965D02*
X348417Y92749D01*
X352354Y92749D01*
X352354Y91573D02*
X352354Y93925D01*
X348417Y97452D02*
X348417Y95101D01*
X349992Y95101D01*
X349992Y96668D01*
X350780Y97452D01*
X351567Y97452D01*
X352354Y96668D01*
X352354Y95101D01*
X357866Y65116D02*
X353929Y65116D01*
X353929Y66684D01*
X354717Y67468D01*
X355110Y67468D01*
X355898Y66684D01*
X355898Y65116D01*
X355898Y65508D02*
X357866Y67468D01*
X357866Y70996D02*
X357866Y68644D01*
X355898Y68644D01*
X353929Y68644D01*
X353929Y70996D01*
X355898Y68644D02*
X355898Y70212D01*
X353929Y72171D02*
X357866Y73347D01*
X353929Y74523D01*
X357866Y79227D02*
X355504Y79227D01*
X353929Y80010D01*
X353929Y80794D01*
X355504Y81578D01*
X357866Y81578D01*
X356685Y79227D02*
X356685Y81578D01*
X326864Y31425D02*
X326864Y35362D01*
X328432Y35362D01*
X329216Y34575D01*
X329216Y34181D01*
X328432Y33394D01*
X326864Y33394D01*
X330392Y31425D02*
X330392Y35362D01*
X332744Y35362D01*
X330392Y33394D02*
X331960Y33394D01*
X385669Y192829D02*
X389606Y192829D01*
X389606Y191261D01*
X388819Y190477D01*
X388425Y190477D01*
X387638Y191261D01*
X387638Y192829D01*
X386457Y189301D02*
X385669Y188517D01*
X385669Y187733D01*
X386457Y186949D01*
X389606Y186949D01*
X387244Y185773D02*
X387244Y183422D01*
X388819Y182246D02*
X389606Y181462D01*
X389606Y180678D01*
X388819Y179894D01*
X386457Y179894D01*
X385669Y180678D01*
X385669Y181462D01*
X386457Y182246D01*
X388819Y182246D01*
X388819Y179894D02*
X386457Y182246D01*
X385669Y177150D02*
X385669Y177934D01*
X386457Y178718D01*
X387244Y178718D01*
X387638Y178326D01*
X388031Y178718D01*
X388819Y178718D01*
X389606Y177934D01*
X389606Y177150D01*
X388819Y176367D01*
X388031Y176367D01*
X387638Y176759D01*
X387244Y176367D01*
X386457Y176367D01*
X385669Y177150D01*
X387638Y178326D02*
X387638Y176759D01*
X388819Y175191D02*
X389606Y174407D01*
X389606Y173623D01*
X388819Y172839D01*
X388425Y172839D01*
X385669Y175191D01*
X385669Y172839D01*
X386063Y172839D01*
X385669Y171663D02*
X385669Y170095D01*
X386457Y169311D01*
X386850Y169311D01*
X387638Y170095D01*
X388425Y169311D01*
X388819Y169311D01*
X389606Y170095D01*
X389606Y171271D01*
X389606Y171663D01*
X387638Y171271D02*
X387638Y170095D01*
X389606Y171271D02*
X385669Y171271D01*
X385669Y168136D02*
X389606Y168136D01*
X385669Y165784D02*
X389606Y165784D01*
X387638Y168136D02*
X387638Y165784D01*
X238171Y267669D02*
X238171Y271606D01*
X239739Y271606D01*
X240523Y270819D01*
X240523Y270425D01*
X239739Y269638D01*
X238171Y269638D01*
X241699Y268457D02*
X242483Y267669D01*
X243267Y267669D01*
X244051Y268457D01*
X244051Y271606D01*
X245227Y269244D02*
X247578Y269244D01*
X248754Y270819D02*
X249538Y271606D01*
X250322Y271606D01*
X251106Y270819D01*
X251106Y268457D01*
X250322Y267669D01*
X249538Y267669D01*
X248754Y268457D01*
X248754Y270819D01*
X251106Y270819D02*
X248754Y268457D01*
X253850Y267669D02*
X253066Y267669D01*
X252282Y268457D01*
X252282Y269244D01*
X252674Y269638D01*
X252282Y270031D01*
X252282Y270819D01*
X253066Y271606D01*
X253850Y271606D01*
X254633Y270819D01*
X254633Y270031D01*
X254241Y269638D01*
X254633Y269244D01*
X254633Y268457D01*
X253850Y267669D01*
X252674Y269638D02*
X254241Y269638D01*
X255809Y270819D02*
X256593Y271606D01*
X257377Y271606D01*
X258161Y270819D01*
X258161Y270425D01*
X255809Y267669D01*
X258161Y267669D01*
X258161Y268063D01*
X259337Y267669D02*
X260905Y267669D01*
X261689Y268457D01*
X261689Y268850D01*
X260905Y269638D01*
X261689Y270425D01*
X261689Y270819D01*
X260905Y271606D01*
X259729Y271606D01*
X259337Y271606D01*
X259729Y269638D02*
X260905Y269638D01*
X259729Y271606D02*
X259729Y267669D01*
X262864Y267669D02*
X262864Y271606D01*
X265216Y267669D02*
X265216Y271606D01*
X262864Y269638D02*
X265216Y269638D01*
G54D12*
X280394Y271337D02*
X283543Y271337D01*
X284331Y272121D01*
X284331Y272905D01*
X283543Y273689D01*
X280394Y273689D01*
X281181Y274864D02*
X280394Y275648D01*
X280394Y276432D01*
X281181Y277216D01*
X281575Y277216D01*
X284331Y274864D01*
X284331Y277216D01*
X283937Y277216D01*
X11394Y266337D02*
X14543Y266337D01*
X15331Y267121D01*
X15331Y267905D01*
X14543Y268689D01*
X11394Y268689D01*
X12181Y270256D02*
X11394Y271040D01*
X15331Y271040D01*
X15331Y269864D02*
X15331Y272216D01*
X152331Y147337D02*
X148394Y147337D01*
X148394Y148905D01*
X149181Y149689D01*
X149575Y149689D01*
X150362Y148905D01*
X150362Y147337D01*
X150362Y147729D02*
X152331Y149689D01*
X152331Y152040D02*
X150362Y152040D01*
X149181Y153216D01*
X148394Y153216D01*
X148394Y150864D01*
X149181Y150864D01*
X141331Y147337D02*
X137394Y147337D01*
X137394Y148905D01*
X138181Y149689D01*
X138575Y149689D01*
X139362Y148905D01*
X139362Y147337D01*
X139362Y147729D02*
X141331Y149689D01*
X140543Y150864D02*
X141331Y151648D01*
X141331Y152432D01*
X140543Y153216D01*
X138969Y153216D01*
X138181Y153216D01*
X137394Y152432D01*
X137394Y151648D01*
X138181Y150864D01*
X138969Y150864D01*
X139756Y151648D01*
X139756Y152432D01*
X138969Y153216D01*
X163331Y147337D02*
X159394Y147337D01*
X159394Y148905D01*
X160181Y149689D01*
X160575Y149689D01*
X161362Y148905D01*
X161362Y147337D01*
X161362Y147729D02*
X163331Y149689D01*
X159787Y151256D02*
X159394Y151648D01*
X159394Y152432D01*
X160181Y153216D01*
X160969Y153216D01*
X161362Y152824D01*
X161756Y153216D01*
X162543Y153216D01*
X163331Y152432D01*
X163331Y151648D01*
X162937Y151256D01*
X161362Y151648D02*
X161362Y152824D01*
X173331Y147337D02*
X169394Y147337D01*
X169394Y148905D01*
X170181Y149689D01*
X170575Y149689D01*
X171362Y148905D01*
X171362Y147337D01*
X171362Y147729D02*
X173331Y149689D01*
X170181Y151256D02*
X169394Y152040D01*
X173331Y152040D01*
X173331Y150864D02*
X173331Y153216D01*
X244331Y143809D02*
X240394Y143809D01*
X240394Y145377D01*
X241181Y146161D01*
X241575Y146161D01*
X242362Y145377D01*
X242362Y143809D01*
X242362Y144201D02*
X244331Y146161D01*
X241181Y147729D02*
X240394Y148513D01*
X244331Y148513D01*
X244331Y147337D02*
X244331Y149689D01*
X244331Y152040D02*
X242362Y152040D01*
X241181Y153216D01*
X240394Y153216D01*
X240394Y150864D01*
X241181Y150864D01*
X253331Y143809D02*
X249394Y143809D01*
X249394Y145377D01*
X250181Y146161D01*
X250575Y146161D01*
X251362Y145377D01*
X251362Y143809D01*
X251362Y144201D02*
X253331Y146161D01*
X250181Y147729D02*
X249394Y148513D01*
X253331Y148513D01*
X253331Y147337D02*
X253331Y149689D01*
X249787Y151256D02*
X249394Y151648D01*
X249394Y152432D01*
X250181Y153216D01*
X250969Y153216D01*
X251362Y152824D01*
X251756Y153216D01*
X252543Y153216D01*
X253331Y152432D01*
X253331Y151648D01*
X252937Y151256D01*
X251362Y151648D02*
X251362Y152824D01*
X264331Y143809D02*
X260394Y143809D01*
X260394Y145377D01*
X261181Y146161D01*
X261575Y146161D01*
X262362Y145377D01*
X262362Y143809D01*
X262362Y144201D02*
X264331Y146161D01*
X261181Y147729D02*
X260394Y148513D01*
X264331Y148513D01*
X264331Y147337D02*
X264331Y149689D01*
X260394Y153216D02*
X260394Y150864D01*
X261969Y150864D01*
X261969Y152432D01*
X262756Y153216D01*
X263543Y153216D01*
X264331Y152432D01*
X264331Y150864D01*
X145331Y28337D02*
X145331Y29905D01*
X144543Y30689D01*
X142181Y30689D01*
X141394Y29905D01*
X141394Y28337D01*
X141394Y28729D02*
X145331Y28729D01*
X142181Y32256D02*
X141394Y33040D01*
X145331Y33040D01*
X145331Y31864D02*
X145331Y34216D01*
X145331Y35337D02*
X145331Y36905D01*
X144543Y37689D01*
X142181Y37689D01*
X141394Y36905D01*
X141394Y35337D01*
X141394Y35729D02*
X145331Y35729D01*
X142181Y38864D02*
X141394Y39648D01*
X141394Y40432D01*
X142181Y41216D01*
X142575Y41216D01*
X145331Y38864D01*
X145331Y41216D01*
X144937Y41216D01*
X137331Y41809D02*
X133394Y41809D01*
X133394Y43377D01*
X134181Y44161D01*
X134575Y44161D01*
X135362Y43377D01*
X135362Y41809D01*
X135362Y42201D02*
X137331Y44161D01*
X134181Y45729D02*
X133394Y46513D01*
X137331Y46513D01*
X137331Y45337D02*
X137331Y47689D01*
X134181Y49256D02*
X133394Y50040D01*
X137331Y50040D01*
X137331Y48864D02*
X137331Y51216D01*
X277331Y28337D02*
X277331Y29905D01*
X276543Y30689D01*
X274181Y30689D01*
X273394Y29905D01*
X273394Y28337D01*
X273394Y28729D02*
X277331Y28729D01*
X273787Y32256D02*
X273394Y32648D01*
X273394Y33432D01*
X274181Y34216D01*
X274969Y34216D01*
X275362Y33824D01*
X275756Y34216D01*
X276543Y34216D01*
X277331Y33432D01*
X277331Y32648D01*
X276937Y32256D01*
X275362Y32648D02*
X275362Y33824D01*
X277331Y35337D02*
X277331Y36905D01*
X276543Y37689D01*
X274181Y37689D01*
X273394Y36905D01*
X273394Y35337D01*
X273394Y35729D02*
X277331Y35729D01*
X275756Y41216D02*
X275756Y38864D01*
X273394Y40824D01*
X277331Y40824D01*
X277331Y40432D02*
X277331Y41216D01*
X268331Y41809D02*
X264394Y41809D01*
X264394Y43377D01*
X265181Y44161D01*
X265575Y44161D01*
X266362Y43377D01*
X266362Y41809D01*
X266362Y42201D02*
X268331Y44161D01*
X265181Y45337D02*
X264394Y46121D01*
X264394Y46905D01*
X265181Y47689D01*
X265575Y47689D01*
X268331Y45337D01*
X268331Y47689D01*
X267937Y47689D01*
X265181Y48864D02*
X264394Y49648D01*
X264394Y50432D01*
X265181Y51216D01*
X265575Y51216D01*
X268331Y48864D01*
X268331Y51216D01*
X267937Y51216D01*
X211543Y42161D02*
X212331Y41377D01*
X212331Y40593D01*
X211543Y39809D01*
X209181Y39809D01*
X208394Y40593D01*
X208394Y41377D01*
X209181Y42161D01*
X209181Y43729D02*
X208394Y44513D01*
X212331Y44513D01*
X212331Y43337D02*
X212331Y45689D01*
X209181Y46864D02*
X208394Y47648D01*
X208394Y48432D01*
X209181Y49216D01*
X211543Y49216D01*
X212331Y48432D01*
X212331Y47648D01*
X211543Y46864D01*
X209181Y46864D01*
X209181Y49216D02*
X211543Y46864D01*
X78543Y43689D02*
X79331Y42905D01*
X79331Y42121D01*
X78543Y41337D01*
X76181Y41337D01*
X75394Y42121D01*
X75394Y42905D01*
X76181Y43689D01*
X76181Y45256D02*
X75394Y46040D01*
X79331Y46040D01*
X79331Y44864D02*
X79331Y47216D01*
X73543Y125689D02*
X74331Y124905D01*
X74331Y124121D01*
X73543Y123337D01*
X71181Y123337D01*
X70394Y124121D01*
X70394Y124905D01*
X71181Y125689D01*
X71181Y126864D02*
X70394Y127648D01*
X70394Y128432D01*
X71181Y129216D01*
X71575Y129216D01*
X74331Y126864D01*
X74331Y129216D01*
X73937Y129216D01*
X204543Y124689D02*
X205331Y123905D01*
X205331Y123121D01*
X204543Y122337D01*
X202181Y122337D01*
X201394Y123121D01*
X201394Y123905D01*
X202181Y124689D01*
X205331Y127432D02*
X205331Y126648D01*
X204543Y125864D01*
X203756Y125864D01*
X203362Y126256D01*
X202969Y125864D01*
X202181Y125864D01*
X201394Y126648D01*
X201394Y127432D01*
X202181Y128216D01*
X202969Y128216D01*
X203362Y127824D01*
X203756Y128216D01*
X204543Y128216D01*
X205331Y127432D01*
X203362Y126256D02*
X203362Y127824D01*
X78543Y135689D02*
X79331Y134905D01*
X79331Y134121D01*
X78543Y133337D01*
X76181Y133337D01*
X75394Y134121D01*
X75394Y134905D01*
X76181Y135689D01*
X75787Y137256D02*
X75394Y137648D01*
X75394Y138432D01*
X76181Y139216D01*
X76969Y139216D01*
X77362Y138824D01*
X77756Y139216D01*
X78543Y139216D01*
X79331Y138432D01*
X79331Y137648D01*
X78937Y137256D01*
X77362Y137648D02*
X77362Y138824D01*
X210543Y135689D02*
X211331Y134905D01*
X211331Y134121D01*
X210543Y133337D01*
X208181Y133337D01*
X207394Y134121D01*
X207394Y134905D01*
X208181Y135689D01*
X210543Y136864D02*
X211331Y137648D01*
X211331Y138432D01*
X210543Y139216D01*
X208969Y139216D01*
X208181Y139216D01*
X207394Y138432D01*
X207394Y137648D01*
X208181Y136864D01*
X208969Y136864D01*
X209756Y137648D01*
X209756Y138432D01*
X208969Y139216D01*
X111331Y147337D02*
X107394Y147337D01*
X107394Y148905D01*
X108181Y149689D01*
X108575Y149689D01*
X109362Y148905D01*
X109362Y147337D01*
X109362Y147729D02*
X111331Y149689D01*
X107394Y152824D02*
X107394Y151648D01*
X108181Y150864D01*
X109756Y150864D01*
X110543Y150864D01*
X111331Y151648D01*
X111331Y152432D01*
X110543Y153216D01*
X109756Y153216D01*
X108969Y152432D01*
X108969Y151648D01*
X109756Y150864D01*
X121331Y147337D02*
X117394Y147337D01*
X117394Y148905D01*
X118181Y149689D01*
X118575Y149689D01*
X119362Y148905D01*
X119362Y147337D01*
X119362Y147729D02*
X121331Y149689D01*
X118181Y150864D02*
X117394Y151648D01*
X117394Y152432D01*
X118181Y153216D01*
X118575Y153216D01*
X121331Y150864D01*
X121331Y153216D01*
X120937Y153216D01*
X131331Y147337D02*
X127394Y147337D01*
X127394Y148905D01*
X128181Y149689D01*
X128575Y149689D01*
X129362Y148905D01*
X129362Y147337D01*
X129362Y147729D02*
X131331Y149689D01*
X129756Y153216D02*
X129756Y150864D01*
X127394Y152824D01*
X131331Y152824D01*
X131331Y152432D02*
X131331Y153216D01*
X274331Y144809D02*
X270394Y144809D01*
X270394Y146377D01*
X271181Y147161D01*
X271575Y147161D01*
X272362Y146377D01*
X272362Y144809D01*
X272362Y145201D02*
X274331Y147161D01*
X271181Y148337D02*
X270394Y149121D01*
X270394Y149905D01*
X271181Y150689D01*
X271575Y150689D01*
X274331Y148337D01*
X274331Y150689D01*
X273937Y150689D01*
X271181Y151864D02*
X270394Y152648D01*
X270394Y153432D01*
X271181Y154216D01*
X273543Y154216D01*
X274331Y153432D01*
X274331Y152648D01*
X273543Y151864D01*
X271181Y151864D01*
X271181Y154216D02*
X273543Y151864D01*
X283331Y143809D02*
X279394Y143809D01*
X279394Y145377D01*
X280181Y146161D01*
X280575Y146161D01*
X281362Y145377D01*
X281362Y143809D01*
X281362Y144201D02*
X283331Y146161D01*
X280181Y147729D02*
X279394Y148513D01*
X283331Y148513D01*
X283331Y147337D02*
X283331Y149689D01*
X283331Y152432D02*
X283331Y151648D01*
X282543Y150864D01*
X281756Y150864D01*
X281362Y151256D01*
X280969Y150864D01*
X280181Y150864D01*
X279394Y151648D01*
X279394Y152432D01*
X280181Y153216D01*
X280969Y153216D01*
X281362Y152824D01*
X281756Y153216D01*
X282543Y153216D01*
X283331Y152432D01*
X281362Y151256D02*
X281362Y152824D01*
X296331Y143809D02*
X292394Y143809D01*
X292394Y145377D01*
X293181Y146161D01*
X293575Y146161D01*
X294362Y145377D01*
X294362Y143809D01*
X294362Y144201D02*
X296331Y146161D01*
X293181Y147729D02*
X292394Y148513D01*
X296331Y148513D01*
X296331Y147337D02*
X296331Y149689D01*
X294756Y153216D02*
X294756Y150864D01*
X292394Y152824D01*
X296331Y152824D01*
X296331Y152432D02*
X296331Y153216D01*
X306331Y143809D02*
X302394Y143809D01*
X302394Y145377D01*
X303181Y146161D01*
X303575Y146161D01*
X304362Y145377D01*
X304362Y143809D01*
X304362Y144201D02*
X306331Y146161D01*
X303181Y147729D02*
X302394Y148513D01*
X306331Y148513D01*
X306331Y147337D02*
X306331Y149689D01*
X303181Y150864D02*
X302394Y151648D01*
X302394Y152432D01*
X303181Y153216D01*
X303575Y153216D01*
X306331Y150864D01*
X306331Y153216D01*
X305937Y153216D01*
X316331Y143809D02*
X312394Y143809D01*
X312394Y145377D01*
X313181Y146161D01*
X313575Y146161D01*
X314362Y145377D01*
X314362Y143809D01*
X314362Y144201D02*
X316331Y146161D01*
X313181Y147729D02*
X312394Y148513D01*
X316331Y148513D01*
X316331Y147337D02*
X316331Y149689D01*
X312394Y152824D02*
X312394Y151648D01*
X313181Y150864D01*
X314756Y150864D01*
X315543Y150864D01*
X316331Y151648D01*
X316331Y152432D01*
X315543Y153216D01*
X314756Y153216D01*
X313969Y152432D01*
X313969Y151648D01*
X314756Y150864D01*
X183331Y147337D02*
X179394Y147337D01*
X179394Y148905D01*
X180181Y149689D01*
X180575Y149689D01*
X181362Y148905D01*
X181362Y147337D01*
X181362Y147729D02*
X183331Y149689D01*
X179394Y153216D02*
X179394Y150864D01*
X180969Y150864D01*
X180969Y152432D01*
X181756Y153216D01*
X182543Y153216D01*
X183331Y152432D01*
X183331Y150864D01*
X309394Y31337D02*
X312543Y31337D01*
X313331Y32121D01*
X313331Y32905D01*
X312543Y33689D01*
X309394Y33689D01*
X311756Y37216D02*
X311756Y34864D01*
X309394Y36824D01*
X313331Y36824D01*
X313331Y36432D02*
X313331Y37216D01*
X335394Y192337D02*
X338543Y192337D01*
X339331Y193121D01*
X339331Y193905D01*
X338543Y194689D01*
X335394Y194689D01*
X335394Y198216D02*
X335394Y195864D01*
X336969Y195864D01*
X336969Y197432D01*
X337756Y198216D01*
X338543Y198216D01*
X339331Y197432D01*
X339331Y195864D01*
X60543Y56689D02*
X61331Y55905D01*
X61331Y55121D01*
X60543Y54337D01*
X58181Y54337D01*
X57394Y55121D01*
X57394Y55905D01*
X58181Y56689D01*
X57394Y60216D02*
X57394Y57864D01*
X58969Y57864D01*
X58969Y59432D01*
X59756Y60216D01*
X60543Y60216D01*
X61331Y59432D01*
X61331Y57864D01*
X60543Y100689D02*
X61331Y99905D01*
X61331Y99121D01*
X60543Y98337D01*
X58181Y98337D01*
X57394Y99121D01*
X57394Y99905D01*
X58181Y100689D01*
X57394Y103824D02*
X57394Y102648D01*
X58181Y101864D01*
X59756Y101864D01*
X60543Y101864D01*
X61331Y102648D01*
X61331Y103432D01*
X60543Y104216D01*
X59756Y104216D01*
X58969Y103432D01*
X58969Y102648D01*
X59756Y101864D01*
X190543Y56161D02*
X191331Y55377D01*
X191331Y54593D01*
X190543Y53809D01*
X188181Y53809D01*
X187394Y54593D01*
X187394Y55377D01*
X188181Y56161D01*
X188181Y57729D02*
X187394Y58513D01*
X191331Y58513D01*
X191331Y57337D02*
X191331Y59689D01*
X188181Y61256D02*
X187394Y62040D01*
X191331Y62040D01*
X191331Y60864D02*
X191331Y63216D01*
X190543Y100161D02*
X191331Y99377D01*
X191331Y98593D01*
X190543Y97809D01*
X188181Y97809D01*
X187394Y98593D01*
X187394Y99377D01*
X188181Y100161D01*
X188181Y101729D02*
X187394Y102513D01*
X191331Y102513D01*
X191331Y101337D02*
X191331Y103689D01*
X188181Y104864D02*
X187394Y105648D01*
X187394Y106432D01*
X188181Y107216D01*
X188575Y107216D01*
X191331Y104864D01*
X191331Y107216D01*
X190937Y107216D01*
X228394Y267337D02*
X231543Y267337D01*
X232331Y268121D01*
X232331Y268905D01*
X231543Y269689D01*
X228394Y269689D01*
X228394Y272824D02*
X228394Y271648D01*
X229181Y270864D01*
X230756Y270864D01*
X231543Y270864D01*
X232331Y271648D01*
X232331Y272432D01*
X231543Y273216D01*
X230756Y273216D01*
X229969Y272432D01*
X229969Y271648D01*
X230756Y270864D01*
G54D13*
X326106Y277900D02*
X286106Y277900D01*
X286106Y278000D02*
X286106Y246000D01*
X326106Y246000D02*
X326106Y278000D01*
X280106Y214000D02*
X326106Y214000D01*
X17000Y203000D02*
X207000Y203000D01*
X207000Y273000D01*
X17000Y273000D01*
X17000Y234000D02*
X17349Y234015D01*
X17695Y234061D01*
X18035Y234136D01*
X18368Y234241D01*
X18690Y234375D01*
X19000Y234536D01*
X19294Y234723D01*
X19571Y234936D01*
X19828Y235172D01*
X20064Y235429D01*
X20277Y235706D01*
X20464Y236000D01*
X20625Y236310D01*
X20759Y236632D01*
X20864Y236965D01*
X20939Y237305D01*
X20985Y237651D01*
X21000Y238000D01*
X20985Y238349D01*
X20939Y238695D01*
X20864Y239035D01*
X20759Y239368D01*
X20625Y239690D01*
X20464Y240000D01*
X20277Y240294D01*
X20064Y240571D01*
X19828Y240828D01*
X19571Y241064D01*
X19294Y241277D01*
X19000Y241464D01*
X18690Y241625D01*
X18368Y241759D01*
X18035Y241864D01*
X17695Y241939D01*
X17349Y241985D01*
X17000Y242000D01*
X17000Y273000D02*
X17000Y242000D01*
X17000Y234000D02*
X17000Y203000D01*
X158679Y168556D02*
X159274Y169667D01*
X159274Y170778D01*
X158679Y171889D01*
X156298Y171889D01*
X156893Y174111D02*
X156298Y175222D01*
X159274Y175222D01*
X159274Y173556D02*
X159274Y176889D01*
X156893Y178556D02*
X156298Y179667D01*
X156298Y180778D01*
X156893Y181889D01*
X158679Y181889D01*
X159274Y180778D01*
X159274Y179667D01*
X158679Y178556D01*
X156893Y178556D01*
X156893Y181889D02*
X158679Y178556D01*
X168000Y169333D02*
X168581Y169359D01*
X169158Y169435D01*
X169725Y169560D01*
X170280Y169735D01*
X170817Y169958D01*
X171333Y170226D01*
X171824Y170539D01*
X172285Y170893D01*
X172714Y171286D01*
X173107Y171715D01*
X173461Y172176D01*
X173774Y172667D01*
X174042Y173183D01*
X174265Y173720D01*
X174440Y174275D01*
X174565Y174842D01*
X174641Y175419D01*
X174667Y176000D01*
X174641Y176581D01*
X174565Y177158D01*
X174440Y177725D01*
X174265Y178280D01*
X174042Y178817D01*
X173774Y179333D01*
X173461Y179824D01*
X173107Y180285D01*
X172714Y180714D01*
X172285Y181107D01*
X171824Y181461D01*
X171333Y181774D01*
X170817Y182042D01*
X170280Y182265D01*
X169725Y182440D01*
X169158Y182565D01*
X168581Y182641D01*
X168000Y182667D01*
X167419Y182641D01*
X166842Y182565D01*
X166275Y182440D01*
X165720Y182265D01*
X165183Y182042D01*
X164667Y181774D01*
X164176Y181461D01*
X163715Y181107D01*
X163286Y180714D01*
X162893Y180285D01*
X162539Y179824D01*
X162226Y179333D01*
X161958Y178817D01*
X161735Y178280D01*
X161560Y177725D01*
X161435Y177158D01*
X161359Y176581D01*
X161333Y176000D01*
X161359Y175419D01*
X161435Y174842D01*
X161560Y174275D01*
X161735Y173720D01*
X161958Y173183D01*
X162226Y172667D01*
X162539Y172176D01*
X162893Y171715D01*
X163286Y171286D01*
X163715Y170893D01*
X164176Y170539D01*
X164667Y170226D01*
X165183Y169958D01*
X165720Y169735D01*
X166275Y169560D01*
X166842Y169435D01*
X167419Y169359D01*
X168000Y169333D01*
X168000Y169333D01*
X146679Y174556D02*
X147274Y175667D01*
X147274Y176778D01*
X146679Y177889D01*
X144298Y177889D01*
X144893Y180111D02*
X144298Y181222D01*
X147274Y181222D01*
X147274Y179556D02*
X147274Y182889D01*
X146083Y187889D02*
X146083Y184556D01*
X144298Y187333D01*
X147274Y187333D01*
X147274Y186778D02*
X147274Y187889D01*
X162667Y190000D02*
X162641Y190581D01*
X162565Y191158D01*
X162440Y191725D01*
X162265Y192280D01*
X162042Y192817D01*
X161774Y193333D01*
X161461Y193824D01*
X161107Y194285D01*
X160714Y194714D01*
X160285Y195107D01*
X159824Y195461D01*
X159333Y195774D01*
X158817Y196042D01*
X158280Y196265D01*
X157725Y196440D01*
X157158Y196565D01*
X156581Y196641D01*
X156000Y196667D01*
X155419Y196641D01*
X154842Y196565D01*
X154275Y196440D01*
X153720Y196265D01*
X153183Y196042D01*
X152667Y195774D01*
X152176Y195461D01*
X151715Y195107D01*
X151286Y194714D01*
X150893Y194285D01*
X150539Y193824D01*
X150226Y193333D01*
X149958Y192817D01*
X149735Y192280D01*
X149560Y191725D01*
X149435Y191158D01*
X149359Y190581D01*
X149333Y190000D01*
X149359Y189419D01*
X149435Y188842D01*
X149560Y188275D01*
X149735Y187720D01*
X149958Y187183D01*
X150226Y186667D01*
X150539Y186176D01*
X150893Y185715D01*
X151286Y185286D01*
X151715Y184893D01*
X152176Y184539D01*
X152667Y184226D01*
X153183Y183958D01*
X153720Y183735D01*
X154275Y183560D01*
X154842Y183435D01*
X155419Y183359D01*
X156000Y183333D01*
X156581Y183359D01*
X157158Y183435D01*
X157725Y183560D01*
X158280Y183735D01*
X158817Y183958D01*
X159333Y184226D01*
X159824Y184539D01*
X160285Y184893D01*
X160714Y185286D01*
X161107Y185715D01*
X161461Y186176D01*
X161774Y186667D01*
X162042Y187183D01*
X162265Y187720D01*
X162440Y188275D01*
X162565Y188842D01*
X162641Y189419D01*
X162667Y190000D01*
X162667Y190000D01*
X242679Y169556D02*
X243274Y170667D01*
X243274Y171778D01*
X242679Y172889D01*
X240298Y172889D01*
X240893Y175111D02*
X240298Y176222D01*
X243274Y176222D01*
X243274Y174556D02*
X243274Y177889D01*
X240595Y180111D02*
X240298Y180667D01*
X240298Y181778D01*
X240893Y182889D01*
X241488Y182889D01*
X241786Y182333D01*
X242083Y182889D01*
X242679Y182889D01*
X243274Y181778D01*
X243274Y180667D01*
X242976Y180111D01*
X241786Y180667D02*
X241786Y182333D01*
X252000Y169333D02*
X252581Y169359D01*
X253158Y169435D01*
X253725Y169560D01*
X254280Y169735D01*
X254817Y169958D01*
X255333Y170226D01*
X255824Y170539D01*
X256285Y170893D01*
X256714Y171286D01*
X257107Y171715D01*
X257461Y172176D01*
X257774Y172667D01*
X258042Y173183D01*
X258265Y173720D01*
X258440Y174275D01*
X258565Y174842D01*
X258641Y175419D01*
X258667Y176000D01*
X258641Y176581D01*
X258565Y177158D01*
X258440Y177725D01*
X258265Y178280D01*
X258042Y178817D01*
X257774Y179333D01*
X257461Y179824D01*
X257107Y180285D01*
X256714Y180714D01*
X256285Y181107D01*
X255824Y181461D01*
X255333Y181774D01*
X254817Y182042D01*
X254280Y182265D01*
X253725Y182440D01*
X253158Y182565D01*
X252581Y182641D01*
X252000Y182667D01*
X251419Y182641D01*
X250842Y182565D01*
X250275Y182440D01*
X249720Y182265D01*
X249183Y182042D01*
X248667Y181774D01*
X248176Y181461D01*
X247715Y181107D01*
X247286Y180714D01*
X246893Y180285D01*
X246539Y179824D01*
X246226Y179333D01*
X245958Y178817D01*
X245735Y178280D01*
X245560Y177725D01*
X245435Y177158D01*
X245359Y176581D01*
X245333Y176000D01*
X245359Y175419D01*
X245435Y174842D01*
X245560Y174275D01*
X245735Y173720D01*
X245958Y173183D01*
X246226Y172667D01*
X246539Y172176D01*
X246893Y171715D01*
X247286Y171286D01*
X247715Y170893D01*
X248176Y170539D01*
X248667Y170226D01*
X249183Y169958D01*
X249720Y169735D01*
X250275Y169560D01*
X250842Y169435D01*
X251419Y169359D01*
X252000Y169333D01*
X252000Y169333D01*
X356679Y138556D02*
X357274Y139667D01*
X357274Y140778D01*
X356679Y141889D01*
X354893Y138556D01*
X354298Y139667D01*
X354298Y140778D01*
X354893Y141889D01*
X354893Y144111D02*
X354298Y145222D01*
X357274Y145222D01*
X357274Y143556D02*
X357274Y146889D01*
X373500Y107000D02*
X358500Y107000D01*
X358500Y147000D02*
X373500Y147000D01*
X358500Y107000D02*
X358500Y147000D01*
X364500Y134500D02*
X364500Y119500D01*
X367500Y119500D02*
X367500Y134500D01*
X364500Y119500D02*
X367500Y119500D01*
X359333Y132833D02*
X359336Y132761D01*
X359346Y132689D01*
X359362Y132618D01*
X359383Y132548D01*
X359411Y132481D01*
X359445Y132417D01*
X359484Y132355D01*
X359528Y132298D01*
X359577Y132244D01*
X359631Y132195D01*
X359689Y132151D01*
X359750Y132112D01*
X359814Y132078D01*
X359882Y132050D01*
X359951Y132029D01*
X360022Y132013D01*
X360094Y132003D01*
X360167Y132000D01*
X360239Y132003D01*
X360311Y132013D01*
X360382Y132029D01*
X360452Y132050D01*
X360519Y132078D01*
X360583Y132112D01*
X360645Y132151D01*
X360702Y132195D01*
X360756Y132244D01*
X360805Y132298D01*
X360849Y132355D01*
X360888Y132417D01*
X360922Y132481D01*
X360950Y132548D01*
X360971Y132618D01*
X360987Y132689D01*
X360997Y132761D01*
X361000Y132833D01*
X361000Y134500D02*
X360997Y134573D01*
X360987Y134645D01*
X360971Y134716D01*
X360950Y134785D01*
X360922Y134852D01*
X360888Y134917D01*
X360849Y134978D01*
X360805Y135036D01*
X360756Y135089D01*
X360702Y135138D01*
X360645Y135183D01*
X360583Y135222D01*
X360519Y135255D01*
X360452Y135283D01*
X360382Y135305D01*
X360311Y135321D01*
X360239Y135330D01*
X360167Y135333D01*
X360094Y135330D01*
X360022Y135321D01*
X359951Y135305D01*
X359882Y135283D01*
X359814Y135255D01*
X359750Y135222D01*
X359689Y135183D01*
X359631Y135138D01*
X359577Y135089D01*
X359528Y135036D01*
X359484Y134978D01*
X359445Y134917D01*
X359411Y134852D01*
X359383Y134785D01*
X359362Y134716D01*
X359346Y134645D01*
X359336Y134573D01*
X359333Y134500D01*
X359333Y132833D01*
X361000Y132833D02*
X361000Y134500D01*
X365000Y127500D02*
X365000Y134000D01*
X365500Y127500D02*
X365500Y133500D01*
X364500Y127000D02*
X367500Y127000D01*
X367000Y127500D02*
X366000Y127500D01*
X365500Y127500D01*
X367000Y128000D02*
X367000Y127500D01*
X367000Y134000D02*
X367000Y128000D01*
X366000Y128000D02*
X366000Y133000D01*
X366500Y133500D02*
X366500Y128000D01*
X366000Y128000D01*
X363500Y132000D02*
X361833Y135333D01*
X361833Y132000D01*
X363500Y135333D02*
X363500Y132000D01*
X367500Y134500D02*
X364500Y134500D01*
X365000Y134000D02*
X367000Y134000D01*
X365500Y133500D02*
X366500Y133500D01*
X373500Y147000D02*
X373500Y107000D01*
X6679Y62556D02*
X7274Y63667D01*
X7274Y64778D01*
X6679Y65889D01*
X4298Y65889D01*
X7274Y69778D02*
X7274Y68667D01*
X6679Y67556D01*
X6083Y67556D01*
X5786Y68111D01*
X5488Y67556D01*
X4893Y67556D01*
X4298Y68667D01*
X4298Y69778D01*
X4893Y70889D01*
X5488Y70889D01*
X5786Y70333D01*
X6083Y70889D01*
X6679Y70889D01*
X7274Y69778D01*
X5786Y68111D02*
X5786Y70333D01*
X9000Y71000D02*
X9000Y61000D01*
X39000Y71000D02*
X39000Y61000D01*
X39000Y71000D02*
X19000Y71000D01*
X16500Y71000D02*
X9000Y71000D01*
X18167Y71000D02*
X18167Y67667D01*
X17333Y70167D02*
X18167Y71000D01*
X39000Y61000D02*
X9000Y61000D01*
X6679Y74556D02*
X7274Y75667D01*
X7274Y76778D01*
X6679Y77889D01*
X4298Y77889D01*
X7274Y81222D02*
X5786Y81222D01*
X4893Y82889D01*
X4298Y82889D01*
X4298Y79556D01*
X4893Y79556D01*
X9000Y83000D02*
X9000Y73000D01*
X39000Y83000D02*
X39000Y73000D01*
X39000Y83000D02*
X19000Y83000D01*
X16500Y83000D02*
X9000Y83000D01*
X18167Y83000D02*
X18167Y79667D01*
X17333Y82167D02*
X18167Y83000D01*
X39000Y73000D02*
X9000Y73000D01*
X6679Y86556D02*
X7274Y87667D01*
X7274Y88778D01*
X6679Y89889D01*
X4298Y89889D01*
X4298Y94333D02*
X4298Y92667D01*
X4893Y91556D01*
X6083Y91556D01*
X6679Y91556D01*
X7274Y92667D01*
X7274Y93778D01*
X6679Y94889D01*
X6083Y94889D01*
X5488Y93778D01*
X5488Y92667D01*
X6083Y91556D01*
X9000Y95000D02*
X9000Y85000D01*
X39000Y95000D02*
X39000Y85000D01*
X39000Y95000D02*
X19000Y95000D01*
X16500Y95000D02*
X9000Y95000D01*
X18167Y95000D02*
X18167Y91667D01*
X17333Y94167D02*
X18167Y95000D01*
X39000Y85000D02*
X9000Y85000D01*
X6673Y49550D02*
X7268Y50661D01*
X7268Y51772D01*
X6673Y52883D01*
X4292Y52883D01*
X6673Y54550D02*
X7268Y55661D01*
X7268Y56772D01*
X6673Y57883D01*
X5483Y57883D01*
X4887Y57883D01*
X4292Y56772D01*
X4292Y55661D01*
X4887Y54550D01*
X5483Y54550D01*
X6078Y55661D01*
X6078Y56772D01*
X5483Y57883D01*
X9000Y59000D02*
X9000Y49000D01*
X39000Y59000D02*
X39000Y49000D01*
X39000Y59000D02*
X19000Y59000D01*
X16500Y59000D02*
X9000Y59000D01*
X18167Y59000D02*
X18167Y55667D01*
X17333Y58167D02*
X18167Y59000D01*
X39000Y49000D02*
X9000Y49000D01*
X90679Y6556D02*
X91274Y7667D01*
X91274Y8778D01*
X90679Y9889D01*
X88298Y9889D01*
X88298Y14889D02*
X88298Y11556D01*
X89488Y11556D01*
X89488Y13778D01*
X90083Y14889D01*
X90679Y14889D01*
X91274Y13778D01*
X91274Y11556D01*
X93000Y15000D02*
X153000Y15000D01*
X105500Y5000D02*
X143000Y5000D01*
X153000Y5000D02*
X153000Y15000D01*
X143833Y5000D02*
X143833Y8333D01*
X145500Y5000D02*
X153000Y5000D01*
X144667Y5833D02*
X143833Y5000D01*
X103833Y8333D02*
X103761Y8330D01*
X103689Y8321D01*
X103618Y8305D01*
X103548Y8283D01*
X103481Y8255D01*
X103417Y8222D01*
X103355Y8183D01*
X103298Y8138D01*
X103244Y8089D01*
X103195Y8036D01*
X103151Y7978D01*
X103112Y7917D01*
X103078Y7852D01*
X103050Y7785D01*
X103029Y7716D01*
X103013Y7645D01*
X103003Y7573D01*
X103000Y7500D01*
X103003Y7427D01*
X103013Y7355D01*
X103029Y7284D01*
X103050Y7215D01*
X103078Y7148D01*
X103112Y7083D01*
X103151Y7022D01*
X103195Y6964D01*
X103244Y6911D01*
X103298Y6862D01*
X103355Y6817D01*
X103417Y6778D01*
X103481Y6745D01*
X103548Y6717D01*
X103618Y6695D01*
X103689Y6679D01*
X103761Y6670D01*
X103833Y6667D01*
X104667Y6667D02*
X104667Y5000D01*
X104667Y6667D02*
X103833Y6667D01*
X93000Y5000D02*
X93000Y15000D01*
X104667Y8333D02*
X103833Y8333D01*
X93000Y5000D02*
X102167Y5000D01*
X103000Y5000D02*
X104667Y5000D01*
X90679Y17556D02*
X91274Y18667D01*
X91274Y19778D01*
X90679Y20889D01*
X88298Y20889D01*
X90083Y25889D02*
X90083Y22556D01*
X88298Y25333D01*
X91274Y25333D01*
X91274Y24778D02*
X91274Y25889D01*
X93000Y27000D02*
X153000Y27000D01*
X105500Y17000D02*
X143000Y17000D01*
X153000Y17000D02*
X153000Y27000D01*
X143833Y17000D02*
X143833Y20333D01*
X145500Y17000D02*
X153000Y17000D01*
X144667Y17833D02*
X143833Y17000D01*
X103833Y20333D02*
X103761Y20330D01*
X103689Y20321D01*
X103618Y20305D01*
X103548Y20283D01*
X103481Y20255D01*
X103417Y20222D01*
X103355Y20183D01*
X103298Y20138D01*
X103244Y20089D01*
X103195Y20036D01*
X103151Y19978D01*
X103112Y19917D01*
X103078Y19852D01*
X103050Y19785D01*
X103029Y19716D01*
X103013Y19645D01*
X103003Y19573D01*
X103000Y19500D01*
X103003Y19427D01*
X103013Y19355D01*
X103029Y19284D01*
X103050Y19215D01*
X103078Y19148D01*
X103112Y19083D01*
X103151Y19022D01*
X103195Y18964D01*
X103244Y18911D01*
X103298Y18862D01*
X103355Y18817D01*
X103417Y18778D01*
X103481Y18745D01*
X103548Y18717D01*
X103618Y18695D01*
X103689Y18679D01*
X103761Y18670D01*
X103833Y18667D01*
X104667Y18667D02*
X104667Y17000D01*
X104667Y18667D02*
X103833Y18667D01*
X93000Y17000D02*
X93000Y27000D01*
X104667Y20333D02*
X103833Y20333D01*
X93000Y17000D02*
X102167Y17000D01*
X103000Y17000D02*
X104667Y17000D01*
X157500Y34500D02*
X146500Y34500D01*
X146500Y29500D01*
X157500Y29500D01*
X157500Y34500D01*
X146500Y35500D02*
X157500Y35500D01*
X157500Y40500D01*
X146500Y40500D01*
X146500Y35500D01*
X222679Y6556D02*
X223274Y7667D01*
X223274Y8778D01*
X222679Y9889D01*
X220298Y9889D01*
X220595Y12111D02*
X220298Y12667D01*
X220298Y13778D01*
X220893Y14889D01*
X221488Y14889D01*
X221786Y14333D01*
X222083Y14889D01*
X222679Y14889D01*
X223274Y13778D01*
X223274Y12667D01*
X222976Y12111D01*
X221786Y12667D02*
X221786Y14333D01*
X225000Y15000D02*
X285000Y15000D01*
X237500Y5000D02*
X275000Y5000D01*
X285000Y5000D02*
X285000Y15000D01*
X275833Y5000D02*
X275833Y8333D01*
X277500Y5000D02*
X285000Y5000D01*
X276667Y5833D02*
X275833Y5000D01*
X235833Y8333D02*
X235761Y8330D01*
X235689Y8321D01*
X235618Y8305D01*
X235548Y8283D01*
X235481Y8255D01*
X235417Y8222D01*
X235355Y8183D01*
X235298Y8138D01*
X235244Y8089D01*
X235195Y8036D01*
X235151Y7978D01*
X235112Y7917D01*
X235078Y7852D01*
X235050Y7785D01*
X235029Y7716D01*
X235013Y7645D01*
X235003Y7573D01*
X235000Y7500D01*
X235003Y7427D01*
X235013Y7355D01*
X235029Y7284D01*
X235050Y7215D01*
X235078Y7148D01*
X235112Y7083D01*
X235151Y7022D01*
X235195Y6964D01*
X235244Y6911D01*
X235298Y6862D01*
X235355Y6817D01*
X235417Y6778D01*
X235481Y6745D01*
X235548Y6717D01*
X235618Y6695D01*
X235689Y6679D01*
X235761Y6670D01*
X235833Y6667D01*
X236667Y6667D02*
X236667Y5000D01*
X236667Y6667D02*
X235833Y6667D01*
X225000Y5000D02*
X225000Y15000D01*
X236667Y8333D02*
X235833Y8333D01*
X225000Y5000D02*
X234167Y5000D01*
X235000Y5000D02*
X236667Y5000D01*
X222679Y17556D02*
X223274Y18667D01*
X223274Y19778D01*
X222679Y20889D01*
X220298Y20889D01*
X220893Y22556D02*
X220298Y23667D01*
X220298Y24778D01*
X220893Y25889D01*
X221190Y25889D01*
X223274Y22556D01*
X223274Y25889D01*
X222976Y25889D01*
X225000Y27000D02*
X285000Y27000D01*
X237500Y17000D02*
X275000Y17000D01*
X285000Y17000D02*
X285000Y27000D01*
X275833Y17000D02*
X275833Y20333D01*
X277500Y17000D02*
X285000Y17000D01*
X276667Y17833D02*
X275833Y17000D01*
X235833Y20333D02*
X235761Y20330D01*
X235689Y20321D01*
X235618Y20305D01*
X235548Y20283D01*
X235481Y20255D01*
X235417Y20222D01*
X235355Y20183D01*
X235298Y20138D01*
X235244Y20089D01*
X235195Y20036D01*
X235151Y19978D01*
X235112Y19917D01*
X235078Y19852D01*
X235050Y19785D01*
X235029Y19716D01*
X235013Y19645D01*
X235003Y19573D01*
X235000Y19500D01*
X235003Y19427D01*
X235013Y19355D01*
X235029Y19284D01*
X235050Y19215D01*
X235078Y19148D01*
X235112Y19083D01*
X235151Y19022D01*
X235195Y18964D01*
X235244Y18911D01*
X235298Y18862D01*
X235355Y18817D01*
X235417Y18778D01*
X235481Y18745D01*
X235548Y18717D01*
X235618Y18695D01*
X235689Y18679D01*
X235761Y18670D01*
X235833Y18667D01*
X236667Y18667D02*
X236667Y17000D01*
X236667Y18667D02*
X235833Y18667D01*
X225000Y17000D02*
X225000Y27000D01*
X236667Y20333D02*
X235833Y20333D01*
X225000Y17000D02*
X234167Y17000D01*
X235000Y17000D02*
X236667Y17000D01*
X289500Y34500D02*
X278500Y34500D01*
X278500Y29500D01*
X289500Y29500D01*
X289500Y34500D01*
X278500Y35500D02*
X289500Y35500D01*
X289500Y40500D01*
X278500Y40500D01*
X278500Y35500D01*
X73543Y79307D02*
X74331Y80094D01*
X74331Y80882D01*
X73543Y81669D01*
X71181Y81669D01*
X70394Y80882D01*
X70394Y80094D01*
X71181Y79307D01*
X73543Y79307D01*
X73543Y80882D02*
X74331Y81669D01*
X71181Y83244D02*
X70394Y84031D01*
X74331Y84031D01*
X74331Y82850D02*
X74331Y85213D01*
X75236Y128764D02*
X75236Y99236D01*
X100000Y128764D02*
X75236Y128764D01*
X75236Y99236D02*
X100000Y99236D01*
X105000Y104000D02*
X105000Y124000D01*
X100000Y128764D01*
X105000Y104000D02*
X100000Y99236D01*
X205543Y79307D02*
X206331Y80094D01*
X206331Y80882D01*
X205543Y81669D01*
X203181Y81669D01*
X202394Y80882D01*
X202394Y80094D01*
X203181Y79307D01*
X205543Y79307D01*
X205543Y80882D02*
X206331Y81669D01*
X203181Y82850D02*
X202394Y83638D01*
X202394Y84425D01*
X203181Y85213D01*
X203575Y85213D01*
X206331Y82850D01*
X206331Y85213D01*
X205937Y85213D01*
X207236Y128764D02*
X207236Y99236D01*
X232000Y128764D02*
X207236Y128764D01*
X207236Y99236D02*
X232000Y99236D01*
X237000Y104000D02*
X237000Y124000D01*
X232000Y128764D01*
X237000Y104000D02*
X232000Y99236D01*
X110679Y170556D02*
X111274Y171667D01*
X111274Y172778D01*
X110679Y173889D01*
X108298Y173889D01*
X108893Y176111D02*
X108298Y177222D01*
X111274Y177222D01*
X111274Y175556D02*
X111274Y178889D01*
X108893Y181111D02*
X108298Y182222D01*
X111274Y182222D01*
X111274Y180556D02*
X111274Y183889D01*
X120000Y169333D02*
X120581Y169359D01*
X121158Y169435D01*
X121725Y169560D01*
X122280Y169735D01*
X122817Y169958D01*
X123333Y170226D01*
X123824Y170539D01*
X124285Y170893D01*
X124714Y171286D01*
X125107Y171715D01*
X125461Y172176D01*
X125774Y172667D01*
X126042Y173183D01*
X126265Y173720D01*
X126440Y174275D01*
X126565Y174842D01*
X126641Y175419D01*
X126667Y176000D01*
X126641Y176581D01*
X126565Y177158D01*
X126440Y177725D01*
X126265Y178280D01*
X126042Y178817D01*
X125774Y179333D01*
X125461Y179824D01*
X125107Y180285D01*
X124714Y180714D01*
X124285Y181107D01*
X123824Y181461D01*
X123333Y181774D01*
X122817Y182042D01*
X122280Y182265D01*
X121725Y182440D01*
X121158Y182565D01*
X120581Y182641D01*
X120000Y182667D01*
X119419Y182641D01*
X118842Y182565D01*
X118275Y182440D01*
X117720Y182265D01*
X117183Y182042D01*
X116667Y181774D01*
X116176Y181461D01*
X115715Y181107D01*
X115286Y180714D01*
X114893Y180285D01*
X114539Y179824D01*
X114226Y179333D01*
X113958Y178817D01*
X113735Y178280D01*
X113560Y177725D01*
X113435Y177158D01*
X113359Y176581D01*
X113333Y176000D01*
X113359Y175419D01*
X113435Y174842D01*
X113560Y174275D01*
X113735Y173720D01*
X113958Y173183D01*
X114226Y172667D01*
X114539Y172176D01*
X114893Y171715D01*
X115286Y171286D01*
X115715Y170893D01*
X116176Y170539D01*
X116667Y170226D01*
X117183Y169958D01*
X117720Y169735D01*
X118275Y169560D01*
X118842Y169435D01*
X119419Y169359D01*
X120000Y169333D01*
X120000Y169333D01*
X290679Y169556D02*
X291274Y170667D01*
X291274Y171778D01*
X290679Y172889D01*
X288298Y172889D01*
X288893Y175111D02*
X288298Y176222D01*
X291274Y176222D01*
X291274Y174556D02*
X291274Y177889D01*
X288893Y179556D02*
X288298Y180667D01*
X288298Y181778D01*
X288893Y182889D01*
X289190Y182889D01*
X291274Y179556D01*
X291274Y182889D01*
X290976Y182889D01*
X300000Y169333D02*
X300581Y169359D01*
X301158Y169435D01*
X301725Y169560D01*
X302280Y169735D01*
X302817Y169958D01*
X303333Y170226D01*
X303824Y170539D01*
X304285Y170893D01*
X304714Y171286D01*
X305107Y171715D01*
X305461Y172176D01*
X305774Y172667D01*
X306042Y173183D01*
X306265Y173720D01*
X306440Y174275D01*
X306565Y174842D01*
X306641Y175419D01*
X306667Y176000D01*
X306641Y176581D01*
X306565Y177158D01*
X306440Y177725D01*
X306265Y178280D01*
X306042Y178817D01*
X305774Y179333D01*
X305461Y179824D01*
X305107Y180285D01*
X304714Y180714D01*
X304285Y181107D01*
X303824Y181461D01*
X303333Y181774D01*
X302817Y182042D01*
X302280Y182265D01*
X301725Y182440D01*
X301158Y182565D01*
X300581Y182641D01*
X300000Y182667D01*
X299419Y182641D01*
X298842Y182565D01*
X298275Y182440D01*
X297720Y182265D01*
X297183Y182042D01*
X296667Y181774D01*
X296176Y181461D01*
X295715Y181107D01*
X295286Y180714D01*
X294893Y180285D01*
X294539Y179824D01*
X294226Y179333D01*
X293958Y178817D01*
X293735Y178280D01*
X293560Y177725D01*
X293435Y177158D01*
X293359Y176581D01*
X293333Y176000D01*
X293359Y175419D01*
X293435Y174842D01*
X293560Y174275D01*
X293735Y173720D01*
X293958Y173183D01*
X294226Y172667D01*
X294539Y172176D01*
X294893Y171715D01*
X295286Y171286D01*
X295715Y170893D01*
X296176Y170539D01*
X296667Y170226D01*
X297183Y169958D01*
X297720Y169735D01*
X298275Y169560D01*
X298842Y169435D01*
X299419Y169359D01*
X300000Y169333D01*
X278595Y183056D02*
X279190Y184167D01*
X279190Y185278D01*
X278595Y186389D01*
X276214Y186389D01*
X276810Y188611D02*
X276214Y189722D01*
X279190Y189722D01*
X279190Y188056D02*
X279190Y191389D01*
X276214Y196389D02*
X276214Y193056D01*
X277405Y193056D01*
X277405Y195278D01*
X278000Y196389D01*
X278595Y196389D01*
X279190Y195278D01*
X279190Y193056D01*
X294667Y190000D02*
X294641Y190581D01*
X294565Y191158D01*
X294440Y191725D01*
X294265Y192280D01*
X294042Y192817D01*
X293774Y193333D01*
X293461Y193824D01*
X293107Y194285D01*
X292714Y194714D01*
X292285Y195107D01*
X291824Y195461D01*
X291333Y195774D01*
X290817Y196042D01*
X290280Y196265D01*
X289725Y196440D01*
X289158Y196565D01*
X288581Y196641D01*
X288000Y196667D01*
X287419Y196641D01*
X286842Y196565D01*
X286275Y196440D01*
X285720Y196265D01*
X285183Y196042D01*
X284667Y195774D01*
X284176Y195461D01*
X283715Y195107D01*
X283286Y194714D01*
X282893Y194285D01*
X282539Y193824D01*
X282226Y193333D01*
X281958Y192817D01*
X281735Y192280D01*
X281560Y191725D01*
X281435Y191158D01*
X281359Y190581D01*
X281333Y190000D01*
X281359Y189419D01*
X281435Y188842D01*
X281560Y188275D01*
X281735Y187720D01*
X281958Y187183D01*
X282226Y186667D01*
X282539Y186176D01*
X282893Y185715D01*
X283286Y185286D01*
X283715Y184893D01*
X284176Y184539D01*
X284667Y184226D01*
X285183Y183958D01*
X285720Y183735D01*
X286275Y183560D01*
X286842Y183435D01*
X287419Y183359D01*
X288000Y183333D01*
X288581Y183359D01*
X289158Y183435D01*
X289725Y183560D01*
X290280Y183735D01*
X290817Y183958D01*
X291333Y184226D01*
X291824Y184539D01*
X292285Y184893D01*
X292714Y185286D01*
X293107Y185715D01*
X293461Y186176D01*
X293774Y186667D01*
X294042Y187183D01*
X294265Y187720D01*
X294440Y188275D01*
X294565Y188842D01*
X294641Y189419D01*
X294667Y190000D01*
X294667Y190000D01*
X181858Y127496D02*
X114142Y127496D01*
X114142Y64504D01*
X181858Y64504D01*
X173787Y122669D02*
G75*
D01*
G02X173787Y122669I1772J0*
G01*
X181858Y97969D02*
X181687Y97961D01*
X181516Y97939D01*
X181349Y97901D01*
X181185Y97850D01*
X181026Y97784D01*
X180874Y97705D01*
X180729Y97613D01*
X180593Y97508D01*
X180466Y97392D01*
X180350Y97265D01*
X180246Y97129D01*
X180153Y96984D01*
X180074Y96832D01*
X180008Y96673D01*
X179957Y96509D01*
X179920Y96342D01*
X179897Y96172D01*
X179890Y96000D01*
X179897Y95828D01*
X179920Y95658D01*
X179957Y95491D01*
X180008Y95327D01*
X180074Y95168D01*
X180153Y95016D01*
X180246Y94871D01*
X180350Y94735D01*
X180466Y94608D01*
X180593Y94492D01*
X180729Y94387D01*
X180874Y94295D01*
X181026Y94216D01*
X181185Y94150D01*
X181349Y94099D01*
X181516Y94061D01*
X181687Y94039D01*
X181858Y94031D01*
X181858Y64504D02*
X181858Y94031D01*
X181858Y97969D02*
X181858Y127496D01*
X313858Y127496D02*
X246142Y127496D01*
X246142Y64504D01*
X313858Y64504D01*
X305787Y122669D02*
G75*
D01*
G02X305787Y122669I1772J0*
G01*
X313858Y97969D02*
X313687Y97961D01*
X313516Y97939D01*
X313349Y97901D01*
X313185Y97850D01*
X313026Y97784D01*
X312874Y97705D01*
X312729Y97613D01*
X312593Y97508D01*
X312466Y97392D01*
X312350Y97265D01*
X312246Y97129D01*
X312153Y96984D01*
X312074Y96832D01*
X312008Y96673D01*
X311957Y96509D01*
X311920Y96342D01*
X311897Y96172D01*
X311890Y96000D01*
X311897Y95828D01*
X311920Y95658D01*
X311957Y95491D01*
X312008Y95327D01*
X312074Y95168D01*
X312153Y95016D01*
X312246Y94871D01*
X312350Y94735D01*
X312466Y94608D01*
X312593Y94492D01*
X312729Y94387D01*
X312874Y94295D01*
X313026Y94216D01*
X313185Y94150D01*
X313349Y94099D01*
X313516Y94061D01*
X313687Y94039D01*
X313858Y94031D01*
X313858Y64504D02*
X313858Y94031D01*
X313858Y97969D02*
X313858Y127496D01*
X339294Y118531D02*
X339294Y105469D01*
G75*
D01*
G03X339469Y105294I175J0*
G01*
X352531Y105294D01*
G75*
D01*
G03X352706Y105469I0J175*
G01*
X352706Y118531D01*
G74*
D01*
G03X352531Y118706I175J0*
G01*
X339469Y118706D01*
G75*
D01*
G03X339294Y118531I0J-175*
G01*
X339294Y118531D02*
X339294Y105469D01*
G75*
D01*
G03X339469Y105294I175J0*
G01*
X352531Y105294D01*
G75*
D01*
G03X352706Y105469I0J175*
G01*
X352706Y118531D01*
G74*
D01*
G03X352531Y118706I175J0*
G01*
X339469Y118706D01*
G75*
D01*
G03X339294Y118531I0J-175*
G01*
X339294Y148531D02*
X339294Y135469D01*
G75*
D01*
G03X339469Y135294I175J0*
G01*
X352531Y135294D01*
G75*
D01*
G03X352706Y135469I0J175*
G01*
X352706Y148531D01*
G74*
D01*
G03X352531Y148706I175J0*
G01*
X339469Y148706D01*
G75*
D01*
G03X339294Y148531I0J-175*
G01*
X339294Y148531D02*
X339294Y135469D01*
G75*
D01*
G03X339469Y135294I175J0*
G01*
X352531Y135294D01*
G75*
D01*
G03X352706Y135469I0J175*
G01*
X352706Y148531D01*
G74*
D01*
G03X352531Y148706I175J0*
G01*
X339469Y148706D01*
G75*
D01*
G03X339294Y148531I0J-175*
G01*
X140150Y201675D02*
X140150Y198325D01*
G75*
D01*
G03X140325Y198150I175J0*
G01*
X143675Y198150D01*
G75*
D01*
G03X143850Y198325I0J175*
G01*
X143850Y201675D01*
G74*
D01*
G03X143675Y201850I175J0*
G01*
X140325Y201850D01*
G75*
D01*
G03X140150Y201675I0J-175*
G01*
X138929Y195352D02*
X135357Y195352D01*
X135357Y193963D02*
X135357Y196741D01*
X138929Y198130D02*
X135357Y198130D01*
X135357Y199981D01*
X136071Y200907D01*
X136429Y200907D01*
X137143Y199981D01*
X137143Y198130D01*
X136071Y202759D02*
X135357Y203685D01*
X138929Y203685D01*
X138929Y202296D02*
X138929Y205074D01*
X140150Y201675D02*
X140150Y198325D01*
G75*
D01*
G03X140325Y198150I175J0*
G01*
X143675Y198150D01*
G75*
D01*
G03X143850Y198325I0J175*
G01*
X143850Y201675D01*
G74*
D01*
G03X143675Y201850I175J0*
G01*
X140325Y201850D01*
G75*
D01*
G03X140150Y201675I0J-175*
G01*
X150150Y201675D02*
X150150Y198325D01*
G75*
D01*
G03X150325Y198150I175J0*
G01*
X153675Y198150D01*
G75*
D01*
G03X153850Y198325I0J175*
G01*
X153850Y201675D01*
G74*
D01*
G03X153675Y201850I175J0*
G01*
X150325Y201850D01*
G75*
D01*
G03X150150Y201675I0J-175*
G01*
X148929Y195352D02*
X145357Y195352D01*
X145357Y193963D02*
X145357Y196741D01*
X148929Y198130D02*
X145357Y198130D01*
X145357Y199981D01*
X146071Y200907D01*
X146429Y200907D01*
X147143Y199981D01*
X147143Y198130D01*
X146071Y202296D02*
X145357Y203222D01*
X145357Y204148D01*
X146071Y205074D01*
X146429Y205074D01*
X148929Y202296D01*
X148929Y205074D01*
X148571Y205074D01*
X150150Y201675D02*
X150150Y198325D01*
G75*
D01*
G03X150325Y198150I175J0*
G01*
X153675Y198150D01*
G75*
D01*
G03X153850Y198325I0J175*
G01*
X153850Y201675D01*
G74*
D01*
G03X153675Y201850I175J0*
G01*
X150325Y201850D01*
G75*
D01*
G03X150150Y201675I0J-175*
G01*
X160150Y201675D02*
X160150Y198325D01*
G75*
D01*
G03X160325Y198150I175J0*
G01*
X163675Y198150D01*
G75*
D01*
G03X163850Y198325I0J175*
G01*
X163850Y201675D01*
G74*
D01*
G03X163675Y201850I175J0*
G01*
X160325Y201850D01*
G75*
D01*
G03X160150Y201675I0J-175*
G01*
X158929Y195352D02*
X155357Y195352D01*
X155357Y193963D02*
X155357Y196741D01*
X158929Y198130D02*
X155357Y198130D01*
X155357Y199981D01*
X156071Y200907D01*
X156429Y200907D01*
X157143Y199981D01*
X157143Y198130D01*
X155714Y202759D02*
X155357Y203222D01*
X155357Y204148D01*
X156071Y205074D01*
X156786Y205074D01*
X157143Y204611D01*
X157500Y205074D01*
X158214Y205074D01*
X158929Y204148D01*
X158929Y203222D01*
X158571Y202759D01*
X157143Y203222D02*
X157143Y204611D01*
X160150Y201675D02*
X160150Y198325D01*
G75*
D01*
G03X160325Y198150I175J0*
G01*
X163675Y198150D01*
G75*
D01*
G03X163850Y198325I0J175*
G01*
X163850Y201675D01*
G74*
D01*
G03X163675Y201850I175J0*
G01*
X160325Y201850D01*
G75*
D01*
G03X160150Y201675I0J-175*
G01*
X170150Y201675D02*
X170150Y198325D01*
G75*
D01*
G03X170325Y198150I175J0*
G01*
X173675Y198150D01*
G75*
D01*
G03X173850Y198325I0J175*
G01*
X173850Y201675D01*
G74*
D01*
G03X173675Y201850I175J0*
G01*
X170325Y201850D01*
G75*
D01*
G03X170150Y201675I0J-175*
G01*
X168929Y195352D02*
X165357Y195352D01*
X165357Y193963D02*
X165357Y196741D01*
X168929Y198130D02*
X165357Y198130D01*
X165357Y199981D01*
X166071Y200907D01*
X166429Y200907D01*
X167143Y199981D01*
X167143Y198130D01*
X167500Y205074D02*
X167500Y202296D01*
X165357Y204611D01*
X168929Y204611D01*
X168929Y204148D02*
X168929Y205074D01*
X170150Y201675D02*
X170150Y198325D01*
G75*
D01*
G03X170325Y198150I175J0*
G01*
X173675Y198150D01*
G75*
D01*
G03X173850Y198325I0J175*
G01*
X173850Y201675D01*
G74*
D01*
G03X173675Y201850I175J0*
G01*
X170325Y201850D01*
G75*
D01*
G03X170150Y201675I0J-175*
G01*
X180150Y201675D02*
X180150Y198325D01*
G75*
D01*
G03X180325Y198150I175J0*
G01*
X183675Y198150D01*
G75*
D01*
G03X183850Y198325I0J175*
G01*
X183850Y201675D01*
G74*
D01*
G03X183675Y201850I175J0*
G01*
X180325Y201850D01*
G75*
D01*
G03X180150Y201675I0J-175*
G01*
X178929Y195352D02*
X175357Y195352D01*
X175357Y193963D02*
X175357Y196741D01*
X178929Y198130D02*
X175357Y198130D01*
X175357Y199981D01*
X176071Y200907D01*
X176429Y200907D01*
X177143Y199981D01*
X177143Y198130D01*
X175357Y205074D02*
X175357Y202296D01*
X176786Y202296D01*
X176786Y204148D01*
X177500Y205074D01*
X178214Y205074D01*
X178929Y204148D01*
X178929Y202296D01*
X180150Y201675D02*
X180150Y198325D01*
G75*
D01*
G03X180325Y198150I175J0*
G01*
X183675Y198150D01*
G75*
D01*
G03X183850Y198325I0J175*
G01*
X183850Y201675D01*
G74*
D01*
G03X183675Y201850I175J0*
G01*
X180325Y201850D01*
G75*
D01*
G03X180150Y201675I0J-175*
G01*
X72150Y27675D02*
X72150Y24325D01*
G75*
D01*
G03X72325Y24150I175J0*
G01*
X75675Y24150D01*
G75*
D01*
G03X75850Y24325I0J175*
G01*
X75850Y27675D01*
G74*
D01*
G03X75675Y27850I175J0*
G01*
X72325Y27850D01*
G75*
D01*
G03X72150Y27675I0J-175*
G01*
X70929Y23352D02*
X67357Y23352D01*
X67357Y21963D02*
X67357Y24741D01*
X70929Y26130D02*
X67357Y26130D01*
X67357Y27981D01*
X68071Y28907D01*
X68429Y28907D01*
X69143Y27981D01*
X69143Y26130D01*
X70929Y31685D02*
X69143Y31685D01*
X68071Y33074D01*
X67357Y33074D01*
X67357Y30296D01*
X68071Y30296D01*
X72150Y27675D02*
X72150Y24325D01*
G75*
D01*
G03X72325Y24150I175J0*
G01*
X75675Y24150D01*
G75*
D01*
G03X75850Y24325I0J175*
G01*
X75850Y27675D01*
G74*
D01*
G03X75675Y27850I175J0*
G01*
X72325Y27850D01*
G75*
D01*
G03X72150Y27675I0J-175*
G01*
X64150Y19675D02*
X64150Y16325D01*
G75*
D01*
G03X64325Y16150I175J0*
G01*
X67675Y16150D01*
G75*
D01*
G03X67850Y16325I0J175*
G01*
X67850Y19675D01*
G74*
D01*
G03X67675Y19850I175J0*
G01*
X64325Y19850D01*
G75*
D01*
G03X64150Y19675I0J-175*
G01*
X62929Y14352D02*
X59357Y14352D01*
X59357Y12963D02*
X59357Y15741D01*
X62929Y17130D02*
X59357Y17130D01*
X59357Y18981D01*
X60071Y19907D01*
X60429Y19907D01*
X61143Y18981D01*
X61143Y17130D01*
X59357Y23611D02*
X59357Y22222D01*
X60071Y21296D01*
X61500Y21296D01*
X62214Y21296D01*
X62929Y22222D01*
X62929Y23148D01*
X62214Y24074D01*
X61500Y24074D01*
X60786Y23148D01*
X60786Y22222D01*
X61500Y21296D01*
X64150Y19675D02*
X64150Y16325D01*
G75*
D01*
G03X64325Y16150I175J0*
G01*
X67675Y16150D01*
G75*
D01*
G03X67850Y16325I0J175*
G01*
X67850Y19675D01*
G74*
D01*
G03X67675Y19850I175J0*
G01*
X64325Y19850D01*
G75*
D01*
G03X64150Y19675I0J-175*
G01*
X211150Y26675D02*
X211150Y23325D01*
G75*
D01*
G03X211325Y23150I175J0*
G01*
X214675Y23150D01*
G75*
D01*
G03X214850Y23325I0J175*
G01*
X214850Y26675D01*
G74*
D01*
G03X214675Y26850I175J0*
G01*
X211325Y26850D01*
G75*
D01*
G03X211150Y26675I0J-175*
G01*
X209929Y22352D02*
X206357Y22352D01*
X206357Y20963D02*
X206357Y23741D01*
X209929Y25130D02*
X206357Y25130D01*
X206357Y26981D01*
X207071Y27907D01*
X207429Y27907D01*
X208143Y26981D01*
X208143Y25130D01*
X209214Y29296D02*
X209929Y30222D01*
X209929Y31148D01*
X209214Y32074D01*
X207786Y32074D01*
X207071Y32074D01*
X206357Y31148D01*
X206357Y30222D01*
X207071Y29296D01*
X207786Y29296D01*
X208500Y30222D01*
X208500Y31148D01*
X207786Y32074D01*
X211150Y26675D02*
X211150Y23325D01*
G75*
D01*
G03X211325Y23150I175J0*
G01*
X214675Y23150D01*
G75*
D01*
G03X214850Y23325I0J175*
G01*
X214850Y26675D01*
G74*
D01*
G03X214675Y26850I175J0*
G01*
X211325Y26850D01*
G75*
D01*
G03X211150Y26675I0J-175*
G01*
X204150Y18675D02*
X204150Y15325D01*
G75*
D01*
G03X204325Y15150I175J0*
G01*
X207675Y15150D01*
G75*
D01*
G03X207850Y15325I0J175*
G01*
X207850Y18675D01*
G74*
D01*
G03X207675Y18850I175J0*
G01*
X204325Y18850D01*
G75*
D01*
G03X204150Y18675I0J-175*
G01*
X202929Y13352D02*
X199357Y13352D01*
X199357Y11963D02*
X199357Y14741D01*
X202929Y16130D02*
X199357Y16130D01*
X199357Y17981D01*
X200071Y18907D01*
X200429Y18907D01*
X201143Y17981D01*
X201143Y16130D01*
X202929Y22148D02*
X202929Y21222D01*
X202214Y20296D01*
X201500Y20296D01*
X201143Y20759D01*
X200786Y20296D01*
X200071Y20296D01*
X199357Y21222D01*
X199357Y22148D01*
X200071Y23074D01*
X200786Y23074D01*
X201143Y22611D01*
X201500Y23074D01*
X202214Y23074D01*
X202929Y22148D01*
X201143Y20759D02*
X201143Y22611D01*
X204150Y18675D02*
X204150Y15325D01*
G75*
D01*
G03X204325Y15150I175J0*
G01*
X207675Y15150D01*
G75*
D01*
G03X207850Y15325I0J175*
G01*
X207850Y18675D01*
G74*
D01*
G03X207675Y18850I175J0*
G01*
X204325Y18850D01*
G75*
D01*
G03X204150Y18675I0J-175*
G01*
X88150Y160675D02*
X88150Y157325D01*
G75*
D01*
G03X88325Y157150I175J0*
G01*
X91675Y157150D01*
G75*
D01*
G03X91850Y157325I0J175*
G01*
X91850Y160675D01*
G74*
D01*
G03X91675Y160850I175J0*
G01*
X88325Y160850D01*
G75*
D01*
G03X88150Y160675I0J-175*
G01*
X86929Y151185D02*
X83357Y151185D01*
X83357Y149796D02*
X83357Y152574D01*
X86929Y153963D02*
X83357Y153963D01*
X83357Y155815D01*
X84071Y156741D01*
X84429Y156741D01*
X85143Y155815D01*
X85143Y153963D01*
X84071Y158593D02*
X83357Y159519D01*
X86929Y159519D01*
X86929Y158130D02*
X86929Y160907D01*
X84071Y162296D02*
X83357Y163222D01*
X83357Y164148D01*
X84071Y165074D01*
X86214Y165074D01*
X86929Y164148D01*
X86929Y163222D01*
X86214Y162296D01*
X84071Y162296D01*
X84071Y165074D02*
X86214Y162296D01*
X88150Y160675D02*
X88150Y157325D01*
G75*
D01*
G03X88325Y157150I175J0*
G01*
X91675Y157150D01*
G75*
D01*
G03X91850Y157325I0J175*
G01*
X91850Y160675D01*
G74*
D01*
G03X91675Y160850I175J0*
G01*
X88325Y160850D01*
G75*
D01*
G03X88150Y160675I0J-175*
G01*
X24500Y198325D02*
X24500Y191675D01*
G75*
D01*
G03X24675Y191500I175J0*
G01*
X31325Y191500D01*
G75*
D01*
G03X31500Y191675I0J175*
G01*
X31500Y198325D01*
G74*
D01*
G03X31325Y198500I175J0*
G01*
X24675Y198500D01*
G75*
D01*
G03X24500Y198325I0J-175*
G01*
X24500Y198325D02*
X24500Y191675D01*
G75*
D01*
G03X24675Y191500I175J0*
G01*
X31325Y191500D01*
G75*
D01*
G03X31500Y191675I0J175*
G01*
X31500Y198325D01*
G74*
D01*
G03X31325Y198500I175J0*
G01*
X24675Y198500D01*
G75*
D01*
G03X24500Y198325I0J-175*
G01*
X17500Y188325D02*
X17500Y181675D01*
G75*
D01*
G03X17675Y181500I175J0*
G01*
X24325Y181500D01*
G75*
D01*
G03X24500Y181675I0J175*
G01*
X24500Y188325D01*
G74*
D01*
G03X24325Y188500I175J0*
G01*
X17675Y188500D01*
G75*
D01*
G03X17500Y188325I0J-175*
G01*
X17500Y188325D02*
X17500Y181675D01*
G75*
D01*
G03X17675Y181500I175J0*
G01*
X24325Y181500D01*
G75*
D01*
G03X24500Y181675I0J175*
G01*
X24500Y188325D01*
G74*
D01*
G03X24325Y188500I175J0*
G01*
X17675Y188500D01*
G75*
D01*
G03X17500Y188325I0J-175*
G01*
X174500Y55325D02*
X174500Y48675D01*
G75*
D01*
G03X174675Y48500I175J0*
G01*
X181325Y48500D01*
G75*
D01*
G03X181500Y48675I0J175*
G01*
X181500Y55325D01*
G74*
D01*
G03X181325Y55500I175J0*
G01*
X174675Y55500D01*
G75*
D01*
G03X174500Y55325I0J-175*
G01*
X179929Y33185D02*
X176357Y33185D01*
X176357Y31796D02*
X176357Y34574D01*
X179929Y35963D02*
X176357Y35963D01*
X176357Y37815D01*
X177071Y38741D01*
X177429Y38741D01*
X178143Y37815D01*
X178143Y35963D01*
X177071Y40593D02*
X176357Y41519D01*
X179929Y41519D01*
X179929Y40130D02*
X179929Y42907D01*
X177071Y44296D02*
X176357Y45222D01*
X176357Y46148D01*
X177071Y47074D01*
X177429Y47074D01*
X179929Y44296D01*
X179929Y47074D01*
X179571Y47074D01*
X174500Y55325D02*
X174500Y48675D01*
G75*
D01*
G03X174675Y48500I175J0*
G01*
X181325Y48500D01*
G75*
D01*
G03X181500Y48675I0J175*
G01*
X181500Y55325D01*
G74*
D01*
G03X181325Y55500I175J0*
G01*
X174675Y55500D01*
G75*
D01*
G03X174500Y55325I0J-175*
G01*
X115500Y52325D02*
X115500Y45675D01*
G75*
D01*
G03X115675Y45500I175J0*
G01*
X122325Y45500D01*
G75*
D01*
G03X122500Y45675I0J175*
G01*
X122500Y52325D01*
G74*
D01*
G03X122325Y52500I175J0*
G01*
X115675Y52500D01*
G75*
D01*
G03X115500Y52325I0J-175*
G01*
X120929Y30185D02*
X117357Y30185D01*
X117357Y28796D02*
X117357Y31574D01*
X120929Y32963D02*
X117357Y32963D01*
X117357Y34815D01*
X118071Y35741D01*
X118429Y35741D01*
X119143Y34815D01*
X119143Y32963D01*
X118071Y37593D02*
X117357Y38519D01*
X120929Y38519D01*
X120929Y37130D02*
X120929Y39907D01*
X118071Y41759D02*
X117357Y42685D01*
X120929Y42685D01*
X120929Y41296D02*
X120929Y44074D01*
X115500Y52325D02*
X115500Y45675D01*
G75*
D01*
G03X115675Y45500I175J0*
G01*
X122325Y45500D01*
G75*
D01*
G03X122500Y45675I0J175*
G01*
X122500Y52325D01*
G74*
D01*
G03X122325Y52500I175J0*
G01*
X115675Y52500D01*
G75*
D01*
G03X115500Y52325I0J-175*
G01*
X315000Y29000D02*
X345000Y29000D01*
X345000Y39000D01*
X315000Y39000D01*
X315000Y29000D01*
X347531Y41294D02*
X347531Y34706D01*
G75*
D01*
G03X347706Y34531I175J0*
G01*
X354294Y34531D01*
G75*
D01*
G03X354469Y34706I0J175*
G01*
X354469Y41294D01*
G74*
D01*
G03X354294Y41469I175J0*
G01*
X347706Y41469D01*
G75*
D01*
G03X347531Y41294I0J-175*
G01*
X352929Y19185D02*
X349357Y19185D01*
X349357Y17796D02*
X349357Y20574D01*
X352929Y21963D02*
X349357Y21963D01*
X349357Y23815D01*
X350071Y24741D01*
X350429Y24741D01*
X351143Y23815D01*
X351143Y21963D01*
X350071Y26593D02*
X349357Y27519D01*
X352929Y27519D01*
X352929Y26130D02*
X352929Y28907D01*
X349357Y32611D02*
X349357Y31222D01*
X350071Y30296D01*
X351500Y30296D01*
X352214Y30296D01*
X352929Y31222D01*
X352929Y32148D01*
X352214Y33074D01*
X351500Y33074D01*
X350786Y32148D01*
X350786Y31222D01*
X351500Y30296D01*
X347531Y41294D02*
X347531Y34706D01*
G75*
D01*
G03X347706Y34531I175J0*
G01*
X354294Y34531D01*
G75*
D01*
G03X354469Y34706I0J175*
G01*
X354469Y41294D01*
G74*
D01*
G03X354294Y41469I175J0*
G01*
X347706Y41469D01*
G75*
D01*
G03X347531Y41294I0J-175*
G01*
X232500Y42325D02*
X232500Y35675D01*
G75*
D01*
G03X232675Y35500I175J0*
G01*
X239325Y35500D01*
G75*
D01*
G03X239500Y35675I0J175*
G01*
X239500Y42325D01*
G74*
D01*
G03X239325Y42500I175J0*
G01*
X232675Y42500D01*
G75*
D01*
G03X232500Y42325I0J-175*
G01*
X230929Y31185D02*
X227357Y31185D01*
X227357Y29796D02*
X227357Y32574D01*
X230929Y33963D02*
X227357Y33963D01*
X227357Y35815D01*
X228071Y36741D01*
X228429Y36741D01*
X229143Y35815D01*
X229143Y33963D01*
X228071Y38593D02*
X227357Y39519D01*
X230929Y39519D01*
X230929Y38130D02*
X230929Y40907D01*
X227357Y45074D02*
X227357Y42296D01*
X228786Y42296D01*
X228786Y44148D01*
X229500Y45074D01*
X230214Y45074D01*
X230929Y44148D01*
X230929Y42296D01*
X232500Y42325D02*
X232500Y35675D01*
G75*
D01*
G03X232675Y35500I175J0*
G01*
X239325Y35500D01*
G75*
D01*
G03X239500Y35675I0J175*
G01*
X239500Y42325D01*
G74*
D01*
G03X239325Y42500I175J0*
G01*
X232675Y42500D01*
G75*
D01*
G03X232500Y42325I0J-175*
G01*
X247500Y52325D02*
X247500Y45675D01*
G75*
D01*
G03X247675Y45500I175J0*
G01*
X254325Y45500D01*
G75*
D01*
G03X254500Y45675I0J175*
G01*
X254500Y52325D01*
G74*
D01*
G03X254325Y52500I175J0*
G01*
X247675Y52500D01*
G75*
D01*
G03X247500Y52325I0J-175*
G01*
X252929Y30185D02*
X249357Y30185D01*
X249357Y28796D02*
X249357Y31574D01*
X252929Y32963D02*
X249357Y32963D01*
X249357Y34815D01*
X250071Y35741D01*
X250429Y35741D01*
X251143Y34815D01*
X251143Y32963D01*
X250071Y37593D02*
X249357Y38519D01*
X252929Y38519D01*
X252929Y37130D02*
X252929Y39907D01*
X249714Y41759D02*
X249357Y42222D01*
X249357Y43148D01*
X250071Y44074D01*
X250786Y44074D01*
X251143Y43611D01*
X251500Y44074D01*
X252214Y44074D01*
X252929Y43148D01*
X252929Y42222D01*
X252571Y41759D01*
X251143Y42222D02*
X251143Y43611D01*
X247500Y52325D02*
X247500Y45675D01*
G75*
D01*
G03X247675Y45500I175J0*
G01*
X254325Y45500D01*
G75*
D01*
G03X254500Y45675I0J175*
G01*
X254500Y52325D01*
G74*
D01*
G03X254325Y52500I175J0*
G01*
X247675Y52500D01*
G75*
D01*
G03X247500Y52325I0J-175*
G01*
X306500Y55325D02*
X306500Y48675D01*
G75*
D01*
G03X306675Y48500I175J0*
G01*
X313325Y48500D01*
G75*
D01*
G03X313500Y48675I0J175*
G01*
X313500Y55325D01*
G74*
D01*
G03X313325Y55500I175J0*
G01*
X306675Y55500D01*
G75*
D01*
G03X306500Y55325I0J-175*
G01*
X306929Y33185D02*
X303357Y33185D01*
X303357Y31796D02*
X303357Y34574D01*
X306929Y35963D02*
X303357Y35963D01*
X303357Y37815D01*
X304071Y38741D01*
X304429Y38741D01*
X305143Y37815D01*
X305143Y35963D01*
X304071Y40593D02*
X303357Y41519D01*
X306929Y41519D01*
X306929Y40130D02*
X306929Y42907D01*
X305500Y47074D02*
X305500Y44296D01*
X303357Y46611D01*
X306929Y46611D01*
X306929Y46148D02*
X306929Y47074D01*
X306500Y55325D02*
X306500Y48675D01*
G75*
D01*
G03X306675Y48500I175J0*
G01*
X313325Y48500D01*
G75*
D01*
G03X313500Y48675I0J175*
G01*
X313500Y55325D01*
G74*
D01*
G03X313325Y55500I175J0*
G01*
X306675Y55500D01*
G75*
D01*
G03X306500Y55325I0J-175*
G01*
X16512Y165556D02*
X17107Y166667D01*
X17107Y167778D01*
X16512Y168889D01*
X14131Y168889D01*
X14726Y171111D02*
X14131Y172222D01*
X17107Y172222D01*
X17107Y170556D02*
X17107Y173889D01*
X19000Y164167D02*
X19000Y128333D01*
X39000Y164167D02*
X39000Y128333D01*
X19000Y167500D02*
X19000Y175000D01*
X39000Y175000D02*
X39000Y167500D01*
X19000Y175000D02*
X39000Y175000D01*
X19000Y165833D02*
X22333Y165833D01*
X21500Y166667D01*
X37333Y165833D02*
X37336Y165761D01*
X37346Y165689D01*
X37362Y165618D01*
X37383Y165548D01*
X37411Y165481D01*
X37445Y165417D01*
X37484Y165355D01*
X37528Y165298D01*
X37577Y165244D01*
X37631Y165195D01*
X37689Y165151D01*
X37750Y165112D01*
X37814Y165078D01*
X37882Y165050D01*
X37951Y165029D01*
X38022Y165013D01*
X38094Y165003D01*
X38167Y165000D01*
X38239Y165003D01*
X38311Y165013D01*
X38382Y165029D01*
X38452Y165050D01*
X38519Y165078D01*
X38583Y165112D01*
X38645Y165151D01*
X38702Y165195D01*
X38756Y165244D01*
X38805Y165298D01*
X38849Y165355D01*
X38888Y165417D01*
X38922Y165481D01*
X38950Y165548D01*
X38971Y165618D01*
X38987Y165689D01*
X38997Y165761D01*
X39000Y165833D01*
X38997Y165906D01*
X38987Y165978D01*
X38971Y166049D01*
X38950Y166118D01*
X38922Y166186D01*
X38888Y166250D01*
X38849Y166311D01*
X38805Y166369D01*
X38756Y166423D01*
X38702Y166472D01*
X38645Y166516D01*
X38583Y166555D01*
X38519Y166589D01*
X38452Y166617D01*
X38382Y166638D01*
X38311Y166654D01*
X38239Y166664D01*
X38167Y166667D01*
X35667Y165000D02*
X35667Y166667D01*
X37333Y165833D02*
X37330Y165906D01*
X37321Y165978D01*
X37305Y166049D01*
X37283Y166118D01*
X37255Y166186D01*
X37222Y166250D01*
X37183Y166311D01*
X37138Y166369D01*
X37089Y166423D01*
X37036Y166472D01*
X36978Y166516D01*
X36917Y166555D01*
X36852Y166589D01*
X36785Y166617D01*
X36716Y166638D01*
X36645Y166654D01*
X36573Y166664D01*
X36500Y166667D01*
X35667Y166667D02*
X36500Y166667D01*
X35667Y126667D02*
X39000Y126667D01*
X38167Y127500D01*
X19833Y126667D02*
X19761Y126664D01*
X19689Y126654D01*
X19618Y126638D01*
X19548Y126617D01*
X19481Y126589D01*
X19417Y126555D01*
X19355Y126516D01*
X19298Y126472D01*
X19244Y126423D01*
X19195Y126369D01*
X19151Y126311D01*
X19112Y126250D01*
X19078Y126186D01*
X19050Y126118D01*
X19029Y126049D01*
X19013Y125978D01*
X19003Y125906D01*
X19000Y125833D01*
X19003Y125761D01*
X19013Y125689D01*
X19029Y125618D01*
X19050Y125548D01*
X19078Y125481D01*
X19112Y125417D01*
X19151Y125355D01*
X19195Y125298D01*
X19244Y125244D01*
X19298Y125195D01*
X19355Y125151D01*
X19417Y125112D01*
X19481Y125078D01*
X19548Y125050D01*
X19618Y125029D01*
X19689Y125013D01*
X19761Y125003D01*
X19833Y125000D01*
X19833Y125000D01*
X21500Y125000D02*
X21573Y125003D01*
X21645Y125013D01*
X21716Y125029D01*
X21785Y125050D01*
X21852Y125078D01*
X21917Y125112D01*
X21978Y125151D01*
X22036Y125195D01*
X22089Y125244D01*
X22138Y125298D01*
X22183Y125355D01*
X22222Y125417D01*
X22255Y125481D01*
X22283Y125548D01*
X22305Y125618D01*
X22321Y125689D01*
X22330Y125761D01*
X22333Y125833D01*
X22330Y125906D01*
X22321Y125978D01*
X22305Y126049D01*
X22283Y126118D01*
X22255Y126186D01*
X22222Y126250D01*
X22183Y126311D01*
X22138Y126369D01*
X22089Y126423D01*
X22036Y126472D01*
X21978Y126516D01*
X21917Y126555D01*
X21852Y126589D01*
X21785Y126617D01*
X21716Y126638D01*
X21645Y126654D01*
X21573Y126664D01*
X21500Y126667D01*
X21427Y126664D01*
X21355Y126654D01*
X21284Y126638D01*
X21215Y126617D01*
X21148Y126589D01*
X21083Y126555D01*
X21022Y126516D01*
X20964Y126472D01*
X20911Y126423D01*
X20862Y126369D01*
X20817Y126311D01*
X20778Y126250D01*
X20745Y126186D01*
X20717Y126118D01*
X20695Y126049D01*
X20679Y125978D01*
X20670Y125906D01*
X20667Y125833D01*
X20670Y125761D01*
X20679Y125689D01*
X20695Y125618D01*
X20717Y125548D01*
X20745Y125481D01*
X20778Y125417D01*
X20817Y125355D01*
X20862Y125298D01*
X20911Y125244D01*
X20964Y125195D01*
X21022Y125151D01*
X21083Y125112D01*
X21148Y125078D01*
X21215Y125050D01*
X21284Y125029D01*
X21355Y125013D01*
X21427Y125003D01*
X21500Y125000D01*
X19000Y105000D02*
X19000Y124167D01*
X39000Y105000D02*
X39000Y123333D01*
X19833Y125000D02*
X21500Y125000D01*
X38167Y124167D02*
X36500Y125833D01*
X38167Y124167D02*
X36500Y124167D01*
X38167Y124167D02*
X38239Y124170D01*
X38311Y124179D01*
X38382Y124195D01*
X38452Y124217D01*
X38519Y124245D01*
X38583Y124278D01*
X38645Y124317D01*
X38702Y124362D01*
X38756Y124411D01*
X38805Y124464D01*
X38849Y124522D01*
X38888Y124583D01*
X38922Y124648D01*
X38950Y124715D01*
X38971Y124784D01*
X38987Y124855D01*
X38997Y124927D01*
X39000Y125000D01*
X38997Y125073D01*
X38987Y125145D01*
X38971Y125216D01*
X38950Y125285D01*
X38922Y125352D01*
X38888Y125417D01*
X38849Y125478D01*
X38805Y125536D01*
X38756Y125589D01*
X38702Y125638D01*
X38645Y125683D01*
X38583Y125722D01*
X38519Y125755D01*
X38452Y125783D01*
X38382Y125805D01*
X38311Y125821D01*
X38239Y125830D01*
X38167Y125833D01*
X36500Y125833D02*
X38167Y125833D01*
X36500Y125833D02*
X36427Y125830D01*
X36355Y125821D01*
X36284Y125805D01*
X36215Y125783D01*
X36148Y125755D01*
X36083Y125722D01*
X36022Y125683D01*
X35964Y125638D01*
X35911Y125589D01*
X35862Y125536D01*
X35817Y125478D01*
X35778Y125417D01*
X35745Y125352D01*
X35717Y125285D01*
X35695Y125216D01*
X35679Y125145D01*
X35670Y125073D01*
X35667Y125000D01*
X35670Y124927D01*
X35679Y124855D01*
X35695Y124784D01*
X35717Y124715D01*
X35745Y124648D01*
X35778Y124583D01*
X35817Y124522D01*
X35862Y124464D01*
X35911Y124411D01*
X35964Y124362D01*
X36022Y124317D01*
X36083Y124278D01*
X36148Y124245D01*
X36215Y124217D01*
X36284Y124195D01*
X36355Y124179D01*
X36427Y124170D01*
X36500Y124167D01*
X39000Y105000D02*
X19000Y105000D01*
X391591Y197701D02*
X340409Y197701D01*
X340409Y160299D01*
X391591Y160299D01*
X391591Y197701D01*
X63000Y74000D02*
X63000Y54000D01*
X73000Y54000D01*
X73000Y74000D01*
X63000Y74000D01*
X73000Y98000D02*
X73000Y118000D01*
X63000Y118000D01*
X63000Y98000D01*
X73000Y98000D01*
X193000Y74000D02*
X193000Y54000D01*
X203000Y54000D01*
X203000Y74000D01*
X193000Y74000D01*
X203000Y98000D02*
X203000Y118000D01*
X193000Y118000D01*
X193000Y98000D01*
X203000Y98000D01*
X233299Y273591D02*
X233299Y222409D01*
X270701Y222409D01*
X270701Y273591D01*
X233299Y273591D01*
G54D14*
X106857Y232911D02*
X102571Y232911D01*
X99714Y234333D01*
X99714Y235756D01*
X102571Y237178D01*
X106857Y237178D01*
X104714Y232911D02*
X104714Y237178D01*
X101143Y239311D02*
X106857Y243578D01*
X101143Y243578D02*
X106857Y239311D01*
X104000Y239311D02*
X104000Y243578D01*
X101143Y241444D02*
X106857Y241444D01*
G54D15*
G36*
X362000Y49000D02*
X362000Y98000D01*
X377000Y98000D01*
X377000Y49000D01*
X362000Y49000D01*
G37*
G54D16*
X148835Y162000D02*
X153165Y162000D01*
X148835Y162000D02*
X153165Y162000D01*
X137835Y162000D02*
X142165Y162000D01*
X137835Y162000D02*
X142165Y162000D01*
X159835Y162000D02*
X164165Y162000D01*
X159835Y162000D02*
X164165Y162000D01*
X169835Y162000D02*
X174165Y162000D01*
X169835Y162000D02*
X174165Y162000D01*
X239835Y162000D02*
X244165Y162000D01*
X239835Y162000D02*
X244165Y162000D01*
X249835Y162000D02*
X254165Y162000D01*
X249835Y162000D02*
X254165Y162000D01*
X259835Y162000D02*
X264165Y162000D01*
X259835Y162000D02*
X264165Y162000D01*
X146000Y48165D02*
X146000Y43835D01*
X146000Y48165D02*
X146000Y43835D01*
X278000Y48165D02*
X278000Y43835D01*
X278000Y48165D02*
X278000Y43835D01*
X100795Y66520D02*
X100795Y62189D01*
X75205Y62189D01*
X75205Y66520D01*
X232795Y66520D02*
X232795Y62189D01*
X207205Y62189D01*
X207205Y66520D01*
X107835Y162000D02*
X112165Y162000D01*
X107835Y162000D02*
X112165Y162000D01*
X117835Y162000D02*
X122165Y162000D01*
X117835Y162000D02*
X122165Y162000D01*
X127835Y162000D02*
X132165Y162000D01*
X127835Y162000D02*
X132165Y162000D01*
X269835Y162000D02*
X274165Y162000D01*
X269835Y162000D02*
X274165Y162000D01*
X279835Y162000D02*
X284165Y162000D01*
X279835Y162000D02*
X284165Y162000D01*
X291835Y162000D02*
X296165Y162000D01*
X291835Y162000D02*
X296165Y162000D01*
X301835Y162000D02*
X306165Y162000D01*
X301835Y162000D02*
X306165Y162000D01*
X311835Y162000D02*
X316165Y162000D01*
X311835Y162000D02*
X316165Y162000D01*
X179835Y162000D02*
X184165Y162000D01*
X179835Y162000D02*
X184165Y162000D01*
G54D17*
X151756Y31179D02*
X152822Y32071D01*
X151756Y32964D01*
X152244Y38821D02*
X151178Y37929D01*
X152244Y37036D01*
X283756Y31179D02*
X284822Y32071D01*
X283756Y32964D01*
X284244Y38821D02*
X283178Y37929D01*
X284244Y37036D01*
G54D18*
X169000Y97000D02*
X169000Y119000D01*
X127000Y119000D01*
X127000Y97000D01*
X169000Y97000D01*
X145000Y95000D02*
X145000Y73000D01*
X119000Y73000D01*
X119000Y95000D01*
X145000Y95000D01*
X151000Y95000D02*
X177000Y95000D01*
X177000Y73000D02*
X151000Y73000D01*
X151000Y95000D01*
X177000Y95000D02*
X177000Y73000D01*
X301000Y97000D02*
X301000Y119000D01*
X259000Y119000D01*
X259000Y97000D01*
X301000Y97000D01*
X277000Y95000D02*
X277000Y73000D01*
X251000Y73000D01*
X251000Y95000D01*
X277000Y95000D01*
X283000Y95000D02*
X309000Y95000D01*
X309000Y73000D02*
X283000Y73000D01*
X283000Y95000D01*
X309000Y95000D02*
X309000Y73000D01*
G54D19*
X334357Y107756D02*
X337929Y108822D01*
X334357Y109889D01*
X337929Y110956D02*
X334357Y110956D01*
X336143Y112022D01*
X334357Y113089D01*
X337929Y113089D01*
X337929Y114156D02*
X334357Y114156D01*
X336143Y115222D01*
X334357Y116289D01*
X337929Y116289D01*
X334357Y136706D02*
X337929Y137772D01*
X334357Y138839D01*
X337929Y139906D02*
X337929Y141328D01*
X337214Y142039D01*
X336857Y142039D01*
X336143Y141328D01*
X335429Y142039D01*
X335071Y142039D01*
X334357Y141328D01*
X334357Y140261D01*
X334357Y139906D01*
X336143Y140261D02*
X336143Y141328D01*
X334357Y140261D02*
X337929Y140261D01*
X337929Y143106D02*
X335786Y143106D01*
X334357Y143817D01*
X334357Y144528D01*
X335786Y145239D01*
X337929Y145239D01*
X336857Y143106D02*
X336857Y145239D01*
X337929Y147372D02*
X334357Y147372D01*
X334357Y146306D02*
X334357Y148439D01*
X19357Y191756D02*
X22929Y192822D01*
X19357Y193889D01*
X22214Y197089D02*
X22929Y196378D01*
X22929Y195667D01*
X22214Y194956D01*
X20071Y194956D01*
X19357Y195667D01*
X19357Y196378D01*
X20071Y197089D01*
X22214Y200289D02*
X22929Y199578D01*
X22929Y198867D01*
X22214Y198156D01*
X20071Y198156D01*
X19357Y198867D01*
X19357Y199578D01*
X20071Y200289D01*
X15143Y182178D02*
X15143Y182889D01*
X16214Y182889D01*
X16929Y182178D01*
X16929Y181467D01*
X16214Y180756D01*
X14071Y180756D01*
X13357Y181467D01*
X13357Y182889D01*
X16929Y183956D02*
X13357Y183956D01*
X16929Y186089D01*
X13357Y186089D01*
X16929Y187156D02*
X16929Y188578D01*
X16214Y189289D01*
X14071Y189289D01*
X13357Y188578D01*
X13357Y187156D01*
X13357Y187511D02*
X16929Y187511D01*
G54D20*
X326143Y84729D02*
X327286Y85867D01*
X327286Y87004D01*
X326143Y88142D01*
X322714Y84729D01*
X321571Y85867D01*
X321571Y87004D01*
X322714Y88142D01*
X321571Y89849D02*
X327286Y90418D01*
X325000Y91556D01*
X327286Y92693D01*
X321571Y93262D01*
X327286Y94969D02*
X323857Y94969D01*
X321571Y96107D01*
X321571Y97244D01*
X323857Y98382D01*
X327286Y98382D01*
X325571Y94969D02*
X325571Y98382D01*
X327286Y100089D02*
X321571Y100089D01*
X321571Y102364D01*
X322714Y103502D01*
X323286Y103502D01*
X324429Y102364D01*
X324429Y100089D01*
X324429Y100658D02*
X327286Y103502D01*
X327286Y105209D02*
X321571Y105209D01*
X324429Y106916D01*
X321571Y108622D01*
X327286Y108622D01*
X327286Y111467D02*
X327286Y112604D01*
X321571Y111467D02*
X321571Y112604D01*
X327286Y112036D02*
X321571Y112036D01*
X327286Y118862D02*
X327286Y115449D01*
X324429Y115449D01*
X321571Y115449D01*
X321571Y118862D01*
X324429Y115449D02*
X324429Y117724D01*
G54D21*
G36*
X67260Y55813D02*
X67260Y55813D01*
X67260Y55326D01*
X68740Y55326D01*
X67260Y55813D01*
D02*
G37*
X67260Y55326D01*
X68740Y55326D01*
X67260Y55813D01*
G36*
X67260Y55813D01*
X68740Y55326D01*
X68740Y55813D01*
X67260Y55813D01*
D02*
G37*
X68740Y55326D01*
X68740Y55813D01*
X67260Y55813D01*
G36*
X67774Y65357D02*
X67774Y65357D01*
X68226Y62746D01*
X68226Y65357D01*
X67774Y65357D01*
D02*
G37*
X68226Y62746D01*
X68226Y65357D01*
X67774Y65357D01*
G36*
X68226Y62746D02*
X68226Y62746D01*
X67774Y65357D01*
X67774Y64278D01*
X68226Y62746D01*
D02*
G37*
X67774Y65357D01*
X67774Y64278D01*
X68226Y62746D01*
G36*
X67774Y64278D02*
X67774Y64278D01*
X67774Y63825D01*
X68226Y62746D01*
X67774Y64278D01*
D02*
G37*
X67774Y63825D01*
X68226Y62746D01*
X67774Y64278D01*
G36*
X67774Y63825D02*
X67774Y63825D01*
X67774Y64278D01*
X66695Y64278D01*
X67774Y63825D01*
D02*
G37*
X67774Y64278D01*
X66695Y64278D01*
X67774Y63825D01*
G36*
X66695Y64278D02*
X66695Y64278D01*
X66695Y63825D01*
X67774Y63825D01*
X66695Y64278D01*
D02*
G37*
X66695Y63825D01*
X67774Y63825D01*
X66695Y64278D01*
G36*
X68226Y63825D02*
X68226Y63825D01*
X69305Y63825D01*
X68226Y64278D01*
X68226Y63825D01*
D02*
G37*
X69305Y63825D01*
X68226Y64278D01*
X68226Y63825D01*
G36*
X68226Y63825D01*
X68226Y65357D01*
X68226Y63825D01*
D02*
G37*
X68226Y65357D01*
X68226Y63825D01*
G36*
X68226Y63825D01*
X68226Y65357D01*
X68226Y62746D01*
X68226Y63825D01*
D02*
G37*
X68226Y65357D01*
X68226Y62746D01*
X68226Y63825D01*
G36*
X68226Y64278D02*
X68226Y64278D01*
X69305Y63825D01*
X69305Y64278D01*
X68226Y64278D01*
D02*
G37*
X69305Y63825D01*
X69305Y64278D01*
X68226Y64278D01*
G36*
X68226Y62746D02*
X68226Y62746D01*
X67774Y63825D01*
X67774Y62746D01*
X68226Y62746D01*
D02*
G37*
X67774Y63825D01*
X67774Y62746D01*
X68226Y62746D01*
G36*
X68740Y116187D02*
X68740Y116187D01*
X68740Y116674D01*
X67260Y116674D01*
X68740Y116187D01*
D02*
G37*
X68740Y116674D01*
X67260Y116674D01*
X68740Y116187D01*
G36*
X68740Y116187D01*
X67260Y116674D01*
X67260Y116187D01*
X68740Y116187D01*
D02*
G37*
X67260Y116674D01*
X67260Y116187D01*
X68740Y116187D01*
G36*
X67774Y109254D02*
X67774Y109254D01*
X68226Y106643D01*
X68226Y109254D01*
X67774Y109254D01*
D02*
G37*
X68226Y106643D01*
X68226Y109254D01*
X67774Y109254D01*
G36*
X68226Y106643D02*
X68226Y106643D01*
X67774Y109254D01*
X67774Y108175D01*
X68226Y106643D01*
D02*
G37*
X67774Y109254D01*
X67774Y108175D01*
X68226Y106643D01*
G36*
X67774Y108175D02*
X67774Y108175D01*
X67774Y107722D01*
X68226Y106643D01*
X67774Y108175D01*
D02*
G37*
X67774Y107722D01*
X68226Y106643D01*
X67774Y108175D01*
G36*
X67774Y107722D02*
X67774Y107722D01*
X67774Y108175D01*
X66695Y108175D01*
X67774Y107722D01*
D02*
G37*
X67774Y108175D01*
X66695Y108175D01*
X67774Y107722D01*
G36*
X66695Y108175D02*
X66695Y108175D01*
X66695Y107722D01*
X67774Y107722D01*
X66695Y108175D01*
D02*
G37*
X66695Y107722D01*
X67774Y107722D01*
X66695Y108175D01*
G36*
X68226Y107722D02*
X68226Y107722D01*
X69305Y107722D01*
X68226Y108175D01*
X68226Y107722D01*
D02*
G37*
X69305Y107722D01*
X68226Y108175D01*
X68226Y107722D01*
G36*
X68226Y107722D01*
X68226Y109254D01*
X68226Y107722D01*
D02*
G37*
X68226Y109254D01*
X68226Y107722D01*
G36*
X68226Y107722D01*
X68226Y109254D01*
X68226Y106643D01*
X68226Y107722D01*
D02*
G37*
X68226Y109254D01*
X68226Y106643D01*
X68226Y107722D01*
G36*
X68226Y108175D02*
X68226Y108175D01*
X69305Y107722D01*
X69305Y108175D01*
X68226Y108175D01*
D02*
G37*
X69305Y107722D01*
X69305Y108175D01*
X68226Y108175D01*
G36*
X68226Y106643D02*
X68226Y106643D01*
X67774Y107722D01*
X67774Y106643D01*
X68226Y106643D01*
D02*
G37*
X67774Y107722D01*
X67774Y106643D01*
X68226Y106643D01*
G36*
X197774Y65357D02*
X197774Y65357D01*
X198226Y62746D01*
X198226Y65357D01*
X197774Y65357D01*
D02*
G37*
X198226Y62746D01*
X198226Y65357D01*
X197774Y65357D01*
G36*
X198226Y62746D02*
X198226Y62746D01*
X197774Y65357D01*
X197774Y64278D01*
X198226Y62746D01*
D02*
G37*
X197774Y65357D01*
X197774Y64278D01*
X198226Y62746D01*
G36*
X197774Y64278D02*
X197774Y64278D01*
X197774Y63825D01*
X198226Y62746D01*
X197774Y64278D01*
D02*
G37*
X197774Y63825D01*
X198226Y62746D01*
X197774Y64278D01*
G36*
X197774Y63825D02*
X197774Y63825D01*
X197774Y64278D01*
X196695Y64278D01*
X197774Y63825D01*
D02*
G37*
X197774Y64278D01*
X196695Y64278D01*
X197774Y63825D01*
G36*
X196695Y64278D02*
X196695Y64278D01*
X196695Y63825D01*
X197774Y63825D01*
X196695Y64278D01*
D02*
G37*
X196695Y63825D01*
X197774Y63825D01*
X196695Y64278D01*
G36*
X198226Y63825D02*
X198226Y63825D01*
X199305Y63825D01*
X198226Y64278D01*
X198226Y63825D01*
D02*
G37*
X199305Y63825D01*
X198226Y64278D01*
X198226Y63825D01*
G36*
X198226Y63825D01*
X198226Y65357D01*
X198226Y63825D01*
D02*
G37*
X198226Y65357D01*
X198226Y63825D01*
G36*
X198226Y63825D01*
X198226Y65357D01*
X198226Y62746D01*
X198226Y63825D01*
D02*
G37*
X198226Y65357D01*
X198226Y62746D01*
X198226Y63825D01*
G36*
X198226Y64278D02*
X198226Y64278D01*
X199305Y63825D01*
X199305Y64278D01*
X198226Y64278D01*
D02*
G37*
X199305Y63825D01*
X199305Y64278D01*
X198226Y64278D01*
G36*
X198226Y62746D02*
X198226Y62746D01*
X197774Y63825D01*
X197774Y62746D01*
X198226Y62746D01*
D02*
G37*
X197774Y63825D01*
X197774Y62746D01*
X198226Y62746D01*
G36*
X197260Y55813D02*
X197260Y55813D01*
X197260Y55326D01*
X198740Y55326D01*
X197260Y55813D01*
D02*
G37*
X197260Y55326D01*
X198740Y55326D01*
X197260Y55813D01*
G36*
X197260Y55813D01*
X198740Y55326D01*
X198740Y55813D01*
X197260Y55813D01*
D02*
G37*
X198740Y55326D01*
X198740Y55813D01*
X197260Y55813D01*
G36*
X198740Y116187D02*
X198740Y116187D01*
X198740Y116674D01*
X197260Y116674D01*
X198740Y116187D01*
D02*
G37*
X198740Y116674D01*
X197260Y116674D01*
X198740Y116187D01*
G36*
X198740Y116187D01*
X197260Y116674D01*
X197260Y116187D01*
X198740Y116187D01*
D02*
G37*
X197260Y116674D01*
X197260Y116187D01*
X198740Y116187D01*
G36*
X197774Y109254D02*
X197774Y109254D01*
X198226Y106643D01*
X198226Y109254D01*
X197774Y109254D01*
D02*
G37*
X198226Y106643D01*
X198226Y109254D01*
X197774Y109254D01*
G36*
X198226Y106643D02*
X198226Y106643D01*
X197774Y109254D01*
X197774Y108175D01*
X198226Y106643D01*
D02*
G37*
X197774Y109254D01*
X197774Y108175D01*
X198226Y106643D01*
G36*
X197774Y108175D02*
X197774Y108175D01*
X197774Y107722D01*
X198226Y106643D01*
X197774Y108175D01*
D02*
G37*
X197774Y107722D01*
X198226Y106643D01*
X197774Y108175D01*
G36*
X197774Y107722D02*
X197774Y107722D01*
X197774Y108175D01*
X196695Y108175D01*
X197774Y107722D01*
D02*
G37*
X197774Y108175D01*
X196695Y108175D01*
X197774Y107722D01*
G36*
X196695Y108175D02*
X196695Y108175D01*
X196695Y107722D01*
X197774Y107722D01*
X196695Y108175D01*
D02*
G37*
X196695Y107722D01*
X197774Y107722D01*
X196695Y108175D01*
G36*
X198226Y107722D02*
X198226Y107722D01*
X199305Y107722D01*
X198226Y108175D01*
X198226Y107722D01*
D02*
G37*
X199305Y107722D01*
X198226Y108175D01*
X198226Y107722D01*
G36*
X198226Y107722D01*
X198226Y109254D01*
X198226Y107722D01*
D02*
G37*
X198226Y109254D01*
X198226Y107722D01*
G36*
X198226Y107722D01*
X198226Y109254D01*
X198226Y106643D01*
X198226Y107722D01*
D02*
G37*
X198226Y109254D01*
X198226Y106643D01*
X198226Y107722D01*
G36*
X198226Y108175D02*
X198226Y108175D01*
X199305Y107722D01*
X199305Y108175D01*
X198226Y108175D01*
D02*
G37*
X199305Y107722D01*
X199305Y108175D01*
X198226Y108175D01*
G36*
X198226Y106643D02*
X198226Y106643D01*
X197774Y107722D01*
X197774Y106643D01*
X198226Y106643D01*
D02*
G37*
X197774Y107722D01*
X197774Y106643D01*
X198226Y106643D01*
G54D22*
X-1500Y-1500D02*
X-1500Y26800D01*
X-1500Y-1500D02*
X38800Y-1500D01*
X401500Y-1500D02*
X361200Y-1500D01*
X401500Y-1500D02*
X401500Y26800D01*
X401500Y281500D02*
X401500Y253200D01*
X401500Y281500D02*
X361200Y281500D01*
X-1500Y281500D02*
X38800Y281500D01*
X-1500Y281500D02*
X-1500Y253200D01*
X-21185Y-1500D02*
X-60555Y-1500D01*
X-40870Y-21185D02*
X-40870Y18185D01*
X-55634Y-1500D02*
G75*
D01*
G02X-55634Y-1500I14764J0*
G01*
X421185Y-1500D02*
X460555Y-1500D01*
X440870Y-21185D02*
X440870Y18185D01*
X426106Y-1500D02*
G75*
D01*
G02X426106Y-1500I14764J0*
G01*
X435949Y-1500D02*
G75*
D01*
G02X435949Y-1500I4921J0*
G01*
X-21185Y281500D02*
X-60555Y281500D01*
X-40870Y261815D02*
X-40870Y301185D01*
X-55634Y281500D02*
G75*
D01*
G02X-55634Y281500I14764J0*
G01*
X-50713Y281500D02*
G75*
D01*
G02X-50713Y281500I9843J0*
G01*
X-45791Y281500D02*
G75*
D01*
G02X-45791Y281500I4921J0*
G01*
G54D23*
X74772Y52524D03*
X206772Y52524D03*

M02*
