G04 Generated by Ultiboard 13.0 *
%FSLAX25Y25*%
%MOIN*%

%ADD10C,0.00001*%
%ADD11C,0.00612*%
%ADD12C,0.00787*%
%ADD13C,0.00500*%


G04 ColorRGB FF14FF for the following layer *
%LNSilkscreen Bottom*%
%LPD*%
G54D10*
G54D11*
X147331Y178608D02*
X143394Y178608D01*
X143394Y177040D01*
X144181Y176256D01*
X144575Y176256D01*
X145362Y177040D01*
X145362Y178608D01*
X145362Y178216D02*
X147331Y176256D01*
X144181Y174689D02*
X143394Y173905D01*
X147331Y173905D01*
X147331Y175080D02*
X147331Y172729D01*
X144181Y171553D02*
X143394Y170769D01*
X143394Y169985D01*
X144181Y169201D01*
X146543Y169201D01*
X147331Y169985D01*
X147331Y170769D01*
X146543Y171553D01*
X144181Y171553D01*
X144181Y169201D02*
X146543Y171553D01*
X158331Y177608D02*
X154394Y177608D01*
X154394Y176040D01*
X155181Y175256D01*
X155575Y175256D01*
X156362Y176040D01*
X156362Y177608D01*
X156362Y177216D02*
X158331Y175256D01*
X158331Y172513D02*
X158331Y173297D01*
X157543Y174080D01*
X156756Y174080D01*
X156362Y173689D01*
X155969Y174080D01*
X155181Y174080D01*
X154394Y173297D01*
X154394Y172513D01*
X155181Y171729D01*
X155969Y171729D01*
X156362Y172121D01*
X156756Y171729D01*
X157543Y171729D01*
X158331Y172513D01*
X156362Y173689D02*
X156362Y172121D01*
X261457Y157744D02*
X260669Y156960D01*
X260669Y156176D01*
X261457Y155392D01*
X263819Y155392D01*
X264606Y156176D01*
X264606Y156960D01*
X263819Y157744D01*
X260669Y160095D02*
X262638Y160095D01*
X263819Y161271D01*
X264606Y161271D01*
X264606Y158920D01*
X263819Y158920D01*
X131543Y181256D02*
X132331Y182040D01*
X132331Y182824D01*
X131543Y183608D01*
X129181Y183608D01*
X128394Y182824D01*
X128394Y182040D01*
X129181Y181256D01*
X130756Y177729D02*
X130756Y180080D01*
X128394Y178121D01*
X132331Y178121D01*
X132331Y178513D02*
X132331Y177729D01*
X278331Y178608D02*
X274394Y178608D01*
X274394Y177040D01*
X275181Y176256D01*
X275575Y176256D01*
X276362Y177040D01*
X276362Y178608D01*
X276362Y178216D02*
X278331Y176256D01*
X275181Y175080D02*
X274394Y174297D01*
X274394Y173513D01*
X275181Y172729D01*
X275575Y172729D01*
X278331Y175080D01*
X278331Y172729D01*
X277937Y172729D01*
X275181Y171161D02*
X274394Y170377D01*
X278331Y170377D01*
X278331Y171553D02*
X278331Y169201D01*
X289331Y178608D02*
X285394Y178608D01*
X285394Y177040D01*
X286181Y176256D01*
X286575Y176256D01*
X287362Y177040D01*
X287362Y178608D01*
X287362Y178216D02*
X289331Y176256D01*
X286181Y174689D02*
X285394Y173905D01*
X289331Y173905D01*
X289331Y175080D02*
X289331Y172729D01*
X288543Y171553D02*
X289331Y170769D01*
X289331Y169985D01*
X288543Y169201D01*
X286969Y169201D01*
X286181Y169201D01*
X285394Y169985D01*
X285394Y170769D01*
X286181Y171553D01*
X286969Y171553D01*
X287756Y170769D01*
X287756Y169985D01*
X286969Y169201D01*
G54D12*
X137835Y162000D02*
X142165Y162000D01*
X137835Y162000D02*
X142165Y162000D01*
X153665Y162000D02*
X149335Y162000D01*
X153665Y162000D02*
X149335Y162000D01*
X269835Y162000D02*
X274165Y162000D01*
X269835Y162000D02*
X274165Y162000D01*
X284165Y162000D02*
X279835Y162000D01*
X284165Y162000D02*
X279835Y162000D01*
G54D13*
X-1500Y-1500D02*
X-1500Y26800D01*
X-1500Y-1500D02*
X38800Y-1500D01*
X401500Y-1500D02*
X361200Y-1500D01*
X401500Y-1500D02*
X401500Y26800D01*
X401500Y281500D02*
X401500Y253200D01*
X401500Y281500D02*
X361200Y281500D01*
X-1500Y281500D02*
X38800Y281500D01*
X-1500Y281500D02*
X-1500Y253200D01*
X-21185Y-1500D02*
X-60555Y-1500D01*
X-40870Y-21185D02*
X-40870Y18185D01*
X-55634Y-1500D02*
G75*
D01*
G02X-55634Y-1500I14764J0*
G01*
X421185Y-1500D02*
X460555Y-1500D01*
X440870Y-21185D02*
X440870Y18185D01*
X426106Y-1500D02*
G75*
D01*
G02X426106Y-1500I14764J0*
G01*
X435949Y-1500D02*
G75*
D01*
G02X435949Y-1500I4921J0*
G01*
X-21185Y281500D02*
X-60555Y281500D01*
X-40870Y261815D02*
X-40870Y301185D01*
X-55634Y281500D02*
G75*
D01*
G02X-55634Y281500I14764J0*
G01*
X-50713Y281500D02*
G75*
D01*
G02X-50713Y281500I9843J0*
G01*
X-45791Y281500D02*
G75*
D01*
G02X-45791Y281500I4921J0*
G01*

M02*
