M48
INCH,TZ
VER,1
FMAT,2
DETECT,ON
ATC,ON
T1C0.04000
T2C0.02362
T3C0.03500
T4C0.03917
T5C0.03937
T6C0.05906
T7C0.06693
T8C0.03150
T9C0.09300
T10C0.05118
T11C0.00700
T12C0.07874
%
T1
X0.42000Y2.08000
X0.52000
X0.62000
X0.72000
X0.82000
X0.92000
X1.02000
X1.12000
X1.22000
X1.32000
X1.42000
X1.52000
X1.62000
X1.72000
X1.82000
X1.92000
X2.02000
X0.22000Y2.68000
X0.32000
X0.42000
X0.52000
X0.62000
X0.72000
X0.82000
X0.92000
X1.02000
X1.12000
X1.22000
X1.32000
X1.42000
X1.52000
X1.62000
X1.72000
X1.82000
X0.42000Y1.95000
X0.28000
X0.74000Y0.26000
X0.66000Y0.17000
X2.13000Y0.26000
X2.06000Y0.16000
X1.75000Y0.44000
X1.21000Y0.37000
X2.53000
X3.08000Y0.44000
X2.36000Y0.39000
T2
X1.04000Y0.38000
X1.10000Y0.45000
X1.28000Y0.49000
X1.34000
X1.63000
X1.69000
X2.42000Y0.46000
X2.60000Y0.49000
X2.66000
X2.95000
X3.01000
X0.85000Y0.56000
X0.91000
X1.04000Y0.52000
X1.25000Y0.54000
X1.30000
X1.36000
X1.60000
X1.65000
X1.70000
X2.17000Y0.56000
X2.23000
X2.36000Y0.53000
X2.57000Y0.54000
X2.62000
X2.67000
X2.92000
X2.97000
X3.02000
X1.10000Y0.59000
X2.42000Y0.60000
X1.03000Y0.67000
X1.25000Y0.68000
X1.30000
X1.36000
X1.61000
X1.66000
X1.71000
X2.35000Y0.67000
X2.58000Y0.68000
X2.63000
X2.68000
X2.93000
X2.98000
X3.03000
X1.03000Y0.81000
X1.10000Y0.74000
X2.35000Y0.81000
X2.42000Y0.74000
X1.10000Y0.88000
X2.42000
X1.03000Y0.95000
X2.35000
X1.10000Y1.02000
X2.42000
X1.10000Y1.23000
X2.42000
X1.03000Y1.30000
X2.35000
X1.03000Y1.37000
X1.10000
X1.33000Y1.39000
X2.42000Y1.37000
X2.65000Y1.38000
X2.68000Y1.44000
X1.36000Y1.45000
X1.47000Y1.51000
X2.16000Y1.45000
X2.78000Y1.51000
X1.40000Y1.74000
X1.51000
X2.72000Y1.73000
X2.82000
X1.10000Y1.97000
X0.82000Y2.33000
X1.11000
X2.08000Y2.15000
X1.87000
X2.35000Y1.37000
X3.19000Y0.47000
X3.28000Y0.55000
X3.19000Y0.64000
X3.28000Y0.72000
X2.91000Y0.23000
X2.99000
X3.07000
X2.95000Y0.16000
X2.91000Y0.10000
X2.99000
X3.07000
X3.10000Y0.68000
X3.12000Y0.83000
X3.10000Y1.05000
Y1.13000
Y1.22000
X2.89000Y0.44000
X2.85000Y0.53000
Y0.68000
X2.42000Y1.12000
Y0.32000
X2.25000Y0.35000
X2.31000Y0.46000
X1.10000Y0.32000
X0.99000Y0.45000
X0.92000Y0.36000
X1.10000Y1.12000
X0.96000Y1.23000
X2.28000
X0.94000Y1.02000
X0.85000
X2.29000
X2.18000
X2.51000Y1.15000
Y1.07000
X2.50000Y0.99000
X2.75000Y0.68000
Y0.53000
X1.77000Y1.23000
Y1.14000
Y1.06000
X1.56000Y0.45000
X1.80000Y0.84000
X1.53000Y0.69000
Y0.53000
X1.78000Y0.69000
X1.18000Y1.15000
Y1.07000
Y0.99000
X1.43000Y0.69000
Y0.53000
X1.74000Y0.91000
X1.60000Y0.76000
X1.70000
X1.74000Y0.81000
X1.65000Y0.91000
X1.55000
X1.60000Y0.86000
X1.69000
X1.55000Y0.81000
X1.65000
X1.27000Y0.76000
X1.22000Y0.81000
X1.32000
X1.37000Y0.76000
X1.41000Y0.81000
X1.27000Y0.86000
X1.36000
X1.22000Y0.91000
X1.32000
X1.41000
X2.59000Y0.76000
X2.54000Y0.81000
X2.64000
X2.69000Y0.76000
X2.73000Y0.81000
X2.59000Y0.86000
X2.68000
X2.54000Y0.91000
X2.64000
X2.73000
X2.91000Y0.76000
X2.86000Y0.81000
X2.96000
X3.01000Y0.76000
X3.05000Y0.81000
X2.91000Y0.86000
X3.00000
X2.86000Y0.91000
X2.96000
X3.05000
X2.68000Y1.01000
X2.63000Y1.06000
X2.73000
X2.78000Y1.01000
X2.82000Y1.06000
X2.68000Y1.11000
X2.77000
X2.63000Y1.16000
X2.73000
X2.82000
X1.36000Y1.01000
X1.31000Y1.06000
X1.41000
X1.46000Y1.01000
X1.50000Y1.06000
X1.36000Y1.11000
X1.45000
X1.31000Y1.16000
X1.41000
X1.50000
X1.56000Y1.01000
X1.60000Y1.06000
X1.55000Y1.11000
X1.60000Y1.16000
X1.66000Y1.11000
Y1.01000
X2.88000
X2.98000
X2.92000Y1.06000
X2.87000Y1.11000
X2.98000
X2.92000Y1.16000
X1.57000Y0.09000
X1.61000Y0.15000
X1.65000Y0.09000
X1.69000Y0.15000
X1.73000Y0.09000
X1.57000Y0.22000
X1.65000
X1.73000
X2.42000Y2.17000
X2.63000
X3.34000Y1.88000
Y1.70000
X3.44000Y1.01000
X3.55000
X3.67000
X3.79000
X1.34000Y0.16000
X2.66000
X1.42000
X2.74000
X0.74000Y1.45000
X3.57000Y0.58000
X3.45000
X3.57000Y0.48000
X3.45000
X3.01000Y2.17000
X3.23000
X3.03000Y0.16000
X0.28000Y2.18000
X0.23000Y2.13000
T3
X1.68000Y1.76000
X1.56000Y1.90000
X2.52000Y1.76000
X0.24000Y0.66000
X0.34000
X0.24000Y0.78000
X0.34000
X0.24000Y0.90000
X0.34000
X0.24000Y0.54000
X0.34000
X1.20000Y1.76000
X3.00000
X2.88000Y1.90000
X1.38000Y0.22000
X1.28000
X1.08000
X1.18000
X0.98000
X1.38000Y0.10000
X1.28000
X1.08000
X1.18000
X0.98000
X2.70000Y0.22000
X2.60000
X2.40000
X2.50000
X2.30000
X2.70000Y0.10000
X2.60000
X2.40000
X2.50000
X2.30000
X3.34000Y0.14000
X3.54000
T4
X0.14000Y0.66000
Y0.78000
Y0.90000
Y0.54000
X1.48000Y0.22000
Y0.10000
X2.80000Y0.22000
X2.80000Y0.10000
T5
X3.20000Y0.34000
X3.40000
X0.34000Y1.60000
X0.24000
X0.34000Y1.70000
X0.24000
X0.34000Y1.30000
X0.24000
X0.34000Y1.40000
X0.24000
X0.34000Y1.50000
X0.24000
X0.34000Y1.10000
X0.24000
X0.34000Y1.20000
X0.24000
X0.68000Y0.59000
Y0.69000
Y1.13000
Y1.03000
X1.98000Y0.59000
Y0.69000
Y1.13000
Y1.03000
X3.51000Y0.38000
T6
X3.42378Y1.79000
X2.52000Y2.24378
X3.12000
T7
X3.78795Y1.79000
X2.52000Y2.60795
X3.12000
T8
X3.66000Y1.83331G85X3.66000Y1.74669
X3.70331Y1.97701G85X3.65606Y1.97701
X3.51827Y1.60299G85X3.47102Y1.60299
X3.51827Y1.97701G85X3.47102Y1.97701
X3.70331Y1.60299G85X3.65606Y1.60299
X2.33299Y2.52331G85X2.33299Y2.47606
X2.70701Y2.33827G85X2.70701Y2.29102
X2.33299Y2.33827G85X2.33299Y2.29102
X2.70701Y2.52331G85X2.70701Y2.47606
X2.47669Y2.48000G85X2.56331Y2.48000
X2.93299Y2.52331G85X2.93299Y2.47606
X3.30701Y2.33827G85X3.30701Y2.29102
X2.93299Y2.33827G85X2.93299Y2.29102
X3.30701Y2.52331G85X3.30701Y2.47606
X3.07669Y2.48000G85X3.16331Y2.48000
T9
X3.75000Y0.25000
X0.25000
X3.75000Y2.55000
X0.60000Y1.80000
T10
X3.68000Y1.36000
Y1.16000
T11
X0.90000Y1.59000
X1.82000Y2.00000
X1.72000
X1.62000
X1.52000
X1.42000
T12
X3.46000Y1.14000
Y1.37000
M30
